<mxfile host="app.diagrams.net" agent="Mozilla/5.0 (Macintosh; Intel Mac OS X 10_15_7) AppleWebKit/537.36 (KHTML, like Gecko) Chrome/135.0.0.0 Safari/537.36 OPR/120.0.0.0" version="28.0.9">
  <diagram name="Page-1" id="C3m8uaLBS9_Xs7GW72N8">
    <mxGraphModel dx="5245" dy="3398" grid="1" gridSize="10" guides="1" tooltips="1" connect="1" arrows="1" fold="1" page="1" pageScale="1" pageWidth="850" pageHeight="1400" math="0" shadow="0">
      <root>
        <mxCell id="0" />
        <mxCell id="1" parent="0" />
        <mxCell id="uKcc-DHFw9mOzUkUJydF-1" value="&lt;p style=&quot;text-align: justify; margin: 0px; font-variant-numeric: normal; font-variant-east-asian: normal; font-variant-alternates: normal; font-size-adjust: none; font-kerning: auto; font-optical-sizing: auto; font-feature-settings: normal; font-variation-settings: normal; font-variant-position: normal; font-variant-emoji: normal; font-stretch: normal; line-height: normal;&quot; class=&quot;p1&quot;&gt;&lt;font face=&quot;Times New Roman&quot; style=&quot;font-size: 42px;&quot;&gt;&lt;font style=&quot;&quot;&gt;&lt;font style=&quot;&quot;&gt;&lt;font style=&quot;&quot;&gt;&lt;font style=&quot;&quot;&gt;&lt;b style=&quot;&quot;&gt;Cluster 4 description:&lt;/b&gt;&amp;nbsp;&lt;/font&gt;&lt;/font&gt;&lt;/font&gt;&lt;/font&gt;&lt;span style=&quot;background-color: transparent; color: light-dark(rgb(0, 0, 0), rgb(255, 255, 255)); text-align: left;&quot;&gt;The individuals express how physical health issues and emotional struggles such as depression, anxiety, and loss of motivation significantly impact their daily lives, relationships, and work, while also highlighting the complex role of supportive friends and family, as well as persistent feelings of inadequacy and communication challenges within familial contexts.&amp;nbsp;&lt;/span&gt;&lt;font style=&quot;background-color: transparent; color: light-dark(rgb(0, 0, 0), rgb(255, 255, 255));&quot;&gt;&lt;span style=&quot;background-color: transparent; color: light-dark(rgb(0, 0, 0), rgb(255, 255, 255)); text-align: left;&quot;&gt;(age=28&lt;/span&gt;&lt;/font&gt;&lt;span style=&quot;text-align: left; background-color: rgb(248, 249, 250); color: rgb(32, 33, 34);&quot;&gt;±6&lt;/span&gt;&lt;font style=&quot;background-color: transparent; color: light-dark(rgb(0, 0, 0), rgb(255, 255, 255));&quot;&gt;&lt;span style=&quot;background-color: transparent; color: light-dark(rgb(0, 0, 0), rgb(255, 255, 255)); text-align: left;&quot;&gt;, n=14)&lt;/span&gt;&lt;/font&gt;&lt;/font&gt;&lt;/p&gt;" style="rounded=0;whiteSpace=wrap;html=1;fillColor=none;align=left;strokeWidth=1;shadow=1;" vertex="1" parent="1">
          <mxGeometry x="-1640" y="280" width="1560" height="260" as="geometry" />
        </mxCell>
        <mxCell id="uKcc-DHFw9mOzUkUJydF-2" value="&lt;p style=&quot;text-align: justify; margin: 0px; font-variant-numeric: normal; font-variant-east-asian: normal; font-variant-alternates: normal; font-size-adjust: none; font-kerning: auto; font-optical-sizing: auto; font-feature-settings: normal; font-variation-settings: normal; font-variant-position: normal; font-variant-emoji: normal; font-stretch: normal; line-height: normal;&quot; class=&quot;p1&quot;&gt;&lt;font face=&quot;Times New Roman&quot; style=&quot;font-size: 42px;&quot;&gt;&lt;font style=&quot;&quot;&gt;&lt;font style=&quot;&quot;&gt;&lt;font style=&quot;&quot;&gt;&lt;font style=&quot;&quot;&gt;&lt;b style=&quot;&quot;&gt;Cluster 1 description:&lt;/b&gt;&lt;font style=&quot;&quot;&gt;&amp;nbsp;&lt;/font&gt;&lt;/font&gt;&lt;/font&gt;&lt;/font&gt;&lt;/font&gt;&lt;span style=&quot;background-color: transparent; color: light-dark(rgb(0, 0, 0), rgb(255, 255, 255)); text-align: left;&quot;&gt;The individuals express a range of emotional states from mild anxiety and stress related to academic or work pressures to generally positive moods, emphasize the significance of maintaining healthy family relationships and having supportive friends or mentors, acknowledge personal traits such as being easily irritable, argumentative, or overly accommodating, and outline specific future plans involving career development, returning to hometowns, or improving personal skills like research capabilities or education.&amp;nbsp;&lt;/span&gt;&lt;font style=&quot;background-color: transparent; color: light-dark(rgb(0, 0, 0), rgb(255, 255, 255));&quot;&gt;&lt;span style=&quot;background-color: transparent; color: light-dark(rgb(0, 0, 0), rgb(255, 255, 255)); text-align: left;&quot;&gt;(age=26&lt;/span&gt;&lt;/font&gt;&lt;span style=&quot;text-align: left; background-color: rgb(248, 249, 250); color: rgb(32, 33, 34);&quot;&gt;±6&lt;/span&gt;&lt;font style=&quot;background-color: transparent; color: light-dark(rgb(0, 0, 0), rgb(255, 255, 255));&quot;&gt;&lt;span style=&quot;background-color: transparent; color: light-dark(rgb(0, 0, 0), rgb(255, 255, 255)); text-align: left;&quot;&gt;, n=10)&lt;/span&gt;&lt;/font&gt;&lt;/font&gt;&lt;/p&gt;" style="rounded=0;whiteSpace=wrap;html=1;fillColor=none;align=left;strokeWidth=1;shadow=1;" vertex="1" parent="1">
          <mxGeometry x="-1640" y="-90" width="1560" height="350" as="geometry" />
        </mxCell>
        <mxCell id="uKcc-DHFw9mOzUkUJydF-4" value="" style="shape=image;verticalLabelPosition=bottom;labelBackgroundColor=default;verticalAlign=top;aspect=fixed;imageAspect=0;image=data:image/png,iVBORw0KGgoAAAANSUhEUgAAERIAAAg6CAYAAADhplxgAAAAOnRFWHRTb2Z0d2FyZQBNYXRwbG90bGliIHZlcnNpb24zLjEwLjMsIGh0dHBzOi8vbWF0cGxvdGxpYi5vcmcvZiW1igAAAAlwSFlzAAAuIwAALiMBeKU/dgABAABJREFUeJzs3XeYrGdZP/DvnZ4QCL2EFnoJTZo0qUHpVWk2UJo0URHBBlZAQQFFOsQfoEgzdBCRjkoTgdB76AESIJCe+/fHbOTkcM7uO7vzzuzOfD7XNVdyZu55nu/z7u68s+W53+ruAAAAAAAAAAAAAAAAAAAAAAA72z6LDgAAAAAAAAAAAAAAAAAAAAAAbJ1GIgAAAAAAAAAAAAAAAAAAAACwBDQSAQAAAAAAAAAAAAAAAAAAAIAloJEIAAAAAAAAAAAAAAAAAAAAACwBjUQAAAAAAAAAAAAAAAAAAAAAYAloJAIAAAAAAAAAAAAAAAAAAAAAS0AjEQAAAAAAAAAAAAAAAAAAAABYAhqJAAAAAAAAAAAAAAAAAAAAAMAS0EgEAAAAAAAAAAAAAAAAAAAAAJaARiIAAAAAAAAAAAAAAAAAAAAAsAQ0EgEAAAAAAAAAAAAAAAAAAACAJaCRCAAAAAAAAAAAAAAAAAAAAAAsAY1EAAAAAAAAAAAAAAAAAAAAAGAJaCQCAAAAAAAAAAAAAAAAAAAAAEtAIxEAAAAAAAAAAAAAAAAAAAAAWAIaiQAAAAAAAAAAAAAAAAAAAADAEtBIBAAAAAAAAAAAAAAAAAAAAACWgEYiAAAAAAAAAAAAAAAAAAAAALAENBIBAAAAAAAAAAAAAAAAAAAAgCWgkQgAAAAAAAAAAAAAAAAAAAAALAGNRAAAAAAAAAAAAAAAAAAAAABgCWgkAgAAAAAAAAAAAAAAAAAAAABLQCMRAAAAAAAAAAAAAAAAAAAAAFgCGokAAAAAAAAAAAAAAAAAAAAAwBLQSAQAAAAAAAAAAAAAAAAAAAAAloBGIgAAAAAAAAAAAAAAAAAAAACwBDQSAQAAAAAAAAAAAAAAAAAAAIAloJEIAAAAAAAAAAAAAAAAAAAAACwBjUQAAAAAAAAAAAAAAAAAAAAAYAloJAIAAAAAAAAAAAAAAAAAAAAAS0AjEQAAAAAAAAAAAAAAAAAAAABYAvstOgAAAAAArKeqDk5yZJIrJblgkkOTnJXklCQnJvlKki8m+Vx3nyUbAAAAAAAAAAAAAACwqqq7F50BAAAAAM5hrUHHvZPcK8lNkxw44GknJ/mfJK/r7iesYjYAAAAAAAAAAAAAAGC1aSQCAAAAwLZRVfsneViSP0xy/k0O86XuPmJmodZs52wAAAAAAAAAAAAAAABJst+iAwAAAABAklTVlZK8LMk1Fp1ld9s5GwDAqqmq30tyje7+xUVnGdOqrBMAFq2qLpbkpO7+waKzTKOqzpPkhmu3I5MckeTiSQ5NckiSM5L8KMl3k3wpyeeSvC/Je7r7EwuIDAAAAAAAAMCcaCQCAAAAwMJV1S2SvCaTjQ7bynbOBgAMV1X7JblRJhstr53kMkkumck5/uAkJyU5Mck3k3w4yQeTvLW7P7eAuOxFVd03yROSvGnBUUa1KusEpuNcNq5VOb6rss4hquqiSR6b5EFJjktyhcUm2lhV7Z/kHknuk+SoJAesU75vkgOTnC/J5ZLcMskD1sb5TJKXJ3lWdx83ZmYAAAAAAAAA5q+6e9EZAAAAAFhhVXWzJG/MZLPK7k5I8vQkr0jyxSRnJrlIJptdHpLkJnt4zpe6+4hlzwYADFNV10/y4CR3yWQT5bT+O8mLkrygu0+eYTQGqKp9k1wgydWS3DfJL689dNvuXpomG6uyTmBznMvGtSrHd1XWOURVXSjJo5M8ND/+mc+2/pnNWgOYh2SS++IzHPqMJP+c5A80FAEAAAAAAABYHhqJAAAAALAwVXWZJO/PZNPk7r6V5Kbd/al1nv+IJE/b7e6ZbPzYztmA6VTVTZL8ZpKfyWTD3DeSvDXJ33T3xxaZDRhPVd0oyRMz+dqfha8n+ctMrtp+xozG3NGq6sBMGqpddM5TfyrJVXpOv+hclXUC249z2bhW5fiuyjqHqKrzJXlUkkckOXS3h7ftz2yq6oZJnpvkyBGnOTnJ45I82XsPAAAAAAAAgJ1PIxEAAACAgarqmCR3XnSOkf1jd993HhNVVSV5Z5Kb7KXkTt392g3GOG8mDQEO3OXuLW/82M7ZgOHWvpb/Jskj91JyVpJHd/dT5hYKGN3aOfjvkvzSOmVfT/LGTJqGfTPJfkkukuQGSW6d5MLrPPcDSX6xuz89i7w7WVU9IMlzFjD1w7r7GfOabFXWCWwfzmXjWpXjuyrrHKKqzpPkt5P8VpLz7KVsW/7MpqoeleQJmXxs5uEtSe7Z3SfMaT4AAAAAAAAARqCRCAAAAMBAGonMVlU9OMkz9/Lwf3f3DQaO86okd93lrlk0Etm22YDhquovkvz+gNIHdPfzxs4DjG/tau0vS3KJvZR8I8kfJTm6u8/YyxgHJPnVJH+S5GJ7GedHSR7Y3S/ZWuKdq6r2SfLxJFea89TfS3KJ7j5pHpOtyjqB7cO5bFyrcnxXZZ0bqapDkzwiyaOSnG+D8m31M5u1xpjPSPIbC5j+40lu093HLWBuAAAAAAAAAGZgn0UHAAAAANhBvpLJBgm2qKoOTvK4dUpeOMVwM92ssp2zAcNV1RWTPHpg+ZOraqNNZcA2V1X3TvK27H3D7NuTXKu7n7e3DbNJ0t2ndfdzk1wjyRv2UnZIkhdV1e9sIfJOd6fMv7lGkrxgzs01VmWdwDbgXDauVTm+q7LO9VTVwVX1qCRfSPIX2biJyHb0nCymiUiSXDXJf1TVhRc0PwAAAAAAAABbpJEIAAAAwEDd/bDuPleSiye5aZJfy2Qzwr8k+UCSExYYb6d5YJKLrvP4W6YY6/VJvr+1OOewnbMBw/1Kkv0G1h6W5G4jZgFGVlX3SvLiJAfupeQ/kty2u785dMzu/naSOyd5+d6mzaQR0eOniLpMfncBc56V5O/nPOeqrBNYMOeyca3K8V2Vde5NVR1YVY9I8vkkf53kgguOtClV9YdJ7r/gGJdP8oaqOmjBOQAAAAAAAADYBI1EAAAAAKbU3V/r7nd19wu7+w+7+17dfb3uPn+SCyT56qIz7gAPXuex73b354cO1N2nJHnl1iP9n+2cDRjumiPXA9tEVd0xyYuy9997fSbJndfOy1Pp7jOS3CfJe9Ype1xV/fq0Y+9kVXWTJDdawNSvn+a92FatyjqBxXMuG9eqHN9VWeeeVNX+VfXgJJ9N8rSs3yB2W6uq2yb500XnWHOdJH+76BAAAAAAAAAATE8jEQAAAIAZ6u7vJjljiqdcprtrHrdMrkZ77iSHJ/mpJCfO/ghsrKpulOTK65R8ahPDvmSTcc5hO2cDRleLDgBMr6pukeTlSfbbS8npSe7V3Sdtdo61jbP3SvLddcqeVVVHbXaOHejRC5r3aXOeb1XWCSyQc9m4VuX4rso6d1dV+1XVryX5dJJnJrnEvOYeQ1VdNMk/Zv3vTz+d5NlJfiWTn+9dOpOf9+2f5DxJLpvk5kkemeRlSb6/xVgPrqqf3eIYAAAAAAAAAMyZRiIAAAAAK6K7T+vuk7r769394Uyu0roId93g8S9vYsy3JblvkvsledQmnn+27ZwNmM6xU9Z/bJQUwGiq6mKZbI48cJ2yf+juD211ru7+SpI/XKdkvyQvrqoLb3Wu7a6qrpzkDguY+oPd/dZ5TbYq6wQWy7lsXKtyfFdlnbuqqn2q6peSfCLJ85MckeSsJB9I8qwkT0zy5jEzjOSpSS60l8felORnu/tK3f3g7n5Rd3+4u7+89vO+M7r7B939he5+R3c/rbvvmeSCSe6dybHZrKdX1f5beD4AAAAAAAAAc6aRCAAAAMDqWlQjkTtu8Pi3ph2wu8/q7n/s7qO7+xWbzJVs72zAdP5fJhvJhvhBkleOmAWYsaqqTK7WfsF1yk5I8qcznPY5ST66zuMXSfKCGc63Xf1ukprjfCckeVWSu81xzmR11gksiHPZuFbl+K7KOndVVQdn0gjyRUkul+RdSR6Y5KLdfb3u/o3ufmx33ybJr4+VY9aq6pZJ7rmHh76X5F7dfdvufsu043b36d390iTXT/LLmXw+TOtKSe6ziecBAAAAAAAAsCAaiQAAAACsrrk3Elm7Iu2VNijbzIaGLdvO2YDpdffHkzx5YPnvdfe3x8wDzNxvJbn1BjXP7O7vzmrC7j4zyRM2KLt9Vf3arObcbqrqYkl+abe7P5dkv+6ukW7n7+67d/eXrRNYMs5l41qV47sq69zVgWu3xye5XHfftLuf293H717Y3S9I8vaRcszano7pZ5Ncq7v/ZauD98SLk1wjyYc3McSjtpoBAAAAAAAAgPnRSAQAAABgdc29kUiSGw6o+cHoKfZsO2cDNuexSf5uncfPSvKY7n7mnPIAM1BVl03ylxuUnZ7kGSNM//IkGzV6eEJVnWeEubeDRyY5YLf7nry2oXiZPDKrsU5gQZzLxrUqx3dV1rkH30ty+e7+k+7+woD6V4yQYaaq6nZJrr/b3V9Lcovu/uIs5+ruryS5WZL3TfnUq1XVNWeZBQAAAAAAAIDxaCQCAAAAsLoW0UjkpwbUnDx6ij3bztnYpqrqp6uqd7kdvehM/Fh3n9Xdj0hy00w2j30zyWlJjktydCZXdn7S4hICm/SnmVyFfj2v6+6vzXri7j4jyfM2KLtwkj+e9dyLVlXnTvKg3e7+Ziavp0tjVdYJLJxz2bhW5fiuyjp3n7u7u6d4ykdnnWEEv7Pbv09Pcte1ph8z193fT3LHTL43nsbPjxAHAAAAAAAAgBFoJAIAAACwuhbRSOQKA2pOHT3Fnm3nbGxfj1l0ADbW3e/q7l/o7ot294Hdfanuvl9374QNZcAuqurqSe49oPSfRowxZOyHV9UlR8ywCA9Kcthu9z2tu09ZRJgRrco6gQVxLhvXqhzfVVnnjBy/4PnXVVVXTnLL3e7+4+5+35jzdve3kvxqkmmastxspDgAAAAAAAAAzJhGIgAAAAArqru/meQHc5728gNqzhw9xZ5t52xsQ2ubfe686BwAK+YvsvHvt05K8vqxAnT355JstLHzgPzkleV3rKraP8kjd7v7B0meOf8041mVdQIL51w2rlU5vquyzlk4ecHzb+R+u/37w0mePI+Ju/ttSV4+xVOuV1X7jpUHAAAAAAAAgNnRSAQAAABgtX1uzvMdPqBmmiuhztJ2zsb29OgktegQAKuiqq6S5I4DSt/W3WNvGB2yKff+VXWBkXPMy32SXHy3+57V3ScuIMuYVmWdwII4l41rVY7vqqxzhdxjt38/vLvPmOP8fzpF7UFJLjVWEAAAAAAAAABmRyMRAAAAgNX22TnPd6E5zzeN7ZyNbaaqLp7kFxedA2DF/OrAujePmmL4HOdK8uCxg4ytqirJo3a7+7QkT51/mvGsyjqBhXMuG9eqHN9VWefSq6prJzlil7te2d3vnmeG7j42ybumeMoRI0UBAAAAAAAAYIY0EgEAAABYbZ+Z10RVda4kB85rvmls52xsW7+V5IBFhwBYFVW1b5JfHlj+72NmWfP+JCcOqBu60Xc7u12Sq+1234u6+2uLCDOiVVknsCDOZeNaleO7KutcIT+3y/+fleSPF5TjmClqzztSBgAAAAAAAABmSCMRAAAAgNX22TnOdfAc55rWds7GNlNV503ywEXnAFgxRyU5fEDdd7v7U2OH6e6zkrxvQOkVqupGY+cZ2aN3+/dZSf5qEUFGtirrBBbHuWxcq3J8V2Wdq+LWu/z/q7r74wvKMU3TmUNGSwEAAAAAAADAzGgkAgAAALDa5tlI5IA5zjWt7ZyN7eehSc696BAAK+ZeA+uGbGSdlf8eWPcro6YYUVVdP8lNd7v7mO7+9CLyjGVV1gksnHPZuFbl+K7KOpdeVe2X5Aa73LXIBmbHJjl5YO0pYwYBAAAAAAAAYDY0EgEAAABYbe9LcsNdbn824lz7jzj2Vm3nbGwjVXVQkkcsOgfACrrVwLr3j5rinIZumr3jqCnG9eg93Hebqnp3VT2tqn6pqi4/91SztyrrBBbLuWxcq3J8V2Wdq+DIJAev/f+7u3ueH7Nz6O4zk3xhYPkJY2YBAAAAAAAAYDb2W3QAAAAAABanu09J8l9zmq7mNM9mbOdsbC/3S3LhRYcAWCVVdYUklxxY/rExs+zm2IF1h1fVtbr7w2OGmbW1xhl33cNDhyS58drt7NpvJ3lvkncmeUeS/1nbkLrtrco6gcVyLhvXqhzfVVnnCrl4kh8kOXeSZyw4S5J8JclVB9R9d+wgAAAAAAAAAGzdPosOAAAAAACwE1TVvkketegcACvoVlPUfmK0FD/pS0l+NLD2tmMGGcmjMvx3iRdMcqckT07y/iTfrqpXVtUDq+rwsQLOyKqsE1gs57JxrcrxXZV1roTufkOS8yW5fpJXLjhOknx/YN1XRk0BAAAAAAAAwEzst+gAAAAAAMD0quqAJNdJcuMk10hymSSXyuRKtufKZEPsyZlsBPlqki8m+d9MNr2+u7tPnn/qYdausnzdJNdOcrlMrrh8eCbrOjjJvklOXbudsnb7dpJv7nI7Lsnnknw2yZe7+8wZRPuFJJedwThLoarOlcnH6QZJfjqTj9P51m6HJTk9k8/Bk5OclORrmXwunv35+Mkkn+zur887O+NZ5tcmFuqWA+vOSvLpMYPsqru7qj6Ryef8Ro5K8oSRI81MVV04ya9uYYjzJrnb2q2r6v1JXpbkX7p722w+XZV1AtuCc9m4VuX4rso6V8bazyrev+gca04ZUPPl7v726EkAAAAAAAAA2DKNRAAAAAAYTVXtm8lG8htl+IaXu1TVEZuY7u3d/fahxds523qq6tZJfinJXTPZmL+ec6/dLp7JFW7vsXb/qVX1liT/mOSY7j5jFtk2q6oqkysr/3wmVye+1ICnHbJ2O9tl1qk9vao+n+RjST6a5MPd/eop8l08yZ2TPGpA+bWq6vFDx05yYnc/dYr6hauqmyd5UCabpg9Yp3TfJAdl0lgkSa64l/G+l7WPSyYNJV7V3d+dMtMLNsgyxCO3siGqqu6b5IgtZhjLF7v76DEnWMbXJraV6w6s+2p3nzpqkp/0+QzbNHvdqqru7rEDzcjDM3kNn4XK5Gv9+kn+qqrenORZSV67DY7HqqwTWDznsnGtyvFdlXWyGIdsXJIPjJ4CAAAAAAAAgJnQSAQAAACAmamqw5LcIMmNM2nQ8dNJDp1ymDuv3Tbj7Tsx2xBVdeckj0vyU1sZZ82BSe6wdvtcVT2uu18yg3GnUlUHJXlIkocmueyIU+2f5Eprt7sn+V6S826Q7UqZNES4SyYbgmvgXNdcuw31pSRPnaJ+YarqpkmemeSqMx76sCQ3WbslyReT/PuUY9wnk8/rrfjDJFu5svJ9k9xsixnG8o4kR48x8DK+NrG9VNWhGd6k58sjRtnqnOdJcuUknxgxy0xU1bkyOT+PYZ9MmobdNsknq+ox0zT3mqVVWSfD2djOWJzLxrUqx3dV1slCHTag5v2jpwAAAAAAAABgJjQSAQAAAGDLqupmSf4uyZGZbJzcNrZztiGq6uJJ/iHJnUaa4nJJXlxVv5jk17r7GyPNcw5V9atJ/jzJJeYx31BV9dgkv5zkKovOsl2sbVh7YiabrYc2VJm307P1RiJMYVlfm9iWrpbhrz3bedNsklwvO2PT7P2TnH8O81w5yTFV9cYkj+juz85hzl2tyjrZRVXtl8lG/Cskufxu/710Vd28u987YJx9MmlQeJO1/142yQWSnC/JD5Icn+SbSd6d5N+SvLe7T5/1etgxnMvGtSrHd1XWyeKcZ0DNa0dPAQAAAAAAAMBMaCQCAAAAwCxcJsnVFx1iL7ZztnVV1c8keWWSCw0oPz3JB5J8PMl3kpyZyUbGqyT56SQHbfD82yb576q6Q3d/dNOhN1BVF07yvCR3nOJpn8lkk9GXk5y0dt9ha7eLZfLxveCMIj4oyaVnNNaOV1UXSfLGJD81oPzLSd6X5FtJTkhycCYfowsmuUYmX4tjuWAmnwfXWrv91Nqch444507ykVkOtoyvTWxr05zDjxstxWzm3PbvR9aaLPzWnKe9bZKPVtUDu/tF85hwVda5qqpq/0yahezeKOTya/fv7XfkneRTG4x98SQPSPJrSS65l7Lzr92ulOSmSX4/yVer6vFJXtjdZw5eDMvCuWxcq3J8V2WdLM5GP1f5ZHcfO5ckAAAAAAAAAGyZRiIAAAAAS6iqnp/J5razXaa7v7igOGxCVd09yT8n2X+D0uOSPDHJP3X3iXsZ6zxJ7pvkj7L+xpBLJXl7Vd2ku2d+deCqunqSNyS5xIDyjyd5dpJXdvdXB4x9eJLrJ7lTkjtkWIMD1lFV507y5iTXXKfstCTPSfL07v7MBuOdN8lNkvxCkntk4wYSg3X3qZk0q/jALvNVJpuGH5LkN2c11w70tUy+9mdiGV+b2PaOnKL2+NFSzGbOK4yWYnbumsU01Dooyf+rqmsnedQcGi2syjpXQlVdL8mv5McNQy6dzf0e/APd/Z29zHGuJI9N8jvZ3HuYiyd5bpKHV9Udu/vLmxiDncu5bFyrcnxXZZ0sQFUdko3fG71iHlkAAAAAAAAAmI19Fh0AAAAAgFFcZ56TdffR3V3r3ZJcZuBw99torL3cHr/Tsu1NVd0uwzbqPz/JVbv7H/a2UT9Juvv73f30TBpCvG+DMc+f5M1VtdGVaKdSVTdO8q5s3ETkxCS/nuTq3f30IU1EkqS7v9bdx3T3ryW5aJI7J/nPaXN29xHrfJ58acAQ/zjl58YR02aco+dk/SYiX0hyw+5++EZNRJKku0/s7td1968muWySl84o597m6+7+dJIPjznPQJ9M8oIkv5vkbpkc10tm8vV2wDSfM0n2TfL+KeZ+WHd/bxaLWMbXJnaES05R++3RUsxmzsuPlmJ2Fv019sgkr6mqA0aeZ1XWuSoul+RhSW6z9v+bvZjGG/Z0Z1X9XJJPJ/mDbL0R2jWS/GdVrfcei+XjXDauVTm+q7JOFuPIrP83ZJ3kxXPKAgAAAAAAAMAMbPaPqAAAAADYpqrqwCRXXXQONqeqrpjkX7LxRv3HdfefTjN2d3+tqn42k4YeV1+n9JKZNJG42zTj701VHZnkdUkO26D02CR37O4vbGW+7j4ryWsy2aD7jCQP2cp4q6iq7pTkXuuUHJ/kqO7+/GbG7+6vJ7l3VR2U5C6bGWMHOCXJU5M8d7PHaS8enuR6A2uP6e5/ncWky/jaxI5xsSlqt/um2ctVVXV3j5Zmi7r7mVX12kya9xy8djs0ycUz+Rq8RJKrZPK1evBIMW6X5BVVdffuPn2MCVZlnSvk35Pcde3/90ly7kw2qd820zVYPEcjkaraN8njM2kgUltO+WOHJ3l9VV2ju787w3HZvpzLxrUqx3dV1slirPd9WJK8vrs/NZckAAAAAAAAAMyERiIAAAAAy+fq2XijN9vQ2lXpX5bJRtb1PHfajfpn6+7vVdU9k3w4yQHrlN61qu661SYEVXWBJG9Mct4NSj+R5BbdffxW5tuDN0YjkalUVSX5yw3KHjmj5hjPyfI2EnlOdz92lgNW1SWT/PnA8u8nediM5l261yZ2lMOnqD1htBR7991MrtA+pMnAQUkumEkzpm2ru7+S5Cvr1aw1WLhqkhskuU2So5KcZ4Yx7pjkpVV1j+4+c4bj/p9VWecq6O5vJzlmDw/9UVXdN8kLBwxzfJL3n/2Pqjo4ySsyafjyf1MleW+Slyd5TyafP9/N5Ov6yEyamfx61j+Pne3iSZ6b5O4Datn5nMvGtSrHd1XWyWLcYIPHnzyXFAAAAAAAAADMzD6LDgAAAADAzF170QHYtN9Ocs0Naj6b5JFbmaS7P5Hk7waU/uXaBtqteHaSS25Q8/0kdxmhiUiSvDOJjbnTuUUmm2H35rNJ/nlGc705G2zi3sHeM8KYz8jGzTzO9tju/uqM5l3G1yZ2jotOUXvSaCn2orvPSvKjKZ5yobGyzFN3n9ndH+3u53b33ZNcIJMmGy9OcvKMprlbkr+a0VibsirrXGbdfXQmjeU28qbu7iSpqkOTvD7nbCLyhiRX6+6bdPfTuvsD3f2N7j6tu7/W3W/p7ockuVaS4wbGu1tV3XrwYtjJnMvGtSrHd1XWyWLcfp3HPtjd75hbEgAAAAAAAABmQiMRAAAAgOVznUUHYHpVddEkfzCg9Pe6e5rNOXvzN0lO36DmyplcWX1TqupeGXaV9d/t7k9vdp71dPf3s8vV5Rnknhs8/rqzN9pu1dpms3+cxVjb0HtnOVhV/UKSO04x9zNnNO/SvTZtVlXdt6ra7Ry3+458zM+X5MApnjL3TbNrfjhF7VJumu3uM7r7rd39y5lsdH5Yki/NYOjfXns/sS2syjqX0CcG1LwhSarq4CRvyqSxWpIcn+S23X377v74RoOsNcX6uSSnDcz2mwPrtsx5bP7nsbXj7lw2olU5vquyThajqq6d5PB1Sn5/XlkAAAAAAAAAmB2NRAAAAACWz7UXHYBN+c0kh25Q88nuftUsJuvuryV584DS39jM+FV1QJInDCj9UJLnbWaOKfzHyOMvm1tu8PgHZzzfC5LMpDHJNvLl7v7KrAarqsOSPG1g+WlJHjCrZi9ZstcmdpyNPvd2N83m1VmaZt4LjpZim+ju73f3M5JcIckDknxxi0M+v6quvuVgM7Yq61wSF93g8TOTvLmqKsmLktx47f7/THLt7n7TNJOtNRN59sDy21XVEdOMz47jXDauVTm+q7JOFuP26zz2hu7+t7klAQAAAAAAAGBmNBIBAAAAWCJVtV8SGxB3mKo6JMmDBpQO3ZA41L8OqLllVV1iE2P/RpIjBtT9ZXeftYnxp/HWkcdfGmufi5fboOzbs5yzuz+f5O2zHHMbeO+Mx/urJBcbWPuk7v74LCZd0tcmdpaDpqz/0SgpNjbNptnzjZZim+nu07v7eUmukuTPk5y6yaEOSfLStSZl286qrHOHu+YGj/9Xd5+Q5ElJ7r523+uS3GILjcFeOLCuktxik3OwMziXjWtVju+qrJM5W2ui9at7efiMJI+aYxwAAAAAAAAAZkgjEQAAAIDlcmSSAxcdgqndLRtvoukkr5jxvG8bWHeHaQatqn2SPHJA6XEZ1jBgq96b5JQ5zLMMjshkQ+u8/WaS+63djl3A/LP2nlkNVFU3SfKAgeWfSvIXs5o7S/baxI407abZM0ZJsbHTp6hdufdp3X1Kd/9Rkmtk86+PV03y2Nmlmr1VWedOU1XnyaTJy3reWFX3SvK7a/9+TZK7d/dmm8Kku/8nydcHlt9ws/OwIziXjWtVju+qrJP5u2323kz0H7r7E/MMAwAAAAAAAMDsaCQCAAAAsFhfqKqe1S3Jhxe9IDblFwbUfHwLV0Tfo+7+QpLvDii93ZRD3z6ThhQb+afuPmvKsafW3adk0kyEjZ1nQM0lZj1pd3+0u49euw3ddLudzeTzraoOSPKcDGvu0kkeuJVNz3uwbK9N7DzTbpo9c5QUG5tms+4Bo6XY5rr700lunuRJmbxmTetRVXWhmYYawaqscwe5cTb+nfixSZ619v/vSfIL3X3aDOb+2MC6685gLrYv57JxrcrxXZV1Mn8P28v9n0/y+/MMAgAAAAAAAMBsaSQCAAAAAAtUVYck+bkBpZu9sv1GPj6gZtrNjfcbWPfKKcfdiv+Y41w72X4Dam4yeoqd6T+TvD7Jq5P874zGfGySqwysfV53v3NG8y7raxM7z7RXqt8Jm2anXdNS6e4zuvsxmTQC+sGUTz80ySNmn2r2VmWdO8TNNnj8W0keleSwJF9L8vMzaiKSJJ8ZWHfhGc3H9uRcNq5VOb6rsk7mqKqulOQ2e3jorCT37e4fzjkSAAAAAAAAADOkkQgAAAAALNYNM2wDzSdGmv+4ATUXq6pBGxyr6qAkPzug9LtJPjhkzBk5Jsk/rt3+aY7z7jQ/GlBz96q60OhJdpjufmx336G779LdW964V1VXzqSRyBDfSPLorc65m6V6bWLHqmmKu3uazauzNM3X/P6jpdhBuvtNSW6R5Pgpn3r/qhrS9GpbWJV1bnO32uDxCyS5cZJOco/u/sYM5z5xYN35Zjgn249z2bhW5fiuyjqZrz/Jnj+3ntrd75p3GAAAAAAAAABmSyMRAAAAAFisnxlYN/SK5tP6+sC6qw6su2WScw2oe093nzVwzC3r7mO7+75rt4fMa94d6FsDag5N8pyq8vPlkVRVJXl2hl+l+xHdfeKMYyzbaxM70+nTFC/wdWma89mWGw0ti+7+YCZNHr4/xdMumkljjh1jVda5HVXV+ZJce4Oyfdf++5zufs+MI/xwYN0hVXXAjOdm+3AuG9eqHN9VWSdzUlXXSXKPPTz00SR/MOc4AAAAAAAAAIzAlawAAAAAYLGuP7DusyPNP3Sz/sUH1t1sYN3/DKxjvr6a5OQkB29Qd5ckz6iqh3R3j55q9fx6kpsOrH1td798hAzL9tq0Zd19dJKj5zUfSZLTpqzfN9NtYJ2VaX7fdupoKXag7v5oVd0tyRuT7D/waXdJ8pbRQo1gVda5Dd0qwy6scXySx44w/7baUO88tjDOZeNaleO7KutkDtYaVz49Se320PeS3K27T5l/KgAAAAAAAABmzRUjAQAAABbrMt1ds7oludaiF8TUrjqw7ksjzX/8wLrDB9ZdZ2Dd/w6sY47WmoK8b2D5g5P8W1VddMRIK6eqLpLkrwaWn5TkoSNFWbbXJnamaTfNLqqB/jTzTrumpdfdb03yZ1M8ZWijpW1lVda5zdx6YN3fdPcJI8x/roF1J3f36I1EWBjnsnGtyvFdlXUyH/dLcqPd7uskv9zdYzWKBAAAAAAAAGDONBIBAAAAWC7HxlVdd4yqOjjJpQaUnjHiFWGHjnuBgXU/NbDu8wPrmL83TFF7VJJjq+oxVTV0syzre1qS8w2s/f3uPm7WAZb0tYmd6ftT1u87SoqNTbNp1hXe9+wJST4wsPbIqjr3mGFGtCrr3C6OGlBzUpJnjTT/IQPrThppfrYH57JxrcrxXZV1MrKquliSp+zhob/o7tfOOw8AAAAAAAAA49FIBAAAAGCJdPcZST666BwMdkSSGlD3oxEzDN28c/BGBVV1oSTnHzjeFwfWMX//L9Nt6jp/Jhujv1BVT6qqK4wTa/lV1W2T3HNg+X8necZIUY7IEr02saN9d8r6A0dJsbFpNs1Ou6aVsPYe9pEDyyvJlcdLM55VWed2UFVHJLnsgNIXdPeJI8UY2gjmhJHmZ3twLhvXqhzfVVkn43tukvPudt+rkzxu/lEAAAAAAAAAGJNGIgAAAADL50OLDsBgFxlY98MRM5w6sO6gATWXGDjWKSNu2GSLuvsbSZ60iadeKMmjk3y6qt5TVQ+vqqGf4yuvqs6V5JkDy09P8oDuPmukOMv22sQO1d0nZfL5PtS5xsqygUOnqP3OaCl2uO5+T5I3DSy/4phZxrQq69wGbj2w7ugRM1xyYN3nRszAgjmXjWtVju+qrJNxVdVDk9x+t7v/K8m9R/zeEgAAAAAAAIAFmeZqIAAAAADsDB9cdAAGu/DAuoOr6vEjZbjMwLoDBtQM3SzpysPb3xOT/EqGf37s7kZrt7+tqrcneWmSV3b3CbOJt5T+LMmlB9b+dXd/dMQsy/baxM72nSQXHVi7qE2z08xr0+z6/ibJbQbUXWzsICNblXUu0lEDao7t7v8ZMcPQ98afHjED24Nz2bhW5fiuyjoZQVVdK8mTd7v7M0nu2N0nzz8RAAAAAAAAAGPTSAQAAABg+Xxo0QEY7AID686b5HEj5hiiBtRcaOBYmklsc919SlXdOck7M/n826x9k9xq7fb3VfXqJEcnebMrHv9YVV0nySMGln8mk6YjY1q21yZ2tq9k+2+aPXSK2m+OlmI5vDWTj/klNqgb2vBou1qVdS5EVVWSWw4ofdHIUS41sO4zo6ZgO3AuG9eqHN9VWSczVlWHJXlFkoN2uftbSW7T3d9eTCoAAAAAAAAAxrbPogMAAAAAMHMfTXL6okMwyEEbl+wohwysc7XbHaC7P5rkDkl+OKMhD0xyjyRvSPKpqnpEVU2z0WwpVdW+SZ6bSdOVIR7U3aeMGClZvtcmdrbjpqg9bLQUe1FV+2T4+e+H3f2tMfPsdGtNpl4+oHRRG6RnYlXWuUDXSnLBAXUvHStAVV02ybkHlr9/rBxsG85l41qV47sq62SG1j4uL05yuV3u/kGS23X35xeTCgAAAAAAAIB50EgEAAAAYMl096lJPr7oHAxy4KIDzNjBA+s0utkhuvs9Sa6X5GMzHvrySZ6W5HNV9eC1Zhqr6reS/NTA2hd099vGDLNm2V6b2Nm+PEXtBUZLsf6cNbD2iyPmWCZDXueW4XVqVda5CEcNqHlfd39pxAzXHlh3UpIPjZiD7cG5bFyrcnxXZZ3M1hMyaRB6tlOT3Lm7P7igPAAAAAAAAADMiUYiAAAAAMvJhoCd4YBFB5ixoZtdNRLZQbr7E0mun+RJSU6e8fAXTvLMJB+qqivOeOxtr6qOSPInA8u/leRR46U5h2V7bWJn+9wUtRccLcXeXWiKWld9H+adSc7aoOaMeQQZ2aqscxGGNBJ5+cgZrjOw7j3d7eO8/JzLxrUqx3dV1smMVNV9kzx6l7vOTHKvOTWnBAAAAAAAAGDBNBIBAAAAWELd/evdXbvcvrjoTOzRRptHz/aO3T6ei7jdd4brGdpwhG2iu0/u7sckuUKSf0jy/RlPcY0k76+qO8143O3umUkOGVj7m919wphhdrFsr03sbMdOUbuITbPTzPmJ0VIske7+XpKvblD2o3lkGdOqrHPequrAJDcZUPqKkaPcYmDdW0ZNwXbhXDauVTm+q7JOZqCqbp3kObvd/YDuPmYBcQAAAAAAAABYAI1EAAAAAGBxThtYt9+oKWbn1IF15xo1BaPp7q9290OTXCzJryR5e5Ke0fDnSfKqqrrDjMbb1qrq3kluM7D8jd390jHz7GbZXpvY2abZNHux0VLs3UWnqP3wWCGW0Gc3ePyHc0kxvlVZ5zzdKBs36frwmI0Wq+r8Sa43oPSsJP8yVg62Feeyca3K8V2VdbJFVfVTmTTM2n+Xu3+3u1+4oEgAAAAAAAAALIBGIgAAAACwOEM36x88aorZOWVgnUYiO1x3/6i7X9Tdt0hy+SR/muSTMxh63yT/UlVDNt/uWFV1viRPHVj+wyS/MV6aPVq21yZ2sO7+ZpJvDyy/1JhZ9uLSU9R+eKwQS+hLGzy+LA02VmWd83TUgJpXj5zh1hn2e/h3dvdXRs7CNuBcNq5VOb6rsk62pqqukORNmTTqPNuTuvvJC4oEAAAAAAAAwIJoJAIAAAAAi3PSwLqNrqq+XXxvYN2ho6Zgrrr78939uO6+SpKrZ9JU5ONbGPKQJC+qqv03rNy5npzkwgNr/6i7N9poPmvL9trEzvffA+u286bZHyb59JhBlsxGr0Nfn0uK8a3KOudpSCOR14yc4RcG1r141BRsN85l41qV47sq62QTquoSSd6Sc36v+bzufsyCIgEAAAAAAACwQBqJAAAAAMDifGdg3cGjppidbw6sO/eoKViY7v7YWlORI5McmeQpGX7V7F1dKclDZxpum6iqmyW538DyDyR5+ohx9mbZXpvY+d47sG7oBtZZOmJg3Xu7+8wxgyyZjRpsfG4uKca3Kuuci6o6b5LrbFB2XHd/aMQM50tyxwGlxyf5p7FysC05l41rVY7vqqyTKVXVBZP8W875sX9lkgctJhEAAAAAAAAAi6aRCAAAAAAsztDN+hcYNcXsfGNg3UFVdbFRk7Bw3f3x7n5UkosneXimbyjyx1W1VI0qqurAJM9JUgPKz0jygAVtslu216aZqKr7VlW7neN23zkd/qGbZs9dVYePmuQnXXlg3dvHDLGENnrtW5YGG6uyznm5RZJ9N6h5w8gZ7pXkgAF1T+/uk0fOcg7OYws9jyXOZWNbleO7KutkClV17iRvSnKVXe7+9yT36e6zFpMKAAAAAAAAgEXTSAQAAACAc6iqfarqoLXbkE1wbN7QxhuH1uQK69vdl6aovcJoKdhWuvu07v77JJdP8pIpnnq+JHcdJ9XC/GGSKw6s/Zvu/vCIWdazbK9N7Hz/leRHA2uvsnHJbFTVIUkuM7D87SNGWUbnWuexk7r763NLMq5VWee8HDWg5k0jZ/iNATUnJXnGyDnYfpzLxrUqx3dV1slAVXVQktckuc4ud78vyV27+7TFpAIAAAAAAABgO9BIBAAAAIDdPSbJyWu39y04y7L7UpKhV4e95JhBZqG7v5dk6IZXjURWTHd/r7t/KcnvTvG0nxsrz7xV1VWTPHpg+eeSPH68NBtaqtcmdr7uPiXJfwwsv+qYWXZzlQz7Xdt3k/z3yFmWzYXXeey9c0sxvlVZ57xs1Ejk9CRvHWvyqrpdkqsPKP3r7j5hrBxsT85l41qV47sq62SYqtovycuS3HyXuz+R5HbdfdJCQgEAAAAAAACwbWgkAgAAAMDubrjoAKuiu09N8rWB5ZcaM8sMfWJgnUYiK6q7n5zkrweW32DMLPNSVZXkOUkOGPiUB3f3yTPOcNGqetja7Xrr1S7paxM73xsG1l171BTndJ2NS5Ikr+3uM0dNsnwuvc5jb5tbivGtyjpHV1WXTHLFDcre090/GDHGkIZhX8rw90EsH+eyca3K8V2VdbKOte8xj05yx13u/nKSn+3u7ywkFAAAAAAAAADbikYiAAAAAOxOI5H5Gtp4Y55XE96KDwys++lRU7DdPSbJewfUHVFVy/Bz7AcnufHA2v/X3f8+Qoa7Jvm7tdtNBtQv22sTO99rk/SAunk2IBr6numYMUMsm7WNsVdfp2QpGmysyjrn6KgBNW8aa/KqumWSmw0o/Z1ZNwtjR3EuG9eqHN9VWSfre3qSX9zl38cnuXV3f2VBeQAAAAAAAADYZpbhD7ABAAAAmJGqumKSCyw6x4r50MC6646aYnbeObDuhlV18KhJ2La6+6wkjxtQekCSw0aOM6qqOjzJEwaWH5/kt0eKcstd/v/bA+qX7bWJHW5tU+TbB5ReqarOO26a/zNk0+z3krx57CBL5ipJzrOXx47L8KZl292qrHNehjQSGaNRV9aanj1lQOnru/uVY2RgZ3AuG9eqHN9VWSd7V1V/luRhu9z1/SS36e5PLyjP46vqiVV1/kXMDwAAAAAAAMCeaSQCAAAAwK6GXkWW2fngwLpbVdW+oyaZjfckOXNA3YFJbj9yFra3/0jy3QF1h4wdZGR/l+HNUH67u78z6wBVVUluvstdQxqJLNtrE8vhxQNqKsnNxg5SVRdPcqUBpf/U3SePnWfJ3Hadx17Y3UPeZ+wEq7LOebnVBo9/N8n/jDT3ryS51gY130ryayPNz87iXDauVTm+q7JOdlNVv5XkD3e565Qkd+7uoY0gZ53nmmt5fjvJfovIAAAAAAAAAMCeaSQCAAAAwK40Epm/dybpAXUXSPIzI2fZsu4+McOujpwk9x0tCJtWVS+tqo9V1R+NOU93n5XkIwNKzxozx5iq6k5J7jaw/N+6e8iGwM24epIL7vLvIY1Eluq1iaXxiiQ/HFB3m7GDJLndwLrnj5piOe3tdfOsJC+YZ5CRrco6R1dVV0tykQ3K3r723mPWc18gyZMGlP56d39r1vOzIzmXjWtVju+qrJNdVNX9kjxll7vOTHKv7n77gvLsl+S5SfZN8lrnOQAAAAAAAIDtRSMRAAAAAHalkcicdfc3kwy9cuwDx8wyQy8fWHe7qrr6qEnYjMsnOTLJw9Y2Bo3pmwNqTho5wyiq6txJnjGw/EdJHjxinFvu9u8NG4ks6WvTlnT30d1dbue4HT3nj8H3k/y/AaXbZdPsB7r7g6MnWSJVdWSSG+3l4X/u7i/NM89YVmWdc3TUgJq3jzT33yW58AY1T+vu1400/2DOY4s/j619HJzLRrQqx3dV1smPVdVdM2naUWt3dZL7d/erF5cqf5bkemv//7wF5gAAAAAAAABgDzQSAQAAACDJ/216v9qic6yo1wys+/mquuyoSWbj5Zk0RthIJfnLkbPMW21csmNcOMOvLr1ZGx2v73X3D0bOMJa/SHKJgbWP6+4vjJhl6kYia5bttYnl8LRMNk6u54iquv5YAarqsAzbmPtXY2VYYr+9l/tPTvLYeQYZ2aqsc16GNBJ556wnrao7Jbn3BmVvTvI7s56bHc+5bFyrcnxXZZ0rr6qOSvLPSfbd5e7fXUQzpLNV1d2TPHrtn8dlcr4DAAAAAAAAYBvRSAQ4h6rav6puWVWPraoXVdUHq+pLVXVCVZ1eVT+sqq9X1Ser6rVV9YSqukdVnXfR2QEAANiy68fPixbl6CRnDajbP8kTx42ydd393UzWNMQdqupeI8aZpSEfo0NHTzFfvzry+Bfa4PFPjzz/KNY26z10YPmHkvztiFn2TXLTXe46dYrmLEdniV6bWA7d/akkrx9Q+osjxrhHkoM2qPlsklfOctKqukpVPbeqvlBVp1TVt6rq1VV161nOsyhVdbkkv7KXh5/S3cfNM89YFrHOqjq0qh5eVW9d+7w5raq+WVVvq6rfrKod+/6lqvbLOc9ze/L9JB+d8byXSPL8Dco+keSe3X3mLOdm51vVc9m8zmOrcnxXZZ2rrqp+OskxSQ7c5e4ndPdTFpMoqaqfS/KS/PhniEd395DvGwEAAAAAAACYIxtDWGpV9Qtrf4jUa7ejF51pu6qqm1fVS5Mcn+StmVwN+JeSXDvJpZKcN8l+SQ5JctEkV0pyhySPSfIvSY5f+wPU+6z90SYAAAA7zw0XHWBVdfeXk7xpYPkv7JDGG09JcvrA2mdX1dXHDDMjJw2oucjoKebrDlV1gRHHv/QGj//3iHOPYu1nY8/NsJ+/n5nkASNvML52ksN2+fd3hj5xSV+bWA5/kI2b3Nynqg4eaf77D6j5i1luqKyqR2bSCOH+SY7IZDPphZLcKcm/VdVzluBn80/P5PcQu/ufJH8+5yxjmus6q+qGST6+Nu8tM/m82T/JhZPcPMlTk3yuqu4467nn5AZJzr1Bzftn/PW4X5KXJrngOmVfT3KH7v7erOZl6azUuWwB57FVOb6rss6tOnDjku2nqq6W5A1JzrXL3c/p7t9fUJ6Dqur3M2lgc/Yx7SQvWEQeAAAAAAAAANankQhLqaquU1XvTPKyTP4Qib2oqttV1QeSvC3JPXPOTQXT2C+TP0B9SSZ/cPrgqqoZxQQAAGA+NBJZrD+bova5VXWD0ZLMQHd/PpONqUOcJ8kbq+qq4yWaiSEbQa9VVfuOnmR+Dkhy7zEGrqrLJrnsBmVDm1hsJ49Kco2BtU/t7g+NGSaTn9nt6ttTPn+pXptYDt39kSRHb1B2wST3nfXcVXXzJNffoOx9Sf5xhnM+LMnfJlnv/PKAJM/c4jwXr6q7VNUD15qG37SqNmrQMBNVde8kt9vDQ99Pco/uPnWGc63EOtfmu3Im59JLblB64STHVNUvznL+OTlqQM37ZzznXyW58TqPfyvJrdbeD8MerdK5bF7nsV2tyvFdlXXOwPkWHWBaa98v/1uS8+9y9yuS/Mac5q+qOrSqLlNVd6iqv03y+SR/kXN+Lf97d39xHpkAAAAAAAAAmI5GIiyVqrpYVb0wkz8I/JlF59nOquoiVfUvmVwt5jozHv5Smfyh17t3wAYgAAAAMtkgkMnVvFmQ7v6vJMcMLD80k8YbQzZOLtKfJfnKwNqLJ3lPVd1+xDxb9c0BNefKnjcI72T3HWnc+2zw+HeS/PtIc4+iqi6X5I8Hln9xitqt2FIjkSV9bWI5/GGSEzeoeVRVHTDjeTe6AnwneXh39ywmq6pLJ3nywPL7V9XU56CqukBVvSrJcUn+NcmzM2ka/o4kx1fV66rqTtOOO8X8l8meN4+fleR+3f3ZGc2zEuvczRMzadg2xD6ZNITaab/XGXLO+fCsJquqhyf5rXVKvpPkqO7+xKzmZKkt/blsHuexdSz98V2zKuvciosNrDtk1BQDVdXFkrwlP5n755OcWVU99i2T9yc/yKR5yGuTPHIPeZLk+eMdCQAAAAAAAAC2QiMRlkJVHVRVf5jkM5lsbKjFJtrequq6Sf4nyT02KO0kH0/y4kyuIPyXSZ6V5A1JThgw1Y2SvL+q7rLZrAAAAMzNlXLOq5yyGI/IxhuAznbeJG+qqsdX1YGjJdqC7v5BknsnOWPgU86b5HVVdXRVXXy0YJv3oYF1f1xV+42aZL6uU1U3nuWAVXWhJL+7Qdkzu/vUWc47B89KcvDA2t/o7h+NGaaqzpVk94/dVI1E1izVaxPLobu/nuTXNii7bJLfnNWca00mbr1B2d909/tmNWeSByeZ5mvpdzYxxyuS3DV7/t3KgUlun+TVVfWfVTXTxnNVdZ4kr0ly2G4PdZL7d/erZjjdqqzz7DkPTXLbKZ92cJI/n3WWsayt8acHlM6kqUdV/Xwmvy/bm68muWV3f3QW87H8VuRcNo/z2B6tyPFdmXVu0dDz+vmrat9Rk2ygqs6f5N8y+Zhtd9/JpDkbAAAAAAAAANuQRiLseFV1rySfyuQKt+dacJxtb+2Pet6R9a+6c0KSP01yeHcf2d2/3N2/1d1/0N2/0d23T3KBTK5m+voNpjwkySurar2rswEAALB4N1x0AJLuPi7JQ6Z4yr5JHpfkY1X1wKqaydVzq+o8VXWjqnpYVd15K2N197uTPGrKp/1qks9V1bOraqafm1V1YFXdrKqeWFXXmPLpQzdBXTfJsxe9AWnG3lxVG21OG2Rt0+9rkpxnnbJvZviVy7eFqvqVJEcNLH9Jd79pxCyHVtUDkxybn/yZ6dSNRJbxtYnl0N3/muTvNyj7o6q6zFbnWmsE8dQNyt6V5DFbnWs3N5uy/qZVtf/Q4rVz4c0Hlt8gybur6o+qasu/Y6yqg5O8KsnV9vDww7v7hVudY5e5VmKdu7lckgM28by7VNWlZh1mJDdPMqR525e2OlFV/VKSf87ef7/+kSQ36O6PbHUuVssKnMtGPY9tZAWOb5LVWecW3GZg3b4Z1qBqFGvfK78he37PsB29qLtPW3QIAAAAAAAAAPZsma6KyYqpqutl8gcqN1pwlB2jqm6R5OVZ/w9H/z3Jr6xduWivuruTvC3J26rqLkmek+RCeynfJ8nfVNUPuvt5UwcHAABgZqpqvyT7Jzl3kvMnOTzJZbLx1WuZk+7+56q6cpI/nuJpl0/y7CRPqaq3Z/I9+yeSfDaTK8T+KMlpmTT8PPt2gUw+/hfLjz8PLp/JptOL7DL2k5K8evMrSrr7aWubjf50iqcdmOSBSR5YVccleXeS/07ymUw2g34zyclJTu7us3Z9YlUdkMkaL5LkkkmumuSaa7er5cdXxJ62kcM7knwryYUH1P5akmtW1Z8neUt3/3CXfOfN5JhfNskVkxyZ5Jvd/ftT5pmncyV5/lqzjMd0939tZpC1jdwvSHKddco6yQO7+3ubmWMRquqCSZ4ysPw7SWbadHdtw9lVk9wiyc8muXH2fuX3qRuJJMv52sTS+J1MPj9uu5fHz53k5VV14+4+dQvzPD+Tz8e9+XKSe3T3GVuYY08uOGX9fmvPWfdn/Lu4ypTj75vJ+fxWVXWf7v7alM9PklTVYZk017jlbg+dmuT+3f3izYy7jlVZ564228SpMtlw/ZwZZhnL0AZeP9y4ZO+q6jeT/G0mx2ZP3pjknt39g63Mw0pb5nPZ2OexIZb5+O5qVdY5lar6uSTTNBH95STvHSnOXlXVgUmOyQIbmWzC8xcdAAAAAAAAAIC900iEHaeqLp7kiUl+MXv/gz12U1VXz+QPT9ZrIvLKJPea9o96uvuYqvp4krcmucQ6pc+qqm909+umGR8AAGCnWGuUcMUkB0/xtC9ULf+3t1V1uSR3Glh+y6r6RpKPJzlurZnlaLZjtu5+3FpjgN+e8qmHJrnD2m1b6e4/q6ofJvmrTDbnTuOSSe69dvsJ8/oa6u7Tq+roJI8e+JTrJPnXJKmq72fys6yDs+efy+6Uhgg3S/KfVfWuJP+Y5DXdffx6T6iqfZPcNMn9MvkYbvRz6T/s7tfMIuwc/U2Gb5L8ZJKHbuHz9oAkhyU5TyZNba6SydfIUJtqJJIs52sTO193n1ZVd0vymiS33kvZdZL8S1XdYzNXTa+qpyT5+XVKvpTkFt39jWnHHuCETTzn+1PUnr6J8ZPJ+eDDVfWr3f3GaZ641lTq5Zm8b97VN5Pctbv/c5OZ1rMq69zVVj4fr5flaiRyqSSfn3bwqjp3JsfhXnspOS3JHyR5ytjfs7DclvxcNvZ5bENLfnz/z6qscxpVddEkz53yaQ+oqhd199yaiax9z/zPSW41rzln4L+7+2OLDgEAAAAAAADA3pW/aWKnqKpDkvxuJhs1NnsVtX/s7vvOLNQOUVUHJflgJlcl3Zv/SnLT7t7sH9Omqq6U5P2ZXM1ob76b5Brd/dXNzgMAALBIa1cIvVwmGwJ3v11kgdHG8r/dfa1pnlCT3fFXS/IzmTQP+Jkkh29y/pOSfCKTxh1n345N8sXNbNbbztn2pKoelOTvkuw/i/E24cwkD+juF85qwKq6RZJ/SnLRWY25Sack+enu/sg0T6qqC2Xycb7QjPO8urvvMuMxN6WqPpDJBrOhPpNJc4wvZ/J1cXomPx86LJPXxmtl2M/zzkry2O7+q2nynm3t54dXSnLltdtV1v57hSQHDRjie5ms45OZfG2f/f+fW6/xblUdleQtm8m8IPfp7n/eygDL+NrEzldVB2eyAfPO65S9Jckvdfe3phjz75L8+jpln01yVHd/aWjWaVTV05M8fIqnfKS7rznF+BdNcly2dvGBf03ye939mQ3mumAmv+f5rfzk68dbk9yvu4/bQo715l6Jde4hy2eSXH4TT90270v2Zu1j+vWB5X/e3X805fh3SPLUTL7325NPZPJ68qFpxoX1LOO5bOzz2JRZlu74rpNp6de5kar6mSTPy0829BripCT3T/KyOTS3rSTPz6Tx5k7ygO5+3qJDAAAAAAAAALB3Gomw7a394cR9kjwxySW2ONyqNhL52ySPXKfkpEyae3xhBnPdI8m/bFD2H5n8EZEXIAAAYEepqucnuW+SfRYcZZ6maiRSVa9JcpMk5xst0cSPMtng/+7u/s0hT9jO2dazdjX75ya5/lbHmkJnchXjP5620cYQVXVYkj9L8pAk+856/AFen+SR3f3ZzTy5qn4+ycuS1AwzvbK717uy89xsopHILHwlyf27+83TPKmq7pjkoZk0DLlUZvsxOdvpmWyK+2T2sIG8qj6U5KdGmHcsP9vdW258soyvTex8a79PeEwm55i9nV++leSPMvl9wanrjHPnJE/I5PVlb16R5Ne7+/ubDr2Bqrpakv/N8PefD+zu5045x99k0vRiK85I8m+ZNAv7QCbNpfbJpGHbdZLcMcld8pONpb6d5PenzbwZq7LOXVXVvTLZTD6tt3T3z846zyxV1S8ledHA8tMzaaT1ig3GrCQ/m+R3ktx6L2XfS/KnSf5uK835YW+W7Vw2j/PYlHmW6vjuzaqs82xrOS+aScYbZnIuvt4Mhv5MklcleU8mzWO/srdjtVkD/pZjO/phkot19w8WHQQAAAAAAACAvdNIhG2tqm6QydW+fnpGQ65cI5GqunYmf8y63iaKx3X3n85wzjcl+bkNyn7NFUMBAICdpqqOyfpXdF1G0zYSmfcPm77U3UcMKdzO2TZSVftk0mj195JcbRZj7sU3krw4yfO6+1MjzpMkqaorJPntJL+a5OCRp/t+klcmeVp3/+9WB6uqX0vynGy9EcqJSZ6V5EndfeIWx5qJqvrjTDZan3cO0303kytb/3V3/3DaJ1fV45M8btah1nGL7n77bhm+mOTSc8ywVdfu7v+ZxUDL+trEzldVN0vyD0muuk7Z8Zk0hPivTD7HzkhyoUwaA/1cksuu89zvJXlsdz9zJoE3UFV/nuQPBpS+MckduvusKcffL5OvsXtuIt5mfT/J0zN5/Z/LpuNVWefuqupxSR4/5dNe1t3zPE5Tq6qjM3kPOY1XJnl+kvdn8h7s3EkumOQaSX4myZ2SXGYvz/3B2nP/sruPnz4xTGeZzmVjn8c2Y5mO73qWeZ1rf0vy8iQHZfK9635zmvqkTM4Jp3f3lr4PrKoHJ1no58gmvaC7f33RIQAAAAAAAABYn0YibEtVdckkT0xy76zfAOOkJP+a5O2Z/PHeRlaxkchbkhy1Tsm3kxyxmY0a68x51SQfy/ofu68muWJ3/2hW8wIAAIxNI5GNbedmHds521BrV9m9RZJ7ZHKF3YtsccjO5Hv4tyY5Jsm7u/vMLY45tao6fybruVuSW2WyEWirzkry6ST/kcmmqDd39ykzGPf/VNVNkzwlyXWnfOr3k/x7Jlc2/tft+PORtc3W101y00yu6Hy9JBef0fCnJXlHkn9K8vKt/FxKI5FNuVR3HzfLAZf1tYmdbe117MGZNFC4wIyGPS2Tzbh/1t3fndGYG1r7GntSkt9dp+xVSX5li6+p90/yF0kuvNkxBvh4kmcneeGirmK/KuvcVVUdlcnv0S418CnP7O6HjBhpy6rquCSX2KDsaZm8t9xKs6tPZdI87nmLagbD6lqWc9m8zmPTWpbju5FlXWdV3TzJ2xYx99m6e72/h9hQVT01yW/OJs1c3ai7/3PRIQAAAAAAAABYn0YibCtVda5Mrl75qOz9KrRnZLL54yVJjunuH1XVEUm+MGCKlWokUlW3zuRYrefJ3b3eH21tdu7XJ7ndBmV/2N1/Meu5AQAAYBWsbca6YpLrZ3Kl4COSXDLJRZOcK5OfrRyY5NQkJyf5TpKvJPlSJptbP5Lkfdtlc9PZqmr/TK4Kf70kR2ay4fWSmWz2PSQ/XtfpSU7JpCnHt5J8LcknM2k+cGySj8+jQccuDRRuk0nTjcMzubL9/pkc928n+fJapg+s3T6+E5siVNUFMvmYXDnJ5ZJcJsnFMmkacYFMGsAcuFZ+Wn68/q8n+WImn3cfSvKe7j55ntmZn2V9bWLnqqqDM2lUdb8kt8z6DbD35mNJXpTkxd39tRnGm0pV3TDJIzI531woyQlJ3pfkOd392hnNcUiSX0jya0lukmSfLQ55WpL3Z9JA6xXd/bEtjjcTq7LOXa39Du4xSX4ne/8d3Nn+pLsfP3qoTaqqKyf5xAZlZyU5fybvFW+b5BeT3CHJeTZ43glJ/jfJm5O8urs3mgdGtyznsnmcxzaZaymO70ZWZZ0AAAAAAAAAwIRGImwbVXXLTP7o5PC9lLwvyYuTvLS7j9/tuUdEI5GfUFVvSXLUBmVX6u5PjzD3zyV50wZl38rkCqinznp+AAAAAADYVVVdJMkNk/x0kutk8vuI863d9k3yvSQnZvKz6w9n0vzpv7r7kwuIu3BVdd5MmmzcID9uIHV4kkPz46ZAp2XSGOikJN/Ij5tHHZvJZuMPbPfmUauyzrNV1eWTHJNJc7C9uXN3v2Y+iaZXVQ9L8ncblH2ou6+z2/P2yaQh2tUyaYJ2rkw+picm+W6ST3T3cTMPDDPkXDauVTm+q7JOAAAAAAAAAFhlGomwbVTVnyf5g93u/mySlyR5SXd/Zp3nHhGNRM5h4NXYju3uq400/76Z/CHthTYovV93Hz1GBgAAAAAAAM6pqg5P8qlMmqXsyUW6+1tzjDSVqjomyZ03KPvb7v7tOcQBAAAAAAAAAADYdvZZdADYg+OT/H2SG3b3Fbr78es1EWGvHjqgZrSryXX3mUleNaD04WNlAAAAAAAA4Jy6+2tJXr+Xhz+/zZuI7Jvk5gNK3zFyFAAAAAAAAAAAgG1LIxG2k/cmuUOSw7v74d39X4sOtFOt/RHlPQeU/sfIUd4woObaVXWlkXMAAAAAAADwY6fs5f5j5hliE66X5LANajrJu+aQBQAAAAAAAAAAYFvSSIRto7vf0N2v7+4zFp1lCdwsyYU2qDkzydjNWt6Z5KwBdfcYOQcAAAAAAAA/dsRe7v/HeYbYhKMG1Hyku787ehIAAAAAAAAAAIBtSiMRWE53H1BzbHefNGaI7j4xyf8OKP2FMXMAAAAAAAAwUVWHJbnRHh76t+7+yLzzTGlII5F3jJ4CAAAAAAAAAABgG9NIBJbTbQfUfHT0FBMfGlBz9aq62OhJAAAAAAAAeHiS/Xe776wkj11AlsGq6pAkNxxQqpEIAAAAAAAAAACw0jQSgSVTVZdMcpkBpceOnWXNhwfW3XzEDAAAAAAAACuvqq6a5DF7eOgZ3T2kOfwi3TTJARvUdJJ3ziELAAAAAAAAAADAtqWRCCyfmw2s+8SoKX7sIwPrbjFqCgAAAAAAgBVWVZdO8vok59rtoY8l+b35J5raUQNqPt7d3x49CQAAAAAAAAAAwDamkQgsn5sMrPvyqCl+7PMD64bmBgAAAAAAYApVddMk70tyxG4PfSvJHbv75LmHmt6QRiLvGD0FAAAAAAAAAADANqeRCCyfaw2sm1cjka8mOXVA3RWr6qCxwwAAAAAAAKyKqrpIVT0vyduTXHi3h49PclR3f3HeuaZVVRdMco0BpRqJAAAAAAAAAAAAK08jEVgiVVVJjhxQekp3f3vsPEnS3Z3kSwNK982w7AAAAAAAAKyjqq5UVc9I8sUkv56kdiv5bJKf6e6PzjvbJt0qP7mGPXnn2EEAAAAAAAAAAAC2O41EYLlcNsmhA+rm0kRkF18fWHfNUVMAAAAAAAAssaq6bVW9L8knkzwkyUF7KHttkut396fmGm5rjhpQ8+nu/sboSQAAAAAAAAAAALY5jURguVxlYN28G4kM/aPNK42aAgAAAAAAYLn9XJLr7eWxE5I8sLvv1N0nzDHTLNx6QM3bxw4BAAAAAAAAAACwE2gkAsvl0gPrtmsjkaH5AQAAAAAAGObUJP+Q5Ird/dxFh5lWVV01w36H9M6xswAAAAAAAAAAAOwE+y06ADBTlxpYd+KYIfbgOwPrhuYHAAAAAABgfccnOTrJ07r7qwvOshV3HVj3jlFTAAAAAAAAAAAA7BAaicByGdqI4wejpvhJJw6sG3I1OQAAAAAAAPbsxCT/lOQVSV7f3actNs7WVFUlud+A0i9291fGzgMAAAAAAAAAALATaCQCy+XwgXXbtZHIRatqn+4+a8wwAAAAAAAAy6i7H7/oDDP2S0kuN6Du82MHAQAAAAAAAAAA2Cn2WXQAYKbOP7DupFFT/KQTB9btk+SwEXMAAAAAAACwA1TVJZL89cDya1fVucfMAwAAAAAAAAAAsFNoJALL5XwD604ZNcVPOnmK2qFrAAAAAAAAYMnUxG2TvDvJRQY+7bxJjqmqy44WDAAAAAAAAAAAYIfYb9EBgJnSSAQAAAAAAIAdpap+OcnVkhyR5IZJLrmJYW6Z5HNVdWySjyX5WpLvJzmxu586m6QAAAAAAAAAAADbn0YisCSqav8khwwsP3XMLHswTSOR844VAgAAAAAAgG3p15PcbEZjHbl2O9t3kjx1RmMDAAAAAAAAAABse/ssOgAwMwdNUXvaaCn2bJrGJdOsAwAAAAAAAAAAAAAAAAAAAFiz36IDADOz/xS1Z46WYuvzTbOODVXVhZNcaJZjLqFDk1w3yfeTfC/JcZl/sxkAAAAAAGB1PXTMwavqyDHHBwAAAIBdHJDkkrv8+x3d/b1FhQEAAABgNWkkAstjmgYcZ42WYs+maSRywIznfkiSx814TAAAAAAAAAAAAACAjdw5yWsWHQIAAACA1bLPogMAM7MsjUSmWQcAAAAAAAAAAAAAAAAAAACwRiMRWB7TfD33aCm2Pp/XJQAAAAAAAAAAAAAAAAAAANiE/RYdAJiZM6aonXezjn2nqD19xnP/Q5KXz3jMZXPlJK/Y5d93TvK5BWVhAd706P0+tugMAMByuM1fnXG1RWdg+/F+EwCYFe832Z33mgDArHivyZ54vwkAzIr3myvncklevcu/j1tUEAAAAABWl0YisDxOm6J2msYes7CwRiLd/a0k35rlmMumqna/63PdfewisrAYX3jqAYuOAAAsCe8j2RPvNwGAWfF+k915rwkAzIr3muyJ95sAwKx4v7la9vB3udP8jTcAAAAAzMQ+iw4AzMw0DTjm/bW/sEYiAAAAAAAAAAAAAAAAAAAAsCo0EoHlMU0Djv1GS7Fn+09Rq+s2AAAAAAAAAAAAAAAAAAAAbIJGIrA8Tk5y1sDaA8cMsgcHT1F70mgpAAAAAAAAAAAAAAAAAAAAYIlpJAJLors7yfcGlh80ZpY9mKaRyIljhQAAAAAAAAAAAAAAAAAAAIBlppEILJcTBtYdOGqKnzRNI5GhawAAAAAAAAAAAAAAAAAAAAB2oZEILJehTTjONWqKn3ToFLUnjhUCAAAAAAAAAAAAAAAAAAAAlplGIrBcvj2w7tyjpvhJ5xtYd0p3/3DUJAAAAAAAAAAAAAAAAAAAALCkNBKB5fKVgXXzbiRy3oF1x40ZAgAAAAAAAAAAAAAAAAAAAJaZRiKwXIY24tBIBAAAAAAAAAAAAAAAAAAAAJaMRiKwXL48sO4Co6b4SRcZWDc0PwAAAAAAAAAAAAAAAAAAALAbjURguXxxYN0FxwyxB0MbiXxxzBAAAAAAAAAAAAAAAAAAAACwzDQSgeVy7MC67dpIZGh+AAAAAAAAAAAAAAAAAAAAYDcaicAS6e5vJfnWgNLzVtWBY+fZxaUG1n1s1BQAAAAAAAAAAAAAAAAAAACwxDQSgeXz0QE1leQSYwdJkqo6V5ILDSg9NclnRo4DAAAAAAAAAAAAAAAAAAAAS0sjEVg+HxpYd6lRU/zYZQfWfay7zxw1CQAAAAAAAAAAAAAAAAAAACwxjURg+bx7YN3QBh9bdcWBde8aNQUAAAAAAAAAAAAAAAAAAAAsOY1EYPm8K0kPqLvq2EHWXGtgnUYiAAAAAAAAAAAAAAAAAAAAsAUaicCS6e4Tknx0QOmRY2dZc80BNR2NRAAAAAAAAAAAAAAAAAAAAGBLNBKB5fSGATXXGjvEmusPqHl/dx8/ehIAAAAAAAAAAAAAAAAAAABYYhqJwHJ65YCai1TVZcYMUVVXSXKRAaWvGjMHAAAAAAAAAAAAAAAAAAAArAKNRGAJdfcHknxpQOmNRo5y84F1GokAAAAAAAAAAAAAAAAAAADAFmkkAsvrJQNqbjNyhjsNqPnv7v7MyDkAAAAAAAAAAAAAAAAAAABg6WkkAsvr2UnO3KDmNlU1yutAVZ03ya0GlD5jjPkBAAAAAAAAAAAAAAAAAABg1WgkAkuqu7+c5LUblF0wyS1HinCvJPtvUHN8kpeNND8AAAAAAAAAAAAAAAAAAACsFI1EYM6q6mpV9eyq+lxVnVJV366qt1XVg6pqo8Yb0/qrATUPmPGcZ3vYgJq/6e5TR5ofAAAAAAAAAAAAAAAAAAAAVopGIjAnNfH4JB9O8sAkl01yYJILJLl5kmcl+UhVXXFWc3b3fyY5ZoOyu1TVpWY1Z5JU1e2THLlB2VeTPG2W8wIAAAAAAAAAAAAAAAAAAMAq00gE5ufPkjwuyb7r1Fw5yTur6uIznPf3k5yxzuMHJHn8rCarqn2T/PWA0j/u7pNnNS8AAAAAAAAAAAAAAAAAAACsOo1EYA6q6jqZNPQY4iJJ/n5Wc3f3J5I8cYOyX6mqG81oyscmucoGNf+e5IUzmg8AAAAAAAAAAAAAAAAAAACIRiIwL49OUlPU36WqrjjD+f80yYfXeXzfJC+qqsO2MklV3SzJ4zcoOzHJ/bq7tzIXAAAAAAAAAAAAAAAAAAAAcE4aicDIqqqS3GYTT739rDJ09+lJ7pXkhHXKLpvkdVV1yGbmqKqfTvKaTJqS7M0ZSX6xu7+ymTkAAAAAAAAAAAAAAAAAAACAvdNIBMZ3gSTn2cTzLjvLEN39qSR3TnLqOmU3SfKOqrrcNGNX1f2S/Hs2XueDuvsN04wNAAAAAAAAAAAAAAAAAAAADLPfogPAtKrqoCQXTXJ4kout3a408OnXrarHJvl6kq+t/ffrSb7T3T1C3K2YeZ7ufldV/XySf0lyyF7Krpvkw1X1D0n+vruP21NRVe2b5NZJHp3kFhtMfWaSh3f3CzaXHAAAAAAAAAAAAAAAAAAAANiIRiJsG1V1SH7cGOTwdf7/fFuY5sgkf7mH+0+rqm/kJxuM7P7/x2+i4ch3knwvyWFTPu/zU9YP0t2vq6pbJHldkgvtpezQTBqEPLqqPpnkA0mOT3JyJsf/0klukuQ8A6b8QZJ7dfcbtpodAAAAAAAAAAAAAAAAAAAA2DuNRNhO3pDkZgua+4Akl1q7recWSd4+zcDd3VX1hiT3nuZpmTT6GEV3v6+qrpXkWUnuuEH5lddum/GWJA/q7i9s8vkAAAAAAAAAAAAAAAAAAADAQPssOgCsiCclOWuK+ld092fHCpMk3f217r5Tknsm+eSMh/9Ekl/q7p/VRAQAAAAAAAAAAAAAAAAAAADmQyMRmIPu/t8kjxtY/tUkDx8xzjl098uSXDXJ3ZO8KclpmxzqR0leneTOSY7s7pfMJiEAAAAAAAAAAAAAAAAAAAAwxH6LDgBn6+6bLzrDmLr7z6uqk/xJkn33UvbxJHfq7m/OL1nS3Z3kVUleVVXnTvKzSa6T5OpJrpDkvEnOk+SAJCcl+UGS7yT5ZJJjk3wgydu6+5R55gYAAAAAAAAAAAAAAAAAAAB+TCMRmKPu/ouqOibJI5LcOsnhSX6Y5CNJXprkBd19+uISJt39gySvXLsBAAAAAAAAAAAAAAAAAAAAO4RGIjBn3X1skgctOgcAAAAAAAAAAAAAAAAAAACwXPZZdAAAAAAAAAAAAAAAAAAAAAAAYOs0EgEAAAAAAAAAAAAAAAAAAACAJaCRCAAAAAAAAAAAAAAAAAAAAAAsAY1EAAAAAAAAAAAAAAAAAAAAAGAJaCQCAAAAAAAAAAAAAAAAAAAAAEtAIxEAAAAAAAAAAAAAAAAAAAAAWAIaiQAAAAAAAAAAAAAAAAAAAADAEtBIBAAAAAAAAAAAAAAAAAAAAACWgEYiAAAAAAAAAAAAAAAAAAAAALAENBIBAAAAAAAAAAAAAAAAAAAAgCWgkQgAAAAAAAAAAAAAAAAAAAAALAGNRAAAAAAAAAAAAAAAAAAAAABgCWgkAgAAAAAAAAAAAAAAAAAAAABLQCMRAAAAAAAAAAAAAAAAAAAAAFgCGokAAAAAAAAAAAAAAAAAAAAAwBLQSAQAAAAAAAAAAAAAAAAAAAAAloBGIgAAAAAAAAAAAAAAAAAAAACwBDQSAQAAAAAAAAAAAAAAAAAAAIAloJEIAAAAAAAAAAAAAAAAAAAAACwBjUQAAAAAAAAAAAAAAAAAAAAAYAloJAIAAAAAAAAAAAAAAAAAAAAAS0AjEQAAAAAAAAAAAAAAAAAAAABYAhqJAAAAAAAAAAAAAAAAAAAAAMAS0EgEAAAAAAAAAAAAAAAAAAAAAJaARiIAAAAAAAAAAAAAAAAAAAAAsAQ0EgEAAAAAAAAAAAAAAAAAAACAJaCRCAAAAAAAAAAAAAAAAAAAAAAsAY1EAAAAAAAAAAAAAAAAAAAAAGAJaCQCAAAAAAAAAAAAAAAAAAAAAEtAIxEAAAAAAAAAAAAAAAAAAAAAWAIaiQAAAAAAAAAAAAAAAAAAAADAEtBIBAAAAAAAAAAAAAAAAAAAAACWgEYiAAAAAAAAAAAAAAAAAAAAALAENBIBAAAAAAAAAAAAAAAAAAAAgCWgkQgAAAAAAAAAAAAAAAAAAAAALAGNRAAAAAAAAAAAAAAAAAAAAABgCWgkAgAAAAAAAAAAAAAAAAAAAABLQCMRAAAAAAAAAAAAAAAAAAAAAFgCGokAAAAAAAAAAAAAAAAAAAAAwBLQSAQAAAAAAAAAAAAAAAAAAAAAloBGIgAAAAAAAAAAAAAAAAAAAACwBDQSAQAAAAAAAAAAAAAAAAAAAIAloJEIAAAAAAAAAAAAAAAAAAAAACwBjUQAAAAAAAAAAAAAAAAAAAAAYAloJAIAAAAAAAAAAAAAAAAAAAAAS0AjEQAAAAAAAAAAAAAAAAAAAABYAhqJAAAAAAAAAAAAAAAAAAAAAMAS0EgEAAAAAAAAAAAAAAAAAAAAAJaARiIAAAAAAAAAAAAAAAAAAAAAsAQ0EgEAAAAAAAAAAAAAAAAAAACAJaCRCAAAAAAAAAAAAAAAAAAAAAAsAY1EAAAAAAAAAAAAAAAAAAAAAGAJaCQCAAAAAAAAAAAAAAAAAAAAAEtAIxEAAAAAAAAAAAAAAAAAAAAAWAIaiQAAAAAAAAAAAAAAAAAAAADAEtBIBAAAAAAAAAAAAAAAAAAAAACWgEYiAAAAAAAAAAAAAAAAAAAAALAENBIBAAAAAAAAAAAAAAAAAAAAgCWgkQgAAAAAAAAAAAAAAAAAAAAALAGNRAAAAAAAAAAAAAAAAAAAAABgCWgkAgAAAAAAAAAAAAAAAAAAAABLQCMRAAAAAAAAAAAAAAAAAAAAAFgC+y06AAAAAAAAAAAAAAAAAGx3X3jqAb3oDMD6LvPI02rRGQAAABZtn0UHAAAAAAAAAAAAAAAAAAAAAAC2TiMRAAAAAAAAAAAAAAAAAAAAAFgCGokA/H/27jvKtrssH/jzpjcCpNAhhN577yBSFOlFOoiAIgqIBUSpooIoXUCklx+9S69SJPTeSyihJUAIkEry/v7YJ3IJ987ZZ+bsmblzP5+19koy8+7v9zln9jlnYK39DAAAAAAAAAAAAAAAAAAAAGwBikQAAAAAAAAAAAAAAAAAAAAAYAtQJAIAAAAAAAAAAAAAAAAAAMBCqurwqnp6VX29qk6sqh9V1Ruq6mYbnQ1gV7bHRgcAAAAAAAAAAAAAAAAAAHZuVfW6JLfY6Bwzv0pycpKTZseJSX6c5OgkP5r98ztJvjI7juzuUzcmKsDOqarumOS5SfbZ5suHJvmDJH9QVa9IcrfuPmkj8gHsyhSJAAAAAAAAAAAAAAAAAABbyR6zY79tvnb+FeZPrqovJfnw7PjfJF/u7p4sIcBOrKpunORFSXZfYez2SU5Jcpd1CQXA/9ltowMAAAAAAAAAAAAAAAAAADu9X210gDXYK8llktwnyXOTfDHJUVX1zKq6aVXtvaHpADaRqtojyTOyconI6e5cVTeYOBIAZ6BIBAAAAAAAAAAAAAAAAABYq9slOV+SGya5X5InJXlzkq9l5ywZOWeS+2Z4DMdU1TOq6pIbnAlgM7heksMXmL/nRDkA2IE9NjoAAAAAAAAAAAAAAAAAALBz6+5O8p3Z8a5tv1dVeya5QJKLJHlekoPXPeDaHJDkT5L8SVW9O8njuvvtG5wJYKNcduJ5ANZIkQgAAAAAAAAAAAAAAAAAMJnuPiXJl5N8uap+kfFFIod395HzhqqqkuybZJ/ZcZYk505yrtk/L5nkMkkummTPBeOf0Q2S3KCq3pLkr7r7C2tcD2Crq40OALCrUSQCAAAAAAAAAAAAAAAAAOy0uruTHD87kuR7SX6r4KOq9kpylSQ3nB1Xzervs7xpkhtV1ZOTPLS7T17lOgA7m88vOP+5SVIAsEO7bXQAAAAAAAAAAAAAAAAAAICpdffJ3f2B7n5kd18rybmT/GWST61yyd1n5/9vVV1kSTEBNrt3JfnOAvPPnygHADugSAQAAAAAAAAAAAAAAAAA2OV094+6+4ndffkk10zy9lUudYUkH6+qWy8vHcDm1N2nJPnTJKeNGH9Fd79t4kgAnIEiEQAAAAAAAAAAAAAAAABgl9bdH+ruGye5apKPrWKJA5K8oqrusdRgAJtQd/93krsnOXGFsVcluce6BALgNygSAQAAAAAAAAAAAAAAAABI0t0fSXK1JH+Z5JcLnr57kudW1Z8vPRjAJtPdL05yiST/keSbSU5OckySNyW5eXffrrtP2MCIALusPTY6AAAAAAAAAAAAAAAAAADAZtHdpyZ5YlW9LckbklxwgdMryZOr6vvd/apJAgJsEt39zSR/ttE5APhNu210AAAAAAAAAAAAAAAAAACAzaa7v5DkykneseCpleQFVXW5pYcCAIA5FIkAAAAAAAAAAAAAAAAAAGxHd/80yc2SvHXBU/dL8vqqOuvyUwEAwI4pEgEAAAAAAAAAAAAAAAAA2IHuPjnJrZK8e8FTz5fk8ctPBAAAO6ZIBAAAAAAAAAAAAAAAAABgBd19YpJbJ/nGgqfeq6quPUEkAADYLkUiAAAAAAAAAAAAAAAAAABzdPfPktwuyUkLnFZJ/rOq9pgmFQAA/CZFIgAAAAAAAAAAAAAAAAAAI3T3J5L8/YKnXSzJHSeIAwAAv0WRCAAAAAAAAAAAAAAAAADAeE9O8uUFz3lIVdUUYQAAYFuKRAAAAAAAAAAAAAAAAAAARuruU5I8cMHTLpHklksPAwAAZ6BIBAAAAAAAAAAAAAAAAABgAd391iT/u+BpfzpFFgAA2NYeGx0AAAAAAAAAAAAAAAAAAGAn9O9JXrnA/A2q6tDuPnqqQElSVbsnuWySaya5fJLDk5w/yYFJ9s9wb+kJSX6e5PtJvpXkM0k+luR/uvu4KfMtQ1XtluRKSa6S4TFeMMlhSc6aZL8kneQXSY5N8o0kX8lQ/PKe7j5qAyJPoqoumOQGSa6T5HJJzpHkwd39wiXvs1+G5/qaSS6Z5AJJzpPkgAzPdzJcU8cmOSrJ15N8OsmHkxzR3acsM8+iZs/T1WbHZZIclOFaOWuSvTJkP/34cZLvZngc303y1SRfSvKV7j5pHTOfJcNzfrUkV05yrm0ynynJydtk/vk2eY9K8s1Z5i919zHrlXmzqqo9klwqyVUz/PwPmx2HJNk3wzVcSY6fHcck+XaG98ZPJTkiyee6+9T1zj6Fqjp/kt9JcsUMnxWnv3funuH6/0mG98z3J3lfd39yY5ICa6FIBAAAAAAAAAAAAAAAAABgca9NcmSGko4xdk9y2yTPmCJMVV0tyd2S3C7DDfIrOWB2nDPJFZLcavb1U6vq/UlekOTl3X3CGjM9IMmFV3n6i7r7iG3W2j3JjZLcOclNM5RBrOSg2XGBJDdMcr/ZOkckef5s/V+uMttvqKo/TnKtNSxxr7ElBVV1niR3SnKHDD+7M9ptDTm23Wf3JLeY7fX7SfaZc8qeGcpqzpfk6knuMvv6L6vqjRmuqbd1dy8j3zxVdUiSuye5T5KLzBk/0+xIhlKF7T2vp1XV6QUpn0ry/u7+n+WkHcye899Lct8M1/hKP8t9Z8fpLraDNY/JUBT0qQzZX7nI67qq/jpD2cRaPKu737/GNRZSVXsl+YMkt8lw/R444rQDZ8c5MhSPbOvY2XX86iRvWmapSFUdnuRea1jiESvlqarKUKJymyS3THKhFdY61+y4VJJbz87/YpJ/SvKS9Xr9AmunSAQAAAAAAAAAAAAAAAAAYEHdfWpVvTTJ3y1w2h2y5CKRqrp2kkcnud4Sltt9ts71kvxzVf1Tkv9Yw03zt0py3VWe+7EkR1TV3hmKFR6U8aUtK7nq7HhUVf1zkqd39ylrXPNaGUorVutvkvxopYGqumGSP8tQjrD7GvZa0ax04O5JHpaVCwfG2j/JH86OT1XV33X3W5aw7nZV1f5JHpvkT5LsvcSld8tQinPhDIVAH8zaymN+Q1XdOskTMxSxLNMhSW4wO5LkQ0m+tsD5v5PkxmvM8M4k61IkUlUHZigN+osMRUnLcpYkd50d36qqJyd55lrLlmYOy/B6W63/TPLtM36xqs6a5J4ZXgurLXRKkosneVGSP6qqO3f399ewFrBOltIqBgAAAAAAAAAAAAAAAACwC3rNgvNXnxVjrFlVnaWqnpPkf7KcEpEzOkeSpyT5YFWt5Sb0VauqGyf5fJInZzklIts6W4bihiOq6lJrXOvnazz/0O19sap2q6rbVtUnk7wjyS0zbYnIxTIUPjwvyykROaPLJXlzVb2gqs607MWr6vpJPpPkAVluichkqurQqnp5kldn+SUiy7DWkp11U1V3SvLlJP+c5ZaInNFhSf49yeer6uYT7jPWYdv+R1Vdqaqel+SoJP+WtZWIbOv6ST5UVYcvaT1gQntsdAAAAAAAAAAAAAAAAAAAgJ1Rd3+8qr6VM9zIvYK9klwxyYfWsm9VXSLJG5JccMT4aUk+leSzSY5OcnKSMye5SJKrJZlX6HDVDGUbt+7u9y4Y9ZZJrjk7rpXkykn2GXnun2V4rmrBPRd1+SQfqao7dvfrV7NAd/95VT0mw+O7cpIrZch+jpFLHHLGL8wKCv45ySVWk2lRVXWbJC9Isv+I8ROSfCTJl5L8NMPP6KAkl8rw+Ofdv3y3JJerqpt193dWHXobVfUnSZ6eZLc5oycm+XiGwomfJjkpyVkyvCbOn6HsZMxzsGazgp63Z1xJzleTfCzJMUmOy5DxzBkKcS6X5NyThExukaGI4vKzfU7/59km2m9hVXVAkucnuc3IU36e5HMZrt9jk/wyyb5JDsxQoHPpbOc1uR2HJ3l9Vf1Xkvt390kLBf+1TyS5e4b3yGsluVgWe987X5JU1XWSPDzJ76wyxxjnz1AGdNXuPm7CfYA1UiQCAAAAAAAAAAAAAAAAALB6b09y7wXmr5Y1FIlU1TWTvCXzC0B+nOTfkjy3u3+4g7X2SXL7JI/OymUoZ03ylqq6SXe/b2zW7j42yX/PjlTVXkmukOQJGcpFVnKlsfsswb5JXlNV9+ru569mge7+UbZ5rElSVedJ8tHMLxQ5dJtzLpfkqRkKBdZFVT0gyRMzv7zgi0n+Kclruvv4Hax1SJL7JfmbrFzIcZkk76uqa3T3DxZP/Rt73i3JM+aMfTrJ45O8qrtPXmGt3TIUOfxeknskueRasq2wz7mSvDvJeVYYOy7J05L8R3cfNWe9Q5NcL8kfJrl5lnQPeXeflqF05ctJXrbNfudKcsMM5TMbpqrOm+RtSS4+Z/S0JK9J8qwk7+vuU1ZYszK8/9wlyb0yv1jmj5Nctqpu2t0/Hpv9dLNCjhfOjlTVwRneH6+d4bW035wlblRVd0lyk0X3XqWLZXgPv8867QeswrxWLQAAAAAAAAAAAAAAAAAAduyjC85ffbUbVdUVk7w580tE3pTk4t39zzsqEUmS7j6xu1+Y5LKzdVeyT5LXV9VFFsl8hv1O7u4PJ/nagqf+KslnkjwnyV8muU2SK2YoYThrkj0zlIGcPcPze78kr0ty0gJ77Jbk2VX1+wtm26Hu/u7IDIdU1X5V9e9JPpb1LRG5d5InZeUSkU7y2CSX7e4X76hEJEm6+5jufnSGIoZ5P+fDMxTU7L1Y6l+rqsskefacsSckuVJ3v3SlEpFkKM7o7i909xO6+1JJ7pDk6NXm255ZWckrsnKJyCeTXL67HzavRCRJuvvo7n5ld98mySWSvGs5aXe43/eS/M+Ue8yzTRnLvBKRzya5YnffrrvfuVKJSJL04KPd/YAM1+j/GxHnykneOSsBWZPu/nF3v6G7/zrjrr27Zf1KRE53r6q61DrvCSxgKW1SAAAAAAAAAAAAAAAAAAC7qI8sOH+J1WxSVYcmeX2SA+eMPifJfbr7tLFrd/fPqupWSf47yQ1XGD1zkhdX1TW6+1dj11+lE5K8Jskrk7y9u0+YM/+rJCcm+VGSDyd5RlUdlKF45EFJ9hux5x5JXlZVl+vur686+eKum+QBSS62wDknZyhQWakAZEVVde0kz5gz1kn+qLufv8ja3f2lqrp+kiOSnGuF0csl+ZcMP6OFVFUleW6SvVYY+/dZIcOqdPcrqurLST612jW24/5JrrnC97+a5Ibd/ZPVLN7dX62qG2UoObrCatbY7Kpq3yRvSXKhOaP/neT2K5XfrKS7j05yp6r6QJKnJNl9hfHLJXldVV1/Hd4fV3JUhvKULyT5dpLvzI6fJPn57Dg1ySEZXpvXTXKLJNdeYI/dkvxNhhITYBPabaMDAAAAAAAAAAAAAAAAAADsxD6XocBirPOtcp8XJjn3nJm3JrnvIiUip+vuk5PcOcmP54xeOcmfL7r+Knyku+/S3a8fUSKyXd39k+7++wxlCp8ZedoBGcpSVioMWLY/zPZLRL6Z5BVJHpXkjkkun+Q8Sfbv7r2TPH+1G1bVwUn+X1YuRkiSv1+0ROR03f3dJHcdMfqAqlpN4cVtk1xxhe9/KUPZwZp096ezeGHQdlXVfkn+fs7YPVZbInK62XvAf61ljU3uP5JcZs7MB5PcerUlItvq7v9I8qcjRq+V5F/Xut+CvpbkoRlKoA7q7vN09027+8Hd/eTufk13f7S7v97dP+ruE7r75O7+Xnd/rLv/rbuvk+RGSb61wL63rap5xVbABlEkAgAAAAAAAAAAAAAAAACwSt19apLvLHDKAVV10CJ7VNUfJrnJnLGfJLnnLM+qdPePkjxyxOjDdqYbyLv7y0muk+SIkadcLcl9pku0Q0cneW6G8o3zdfcFuvsO3f3I7n5Zd3+qu4/aphjh4UlWVbKS5LGZX0zzgST/ssr1kyTd/e4kr54zVkket4rl5xXa/NNaXg9n8JwlrfOHSQ5d4fvv7u4PLWmvl2b118emVVW3THKPOWPHJrntrCBpKbr72RkKTOZ5YFVde1n7jvDB7v6X7n5Xd/90tYt09zuSXCNDAc8Y+2YoHwE2IUUiAAAAAAAAAAAAAAAAAABr8+0F5w8bO1hV+yZ5/IjRx3b3DxbMsT3PSXLMnJmDszFFG6vW3T9LcvMk3x15yiOr6kwTRtrWF5P8fpJzdve9uvvF3T23nKa7v5vkyYtuVlWXSfLH85ZP8sDuPm3R9bdjTEnIDavqimMXrKpzJVmprOHUJP89dr0RXpbk+LlT891hzvffsIQ9kvzfNf+aZa23GczeD584YvQflvR+eEZ/m3Hv98+oqj0m2H9S3f29DNfo2AKW608YB1gDRSIAAAAAAAAAAAAAAAAAAGuzaJHIeReYvduI+Z8mecaCGbaru0/IUJowz32rqpax53rp7h8lufvI8bMl+ZMJ42zrI9395u4+dRXn/kuSHy94zkOT7D5n5u3d/fFV5Pkt3f3RJJ8bMXq/BZadV2BwZHf/ZIH1VtTdxyV51VrWqKo9s3L5SZIs5TnfxnOWvN5Gu3+S88+Z+X6SZ0+xeXf/IsljRoxeMsldp8gwte7+TJKnjxy//JRZgNVTJAIAAAAAAAAAAAAAAAAAsDbfX3D+gDFDs6KOB44YfeGsAGRZXjti5kJJrrnEPddFd787yctHjt+vqjb1vbjd/bMkjx07X1XnTXLbEaPPXHWo7RtzTd2hqvYeud5l5nz/mJHrLGKtpRwXSrLvnJll535vkm8sec0NUVV7Zdz74bO6+6QJozw/yQ9GzP3Nzla2tI3/SNIj5i40dRBgdTb1Ly8AAAAAAAAAAAAAAAAAADuB4xecn1cmcLprJrnYiLlXLrj/PB9KMuZG/Jsted/18piMu0n+/EluPG2UpXh6kiNHzt49yR5zZn6R5K1rCbQd7xkxs3+S649c7/A1ZFmV7v6fJHdLcs8sUN6yjY3I3EnukiHzPZP8cL0zLNEdkpxrxNxLpwzR3b/KUCYyz8Wyc7x//Jbu/lqSL44YPWRW8AJsMopEAAAAAAAAAAAAAAAAAADW5oQF5/cbOXe7ETPHJfnfBfdfUXefmOQLI0Z/b5n7rpfu/nzGFVsk434GG6q7T+7uw7u7uvv5c8bHPJ73za6BZfr4yLmx19SBc75/npHrLKS7X9Tdz+/ut6zi9HmZkwlyd/f/zjI/v7t/vuz119FdRsx8ubu/OnmS5FUj5+48aYppfXjETGXcdQ2sM0UiAAAAAAAAAAAAAAAAAABrc/yC8/uOnLvViJkPd/dpC+4/xudHzFyiqsY+ls3mRSPnblFVe0yaZJ1U1QWTXGbE6AeXvXd3H5fkuyNGrzRyyXk/k3NX1flHrrVexlxH15o8xU6oqg5N8jsjRt89dZaZTyT5wYi5W1bVPlOHmcg3R87trI8PtjRFIgAAAAAAAAAAAAAAAAAAa3PygvN7zxuYlT6cd8RaX1xw77G+M2Jm9ySXnmj/qb0pSY+YOyjJ5SfOsl6uN3JuI6+py1TVmPufx5T3/MmImfU0JvM9qmru+8Mu6CYZ3m/m+ejUQZKkuzvJh0aMHpDkGhPHmcpPR85tiaIl2GoUiQAAAAAAAAAAAAAAAAAArM1eC86fNGLm2iPX+uqCe4/1/ZFzl5ho/0l19zFJPjFy/FpTZllHO8M1tX+S842Y+9GImQdW1dVHzK2XMZkPS/KvUwfZCV1v5NxnpwxxBmNLS643ZYgJ/XKjAwCrp0gEAAAAAAAAAAAAAAAAAGBtFi0SOXHEzFVGrvW1Bfcea2yRyLkn2n89HDFy7hqTplg/Y66pTvL1ifZf5jU15rrfO8mbqupSI/ed2tjX6p9X1UMnTbLzuc7Iua9MmuI3fW7k3NgCH4ClUSQCAAAAAAAAAAAAAAAAALA2ixaJnDBi5hIj1/rWgnuPdfTIuXNNtP96+PjIuUtOmmIdVNWeSS48YvRH3T2m6GY1lnlNfXjkWgcl+XBV3X3k/GS6+wcZ/3r9p6p6SVWdacpMO4Oq2j/JBUeMHtvdx02dZxtjS0s2S5ENsAtRJAIAAAAAAAAAAAAAAAAAsDb7LDg/pkjkoiPX+sWCe481tkzi4In2Xw9fGjl3oaraY9Ik07tAkjGPYarrKVnuNfW/SX46cr39kzy/qt5eVVcZec5U3rzA7J2SfKGq7jsrgtlVXTxJjZj77tRBzuDIJD1i7pCqOtvEWQB+gyIRAAAAAAAAAAAAAAAAAIC1WbRM4ycrfbOq9k1yjpFr/XLBvccaW/qw70T7r4dvjpzbM8lhUwZZBxcYOTfV9ZQs8Zrq7pOSvGDB/X83yRFV9c6qun1V7bXg+cvwnxlXPnG68yR5ZpKvVdXfV9W5p4m1qV1s5NzRk6Y4g+4+OcmPR46PLYYCWApFIgAAAAAAAAAAAAAAAAAAa3PIgvNHzfn+2RdYa6rih5NGzu0z0f7r4QdJThk5O7bYZbMae01NWSSy7GvqHzOnlGcHfifJy5N8r6qeVVXXr6p1uee6uz+V5IWrOPV8SR6T5FtV9faq+qOqOssys21iY8tTjpk0xfb9YOTcOSdNAXAGe2x0AAAAAAAAAAAAAAAAAACAndzBC87PKxI52wJr/V1VLbj9KGcdObfXFJuvh+7uqjo2yaEjxhcpd9mMxl5T56yqR06U4fIj50ZdU93946r6uyTPXGWeg5PcZ3Z8v6pekeT/dfcRq1xvrL9NcoskZ1nFubsn+d3Z8YyqemuSlyV5fXcfv7SEm8vYEp+fT5pi+342cm5nLyICdjKKRAAAAAAAAAAAAAAAAAAA1maRm8RP6u5j5swsUkzyiAVmpzBJi8k6+nHGFYkcMnWQiY29ps6fneia6u5nVdWVkvzxGvc8Z5IHJHlAVX05yQuSvKC7v7fGdX9Ld/+wqm6b5M1ZWxHPXkluPjt+XlWvTPK87v7AEmJuJmNLcH4xaYrtG1skskg5FMCa7bbRAQAAAAAAAAAAAAAAAAAAdnIXXGD2yBEz+6wyB4s7fuTcvpOmmN5Wvqb+JMmrl7jeRZP8U5Ijq+qlVXWVJa6dJOnudyW5c5JfLWnJMyX5oyTvr6pPVtU9qmotJSWbyX4j506YNMX2/XLk3NjHALAUikQAAAAAAAAAAAAAAAAAAFapqg5NcuACp3xqxMzeq0vDKpw8cm5n/5ns7Pl3qLtPTXL7JA9PcuoSl94zyR2THFFVr6uqCy9x7XT3q5JcJ8l3lrlukssleV6SL1XV7Ze89kYYe+0uq5RlEWP33LKvP2BzUiQCAAAAAAAAAAAAAAAAALB6F1xw/lMjZvZaRQ5W55SRczt7EcCWvqa6+7TufkyS6yX5+ARb3CLJ56vqYVVVy1q0u/83Q/HHs7P8IozDk7y8qt5TVedY8trraexrb5klMmPtKu8fwE5GkQgAAAAAAAAAAAAAAAAAwOpdfsH5T42YOW3kWt/q7trg43oLPv7NZuy9thtRUrBMY6+pF2yCa+qRq32Q3f2BJFdOcockH1vtOjuwZ5J/TPLaqjpwWYt290+6+z5JLpnkxUlOXNbaM9dL8vGquvqS110vY6/dpRW8LGDs+8fYxwCwFHtsdAAAYGNd8Luv3ugIAMAW4f/ZBAAAAAAAAAAAAHZRV15g9rQkHxkxd/LI9dwnunZ7jpxbdrnDettlrqnu7iSvSPKKqrpUkj9Kcpckhy5pi1skeWNV3ai7T1rSmunuryS5a1X9eZI7JblnkistaflzJXlHVV2vu5ddsDK1sc/xRly7Y98/lnadAIwxtuUIAAAAAAAAAAAAAAAAAIDfdpUFZj/a3T8ZMTe29GHfBfZm+3aVIoBd8prq7s91918mOXeSWyd5TZITlrD0dZK8oKpqCWv9hu4+trv/o7uvnOTSSf4tybeXsPT+Sd5UVYcvYa31tBWKRHb2IiJgJ6NIBAAAAAAAAAAAAAAAAABgFarq0CQXX+CUt42c+8XIuf0W2JvtO3Dk3LFThlgHu/Q11d2ndPdru/s2SQ5Ncockr0py/BqWvUOSuy4j347MilD+qrsPS3K1JE9IcuQaljx7kv9aRrZ19PORc/tPmmL7zjRybuxjAFgKRSIAAAAAAAAAAAAAAAAAAKvze1nsXs23jJz78ci5faqqFtif33aWkXM/nDLEOhh7Te07aYpNoLt/2d2v6O7bZSgVuXOS9ybpVSz3T1W1LgUW3X1Ed/91dx+e5KpJ/jOrK6i4QVXdcqnhpjX2tbcRRSJji4h29vcPYCejSAQAAAAAAAAAAAAAAAAAYHVutsDsN5McMXJ2bOlDkhy0wCzbqKrdkpx55PjOXgQw9po6eNIUm0x3H9/dL+3u6ye5VJL/XnCJcye5//KTray7P9Ld901yriSPSPKLBZf45+WnmswPRs6NfS0v09j337GPAWApFIkAAAAAAAAAAAAAAAAAACyoqg5MctMFTnlOd/fI2R8mGTt73gUy8JvOkWSPkbPfmjLIOhhbZLDLXk/d/YXuvlmSmyQ5ZoFT7zVRpLm6+xfd/egkF07yzgVOvVhVXWOiWMv23ZFzh06aYvvOOXLuO5OmADgDRSIAAAAAAAAAAAAAAAAAAIu7S5L9R86emuR5Yxfu7pOSfH/k+C5b/LAE5x45d1R3Hzdpkul9c+TcmavqTJMm2eS6+21JrpTk8yNPuXBVHT5hpLm6+wcZClCevMBpN54ozrJ9ceTc2SZNcQZVdUCSA0aMdpIvTRwH4DcoEgEAAAAAAAAAAAAAAAAAWNx9F5h9bXd/b8H1vzFy7nwLrsuvXWTk3Ngig83syCSnjZzd5a+p7v5Wkt9PcvTIU642YZxRuvvU7n5gkleMPGXDM4/0lQxlTPOcZ+ogZ3ChkXPf6u7jJ00CcAaKRAAAAAAAAAAAAAAAAAAAFlBVt0hymZHjpyV5xCq2GVtecYlVrM3g4iPnPjZpinXQ3ack+frIcddU/q9M5G4jxy8wZZYF3TPjiog2U+Yd6u6Tk3xhxOi+VXW2qfNs48Ij5z45aQqA7VAkAgAAAAAAAAAAAAAAAAAwUlXtluSxC5zyku4ecxP8GX1i5NyVVrE2g8uOnHv/pCnWj2tqQd391iQfHDG6ngUWK+ru45P884jRTZN5hPeNnBtbDrQMlxs5NzY7wNIoEgEAAAAAAAAAAAAAAAAAGO8+SS45cvaEJI9Y5T4fHzl3xao6aJV77OquPmLm1CQfmjrIOhl7Td1o0hQ7n1eNmNlv8hSLeXWSnjOz2TKv5D0j5y49aYrfNLZwR5EIsO4UiQAAAAAAAAAAAAAAAAAAjFBVF0zyrwuc8tDu/uYqt/tkkp+NmNs9yc1Xuccuq6oumeTgEaP/093HThxnvbx35Nzlqur8E+ZYs6q6TlV9rqo+U1WHTLzdJ0fMnDZmoap6/yz3H60x04q6+6dJvjVnbFTmTeKdSU4cMTemHGjNqmqvJNcYMfqtJJ+eOA7Ab1EkAgAAAAAAAAAAAAAAAAAwx+zG8RclOWDkKe9N8pTV7tfdv8pw8/wY91ntPruw3x8596pJU6yvjyU5euTsZr+mDkxyySSXTnKniff64YiZX4xc6+IZct9/9XFGm5d7bOYN193HJXnLiNHrT51l5toZ91nwiu7uqcMAnJEiEQAAAAAAAAAAAAAAAACAFVRVJXlhkquPPOXoJPdYwg3kbxg5d/WquvYa99rV3GrEzElJXjl1kPUyux7fNHL8vlV15inzLNE9Jl6/Rsx8Z8E1L19Vl15NmAXMy71o5o324hEz56yqq02eZHx5zYsmTQGwA4pEAAAAAAAAAAAAAAAAAAB2YFYi8pQkdxh5yglJ/qC7v7WE7V+V5LiRs/9aVe4bHaGqLpZkTNnAy7r76KnzrLPnjpw7KMnDpgyyRFOXchw6YuYrq1j3Hqs4ZxHzcq8m80Z6fZJvjJgbW/KxKlV1YJLbjxh9Z3d/dsosADviF0IAAAAAAAAAAAAAAAAAgO2oqn2TvDLJ/UeeclqSO3f3EcvYv7uPT/LikeNXTfI3y9h3F/DnI2Y6yZMmzrHuuvsDST4/cvwvq+qaU+ZZontMuPZhI2Y+sop171xVe6zivLmqaq8k55wztpT3qfXS3acm+bcRo/eoqrNMGOUvkhwwYu7xE2YAWJEiEQAAAAAAAAAAAAAAAACAM6iqSyX5QJLbjDzl5CR36u7XLjnK45OcNHL2MVV1yyXvv6VU1bmS3GvE6Mu6+1MTx9ko/zhybvckr6qqC00ZZkkmK+VI8rtzvv+x7j5mFeuePclNVnHeGNdKss+cmbdOtPeUnp3ky3NmzpTkr6bYvKrOkeTBI0bf1t3vmCIDwBiKRAAAAAAAAAAAAAAAAAAAZqpq/6p6ZJJPJLnCyNOOS3LT7n75svN097eSPGPk+B5JXl5Vd152ji3kSUn2njNzYpK/mz7Khnl5kk+OnD1HkvdU1eWmi7MUk5RyVNWBSX5/ztjL1rDFPdZw7kruNOf7n+vuz0+092S6+5QkfzFi9K+q6mITRHhmkrPMmTk5yQMm2BtgNEUiAAAAAAAAAAAAAAAAAMAur6rOUlV/l+TIJI9IsufIU7+Q5Frd/e6pss3yHDlydq8kL66qp89KEJipqjsmud2I0b/t7iMnjrNhuruT3DvJKSNPOU+SD1bVn1XVZr43+c+qavclr/nQJAet8P1fJHnOGtb/g6o6fA3n/5aqumTmF5Q8aZl7rqfufnuSp88Z2zvJa5f5HlhVj0pyixGjf9PdX17WvgCrsZk/rAEAAAAAAAAAAAAAAAAAJlNVB1XVH1bVa5P8IMljkxwy8vTOcDP+Fbv7sxNFHDbqPi7J3ZKcusBp90vypar6q6o66zJyVNV+VXWlqrp3Vd19GWuul6q6dsYVPrw1yVMnjrPhuvvjGQpqxtovydOSfKyq7lhVY4t2VlRVB1fVdavqwVV1nTUud5Mkb62q8ywp2+2T/PWcsX/s7mPXsM1eST5SVX+whjX+T1WdI8lrk6xUqPK5JC9Yxn4b6MFJPjpn5mJJ3lFVKxXBjFJV/5jk4SNGX9vdT17rfgBrtcdGBwAAAAAAAAAAAAAAAAAAWLaqqiT7ZihA2C/J2ZOcf3ZcIsnVk1wkSa1i+Y8neXB3v28ZWcfo7vdX1X0yrgzjdOdM8q9JHlNVH0zyriSfT/LVJEcn+WWSk5Lsk18/TwfNzjvX7Dh/kgvOjnPn18/Xy7OTlBFU1R2SPC/D9bCSzyb5w+7u6VNtCv+S5KJJFimFuXySlyZ5WlW9O8n7knw5ydeT/DTDNXVqfn097Zfk0AzX0jkzXEMXyK+vqYO3WftPk/zP6h9OkuSGST5fVY9L8pTu/sWiC8xKUv46yaOyciHHh5P8+6pS/qZDkrxhVmj0sO7+4moWqarrZnh/uOAKYycl+aPu/tVq9tgsuvukqvr9DNffxVcYvUqSj1fVPVbzfl1VhyX5zyQ3GjH+viR3XnQPgCkoEgEAAAAAAAAAAAAAAAAAJlNVZ85Q2HGRJAcucOo3hy6QTeWrSf4hySs2omyiu59bVWfKUF6w2wKn7pPkd2bHLqOqLpbk0UluN2L8q0lu2t0/W9LeF8pQYnDmEeOXrKo7JvlSki939/HLyDBPd3dV/XGGgpXbL3j6QUluOzs2mwOTPDbJX1fVC5K8LMlHu/vUlU6qqrMnuVOS+2YoWFnJkUlu292nrD3u/7lVkltW1VuSvCjJW+Zdj1W1V5IbJ/mjJLfIysVIpyX54+7+6JLybqjuPrqqbpjkrUkuvcLo+ZO8d/a8Pj3JO7v7pB0NV9VuSa6RoWDnbkn2GhHnnUlu1d0njIwPMClFIgAAAAAAAAAAAAAAAADAmsxuZr9ghrKQi+bXxSEXSXL2DYy2DKcleUeSZyV5Y3f/aiPDdPeTq+rIJC9OcsAGRvnCxOtfq6q+lOSLSb6S5Duz44dJfprk2CS/THJKkpOT7J2htOPCSa6Y5OZJrpdxhSv/m+Tm3X3MaoJW1SFJrpahOOQqSa6coWhjrCsleens37uqvpOhVGTb4/Pd/aPV5FtJd/+qqv4wyZeT/H1WLqKY0olJvrHkNc+S5AGz4xdV9akk30xydJLjMxREHJjhPeryGQonxvhChtKZo5YbN8nw/P/e7Ditqk6//r+b5BcZ3o8OzPDYLpGhQGNM0cVJSe7V3S9ZOFDVHhne3y82Oy6+zb+P8Yyq+ssM1/EX8+tres2lOd39vaq6RpLnJ7nNnPGbzo7jq+ozsww/yXAt7JPhOb1wksskOesCMZ6Y5K/nFdUsoqoukOTqGVdEdKmquk2ST3T3N5ew98EZ3kNvNPKUO1XVW5N8ZqM/H4FfUyQCAAAAAAAAAAAAAAAAAKzVy5PccqNDLFEn+XiSNyV54TJuzl6m7n59VV06yTOS3GSdt39Pkkd09/sn3mf3DKU0F51wj9OSPCnJw7r7xDWs84Qkd19KoqFI4nyzY9sb+d+XoRhl6bq7kzy8qt6V5D8zFACtl1MylKg8auLX2QFJrjU71uL5Sf68u3+x5kTz7ZbkkrNjLb6Y5G7d/bGxJ1TVhZM8LkNZyIWS7LmG/ffJUHhy6TN8vavq2xkKPZ7e3W9czeKzn8Vtq+ouSf4tydnmnLJfhuKfq61mv218Kcn9uvs9a1lkVsR1tQzFIacf8x7Dtq6Y5FWztX6a5JNJPpHhM+xj3f21FfY+S4byoyvOjislOWzBh/DY2XF8VX08yYdnxwe7+4cLrgUsiSIRAAAAAAAAAAAAAAAAAGCtaqMDrNGvMtxs/8kMRRlv2ew3QHf3kUluWlU3S/LQJNeYcLtjM5TFPLu7Pz7hPuvpI0ke3N0f2Oggm0V3v6+qLpPk3kkenOT8E273zSQvSPKc7v7uKs7/coaf4VWWmmrH3p3k4d39wTWu86okd81QZjG1o5L8a5L/6O5TFjz33ElutfxIv6EylFYclqF4YlVFIqfr7hdX1X8n+Ysk909yyJoTbt8XkzwxyQu6++QlrHeNDJ87y3DWJDeYHUnyraz8On5gkkcsae/9klx7diTD6/seS1obWJAiEQAAAAAAAAAAAAAAAJjj8AeevLPfIA+wK+okJyU5IcmJs+PYDDfXn358O8nnk3y2u0/amJhr091vSvKmqrpKkjskuXWWUwDx1QzlCa9P8q4l3TC/0TrJe5M8pbtft8R1X5fkyCWutz1Tr58kmb0OnlZVz0xy0yS3S/IHSc6yxqVPTfKJJO9I8rru/ugac341yVWr6hxJrpfkmkmumuQySfZeW9T/8+0kr07ywu7+1DIW7O4/qaoHJLl6kuskuVqSKyU5dBnrJzk+yduTvDTD87xogchOrbt/muRRVfWvGYpQ7pDkRln7NfH9DK/zVyV5T3f3GtcDmJQiEQAAAAAAAAAAAAAAAABgTbr7lhudYVfX3R9J8pEkD66qw5NcJckVkhye5LxJzpXkgCT7Zrip/pQMJSs/za9LVb6Y5DNJPtrd31/vx3AGL0jy2SSXTXLJJBfI6sosfpbk/RkKRF7V3d9aUr7/Mysled2y191I3f2rJG9M8saq2j3Dz+AqGX4e55sdZ0uyX4Zras8MxT3HJzkmyXeSfCvJ55J8OsnHuvvnE+T8QZKXzY5U1R5JLpzkEkkulOSCs6xnz1DWcaYk+8zynjLLfFySH2Z4HXx5lvmD3f21ZeedZT4pw/X43tO/NitEuWSSi84ynz/JOWe5zzrLvHd+XZB0fJKjMxRcfCPJF5J8NMkRyygP6e73Jtlpi/S6+/gkL0nykqraN0NZy1WTXCrJYRmuiTNnuH5Pfz88fnZ8P8P74ZFJPpnhffWrE5aHHJnkUROtfeyc7793on2T5FMTrg3MoUgEAAAAAAAAAAAAAAAAAGAL6e5vJvlmkpdvdJY1+El3/9u2X6iqAzOUABya5ODZsV+SvWbHSUl+maEY4ltJvp7kqAkLAHYJ3X1qhoKZz2x0lnlmBShfnB07jVkhyg+SvGujs2w13X1ChjKh9290lu3p7iOTPHKD9n5vpi0TATaIIhEAAAAAAAAAAAAAAAAAADabg874he4+LslnNyALAMBOY7eNDgAAAAAAAAAAAAAAAAAAAGdwpo0OAACwM1IkAgAAAAAAAAAAAAAAAADAZrP7RgcAANgZKRIBAAAAAAAAAAAAAAAAAAAAgC1AkQgAAAAAAAAAAAAAAAAAAAAAbAGKRAAAAAAAAAAAAAAAAAAAAABgC1AkAgAAAAAAAAAAAAAAAAAAAABbgCIRAAAAAAAAAAAAAAAAAAAAANgCFIkAAAAAAAAAAAAAAAAAAAAAwBagSAQAAAAAAAAAAAAAAAAAAAAAtgBFIgAAAAAAAAAAAAAAAAAAAACwBSgSAQAAAAAAAAAAAAAAAAAAAIAtQJEIAAAAAAAAAAAAAAAAAAAAAGwBikQAAAAAAAAAAAAAAAAAAAAAYAtQJAIAAAAAAAAAAAAAAAAAAAAAW4AiEQAAAAAAAAAAAAAAAAAAAADYAhSJAAAAAAAAAAAAAAAAAAAAAMAWoEgEAAAAAAAAAAAAAAAAAAAAALYARSIAAAAAAAAAAAAAAAAAAAAAsAXssdEBAAAAAAAAAAAAAAAAAADYmqpq/ySXT3LFJFea/fOiI069RVUdleSr2xxfO/2f3X3CNIkBAHZuikQAAAAAAAAAAAAAAAAAAFiqqrpBkqcmuViS3Va5zLlmx3XP8PXepmTkDt199KqDAgBsMYpEAAAAAAAAAAAAAAAAAABYtvMlucREa1eS88yO/ZMoEgEAmFltgxsAAAAAAAAAAAAAAAAAAAAAsInssdEBAAAAAAAAAAAAAAAAAADYWrr7+Umev8ExAAB2ObttdAAAAAAAAAAAAAAAAAAAAAAAYO0UiQAAAAAAAAAAAAAAAAAAAADAFqBIBAAAAAAAAAAAAAAAAAAAAAC2AEUiAAAAAAAAAAAAAAAAAAAAALAFKBIBAAAAAAAAAAAAAAAAAAAAgC1AkQgAAAAAAAAAAAAAAAAAAAAAbAGKRAAAAAAAAAAAAAAAAAAAAABgC1AkAgAAAAAAAAAAAAAAAAAAAABbgCIRAAAAAAAAAAAAAAAAAAAAANgCFIkAAAAAAAAAAAAAAAAAAAAAwBagSAQAAAAAAAAAAAAAAAAAAAAAtgBFIgAAAAAAAAAAAAAAAAAAAACwBSgSAQAAAAAAAAAAAAAAAAAAAIAtQJEIAAAAAAAAAAAAAAAAAAAAAGwBikQAAAAAAAAAAAAAAAAAAAAAYAtQJAIAAAAAAAAAAAAAAAAAAAAAW4AiEQAAAAAAAAAAAAAAAAAAAADYAhSJAAAAAAAAAAAAAAAAAAAAAMAWoEgEAAAAAAAAAAAAAAAAAAAAALYARSIAAAAAAAAAAAAAAAAAAAAAsAUoEgEAAAAAAAAAAAAAAAAAAACALUCRCAAAAAAAAAAAAAAAAAAAAABsAYpEAAAAAAAAAAAAAAAAAAAAAGALUCQCAAAAAAAAAAAAAAAAAAAAAFuAIhEAAAAAAAAAAAAAAAAAAAAA2AIUiQAAAAAAAAAAAAAAAAAAAADAFqBIBAAAAAAAAAAAAAAAAAAAAAC2AEUiAAAAAAAAAAAAAAAAAAAAALAFKBIBAAAAAAAAAAAAAAAAAAAAgC1AkQgAAAAAAAAAAAAAAAAAAAAAbAGKRAAAAAAAAAAAAAAAAAAAAABgC1AkAgAAAAAAAAAAAAAAAAAAAABbgCIRAAAAAAAAAAAAAAAAAAAAANgCFIkAAAAAAAAAAAAAAAAAAAAAwBagSAQAAAAAAAAAAAAAAAAAAAAAtgBFIgAAAAAAAAAAAAAAAAAAAACwBSgSAQAAAAAAAAAAAAAAAAAAAIAtQJEIAAAAAAAAAAAAAAAAAAAAAGwBikQAAAAAAAAAAAAAAAAAAAAAYAtQJAIAAAAAAAAAAAAAAAAAAAAAW4AiEQAAAAAAAAAAAAAAAAAAAADYAhSJAAAAAAAAAAAAAAAAAAAAAMAWoEgEAAAAAAAAAAAAAAAAAAAAALYARSIAAAAAAAAAAAAAAAAAAAAAsAUoEgEAAAAAAAAAAAAAAAAAAACALUCRCAAAAAAAAAAAAAAAAAAAAABsAYpEAAAAAAAAAAAAAAAAAAAAAGALUCQCAAAAAAAAAAAAAAAAAAAAAFuAIhEAAAAAAAAAAAAAAAAAAAAA2AIUiQAAAAAAAAAAAAAAAAAAAADAFqBIBAAAAAAAAAAAAAAAAAAAAAC2AEUiAAAAAAAAAAAAAAAAAAAAALAFKBIBAAAAAAAAAAAAAAAAAAAAgC1AkQgAAAAAAAAAAAAAAAAAAAAAbAGKRAAAAAAAAAAAAAAAAAAAAABgC1AkAgAAAAAAAAAAAAAAAAAAAABbgCIRAAAAAAAAAAAAAAAAAAAAANgC9tjoAAAAAAAAAAAAAAAAALDZ7fZXb+yNzgCs7LQn/EFtdAYAAICNtttGBwAAAAAAAAAAAAAAAAAAgK2qqh5ZVb2MY6MfCwCw+SkSAQAAAAAAAAAAAAAAAAAAAIAtQJEIAAAAAAAAAAAAAAAAAABM5+NJ3prkm0lO2+AsAMAWt8dGBwAAAAAAAAAAAAAAAAAAgK2qu9+Y5I1JUlV7J7lQkoue4bhEkgM3KiMAsHUoEgEAAAAAAAAAAAAAAAAA1qSqbpnkchMt/5nufs1Ea29XVV0vyfXWYav3dvd712EfNonuPinJ52fH/6mqByZ54kZkAthoVXXpJA9O8jtJzpbkx0nen+Qp3f3BjcwGOyNFIgAAAAAAAAAAAAAAAADAWt0yyd0nWvvkqrpKd396ovW353pJHrFOe713nfYBgE2nqh6c5PFJdtvmy+dMcvskt6+qJyX5y+7uDYgHO6Xd5o8AAAAAAAAAAAAAAAAAAGyYvZK8qKr23uggAMDyVNW9kzwhK/cePDDJY9YlEGwRikQAAAAAAAAAAAAAAAAAgLV6Z5L/TvLVJL+aYP1LJ3nsBOvuyIeTvCbJZ5Mcv+S1T0ryhSSvS3LEktcGgJ1CVR2U5F9Hjv9tVV1kyjywleyx0QEAAAAAAAAAAAAAAAAAgJ1bd784yYuTpKr2THKBJBdNcpHZP0//97OvYZsHVdUbu/t9a4w7V3e/Nclbk6SqKsm5klw4yYVm/zz93y+YZL/tLZHkqCRfSfLlbf755SRHdvdpEz8EANjsbp3kzCNn90hy1yT/MF0c2DoUiQAAAAAAAAAAAAAAAAAAS9Pdp+TXpRm/oaqOTHLYKpfeLckLquoy3X3c6hMuprtPLwU5Ksl7t/1eVV0vyXu2c9r/dPf1Jo4GADuzy048D7us3TY6AAAAAAAAAAAAAAAAAADASIcleepGhwAA1l1tdADYWSgSAQAAAAAAAAAAAAAAAAB2JnerqltvdAgAYE0+v+D85yZJAVuQIhEAAAAAAAAAAAAAAAAAYKMdseD8s6rqHJMkAQDWw6uS/GLk7KlJXjRhFthSFIkAAAAAAAAAAAAAAAAAABvt/kl+uMD8IUn+a6IsAMDEuvuYJH8zcvzfuvsLU+aBrUSRCAAAAAAAAAAAAAAAAACw0Y5Jcp8Fz/n9qrrvFGEAgOl19zOSPCTJaSuMPTXJQ9cnEWwNe2x0AFitqjokyY2SXDbJJZJcKMmZkxyYZJ8kv0hyXJKjk3x+dnwgyf9290ofJrusqto7yVWTXC7JZZIcluRcSQ5Nsm+G5zVJTkxyfIaGz+8l+XqSTyf5eJJPen4BAAAAAAAAAAAAAACARXX3G6rq+UnuscBp/1ZV7+zur0+TCgCYUnc/rqrekuTBSX4nw33NP0nyP0me2t0f2Mh8sDNSJMJOpar2S3LPJHdKcrUku60wfubZcd4kV9jm68dU1eszfHB8eqqsO4vZc3q7JLdPcr0k+4047YDZcbYklz7D935cVW9L8qIkb1cqAgAAAAAAAAAAAAAAACzgAUlukOR8I+f3T/Kiqrp2d586XSwAYCrd/Zkkd9/oHLBVrFTCAJtGVe1bVY9M8p0kT0tyjaz++j0kyb2SfKqq3l5VV5h3wlZUVYdU1eOS/CDJ85P8XsaViMxzcIail7ck+UZV/WlV7bWEdQEAAAAAAAAAAAAAAIAtrruPy/DHqHuB066e5CHTJAIAgJ2LIhE2vaq6YZLPJnlEkoOWvPzvJvlIVT2+qvZd8tqbUlXtVlV/nuSbSf4myZkm3O6wJP+R5AtVdYMJ9wEAAAAAAAAAAAAAAAC2iO5+d5KnLnjaI3bVPzoNAADb2mOjA8BKqurvkzw6Sc0ZPT7JEUm+nuTHSXZPcnCSSye5XFa+1ndP8tdJrl9VN+/u768x9qZVVQcneWWS64885VdJPpnky0l+lOF53jvJWZJcIMkVZ/8+zwWTvKuqnpDkId196kLBAQAAAAAAAAAAAAAAgF3NQ5LcOMlFR87vmeRFVXXF7j5xulgAALC5KRLZiVTV2ZL8y+w/X9fdb9jIPFOqqt2TPDfJ3eaMfizJvyZ5bXefsoO1zpTk7kn+MsnhK6x1pSQfqaqbdPfnF0+9uVXV+ZO8K0MByDxfTPL4JK/u7p+vsOZuSa6Z5H5J/nDEun+V5OJVdZvuPmnEPAAAAAAAAAAAAAAAALAL6u4TquruST6Y4Y9Jj3GJDPfgPXCqXAAAsNntttEBWMg1k9wjQynG5TY0yfSekZVLRH6VoVHyqt39ih2ViCRJd/+8u5+W5JJJnjJn3/MkeVtVnW/RwJtZVZ0z40pETs3wP5Qv393PX6lEJEm6+7Tufn933zHJDZN8Y0Sc30/yqllZDAAAAAAAAAAAAAAAAMB2dfcRSf55wdP+oqpuMEUeAADYGSgS2blcbaMDrIeqeniSe68w8qskd+zux3X3aWPX7e4TuvsBSe6fpFcYPXeSt1fVWcauvZlV1R5JXp75JSKd5C7d/dDuPmnRfbr7XUkun+RTI8ZvluSfFt0DAAAAAAAAAAAAAAAA2OU8OuPuWTpdJXn+Vrk/jF3KSvc9AgCMpkhk57Lli0Sq6rpJHjFn7EHd/arV7tHdT0/y93PGLprkmavdY5N5SJJrj5j7u+5+2Vo26u7jktwkyTdGjP91VV1vLfsBAAAAAAAAAAAAAAAAW1t3n5LkrkkW+ePJ503y9GkSwWRO3egAAMDWoEhkJ1FVuye5YrZwo1xVHZjkBVn5unxTdz9tCdv9c5I3z5m5Q1XdfQl7bZiqOm+Sh44Y/WySxy1jz+7+YZL7jRitJE+dXdsAAAAAAAAAAAAAAAAA29Xdn0vy8AVPu1NV3X6KPDCRkzc6AACwNSgS2XlcJsl+Gx1iYo9OctgK3z8lyQOXsVF3d5I/S3LinNEnVtVBy9hzgzwk466bR82ek6Xo7rcleeeI0Uslue2y9gUAAAAAAAAAAAAAAAC2rCck+eCC5zyjqs41RRiYwPEbHQAA2Br22OgAm01V7ZHkwCT7ZHM9PzeZ/bOSLK3wYbOoqsOT/Omcsed099eXtWd3H1lVT07ytyuMnTXJPyR50LL2XS9VdZYkdx8x+sMkr5kgwhOS3HDE3IOSvHyC/QEAAAAAAAAAAAAAAIAtortPq6q7J/l0kv1HnnZQkufm1/fn7XKq6txJrprkykkukOR8Sc6d4TncN8neGf5g9/FJjkvynSTfTvKlJEck+Wh3H7f+yTe/qjpzkqsnuVqSCyU5f5LzJDkgwx8I3zvJyUlOSnJCkh8nOSbJ0Rme42/Nji8m+VqGe/02laraK8kVk1wzyWWSHJ7hGjpThmtotwyP7bgkRyU5MsNr9KNJPtDdJ6x/6sVU1Z4ZfoZXTnK5/Pp1cpYMr5FTk/wiyU8y/Jy+kuQDSd7b3cesf+JpVNWlklw/yXWSXDLJOZLcqrvft+R9Tn/dXCPJxTI83+fKcD3tn+H5Pv318r0Mz/enk3woySe6+7Rl5llEVVWSi2e4Xq6a4Xk66zbH7hmyn378KMPr4qgM761fyfDe+vXuPmUdcx86y3y1DK/ns2+T+YAMnwGnZz52m8xHJfn6LPOXuvtn65V5s6qqvTO8T1wlyaUzvFecL8PvG/tleM/oDJ+px2d4X/92hvfGT2T4XP1yd2+JroCquliSGyS5QpLLZvj94qwZnoMfz47PJ3l/hvfML21Q1F3SZirKWHdVdUCSG2X4YLt8hl/UDslQ1rEZdTZvtrX6xyR7zZl52gT7PiXJXybZc4WZ+1XVU7r7mxPsP6VbZNz/IH7bRB84783wy/EBc+auWlWH74TPLwAAAAAAAAAAAAAAALCOuvvrVfVXSZ6xwGk3rqo/6+6nT5Vrs6mqyyW5Q5JbJ7nIiFP2mx2HZLipf1unVdUHMvwx65d196Yru1hPVXW2DM/tHTMUCew255R9ZseZMxQz7MgJGW423xSq6neT3CXJrTKUhqzkTLPj3Blurr/97OsnVdU7krwgyeu6+1drzPSoJAev8vQnd/dXt1lr7yR/kOROSX43K98HuUeGUpiDk1w4yU2TPCDDa+M9SZ6X5BXLKoaoqodkKNhYjZ9294MW2OsiSe6c4Zq+6PZGVpnjjPvsnV+/bm6Yle9v3z3D/cZnzvB+dK1tvvfTqnp1kud194eWkW2Mqjpvknsl+eMM1/lK9kxy4Ozfz7+DmVOq6vSClE8leVd3f2LtSX9t9pzfOsl9k1x3zvjpnwHJUIZ0qR2s+b0kn8mQ+dNJXr7I/clV9fgMpTFr8dju/uIa11jIrI/g1rPjRhnKQuY58+w4Z4bikW39oKpen+SVSd69zHu8q+rySW6zytN/3t2Pm7P+7hmup9smuXlWfj2cZ3ZcNsN7barqI0ke3d3/vcqMLGCXLBKpqksk+ZsMF+m2L9bNXtKxJdqFzqiqzpfhF4CV/G93f37Ze3f392a/NPzhCmN7JXlghl/sdia3GDn3tik27+6TqurtGT4Y57llkidOkQMAAAAAAAAAAAAAAADYOrr7mVV1yyQ3XuC0x1fVO7r7KxPF2hSq6vcz3Dt5nSUuu9tsveskeVxVvTjJ47f6c3lGs/sgH5rkjzL/j6qvxr7ZfpHDuqqqWyR5RJLLL2G5vZPcbHZ8vaoe0d0vWcN6d09y2CrPfVWSr1bVgUn+IsmfJznbGrIkw2vjd2bHY2ZFJy9cQinATTK/+GFHTkiyYpHIrAjgFknul+QGmfDe6qraK8mfJfnrDIUKa3XWDGUef1xV70vykO7+8BLW3a6qOiTDva93zFBwsix7Jrnk7LhTkpdkKO5Zs6qqJPdJ8o8ZyqGW6Vyz4yaz/35VkkUKgm6etb/P/VeSdSkSmRVHPSjJnyQ5yxKXPkeGgpf7Jvl8Vf1bhveOU5ew9mWTPGyV5/6qqp6wvRxVda4k954d88p0VnKVJG+qqlckuXd3H7eGtZhjXtPZllJVB1TVMzO0HN01QztSbXP0Jj+2qvtl/gfoaybc/6UjZu45+wVxZ3LtkXOfmzDDJ0fOXXPCDAAAAAAAAAAAAAAAAMDWcq8kxy4wv1+SF1XVlvzj7FV10ap6R5I3ZbklIme0d4bn/rNV9S9Vtf+Ee20KVbVnVf1Dkq9muJl8ihKRDVdV566q1yd5XZZTInJGF0zy4qp6c1WdY4L156qqOyf5SpLHZO0lImd0eJLnJ3nHrHRmLX6+hnP33dHrsqr2qqo/TvLlJK/OUIAyZYnI1ZJ8Ism/ZzklImd03SQfrKp/rao9l714Vd0uyeczFHwss0RkMlV1eJJ3Jnlmll8isgynbHSAMapq96r68wzvFw/JcktEzuiSSZ6b5BNVda0J9xljjwxFMf+nqm5QVa9K8q0kj8zaSkS2dfsk762qg5a0HtuxJX/p3Z6qOizJm5NcLL/+YNtROcdkH3xrtOXKRKrq9P/hMM8bJozx9iTHJVmpKORMGdrqnjphjqWpqvNn/If8NyaM8uWRc1eZMAMAAAAAAAAAAAAAAACwhXT3UVV1/yQvXuC0qyR5WJJHTZNqY1TVPZM8I0PJxzynJflSki8m+X6GwoJKckCS8yS5eJKLZP49lnsl+dskt6yqW3f3F1aXfnOb3ZT/2iSXXeC0byX5bJIjMzy/pyXZc3acKclZM9yUfrYMN2wfvLTAq1RV185QLHHoiPFTknwsyReS/DjJqRke08WTXDXJPnPOv2mSI6rqZt392QWjXjXDHzW/ZpJrZSg8GVsg8fgkV15wv9X4nQyFAH/Q3f+7mgW6+w9mZSRX2ua4YpKxN9wfkuSXp/9HVe2W5K5JHp1krSUno8zen5+Ycfex/yzJRzOUNhyb4Wd6aJLLZPgZr/R+tFuSv0pyhaq6bXf/dA2x/09VPTbJ340Y/UWSj2S4T/enSX6V4fVw5iQXTnLpjHtvXrNZcct/Z/51clqGgpRPZ3gN/yLDe9OZMxS+XC7LL9o53eWTXGK2x+Vm/33ZDM/ZplBVZ0/yyiTXHnnKTzK85381w7V8QobysrNk+Dy9dIbndp7LJPmfqvrHJI/s7tMWS/5/3pzkPhneI6+doeRoEedL8p2qunmSf8jw/jOVyyd5bVX9Tnf/asJ9dlm7RJHIrJ3sPUnOP/vStoUcm7U0ZFdx48wvvDiqu78yVYDuPqmq3pXkVnNG75SdpEgkwy8YYxzd3b+YMMfYn9t5qmqv7j55wiwAAAAAAAAAAAAAAADAFtHdL6mqWyW5zQKn/X1Vvbm7PzpVrvVSVZXkSUn+YsT4FzPc1P/67v7RnHXPleQWSR6Q5KJz1r1ohlKI23f3W0bk2GlU1dWTvD7jyjWOSfIfSV7a3WP/OPfp++yd5AJJLpbh5u+bLBh1TarqNkn+X+YXcnwnyb9keIzH7mCtA5PcI8PN5yvdN3q+JO+tqmt19xfHZu3uHyZ5zexIVe2boVzkWRlu2F/JepSInO7gJO+qqlt299tXs0B3fzvJtzN7rElSVRdI8vURpx+aodAmVXX9JE/OUGawLqrq35L85YjRI5L8U5K3dPcpO1jrvLO1/iwrX6M3SPK2qrrBWu+ZraqHZ36JyPszlNO8pbtPXWGtPTIURNwsyT3z6/vcl6qqLpXkbUkOXGHshxk+B57d3T+Zs965k/xuhvuqb5gl3Ys/K4v4zOx44Tb7nT/JHTK8x2yYqrpMhiKOc88ZPTlD/ucl+fBKpR+za+AaSf4oyR0zFHHtcDzD++fpxTgnLhA/STL7jH/27EhVnTNDoci1kvz5iCVuN3sNX3XRvVfpOkn+JsN7AUu220YHWCcvyfDm2vl1iUhFichmcNsRMx+cPMVQNDPPVWctbjuDsTmX0q62ghV/mdhGZWisBAAAAAAAAAAAAAAAABjrTzLcHD3WHkleNCsg2Nk9NfNLRI7PcOPwJbv72fNKRJKku7/X3c9IcvEkf5rkuDmnHJDktVX1eyMy7xSq6spJ3p75JSKdoaTh8O5+xKIlIsnwh9K7+4vd/doMxQrrZvYzG1Mi8pwkl+ju/9hRiUiSdPdx3f2UJJdN8pE5ax6Uofhh3h+q36HuPqG735vk+wueelKSj2Yof3lAhuKcy2QoDzhzhveJ/Wf/fZ0kD85wPeywMGI79k3y6qq64oLZdqi7vzFy9JCqOriqXpjk3VnfEpF/zPwSkVMyvHddvbvfsKMSkSTp7u9094OSXDfJ0XPWvXKSl89Kllalqm6S5FErjJya4Xq4bne/aaUSkWQozujuT3T3o5NcKMn9kvxytfm2p6r2T/K6rFwi8o4kl+7ux80rEUmS7j6qu5/f3TfK8Lx+Yilhd7zfkVnn978zqqpLJHln5peIvC/Jxbv73t39oZVKRJL/uwb+p7vvkaEw6h0j4vx+kjdU1T4jZlfU3d/v7ld095jSsWR4T1yvEpHT/V1VnW2d99wlbPkikaq6c5LrR4HIplNVeyb5gxGjH546S4Y37nkq44pPNoOzjJw7fsoQWewXmjNPlgIAAAAAAAAAAAAAAADYcrr7mCT3XvC0iyb51wnirJuqeliSP5szdnSGm92f1t09Z/a39OCZGW4o/uac8b0zlCZcftF9NpuqulCSN2coSFnJiUlu190P7O5fTJ9suarqIklenvklIo/o7j9e5DF29/eS3CjJZ+eMnjfJf45dd42OTfLsJL+b5EzdfZXu/rPufsqszOKzsxKd47r71O4+fvbf7+/uf+/uGyc5LEP5yK9G7nlAktdX1UGTPKIdu1WSzyS56wLnnLTWTavqTkkeNmKfm3X3Uxd5X+ru/01ywyTzrsPfy/yCpe2aFUz915yxB82uh9W8p546K2m682ryreAxSS64wvc/lOQPunteEct2dffHk1wjyQ9Wc/7OYFZiMaY86r+S/M4CpT6/obu/meTGSf55xPjvJnn+avZZos7w+f+GJI/LUEx2yyRXzHDNnS3JPhmKk86b5JpJ/j7JpxbcZ/8k919GYH7Tli8SSfJ32/z7vAKR3uTHVnP1jCu8mPfL4jJ8IcMv7vPceOogSzK2EXOpzWXb8fMFZvebLAUAAAAAAAAAAAAAAACwJXX3G5M8b8HT7ldVN5oiz9Sq6gZJHj1n7IQkN+3uj611v+7+UpLrJfn+nNF9MpSJnHWte26U2R9Pf1mSQ+aMnprk9t396ulTLV9V7ZXkFZlflvLs7p53rW1Xd/8syR2SnDxn9FZVdavV7LGg13f3fbr7nd19ymoW6O6juvvPklw7ybdHnnbuJM9czX5rcJ8k59rO17+Y5CUZbvS/bZJLz+b27e59krxntRvOCnieNWL0j7r77avZo7s/k+QBI0b/uaq29/jnuX+Gn9eOvKO7n7qKdc/oTUm+t4R1UlXnSXK/FUZOTnLn7l5TUczs/BeuZY3Nqqp2S/LSrPyzT5JXdPe9u/vUtew3K+n6uySPHTF+h6oac80v0yeSPDjJdZIc2N0X6O5bdPdDZsVkr+/uT3T3N7r76O4+qbtP7O7vdveHuvuxSa6Q5PZJfrrAvvesqnk9ECxoSxeJVNXlklw8QwnHShfPGYs6apMeW811R859ftIUSbr7VyP3uebsfwxsdmN/kZ36ulpk/VX98g0AAAAAAAAAAAAAAADs8h6Y8Tf2J8N9T8/b2UovquqAJC/I/HtD/7K7P76sfbv720luneS0OaOHJ3nCsvbdAI9OcsURc/8wK7DZWf1lksvOmflahtfVqnX3F5OMKV74p6rafS17rafu/nCSa2V4jsa4XVXddMJIO/KdJE9PcrskZ+vuS3T3Xbr7sd396u7+XHd/v7tPnM3/TX7zXutFPDXzi2le2t0vXeX6p3teknkFSfsmedQii84KDFYq5EiSxyyy5o7MiihesIy1MpTG7L3C91/c3Ucuaa/nLmmdzeYvkvzOnJlvJrnnMjft7r9P8t8jRh83K+pZL2/s7n/v7vd39y9Ws8CsLOWVGd4nfzDytPNk3OcvC9hjowNMbExRxekfajX79y8m+XCGF/VPk/xymmgLu1GSO250iCUb8/P5WXfPaypcls9k/pvM/kmunORD08dZk2NHzu03ZYjM/8VvW4s0SwEAAAAAAAAAAAAAAAAkSbr7uKq6Z5J3ZvwfRz5Xkmck+cPJgi3fP2S42XYlH03yrGVv3N0frqonZSihWMk9q+o53b3Z78H7DbMbtR88YvRjSR4/cZzJVNU5kjxsxOjfdvfxS9jy3zPcqL/SH3i/WJJbJXnVEvZbF939naq6WZKPJDlwxCmPr6q3z0okpvahJA9J8oHuHl0M0t0fq6qXZ8H3xKr6/SQ3mTN2QoaikjXp7q6qxyd5xZzRu1fVwxe4P/lqSc6/wvd/nOSDI9ca43lJHrqEde4w5/tvWMIeSZLu/nJVfTDJNZe15kabvR+OKZ35iyW9H57RfTP0GpxphZm9kzwt819jm053f2H2u9lbRp5y/cwvCmIBW71I5NorfG/bApGTM7Rq/Ud3f33yVKtQVd/LUCSy2javTWXWDnf1EaOLtECu1TdGzl0rm79IZGwpx9RFIvsvMHvsVCEAAAAAAAAAAAAAAACAra27311VT81QWjDWHarqDd390qlyLUtVnTvJA0eMPmaR8oAFPTbJH2fl4oRK8s8Z94fIN5PHZeWyi9P9zTqVQUzlAZn/B8S/1N2vWcZm3f29qnpbkpvNGf3T7ERFIsn/FSs8MMlzR4xfKsmtk7xy0lCDd3T3+1d57sMy5NxrgXP+fsTMC7v7qNVF+i2vy3AP7VlXmNkzw3vVY0aueYM53/9Ud582cq25uvurVfU/Sa6z2jWq6jxJLjJn7OOrXX8HnpMtVCSSoZxrXhHQx7v7TVNs3t1HVdVTMr/c6cZVdf3ufs8UOabU3W+tqtdmKIua5/JT59nV7LbRASa2ozfAzvDLaCX5UpIrd/eDN2uJyMyy36w32oUzrsRiMxaJXHbSFMvx1ZFzK/2itAwHjZz7aXcfPWkSAAAAAAAAAAAAAAAAYKt7SJIvL3jO02c3ZG92D8r8m/u/mWSSG56TpLt/kuQ/R4xep6quNlWOZauqi2bcTc4f3Blv5D5dVe2X5L4jRp+15K1fO2LmBjvJ6/CMnp/kwyNn/3zCHEvR3d9I8syx81V19SRjXuuj15ynu0/JuPe5uy2w7GXmfP+YBdYa6zlrPP/SI2aWnfsVSX6+5DU3RFUdmuSeI0afOnGUJyY5acTcQybOMaWnjZy70KQpdkFbvUjkoAylIdva9r+PTHKD7v7suiVapdkv2N/KUH6yFYz5gEqS706a4jd9c+TcvF8INoPPJTlxxNyhVTWvPXAt5rWZnW6rFeUAAAAAAAAAAAAAAAAA66y7T8hw8/ipC5x2liTPq6pNe+9eVe2f5D4jRv9fd5/xnsplG3vz+wOnDLFkf5Fx924+Y+ogE7t15v9x8k7yqiXvO7Z85WZL3ndys9fbY0aOX7uqLj5lniV5TJLjRs7ea8TM17r7U6uPs11jrqkLVdXFRq53+FrCrNIrMxRZ3DOrK+9Z98zd/cskt8mvcy/yWbvZ/EmSfefMnJjkNVOG6O4fZ1zZ0o0WuJ43m/dmXAHNuSfOscvZ6kUiB+/g65Xhl5l7d/cP1jHPWn1sowMs0dgyjqMnTfGbvj9y7mJVNa+5cUPNGtU+MXL8AhNGuejIuSMmzAAAAAAAAAAAAAAAAADsIrr7I0n+ecHTbpihTGKzunmSM42Ye+PUQbr7Sxn+EPY8N5/4j2AvxexewbuMGD0+E99Qvg5uN2LmC9291D8Q393fTPKTEaO/t8x910t3vznJ10eOj/kZbKjuPqa7z9zd1d3v3dFcVe2R5JYjlnzbsrJtY+wftx97TR045/vnGbnOaN19Qnc/f3a8fxVLzMucTJP7Hdvknrq4akpj3vff191jCjDWamx5050nTTGR7j4tyUdHjJ556iy7mq1eJHLGJqPOr0tE3t/d71r/SGsy9oNtZzC2Ne2YSVP8prGlMnskueCUQZbklSPnxpa6rMYVRs6NzQoAAAAAAAAAAAAAAAAwz6OTfGrBc/6lqsbe97be/nDEzM+zfn/M/M0jZvbNuJKBjfa7GXdD/lu7+4Spw0ylqvZLcuMRox+cKMIXRsxcaaK918OLR87dZtIU6+u6SQ4eMTfFNfWl/PY95Nsz9praY873Lz97DW0m8zInybUmT7ETqqrLJ7nIiNF3T51l5h1JThkxN+Z3gc3qmyNm9pk8xS5mqxeJ/HSF771+3VIsz1YqEjls5Ny6FYl094lJfjZyfGz+jfSSjPvguOkUm1fVPkluNGL009396SkyAAAAAAAAAAAAAAAAALue7j4lyV2TnLTAafskeVFV7TlNqtWpqr0ylF3M88nu/tXUeWY+MHJuzP1lG+1WI+feMWmK6V09yd4j5r440f7fGTFzzqo620T7T+2NI+cuU1WHTppk/Vxv5NzSr6nuPjnJj0aMXm7kksfP+f5+Se42cq31Mi9zktx38hQ7p5uNnPvopClmuvu4JJ8dMXqhqrrA1HkmslLnw+l2nzzFLmarF4l8K0nt4HvvW88gS/KRJI/K0Ia4M+bf1vlGzh07ZYjt+PHIubH5N0x3H53kpSNGb1xVY5rHFnXjJPuPmHvSBHsDAAAAAAAAAAAAAAAAu7Du/lySf1jwtCsmefgEcdbiqkn2HTE35ibkZRl7c/V1J02xHNcfOTe2PGWzuvbIua9OtP/3R85dYqL9p/aJJMeMnL3WlEHW0dhr6msT7T/mmrpIVY0pJxhTSvKPVXXhEXPrZUzmq1XVX06eZOdzvZFzm/Fz9XpThpjQLzc6wK5oqxeJfHqF731v3VIsSXf/rLsfNTt22iKRqtonydjGtJ9PmWU7jh05d9iUIZbooZn/HB6c5O7L3LSqKsnDRox+PMkLlrk3AAAAAAAAAAAAAAAAwMy/ZfECiIdW1dWmCLNK1xk595VJU2yju3+QcX/U+3xVtWnvxauqcya5wIjRXyb5/MRxpnaVkXMbWfqQJOeeaP9JdXcn+cjI8WtMmWU9zO4hvfKI0R909y8mijHmmto9yTlGzI257g9O8raq2izX6NjX6hOq6s6TJtmJVNWeSa4+YvSn3T22HGgZPjdybmyBD2z5IpGPr/C99Xzx8pvOmaRGzm7WIpHN8kG/ou7+fpK/HzH68Krae4lb3znzfwn8VZL7z35BBgAAAAAAAAAAAAAAAFiq7j4tyT0yFEGMtXuSF1XV/pOEWtxlR859a9IUv21sccmlJk2xNmMLY76wBe6Du8TIuamuo6NHzp1rov3Xw0r3NG/rkpOmWB+HJdlvxNyU70vLvKY+PHKtw5N8sqpuMnJ+Sp9KctKIucrwmfbvVbXXtJF2ChdOsu+IOZ+p7PS2epHIu1b43u7rloIzOmiB2amaxnbk2JFzZ50yxDJ191OSvGzO2PmSPHvWArcmVXWFJE8bMfpX3T32lysAAAAAAAAAAAAAAACAhXX315P81YKnXSjJv00QZzXGFkB8d9IUv+0bI+c2c2nC2Of2C5OmmFhV7ZvhHsJ5ftXdJ04UY+y6B0+0/3r40si5i02aYn1cdOTclPcIL/OaeluSU0eud2iSN1fVy6vq4iPPWbrZa/XdI8cryYOSfKaq7rCMe4l3Yjv7Z+rFd/GfHwvY0kUi3f2tJF87/T/P8O0zrXMcfm2REo6pfunckRNGzu00RSIzf5TkiDkzd03ylKraY7WbVNWVk7w9yZnnjP5Xdz95tfsAAAAAAAAAAAAAAAAAjNXdz8xwo/gi7ltVvzdFnrGqarckFxk5fvSUWbbj+yPnxhYObISxhQ7fnjTF9M6foUhgnuMnzDD2XtF9J8wwtW+OnDusqvacNMn0LjBy7pcTZljaNdXd30/yxgX2riS3T/K5qnptVf3e7P16vT1rwfmLJnlZks9X1QOq6qAJMm12Y9/3N+tn6v5JzjNlELaOLV0kMvO6bP8XHEUiG0eRyDrr7hOS/G6S980ZvX+Sj1fVNRZZv6oOqqr/SPLhzG9ne1qS+yyyPgAAAAAAAAAAAAAAAMAa3SvJTxc85zlVNe9+qSkdmmRs4cAxUwbZjh+MnDvnpCnW5oIj574zaYrpnX3k3JSlDyeNnNtnwgxTG3ud7JbkbFMGWQdb8Zr62yQnL5hhtyS3TPLfSb5dVf9eVVdecI1V6+7XJ3nvKk69eJInJfnerAjlDlW13zKzbWLnHjm3rp+p3f3LJL8YOb6ZP1fZRPbY6ADr4NVJ/mo7Xz8o49u9WK6zLDA79oN8WcYWiZxlyhBT6O6fV9VNkjwnyZ1WGL1Mkg9W1YeTvD7JEUm+nuFD78QM/8PzzEkOS3K5JDdIcvMk835JOCXJP3T349bwMAAAAAAAAAAAAAAAAAAW1t1HVdX9k7xkgdPOkeRZSW47TapR+49xancfP2mS3/azkXNjH8NGGJvt6ElTTG9sacW+VfXIiTIcPnJur4n2Xw8/WWD27EmOmirIOhh7TV18wmvq6iPnRl1T3f2Vqvr3JA9ZZZ5zJ3lQkgdV1deTvDzJ/+vuz61yvbH+PMkns7rOgL0zFKHcMskvq+oNSV6W5C3dfcqyAm4yY9/3fz5piu37WZIDRsxt5s9VNpEtXyTS3UdU1VeTXOgM3zpvko9vQCQWa4RbtL1rrbZ0q113n5jkzlX1tiRPS3KmFcavNjuW4UtJ7tLd6/6aq6qzZWjeZMfGNmcCAAAAAAAAAAAAAADATqu7X1pVt8pixSC3qaq7dfcLp8q1grE36/9y0hTbN7ZIZOxj2AhnHzl37JQh1sHBI+fOkuQRE+YYozZ4/1Xr7uOr6sSMu//0kKnzTGzsNXW52bGRFrmmHp4h703WuOcFk/xdkr+rqk8keX6Sl3T3ImUzo3T356rqj5K8IGt7/eyf5I6z45iqemmS53X3p9aeclMZ+5n0i0lTbN/PMhTSzLOZP1fZRLZ8kcjMs5I8IUlv87XzblCWVauqCyZ5x+w/n9TdT9nIPGuw5wKzp06WYm37LfIYNp3ufuGsTOThSe6d6R7P95I8NsmzN7B97H7Z+P/xAgAAAAAAAAAAAAAAAGwOf5rk2hlfIpEkT62q93b3tyfKtCP7jZw7YdIU2ze2vGTsY1hXVbVPxmc7dsIo62Gn/MPqO6njM+753nfqIBPbktdUd59SVbdJ8vYk11zSsleYHf9SVS9K8uTu/uKS1k6SdPeLqurgJE9c0pKHJPmLJH9RVe9P8qQkr+vu05a0/kbyucouY1cpEnluksfkNz+YzrdBWdbiSknOn6EQ5SwbmmRtFimtWO8PlbFFIv+fvfsOk+4u6wb+vZ88SSABQu+9JjTpVSAgVUCR8qIgTYoooryg4KsIgiAqqIigYEGaqHQBBaQXpUPoLUAoQggJBEJ6ud8/ZpZns+yze3Z32u5+Ptd1rp05c8/5fc+zszuTC853D5pqihno7u9U1euS3DzJ9ae0zL8neeMcS0QAAACYs6t889XzjgAA7BA74X+FBgAAAAAAAGD+uvv4qnp4ktdv4GkXSPLiqrpdd/e605Nz8MC5s6aaYmtrDj2HWdtIkcPpU0sxG4v6PdiJzhg4t92/J9s9/3519ylV9TNJ/iKjP3Q/KYck+dUkD6+qFyf5/e7+9qQO3t3PrqqvJHlRkgtN6rgZFW/dKsknq+px3f22CR57HryvsmvsmXeAWejuE5O8IkllVMKRJNecW6DNu+G8A0zITigS2cg5LJyq+oWqOiqjVrRplYgko3bOL1fVv1TVlaa4DgAAAAAAAAAAAAAAAMAg3f2GJP+0wacdmeSxk0+zpqEXCw+9Lm6Shv7x6UW94Hkjubb7H9re9n9YfRvZ7j8XQ+3o11R3n97dj0ry80m+NOHD70nykCRfqqqHTvLA3f36JNdL8qpJHnfsukneWlWvqKrzT+H4s+J9lV1j77wDzNBzkzxofLuSXGeOWTbrBvMOMCGDC2xm3M6Y7CuaWc+2LOGpqstm9LPw8wPGz0ny2SRfTvLNJCdn1Jx4niTnS3K5JFdJcnhGP1P7szfJLyb5uap6cpK/7O5ZvoH+TZJXznC97egqSf593iEAAAAAAAAAAAAAAABghh6T5HZJrrCB5zy9qt7c3Z+ZTqSfMPQPda91fde0DL3GbtZ/bHyojRQhzOOC8kka+j14d3cfOc0gu8DQn4vd8pp6Snf/4TSDTFN3v76q/jPJr2T0nnHEBA9/aJJ/qKqbJHl0d58xiYN299eT3KeqbpTkiUnumsn2CdwnyXWq6he6+/MTPO6seF9l19g1RSLd/dGqekdGH+yT5DJVdVh3/2CeuTbo+hledLHIzho6WFV7unuWv9AOGDi37RoEq+puSV6eZK2mr07y+iQvSfLW7j5pwHEPS3LHJPdPcvfs/43qkCTPTHKvqrpHd39nA/E3rbuPS3LcLNbarqrm8XkGAAAAAAAAAAAAAAAA5qe7f1hVD0ny9gy/YPjgJC+rqptO6qLvdZw+cG4e14oeOHBu6DnM2kaKHLb7tbhDX6vb/TwXwdCfi9OmmmL6ds1rqrvPSvJ3Sf6uqm6e5CFJ7pvkAhNa4hFJLlBV9+vuiV1D3t0fSXKPqrpkkgdmlPvwCR3+8CTvqqqbdfcxEzrmrHhfZdcY2kyzUzx1xf0bzCXFJlTVFZNcaN45JmQj/4E0tNhjUnZkkUhVPSrJ67J2ichHkly/u+/R3a8ZUiKSJN39g+5+ZXffI8m1k7xjnafcLMkHquqaQ44PAAAAAAAAAAAAAAAAMA3d/c4kz9ng066X5CmTT7OqnXDB86IWJmzkOseh57qohp7reaeaYnfYLUUAu/I11d3v7+5HJLlURuUcb8lkrjf+xSR/OoHj/ITuPra7/6y7j0hyiyTPT3LcBA59iSRvqqoLT+BYs+R9lV1jVxWJdPd7krx52a4bzyvLJmyb0pMBNvKmOOvX6I4rEqmqJyR5btY+txcluXl3f2Ira3X357r7Z5I8eZ3RKyb5b2UiAAAAAAAAAAAAAAAAwJz9vyRf2OBzHl9Vt5xGmBUG/bHoJIdONcXq1vqj18sNPYdZ20iRw3mmlmI2fjRw7pCpptgdhv5cnDjNEDOwq19T3X1Kd7+0u++cUaHGryR5UzZWULTS71TVrScScD/GRSi/luTSSW6X5G+THLuFQx6e5FmTyDZD3lfZNebRhjNTVVVJLpPkCkkun3O3JD20qg6fS7CNu/b4ayXpeQaZgI2UcOzNbJvVhrY1beXNfGaq6j5JnrHO2GuS/Ep3T+x11d1PrarTk/zJGmMXTPKGqrppdx8/qbUBAAAAAAAAAAAAAAAAhuruU6vqgUn+J8P/UPWeJC+pqp+aXrIkyXcGzp23qmqS14gNcIGBc0PPYdZ+lOScDPtj6BeZcpZpO2Hg3HmnmmKHq6rzZfh124v6czGU19RYd38/yT8l+aequmCS+yZ5eJIbbuJwf1lVN+7ucyYY8Sd099lJ3pnknVX1G0mOTPKwJPdMcvAGD/egqnpud39ssimnZujP3jyKRLb7+yoLZscXiSR5apLfW2V/JbnqeNsuOqPc293JG5g9eIPzWzX0Q8nQtrS5qarrJXlx1n7N/G+SB0/jPxC7+0+r6sZJ7rXG2JWTvLqqjpzxf6QCAAAAAAAAAAAAAAAAJEm6+0NV9YwkT9zA066c5NlJXjaVUCPHDpyrjC5A/sEUs6x04YFzQ89hprr7nKo6IcnFBozvliKR7X6e8zb0ZyLZ/kUAXlOr6O4Tk7wgyQuq6uZJnpnklhs4xA2S3CfJv00+3erGpSXvSPKOqrpoRu+Dv57kwIGH2JPk6UnuMp2EEzf0PemwqaZY3YUGzi3k+yqLZ0hT2k5QK7b97V/0baf4/gZmzzO1FKsbWiRy4jRDbFVVVZLnZ/3z+b3uPmmKUX496xfB3DrJr0wxAwAAAAAAAAAAAAAAAMB6nprk4xt8zkOT/NwUsiRJuvv7Gf6HuocUYkzSpQbOfWOqKbbmuwPnLj3VFNM39KLz81XVBacZZIe77MC57035us5ZGPqautxUUyyw7n5/d/90kgcmOWUDT33olCKtq7uP7+7HJLlWNvZ+eMeqGvr6n7dvDpyb6XtqVV0kyUEDxxf5fZUFsluKRJKkl22r7dsO206xkSKRg6eWYnVDi0Q2cg7z8LAkN11n5ptJXj7NEN19XJLnDhh9hv/AAAAAAAAAAAAAAAAAAOalu8/M6ILv0zf41MdMPs25fH7g3MWnmuInDS0S+dxUU2zN0IuxrzLVFNP3tSTnDJzdtcUPE3CZgXOL/DMx1FcHzu3611N3vzTJLZL878Cn3LqqzjPFSOvq7i8luWWSVw58yp4kd5heooka+vO3qO+px3X396aahB1jNxWJJEmNt5X3t8u2U2ykhOPQqaVY3fkGzp04zRBbUVUHJvmjAaP/2t1nTTtPkr/L+kU4F8v0/4MZAAAAAAAAAAAAAAAAYL+6+9NJ/mCDT5v2tX9DL3qe9QX7Vx0499mpptiaLw6cu9pUU0xZd5+e5FsDxy8/zSw73NUHzu2EIpGvDJy7cFXN+jrhhdPdn0jy80lOHTB+cJLrTzfR+rr71CS/nOS/Bz7lZlOMM0neU9k1dluRCIvh+A3Mnn9qKVZ3oYFzGzmHWbtrkksMmPvPaQdJku7+SpKPDhh9SFX5nQQAAAAAAAAAAAAAAADM058ned+8Qyzz8YFzV5hqimWqqjLsoudzknxiynG24gsD52401RSzMfTi+WtONcXOdsTAuY9MNcVsHJPktIGzXlNJuvujSR47cPzK08wyVHefkeReSX4wYHwhMg/w1Qw7n5m9p44NLawa+pkAFIkwF8clOXPg7KyLRC44cO4b0wyxRb8yYObsJB+cdpBl3j5g5vJJbj/tIAAAAAAAAAAAAAAAAAD7093nJHlwkpPnHGXJuwfODS0xmISrJjl0wNwnu/vEKWfZiqMGzl2oqq4xzSAz8LGBczuhNGVefmrg3HunmmIGuvvsDC8J8pra5++TfH3A3MWnHWSo7v5OkucOGF2YzGsZv8cP+Rk8b1XNskzkegPnhn4mgF1ZJNLbeNsRxr9k/3fguCKRDaiqQ5LcZcDoN7v7lGnnWeaTA+fuPdUUAAAAAAAAAAAAAAAAAOvo7i8nedy8c4x9PMkPBsxdZ9pBlhlaDLDoFzx/JMkZA2eHXLe3yD46cO5nquqAqSbZgarqsCTXHDB6fJLPTTnOrAx9Td1xqim2kXEBy2sHjB4y7Swb9KoBM4uWeS3vHDi3aO+rnR1QRMTs7MYiERbDkMasJLnIVFMsU1V7klx04PjQ/LN2/SR7B8x9edpBVhj6wfZmU00BAAAAAAAAAAAAAAAAMEB3vyDJmxcgxzlJ/nPA6HWr6tBp5xm77cC51081xRZ19+kZXobw89PMMgPvybA/eH+RJLeacpad6Kcz7JrtN3T3kO/DdvCugXN3mOHvpk2pql+qqk9X1fur6sApL/fxATPnrDdQVecdZ/50Vd15ArnW8ukkZ64zs27mBfLGgXM3n2qKsaq6TJKrDxh9X3d/b9p52DmGFA7sJJ3k1CTfnXeQTTgsyQXnHWKCjkly6wFzQ4s9JuEiGf4zccwUc2zFjQfOfWWqKX7SFzL6ELDeB+FrVdX5uvtHM8gEAAAAAAAAAAAAAAAAsJaHZnQB9YXmnONfk/zSOjMHZlRm8Jbpx8mQi9aPzfCigXn6jwy7WPw2VXXl7p71tXkT0d3fqaqPJbnhgPFHZHt87xbJXQfOvWqqKWbrrUnOTnLAOnOHJrl/kr+beqLNu0iSa41v3yXTLUH6zoCZIdfYHpB9mR+RKRZfdfdZVfW9JJdYY2zbXBfc3V+sqo8nuf46o7ebRZ4Me09NRp8FYLDdVCRSGRWJPK+7nzDvMBtVVfdP8tIMa3zbDj4zcG6WRSJrvYEtd1KSr08zyBZcb+DcsdMMsVJ3n1JVJyS52DqjezJ6433v9FMBAAAAAAAAAAAAAAAA7F93f6uqfiPJP885ypuTHJ/1r7f7hUy5SKSqbpXkcgNGX97d50wzy4S8LsnTBsxVkkcledxU00zX6zOsSOTeVfXE7VqaMmtVtSfJzw0Y/U6St005zsx094lV9Z4ktx0w/tiqemF3nzXtXBPw4Ey3SKQGzHxjg8e8a1VdpLtP2EyggdbLvdHM8/ayrF8kcpOqunR3f2vKWe43YOb0JK+ccg52mD3zDjAH27Wg4H/mHWDCPjVw7pJTTXFulx8499nuXtRCl4sPnDtlqilWd/LAufXKRgAAAAAAAAAAAAAAAABmortfnuRVc85wRpLnDRi9V1UdNOU4Dxswc1aS50w5x0R092eSHDVw/Neq6tJTjDNtL0oypNzlwCR/Mt0oO8odk1xmwNzzxz/LO8kLB85dI8kjphlkgu5aVReZ4vGHXEP7xQ0e86AMK6PYlKqqJOv9m2w087z9Q5IfrjOzJ8kvTjNEVV05w8p4Xtrd351mFnae3VYk0kn+e94hNqO7v5rkuAxrmtoOhhaJDGkmnJQrDZz79FRTbM0FB87No0jkRwPnLjTVFAAAAAAAAAAAAAAAAAAb82tJvjPnDM/N+teFXTTJA6YVoKqulOSXBoy+oru/Nq0cUzCkpCVJzpvkr6cZZJq6++tJ3jxw/D5VNdUL6HeQRw+YOS3J86cdZA5eleSEgbN/WlVXnWaYCZlqKUeSK6zz+A+TfH4Tx33wJp4z1GWTHLDOzAenuP7EdfcPk7xgwOijq2q9c9+K38v63QHnJPnzKWZgh9pNRSKd5PPd/f15B9mC9887wKR09zeTDGk+uvy0syxz5YFzR00zxBZdcOCcIhEAAAAAAAAAAAAAAACAAbr7+CQPW4AMfzJg9P9V1cFTivGMJAeuM3Nakt+f0vrT8s9Jvj1w9p5V9avTDDNlf7SB2b+vqptNLckOUFU3TPKzA0b/sruPnXaeWevu05I8a+D4+ZK8oaouNsVIk/KgKR77Dus8/l/dfc4mjnuDqrr2ZgINsF7mM5O8fUprT9Mzkhy/zswVkzxkGouPv18PHDD69929mXIZdrndVCSSJO+bd4At2jFFImNDvh+XqaqDpp5k5OoD59471RRbM/TfqqeaYnVDP7icZ6opAAAAAAAAAAAAAAAAADaou9+Y5IVzjvHMJF9ZZ+YqSX5v0gtX1S8kue+A0T/r7mMmvf40dfepSZ68gac8t6ruOa0809TdH0jyuoHj50vypqq6/fQSbV9VtSfJcweMHpdhJUDb1V8l+dbA2cOTvKOqrji9OBNxw2mUcozP++brjP3rFpZ48Baeu5b7rfP4W7r7xCmtPTXd/f0Me798xqQLcMbXzr8w65dzfS/br5yLBbGbikQqO6dIpOaaYnLeM2DmgCTXmHaQsesNmDkxyaemG2NLThs4d8hUU6zu/APnTp1qCgAAAAAAAAAAAAAAAIDN+b9Jvjavxbv7tCS/nOSsdUafWFV3ntS6VXXdJC8eMPqhJE+b1Loz9sIkHx04uzfJK6vq8eMyiUm54ASPtZbfzOhaySEumOTNVfWHVXXw1BJtT09IcrMBcw/v7h9OO8y8jIt4HrmBp1w7yUeqakgx0Tz95hSO+YyMfn/sz9cyvOhnNb9cVRfewvN/QlXdKcnPrDP27EmuOWP/kOSN68xcNKPf+euVfmzE3yW58YC5h3b3CRNcl11kNxSJ/GOS2463f59zlq36QPady5AP3Yvu3QPnrjXVFEnGb4yXHTD63919zrTzbMEpA+fmUSRyvoFzQ88BAAAAAAAAAAAAAAAAYGbGZQAPSdJzzPD+JI9fZ2xPkldX1R23ul5V3SzJO7L+H5r+fpJf7O4zt7rmPHT32Unun+HXt+1J8qdJ3l9Vd6qqDf8B+Rq5XlU9saq+kOS3NnqMzejubyT59Q085YAkT07y6ap6RFVN5PrEqrpAVd2iqn6jqn5+Eseclar6PxlWmvOC7n79tPPMW3e/IaNihKEukuRfq+qdVXXXzfz8rKaqLllVd6iq/1dVW702+eFV9fKqutCEsj0uyS+uM/aE8e+izbpERiUtN9/CMX6sqo5I8tJ1xt7c3W+fxHrz0N2d5EFJjlln9DZJXlNV59nKelW1t6peNF5zPc/u7tdtZT12t7Vai3aE7j4m6//wbgvjD9BDyze2g6OSfCvJpdeZu36Sf51ylpsMnPuPqabYuuMGzi1ykcixU00BAAAAAAAAAAAAAAAAsEnd/c6qek5mVPqwnwx/WVWXSfK4NcYOSfIfVfVHSZ6x0YKPqjowye9kVCBx0DrjJyW5c3d/dSNrLJru/kJVPSSj6xmHFhvcJMmbk3ytql6X5L+TfC7JN5KcnFHhyPkzur7uokmunuTwJNdJcuuMChVmrrv/paoOT/KkDTztqklekOTPq+pdSd6Z0bkeneSEjEpYzsjotbe0XSSja0gvNf56pfFxrpJR6cGSP03y75s/o9kYF178ZpK/yOh7u5a3JXn01EMtjkcnuXKS22/gOUeOt29X1duSvC/JF5N8JckPM/oZ6ux7PR2a5OIZvZYuneQy4zWvMt4OW3bsjyf5zGZPZuyXktyuqv4wyQu7+4yNHqCqDs2odOYx64y+prv/bcMJf9KVkrxvXFbxh+PioA2rqnsm+ZskF1tj7HtJfm0zx18k3f29cfHWe5Jcco3RuyX5QFU9sLs/udF1quo6SV6Y5EYDxv8la7/Hw7p2fJEIi6u7u6pem+RR64zebAZxbjtgppO8bso5tmroG/pab9wTV1UHJbnwwPFNfSgBAAAAAAAAAAAAAAAAFk9V7c3oQu/Dx9uF9jP6W1X1kSRfSPLF7v7hjCJuxu8muVNG5zMX3f3bo06DNS803pvkKUkeUlV/meRV3f2ttY5bVZdPcu+MilIuPyDKCUnu0d0fGhR8wXX3K6rq4kn+eoNPvUJG/2ZbKZg5O8kB6w1V1UW7+/gtrJMk6e4nV9X5kjx2g089X0YX1N9tqxm2k6q6cZI/SXK7AeMfTHLPjRb47GfdPUmOyKi0ZoibV9W9k3w+yZe6+/StZhiiu8+oql9I8sYkt9ng0y+V5AHjbdFcIsnfJnlSVb0wySuSfKq7e60nVdUVMzqfRyS57DprfCzJg7ecdJ89SX4lyQOr6tVJ/jnJ27v7lLWeVFWHJPn5JA/P+tddn5bk/3T3MVuPO3/d/aWq+pmMiqEut8boTyX5eFX9W5K/T/Le7j5rf8PjUq4jM/o3vVfWLyBKRt+vB3f3OQPjw6oUiTBvr876RSI3qqoDJ/GBaQ1HDph5f3d/e4oZJuHLA+euPNUUP+nqGfAfMGNDzwEAAAAAAAAAAAAAAABYEONCgiOyrzBkabtakgMHHOIxK473nSRfHG9fWHb76Clfa7au7j6tqh6Y5H8yx+s0x2Uin07y/CQHrzF6xSR/leTZVfXFJJ9J8r9JTkpSSc6f0YXT105ylQ1E+ERGJSLHbDj8Auvu51bV95P8Y9b+d52kj2dUOPChjL4na/luVR2d5APLtk+sdTH7/nT348avib/OsJ/TaTg7o5/xabpfVd0wyeeSfCmjP4j+jSTfTfL9JCcmOTXJGUnOTHLeJBfM6HfYTZLcI8lNB67170l+qbtP3UzQqrpMkpuN171Jkhtm9DM61B3HW5KcXVXHZFQqsnz7THd/fzP51tLdP6qqO2RUvPHQSR9/A05MsmZp0iZcKsnvj7fvV9VRSY7JqEzp1IxeMxdIcukkNxh/HeJ9Se7e3SdNOG8yen+673g7q6o+leTojP5tTh7PHJZRwdd1klwzw64F/kGSe3f32zcaqKoOzuhzwdJnhKXPDdcYeIg3VtUXMnodfy77XtNbLs3p7s9W1Y2SvDLJrdcY3ZPkl8bbD6rqkxl9Pjkx+14LF87onK6bUfnSEGcn+d3uftamTmAVNWocOzzJLQY+5eZVdfckH+vu/53A+pfK6HfYzQfOPzSj97TPKVLZOkUizNt7MvqwtVY70yEZ/cLd8BvKEONfQjceMPrSaaw/YR8bODfrIpGhzZpHT+PDJwAAAAAAAAAAAAAAADB1z03yoAke7xLj7VYr9j8kyYsmuM6mdPeHq+oZSf5gzjleVFXvz6hM5Mh1xiujC5uHXrC9P6cmeXqSZ3b3GVs81kLq7n8eX6z+TxkVrEzLSUmemuTZ3X1WVX09yRUGPO+q4+2Xx/dPraonbeYC9O5+wfg19PcZFVfMSid5fZIndfcnp7zWgRl9H6f5vTwjyZMy+rnYygXw/5zkNpOJlAMyKge6SpK7Ltv/4iQPntAa5zIuenpYVb0pyXMyvFBjEk5J8g9Jntbd353iOhdKctstHuOsJH+R5IkzKsfam+T6420r3p/kAd395aFPqKqbZVTAcniSK2VYWcn+HJpRUcsNVuw/u6q+mlGpyNO7+wObOXh3H1dVt0vy6CR/lPVLQA7L6HPKys8qG/XBJI/s7qO2cpCqOjSj0pCbj7ebZVSKNNSPi4iq6rgkH83o2vWPJflQd39zjbUvnlHh0g2XbZfa4Cn8w/jrD6vqQ9lXlvXf3X3iBo+16+2ZdwB2t+4+O6P/QFnPXdcf2bR7Zv2Gvh8kedkUM0zKRzJqnFrPFapqlu2AQz9cf3CqKQAAAAAAAAAAAAAAAAAm54+SfHzeIbr7C91924yulfvQFJf6UZK/SnJ4dz99p5aILOnuj2R0IfTvJPnOhA//o4xKBK7c3c/q7rPG+z+9yeOdN8llNxtmXORx8yQP2EKGoY5N8qwkR3T3PWZQIjILb01yw+7+0y2WiOwY3f3qJEckeWKS46a83GeS/HaSy3f3b22iROSjST47+VirOifJa5Ncv7ufsIUSkdOS/HtGBTaz8MWMysJuuZESkbHDk9wto/KjrZSIrOWA8fHvNl5v07r77O5+dkalW3+Z0e/raflQkv+T5OZbLREZu0+S/0rylCR3zsZKRFa6eJK7ZFQC8+qsf539n2VUDvXkjL4PGy0RWe4CSW6f0e+PNyZ5zBaOtWvtnXcAyKgd6MlJDlpj5t5V9dtT+gD1gAEzL+7uaf6in4ju/mFV/U/Wb646MKP/gNlUo9Ym3G7g3BunmgIAAAAAAAAAAAAAADbpnGfdfb0/YgrALtPdZ1bVAzK6CP3gBcjz2iSvraqbJ/mlJPdKcuktHvaMJG/L6CLiV3f3D7Z4vG1lXJbyrKp6XpL7j7dbJ9mzyUN+MslLk/xDd5+4yuPvzuhi+M3YUtnJ+PrNl1XVPye5bUYXt98jySW2ctwknVE5yduTvC7J+8Z/pH67OyvJm5L8eXe/e4LHfVGSd03weKs5asrHTzK65jXJ06vqL5L8fEYlB3dOcsgWD316RgUMb0ny2u7eUglId78/ybWq6goZvfZvkeSmSa6ZyV2L/4Ukr0jyku4+eqsHG5cP3aOqzpfkpzO6rvhmGV07fNhWjz92YpL/SPLPSd6y20pyuvtbSR5bVU9Nct+MfifeJlsvQ/lqktckeWV3f3CLx4L9qu6ed4Zto6oumlF70KWSXDKjJp1DMvqAf3BGLVCnZ9TidFJGH7qOTfKNJJ/v7tPmEHtbqKrnJ/nVdcZ+trvfNOF1b5z1GxZPT3KN7v7ahNa8aJLfzOhDz5XHu4/OqGXpOd19whaP/5iMGq7W85Tu/sOtrDVEVV0yo5+B9T4snZ7k4uMPhsxQVV0r526JvHZ3f2ZeeZi9Pb/9Bh8GAICJ8H+UYDU+bwIAk+LzJit99dkH+awJAEzElR5zhs+a/ASfNwGASfF5c3fx/8sFABZNVVVG10TeLMkNklwpyRWTXCyjayPPOx49dbydkNG1YF9L8tmMrr37mGsjz218jeAtktw8o3/fK2V03emhGf2bnp3klCTfT3JMki8l+WCS90yiQGCWxq+hqye5SZLrZ/T6uVxG19gune/BGV0fuPQa+mb2vYY+meRD3f29KWZ8V0YX96/lz5Mcn+Snklwro/M4/yaWOy7Je5K8M8mruvu4TRxjV6uqgzL6PtwkybWTXH68XTSj19N5M7oe9bQkJyf5bka/l76a5FNJPpHko7P4vVRVB2f0M37NjAp+rpzkshmV61w8o5+B84zznpHRz8EPMrq2/JtJPj/O/N7u/ua08y7LffmMXudXH2e+YkY/s5fIqGTkPBn93J49znxyRq/tb2d0vfNnMvqd9bHdVh6ynqo6f0YlMzdNcnj2/U48f/Z1Dpye0XvAyUm+leTrSb6SUenYhyZ1vfp+8l0vowKoaTimu1+0xtr3SHK9Ka39ru5+15SOvWNNqgVpxxm/Ed0iyZEZtTBdO6M3oc3qqvpako9n1Aj37u7+5FZz7iBPSfKArN0i9lsZtbNN0uMHzPzNBEtE7p5RW+DKNq/rjbffqqoHdPcbtrDMy5I8I6M38rXcv6qe0tNvE3pohv2uebkSEQAAAAAAAAAAAAAAAIDJGF879vnx9qL5ptk5uvv4jP6w+OvnnWXaxq+hL4y3l845zlZ8vbufs3xHVV0kowKAiyW5SJILZV8xyoEZFVn8KKNiiGOSfLm7j51h5h2pu89I8uHxttC6+/SMynC21fXg3f31jMorJn1N9q7X3Scledt4WzjdfVSSo+a09uuSvG4ea7M6RSIrVNUdk9w/o7ad8y1/aKuHzr62vl8Yr/W1JP+W5GW7vWW4u79dVc9O8ntrjN2pqm7d3e+ZxJpVdYsk915n7MQkT5/QenfK6BfgnjXGDkvyuqq6S3f/12bW6e7jq+plSR62zuhVM3otvmYz6wxRVYcleeyA0U7yl9PKAQAAAAAAAAAAAAAAAADsWhdeuaO7T0hywhyyAMDUrVVosGtU1Z6qelBVfSajdqVfTnL+jMo/lrae0Lb8mFdM8vgkn6yqN1fV7WZwuovsaUm+uM7Mc6rqoK0uVFXnTfL8AaOPHn8Y3Op6h2bU2DjkZ25PkheNM27WU5KcPGDuz7a4znqenVU+YK/iRd39qSnmAAAAAAAAAAAAAAAAAAB2p/PPOwAAzNKuLxKpqlsmOSrJC5Mckf0XhyTnLgHZ6LZkf8Uid0jy1qr6j6q66lROdsF196lJHpTk7DXGfirJH09gueckuc46M6/q7pdNYK0keWCSS25g/lIZFdpsSnd/M8lTB4xeJckLNrvOWqrqUUkePGD0u0l+dxoZAAAAAAAAAAAAAAAAAIBd74B5BwCAWdq1RSJVtaeq/jzJe5JcK/vKPtYqDtnSkvs53spCkbsk+VRV/cYW19uWuvsDSf7fOmOPq6rf3OwaVfWnSR62zthnkzxis2us4mc38Zy7bXHNZyZ584C5B1TVC6pqYh+Eq+rxGZW1rOecJPfv7uMmtTYAAAAAAAAAAAAAAAAAAADsVruySKSqLpTknUkek30FHisLPbZaHDIoyirrJ8nBSf6qql5ZVQfPIMdC6e5nJvmbdcaeXVV/VlUHDj1uVR1WVf+c5PHrjP5vkjt39/eHHnuAK23iOVfeyoLd3Unul+SoAeOPSPLfVXWdraxZVYdX1X8l+dOs//ulk/x6d791K2sCAAAAAAAAAAAAAAAAAAAAI7uuSKSqLpzkbUluldULROYWbZU890zyn1V1yBxzzctvJnnRGo9Xkt9J8vGqesBahStVdaGq+u0kn82oWGMtX01y++7+xgbzTkOvP7LOAUZlKLdP8uEB4zdN8omqem1V/UJVnW/IGlV1gaq6d1W9NslnktxhwNPOSvJr3f2CIWsAAAAAAAAAAAAAAAAAAAAA69s77wCzVFUHJXlTkutnX0nDRspDtlLsMHSdlWUiRyZ5TVXdpbu3XCyxXXT32UkeUlVfT/KkNUavleQlSf6uqj6Q5EtJTkhyQJKLJrlukuuN76/nA0l+rru/u4Xo+/OVcdaNPmfLuvuEqrp1kucmeeg645XkHuPt7Kr6bJIvJ/lmkpOTnJHkoCTnT3LZJFdNcng2Vkp0bJJf7O53b+A5AAAAAAAAAAAAAAAAAAAAwDp2VZFIRkUKN86wEpG1Sjs2Uz6yv+OtdqylfUtlIndI8mdJfmcD6+4I3f3kqvpgkucnudwao+fJqHTlyE0sc3qSpyf5k+4+cxPPH+KNSe6+wee8YVKLd/dpSR5WVa9M8tdJrjbgaQckuc54m4SzM/o+PrG7T5zQMQEAAAAAAAAAAAAAAAAAAICxXVMkUlV3T/KwrF0isrLsY+VMJzkhybFJfjDeTk5yVpIzk+xJcuB4O3+SCyS5cJJLJTnfftZbvubK9Sr7ykQeW1Vv6O73rH6GO1d3/2dVXSvJk5I8Mqv/W27GOUlem+QPuvtzEzrm/rw0yR8kuezA+W8kedmkQ3T3W8b/lr+UUTHNtSe9xipOTvLiJH/e3V+ZwXoAAAAAAAAAAAAAAAAAAACwK+2KIpGqOk+SZy/ftWJktTKPY5P8T5IPJ/l0ki8mOaa7z9xkhkOTXDXJ1ZJcL8mNktwi+0oxlpeKrJavkvxNVV2vu8/aTIbtrLtPSvI7VfWMJL+eURHGNTd5uK8leV2S53b30ZNJuLbuPrWqHpDkrVn/5+6sJA/s7tOnlOXMJC9J8pKqukGS+ya5S0alIqsV7GzGsUnelVFRyxu7+5QJHRcAAAAAAAAAAAAAAAAAAADYj11RJJLkkUmulH2FHMstL+84NsmLkryquz82yQDdfXKST4y3VyVJVR2Y5FZJ7p/kPhmViiwViizlrGUZj0jywCQvnGS27aS7v5fkaUmeVlVXTXKHJNfNqATjcknOP97OSXLSePtmks+Mt/d09yfnED3d/a6q+rkkL09ywf2MnZjkft39rhll+liSjyV5QlVdJMlNk1wro9fa5ZNcIsnFkhyS5OAkByY5M8npSU5LcnyS7yT5dpIvJPlcko9395dmkR8AAAAAAAAAAAAAAAAAAADYZ8cXiVTVniS/lX1lHEuWF4h8PckfJXlRd589q2zdfWaSdyR5R1U9ZpzzsRmVTKxWelLjx3dtkchy3X10kqPnnWMjuvtN4wKUxyT5uSRXyeh7/eUk/57kOd19wpyynZDkP8cbAAAAAAAAAAAAAAAAAAAAsM3smXeAGbhbkiuMby8VcywvEfmbJNfq7n+cZYnISt19Unc/LckRSV4/zrY859LtI6rqyJkHZGK6+4Tu/oPu/qnuPl93n7+7r9fdT55XiQgAAAAAAAAAAAAAAAAAAACw/e2GIpF7Lbvd462SnJ3kEd39G9198lySraK7v9Pd90jyRzl3gchy955pKAAAAAAAAAAAAAAAAAAAAAAW3o4uEqmqPUnunnOXcSyVc/xmd//DXIIN0N1PTvLHOXeZyFIJyj3mFAsAAAAAAAAAAAAAAAAAAACABbWji0SSXDvJBZfdXyrl+Jfufv5cEm1Adz8xyVszyr3cparqqnOIBAAAAAAAAAAAAAAAAAAAAMCC2ulFIjddZd/JSX5r1kG24BFJzlhl/01mHQQAAAAAAAAAAAAAAAAAAACAxbXTi0Sut+x2Jekk/9jdJ8wnzsZ199eSvDSj/Mtdfw5xAAAAAAAAAAAAAAAAAAAAAFhQO71I5Aqr7HvZzFNs3YtW2XfFGWcAAAAAAAAAAAAAAAAAAAAAYIHtnXeAKbt8kl52//ju/ui8wmzB/yT5fpILju9XRucGAAAAAAAAAAAAAAAAAAA7XlVdMMkNktwoyQ3HX6884KmPrqp7JDk6yZdWbF/p7jOmkRcA5mWnF4lcdPy1MioU+dQcs2xad3dVfTLJbTI6j0pyqfmmAgAAAAAAAAAAAAAAAACA6aqq+yV5SpKrZHSN7UbtSXKF8fYzKx47p6q+luTo7r7jloICwILYM+8AU3bIivtHzyXFZHxpxf2V5wYAAAAAAAAAAAAAAAAAADvN1ZNcNZsrEVnPniRXSnKHKRwbAOZitxWJ/HAuKSbjxBX3FYkAAAAAAAAAAAAAAAAAAAAA8GM7vUikV9w/dS4pJuO0FfcPnEsKAAAAAAAAAAAAAAAAAACYke7+w+6uaW/zPk8AmJSdXiRyyor7h84lxWQcsuL+6XNJAQAAAAAAAAAAAAAAAAAAAMBC2ulFIqeuuH/BeYSYkAuvuL+yJAUAAAAAAAAAAAAAAAAAAACAXWynF4kcP/7a46+HzyvIBKzM/oO5pAAAAAAAAAAAAAAAAAAAAABgIe30IpGvJanx7Upy7ao6YI55NqWqDkpy3YwKUWr89etzDQUAAAAAAAAAAAAAAAAAAADAQtkNRSLLnT/JbeYRZItun+SQFftWnhsAAAAAAAAAAAAAAAAAAAAAu9hOLxL55Cr7HjHzFFv3qFX2fXrmKQAAAAAAAAAAAAAAAAAAAABYWDu9SOSDy253kkpyr6q6zpzybFhV3TrJXTLKv9wHVxkHAAAAAAAAAAAAAAAAAAAAYJfa6UUin07ywxX7Dkjykqo6zxzybEhVXSjJi1Z56PQkH5ltGgAAAAAAAAAAAAAAAAAAAAAW2Y4uEunus5P8R5Ja2jX+et0k/1ZVe+cSbICqOl+S/0xyxezLXePb/9Xdp88pGgAAAAAAAAAAAAAAAAAAAAALaEcXiYy9etntpSKOSnK3JG+vqovNJdUaqurqST6Y5CbZl3e5f5t5KAAAAAAAAAAAAAAAAAAAAAAW2m4oEnlDkm+Pby+Vcix9vVWSz1fVr1XVgXPK92NVdYGqemqSo5Icnn0FIr1s7Pgkr51xNAAAAAAAAAAAAAAAAAAAAAAW3I4vEunuM5P8dfaVciT7ykSS5EJJnpvkq1X1xKq6yowjpqpuUlXPTvL1JL+f5Dw5d+FJlt1/bnefNuuMAAAAAAAAAAAAAAAAAAAAACy2vfMOMCPPS/KbSS6RfeUcy8tEKsmlkzwlyVOq6gtJ3pHkw0k+leSL3f2jSQSpqosmOSLJdZLcPMltk1xqWY6syNXLnn5ckudMIgcAAAAAAAAAAAAAAAAAAAAAO8uuKBLp7pOq6reTvCznLuZYKupYXtyRJIcnuUaSX/vxYNWJSb6Z5LtJjk9yUpIfJTk1yVlJzh4/f+94O3S8HZbkYkkunuSySc67Il4tu70y28qcj+vuHww7awAAAAAAAAAAAAAAAAAAAAB2k11RJJIk3f3yqrpnkntmVMqxVNSx9HV5ocjy/UsuNN46m7PyeD+OtsbcUs5O8urufvkm1wYAAAAAAAAAAAAAAAAAAABgh9sz7wAz9qAknx/fXq3AY2lbenzltnJuI9tqx1vtmEuW5/tUkgdv+GwBAAAAAAAAAAAAAAAAAAAA2DV2VZFId5+c5E5JvpJ95R6rWa0IJNl/GciQbb1jnyvqstnPJblzd5+yoZMFAAAAAAAAAAAAAAAAAAAAYFfZVUUiSdLd30hymySfyr4ykf0Viiy3WgHIZrZ1Iy5b78NJbtPdxw54HgAAAAAAAAAAAAAAAAAAAAC72K4rEkmS7v5WkpsmeXH2lXsMLRSZlqX1lwpHnpfkVt19/BwzAQAAAAAAAAAAAAAAAAAAALBN7MoikSTp7tO6+yFJ7pnka/nJQpFZlIqsXKuSfCHJnbr70d19xgwyAAAAAAAAAAAAAAAAAAAAALAD7NoikSXd/bok10zyhCTfzqjMY7VSkUkUi6x2vKX1vprkUUmu091vncBaAAAAAAAAAAAAAAAAAAAAAOwiu75IJEm6+7TufmaSKyV5UJL/SnJOzl0qkvxkEchGtyw7ZiU5Pclrk9wrydW7+2+7+6ypnSgAAAAAAAAAAAAAAAAAAAAAO9beeQdYJN19ZpKXJnlpVV00yZ2THJnk1kmuknOXimzG2Uk+m+TdSd6Z5G3dfdIWjwkAAAAAAAAAAAAAAAAAAAAAikT2p7uPT/Ky8ZaqOiTJEUkOT3KZJJdMcvEkhyQ5eLydk+T08XZSku8kOTbJN5N8LskXx2UlAAAAAAAAAAAAAAAAAAAAADBRikQG6u5Tknx0vAEAAAAAAAAAAAAAAAAAAADAQtkz7wAAAAAAAAAAAAAAAAAAAAAAwNYpEgEAAAAAAAAAAAAAAAAAAACAHUCRCAAAAAAAAAAAAAAAAAAAAADsAIpEAAAAAAAAAAAAAAAAAAAAAGAHUCQCAAAAAAAAAAAAAAAAAAAAADvA3nkHYLiqumuSGyZJdz91znEAAAAAAAAAAAAAAAAAAAAAWCCKRLaX30hypySdRJEIAAAAAAAAAAAAAAAAAAAAAD+2Z94B2JDD5x0AAAAAAAAAAAAAAAAAAAAAgMWkSGSbqKrzJrn8vHMAAAAAAAAAAAAAAAAAAAAAsJgUiWwf10hS8w4BAAAAAAAAAAAAAAAAAAAAwGJSJLJ9HD7vAAAAAAAAAAAAAAAAAAAAAAAsLkUi24ciEQAAAAAAAAAAAAAAAAAAAAD2S5HI9nHEvAMAAAAAAAAAAAAAAAAAAAAAsLgUiWwfhyfpeYcAAAAAAAAAAAAAAAAAAAAAYDHtnXeAlarqyCQPSfJTSSrJp5P8U3e/bZPHu2WSq0wq3xxdbd4BAAAAAAAAAAAAAAAAAAAAAFhcC1MkUlUHJvnHJPdf2jX+eu0kv1hV/5bkId19+gYP/cgk95tMSgAAAAAAAAAAAAAAAAAAAABYTAtTJJLkpUn+zyr7lwpF7ptkT5Jf3MSxa/2RbaHnHQAAAAAAAAAAAAAAAAAAAACAxbRn3gGSpKrumlGJSK+xVZL7VNXPbnKZtY69XTYAAAAAAAAAAAAAAAAAAAAAWNVCFIkkecSy27XKttyvbmGd1Y69nTYAAAAAAAAAAAAAAAAAAAAAWNWiFIncLEmvM9MZlWncbPpxAAAAAAAAAAAAAAAAAAAAAGB7WZQikQtMaRYAAAAAAAAAAAAAAAAAAAAAdoVFKRL53ynNAgAAAAAAAAAAAAAAAAAAAMCusChFIm9JUuvMVJJO8qYtrtXbeAMAAAAAAAAAAAAAAAAAAACAVS1Kkcgzk5w2vr2yMGP5/dOSPGuLa9U23gAAAAAAAAAAAAAAAAAAAABgVXvnHSBJuvuYqnpokpdkVG6yskykkpyT5OHd/bVNLlPj4z44yXs2eYx5qSQfT3KBeQcBAAAAAAAAAAAAAAAAAAAAYDEtRJFIknT3v1TV95L8bZIrrnj4G0l+rbv/cwJLvbW7j53AcWaqqj6f5KbzzgEAAAAAAAAAAAAAAAAAAADAYlqYIpEk6e63VNXVkhyZ5KfGuz+T5O3dfdYEljhuO5aIjCkSAQAAAAAAAAAAAAAAAAAAAGC/FqpIJEm6++wkbx9vEz10kqMmfMxZ+ty8AwAAAAAAAAAAAAAAAAAAAACwuPbMO8CMfXzeAbbg8/MOAAAAAAAAAAAAAAAAAAAAAMDi2m1FIkfNO8AWKBIBAAAAAAAAAAAAAAAAAAAAYL92W5HIx+cdYAu+nOTMeYcAAAAAAAAAAAAAAAAAAAAAYDHtnXeAGfhEkosmObO7vzTvMJvV3WdX1dFJjph3FgAAAAAAAAAAAAAAAAAAAAAWz555B5i27n5Wd9+lu39u3lkm4PPzDgAAAAAAAAAAAAAAAAAAAADAYto77wBsyBOSPGfeIQAAAAAAAAAAAAAAAAAAAABYPIpEtpHuPjrJ0fPOAQAAAAAAAAAAAAAAAAAAAMDi2TPvAAAAAAAAAAAAAAAAAAAAAADA1u2ddwDWVlWPTnKl8d2zkjyxu8+YYyQAAAAAAAAAAAAAAAAAAAAAFpAikcV34yT3X3b/u0meOacsAAAAAAAAAAAAAAAAAAAAACyoPfMOMG1V9aCqesey7e3zzrRBn05S49uV5DFVdcAc8wAAAAAAAAAAAAAAAAAAAACwgPbOO8AMXDHJkUk6oyKOnmeYTfjiivuXTPKzSd4whywAAAAAAAAAAAAAAAAAAAAALKg98w7Auo5eZd99Zp4CAAAAAAAAAAAAAAAAAAAAgIWmSGTxfWvZ7U5SSe44pywAAAAAAAAAAAAAAAAAAAAALChFIguuu7+X5OwVuy9WVVebRx4AAAAAAAAAAAAAAAAAAAAAFpMike3h1FX23XDmKQAAAAAAAAAAAAAAAAAAAABYWIpEtoezV9l3o5mnAAAAAAAAAAAAAAAAAAAAAGBhKRJZcFV1UJILrPLQdWedBQAAAAAAAAAAAAAAAAAAAIDFpUhk8d06SS273+P7l59PHAAAAAAAAAAAAAAAAAAAAAAWkSKRxff4/ey/+ExTAAAAAAAAAAAAAAAAAAAAALDQFIkssKp6UpLbJ+kkteLhQ2afCAAAAAAAAAAAAAAAAAAAAIBFtXfeAfhJVXWtJE9Nco+sXiKSJOfMMhMAAAAAAAAAAAAAAAAAAAAAi23bFYlU1ZM2+JTbTOAY01ZJzpfkEklulOQay/b3fp5z/AxyAQAAAAAAAAAAAAAAAAAAALBNbLsikSR/mP2Xa6ylln198sTSTF4tu90r7i9//DuziQMAAAAAAAAAAAAAAAAAAADAdrAdi0SWrCzYmNVzp215Scr+cnaS/5lBFgAAAAAAAAAAAAAAAAAAAAC2ie1cJNLrj/zYykKOjTx3HoYUnbxl6ikAAAAAAAAAAAAAAAAAAAAA2Db2zDvAJtwvyVEZlW2sLNyo/Wwr7W9uUbbV9LKvX0zy5v39AwEAAAAAAAAAAAAAAAAAAACw+2y7IpHu/tfuvmGSOyd5V85dvtHZV7ixEy2d5+O7+5y5JgEAAAAAAAAAAAAAAAAAAABgoWy7IpEl3f1f3X27JDdN8pqMCkR2YqHIynN5Sne/YV5hAAAAAAAAAAAAAAAAAAAAAFhM27ZIZEl3f7i7753k8CT/mOSMbM9Ckd7PlozO5/Qkv93dT51PPAAAAAAAAAAAAAAAAAAAAAAW2bYvElnS3Ud398OTXCnJM5OclH2FIj8xvoDbcrVsOzPJK5Jcr7v/YhP/NAAAAAAAAAAAAAAAAAAAAADsAnvnHWDSuvvYJE+oqqcn+fUkj01ykfHDteLrIukkP0rygyTfSfKxJB9K8u/dffw8gwEAAAAAAAAAAAAAAAAAAACw+HZckciS7v5hkj+pqrOS/FlGRR3jh/qA+SUDAAAAAAAAAAAAAAAAAAAAgMnbM+8AM/CaeQcAAAAAAAAAAAAAAAAAAAAAgGnb8UUi3f2VJJ+adw4AAAAAAAAAAAAAAAAAAAAAmKYdXyQy9rokNe8QAAAAAAAAAAAAAAAAAAAAADAtu6VI5LXzDgAAAAAAAAAAAAAAAAAAAAAA07QrikS6+6gkX5t3DgAAAAAAAAAAAAAAAAAAAACYll1RJDL27/MOAAAAAAAAAAAAAAAAAAAAAADTsmuKRLr7Md29p7sPmHcWAAAAAAAAAAAAAAAAAAAAAJi0XVMkAgAAAAAAAAAAAAAAAAAAAAA72d55B5imqvrlbKIspbtfMoU4AAAAAAAAAAAAAAAAAAAAADA1O7pIJMlfJLnIBp/TSRSJAAAAAAAAAAAAAAAAAAAAALCt7Jl3gCk7NkltcPv6XJICAAAAAAAAAAAAAAAAAAAAwBbs9CKRo8Zfe50tSU5I8tgk15htRAAAAAAAAAAAAAAAAAAAAADYup1eJPKeZbdr2bZ832lJ/iTJVbr72d195gzzAQAAAAAAAAAAAAAAAAAAAMBE7J13gCl7x4r7Pf5aSc5J8qIkT+ru/51lKAAAAAAAAAAAAAAAAAAAAACYtD3zDjBN3f2VJB/LqDikVzx8Znc/VIkIAAAAAAAAAAAAAAAAAAAAADvBji4SGXvFstu17PZBVXWeWYcBAAAAAAAAAAAAAAAAAAAAgGnYDUUi/5zk7PHtXvHYhWacBQAAAAAAAAAAAAAAAAAAAACmYscXiXT3/yZ5Y5Ja5eGLzTgOAAAAAAAAAAAAAAAAAAAAAEzFji8SGXvefvYfPtMUW1BVF6uqd4y3B847DwAAAAAAAAAAAAAAAAAAAACLZVcUiXT325IctcpD26ZIJMm1khyZ5DZJrjjXJAAAAAAAAAAAAAAAAAAAAAAsnF1RJDL2x0lqxb4j5hFkk7ZT6QkAAAAAAAAAAAAAAAAAAAAAM7abikReneSz49udUanIjecXZ8MUiQAAAAAAAAAAAAAAAAAAAACwX7umSKS7O8nvZVQgsuRKVXWZOUXaKEUiAAAAAAAAAAAAAAAAAAAAAOzXrikSSZLufn2S/16x+zbzyLIJikQAAAAAAAAAAAAAAAAAAAAA2K9dVSQy9ugk5yTp8f3bzjHLIFV13iSXy77MAAAAAAAAAAAAAAAAAAAAAHAuu65IpLuPSvLXSWq83b2qaq6h1neNjLICAAAAAAAAAAAAAAAAAAAAwKp2XZHI2O8n+fz49sWS3HGOWYY4fN4BAAAAAAAAAAAAAAAAAAAAAFhse+cdYNqqqpJcJKPCkIsu+3pU9hV0/HlV3XcuAYe51vhrJel5BgEAAAAAAAAAAAAAAAAAAABgMe34IpEkL0zywHVmjhhvi6wzKhIBAAAAAAAAAAAAAAAAAAAAgJ+wG4pEkrULOLZLOUfPOwAAAAAAAAAAAAAAAAAAAAAAi2u3FIkkqxdx1BqPAQAAAAAAAAAAAAAAAAAAAMC2sZuKRJJ9xSFD9y8SZScAAAAAAAAAAAAAAAAAAAAA7NeeeQcAAAAAAAAAAAAAAAAAAAAAALZOkQgAAAAAAAAAAAAAAAAAAAAA7AB75x1gDnreAQAAAAAAAAAAAAAAAAAAAABg0vbMOwAAAAAAAAAAAAAAAAAAAAAAsHV75x1gxjrJd5KcPu8gG3RYkgvOOwQAAAAAAAAAAAAAAAAAAAAAi2s3FYlURkUiN+rub807zEZU1f2SvCyj/AAAAAAAAAAAAAAAAAAAAADwE/bMO8CMHbvdSkTGPjjvAAAAAAAAAAAAAAAAAAAAAAAstt1UJNJJPjrvEJvR3V9O8r155wAAAAAAAAAAAAAAAAAAAABgce2mIpEk+ci8A2zBh5PUvEMAAAAAAAAAAAAAAAAAAAAAsJh2W5HIh+cdYAs+NO8AAAAAAAAAAAAAAAAAAAAAACwuRSLbhyIRAAAAAAAAAAAAAAAAAAAAAPZr77wDzMD7xl9P6u7j55pkaz6Q5MXj20fNMQcAAAAAAAAAAAAAAAAAAAAAC2jHF4l09z8m+cd559iq7j4hyUPmnQMAAAAAAAAAAAAAAAAAAACAxbRn3gEAAAAAAAAAAAAAAAAAAAAAgK1TJAIAAAAAAAAAAAAAAAAAAAAAO4AiEQAAAAAAAAAAAAAAAAAAAADYARSJAAAAAAAAAAAAAAAAAAAAAMAOoEgEAAAAAAAAAAAAAAAAAAAAAHaAvfMOsN1U1WWSXCrJJZNcPMkhSQ4eb+ckOT3JaUlOSvKdJMcm+UZ3nziPvAAAAAAAAAAAAAAAAAAAAADsDopE1lBVV0xyZJJbJbl2kiOSHLrJYx2X5LNJPp7k3Uneq1wEAAAAAAAAAAAAAAAAAAAAgElRJLJCVV09yf2T/GKSqy5/aIuHvkSSi2dUTPJ/k3RVvS/JvyZ5ZXefsMXjAwAAAAAAAAAAAAAAAAAAALCL7Zl3gEVRVbepqjcl+VySJya5WkblIUtbkvQWt+XH25PkVkmel+QbVfX8cYkJAAAAAAAAAAAAAAAAAAAAAGzYri8SqaorV9V/JnlHkjtmX9HHakUgybnLQDayZZXjLT12niQPT/KZqnpeVV1oemcMAAAAAAOqkuoAAQAASURBVAAAAAAAAAAAAAAAwE60q4tEqurRST6d5E75yQKRZP+FIJtabpXjrCwVOSDJI5N8saruvoW1AAAAAAAAAAAAAAAAAAAAANhldmWRSFUdVFUvT/LsJOfJuQtEJlEaMihGVi8VqSQXSfK6qnrWlDMAAAAAAAAAAAAAAAAAAAAAsEPsuiKRqjo4yeuT3DerF4jMJVZWLxT5v1X10qradd8nAAAAAAAAAAAAAAAAAAAAADZm77wDzFJVVZJXJbnjeFcvPbTBQ/X6I+deeoNzy8tE7pfknCQP2uCaAAAAAAAAAAAAAAAAAAAAAOwie+YdYMb+MMldc+6ijv2VfPQa23K1n23IsfZn6RhLGX+5qv7veicHAAAAAAAAAAAAAAAAAAAAwO61d94BZqWqbpnkidlX4LFagchqJSGr+VGSH4y3k5OcleTMjIpZDhxv509ygSQXSnLQftYast5SmcifVtXbuvtT+8kEAAAAAAAAAAAAAAAAAAAAwC62K4pEqmpPkudlVMixVMyx3PJCj6XHzkzyqSQfTvLpJF9M8pUk3+7uUza4/oWTXCrJVZNcLcn1ktwoydVXZFhZclLL9u1N8vwkt9zI2gAAAAAAAAAAAAAAAAAAAADsDruiSCTJA5NcN2uXiFSS05O8Nsmrkry1u0+axOLd/b0k30vymeX7q+rSSe6c5H5Jbpt9xSHLcy4vP7lZVd2zu18ziVwAAAAAAAAAAAAAAAAAAAAA7Bx75h1gRh63yr7lhR0/SvL0JJfp7vt192smVSKylu7+Vne/sLtvn+SqSV6Y5Kxl+VaqJL8z7VwAAAAAAAAAAAAAAAAAAAAAbD87vkikqm6X5FrZVxqS7CvpqCT/keSI7v6D7v7eHCKOAnV/tbsfluSGST46zrY859Ltm1TVjecQEQAAAAAAAAAAAAAAAAAAAIAFtuOLRJLcZ8X9pUKRSvK07r57d39r9rFW192fTnLLJC/JuQtEllt5TgAAAAAAAAAAAAAAAAAAAADscruhSOTns6+MY6lEpJP8cXc/aW6p1tDdZ3b3g/OTZSJL+e85p2gAAAAAAAAAAAAAAAAAAAAALKgdXSRSVddIcsnluzIq43hrdz9xPqk25KFJPrrK/itV1eVmHQYAAAAAAAAAAAAAAAAAAACAxbWji0SS3HSVfWck+dVZB9mM7j47ya9kVH6y0k1mHAcAAAAAAAAAAAAAAAAAAACABbbTi0RusOx2ZVTI8S/d/bU55dmw7v5UktdklH+5G84hDgAAAAAAAAAAAAAAAAAAAAALaqcXiVxxlX0vnHWICfi7VfZdeeYpAAAAAAAAAAAAAAAAAAAAAFhYO71I5PIr7v8gyf/MI8gWvSvJj1bsW3luAAAAAAAAAAAAAAAAAAAAAOxiO71I5BJJOkmNv36qu8+Zb6SN6+6zknwy+86jklx6rqEAAAAAAAAAAAAAAAAAAAAAWCg7vUjkkBX3vziXFJPxhRX3D51LCgAAAAAAAAAAAAAAAAAAAAAW0m4rEjlxHiEm5Hsr7q88NwAAAAAAAAAAAAAAAAAAAAB2sZ1eJFIr7p8ylxSTceqK+wfPJQUAAAAAAAAAAAAAAAAAAAAAC2mnF4msLN8471xSTMbK7KfPJQUAAAAAAAAAAAAAAAAAAAAAC2mnF4mcsuL+YXNJMRkXXHF/5bkBAAAAAAAAAAAAAAAAAAAAsIvt9CKR742/9vjr1eYVZAKuvuL+SXNJAQAAAAAAAAAAAAAAAAAAAMBC2ulFIl9PUuPbleQ6c8yyaVV1QJLrZlSIUuOv35hrKAAAAAAAAAAAAAAAAAAAAAAWym4oElnuwlV1s7kk2ZpbJTlsxb5j5pADAAAAAAAAAAAAAAAAAAAAgAW104tEPrXKvgfPOsQEPHyVfZ+feQoAAAAAAAAAAAAAAAAAAAAAFtZOLxL50LLbnaSSPKiqrjCnPBtWVddJct+M8i/3wTnEAQAAAAAAAAAAAAAAAAAAAGBB7fQikaOSnLpi38FJXlhVNfs4G1NVByd5SX7y+3R2FIkAAAAAAAAAAAAAAAAAAAAAsMyOLhLp7jOS/FeSpdKQHn89MsnfziPTUFV1QJJXJPmp7Mtd49vv7u6T55UNAAAAAAAAAAAAAAAAAAAAgMWzo4tExl6z7PZSEUcleXhVvbyqzjOfWPtXVRdJ8tYkd8u+EpHlXjHbRAAAAAAAAAAAAAAAAAAAAAAsut1SJHLi+PZSicjS1/sm+XRV3WU+0c6tRn4lyWeT3CajjCv9KMm/zTQYAAAAAAAAAAAAAAAAAAAAAAtvxxeJdPfJSV6Qc5dyLC8TuXKSN1bVh6rql6vq0FlnrKpLVtVjkhyd5O+TXGxFxuWZ/767fzjrjAAAAAAAAAAAAAAAAAAAAAAstr3zDjAjf5HkkUkukH3lHEvFHBnfvlGSFyd5QVW9O8k7knw4yae6+3uTDFNVl0tynSQ3T3K7JDfJqNRlqTRkea5e9tQfJXnWJLMAAAAAAAAAAAAAAAAAAAAAsDPsiiKR7v5uVT0pyV/l3MUcS0Udy8tFzpvkTuNtNFT1/SRfS/LNJN9NcnySkzIq9jg1yVlJzh4/f+94O3S8HZbkYkkunuRySa4wXmO5lQUiy/ctz/kH3X3sRs8fAAAAAAAAAAAAAAAAAAAAgJ1vVxSJjD0vyX2S/HT2FYck65d4JMmFx9v1tphh5XGX7G/tpZyd5D1J/nqL6wMAAAAAAAAAAAAAAAAAAACwQ+2Zd4BZ6e5zktw7ybeWdq0YqZy7VGTltnxms9uQY2fZ3JJvJLlPd6/MDAAAAAAAAAAAAAAAAAAAAABJdlGRSJJ093FJfjbJ8Uu7VhnbSAHIZra11vhx1GVzxya5c3cfHwAAAAAAAAAAAAAAAAAAAADYj11VJJIk3f3JJLdN8u2MijqWF3zsz2rFH1vZ1oy4bM1jkty6uz8/9PwAAAAAAAAAAAAAAAAAAAAA2J12XZFIknT3Z5NcP8k7sq/YY0ihyDQtX7+SvDHJDbv76PlFAgAAAAAAAAAAAAAAAAAAAGC72JVFIknS3d9Ncockj01yUuZXKLKyQOSEJI/o7p/r7u/PMAcAAAAAAAAAAAAAAAAAAAAA29iuLRJJkh55dpJrJPnbJKflJwtFJl0ssvK4Nd5OSvLMJFfv7n+Y4HoAAAAAAAAAAAAAAAAAAAAA7AK7ukhkSXd/p7sfleQKSZ6c5EvZV/Cxv2KRzW5ZceyPJ3lckst19xO6+8QpnioAAAAAAAAAAAAAAAAAAAAAO9TeeQdYJN19fJI/SvJHVXW9JHdLcmSSmyc571pPXXG/Vp0a+UGS9yZ5Z5I3dveXNpsXAAAAAAAAAAAAAAAAAAAAAJYoEtmP7j4qyVFJnlZVe5NcLck1kxye5DJJLpnk4kkOSXLweDsnyenj7aQk30lybJJvJvncePtqd68sHgEAAAAAAAAAAAAAAAAAAACALVEkMkB3n5V9RSAAAAAAAAAAAAAAAAAAAAAAsHD2zDsAAAAAAAAAAAAAAAAAAAAAALB1ikQAAAAAAAAAAAAAAAAAAAAAYAdQJAIAAAAAAAAAAAAAAAAAAAAAO4AiEQAAAAAAAAAAAAAAAAAAAADYARSJAAAAAAAAAAAAAAAAAAAAAMAOoEgEAAAAAAAAAAAAAAAAAAAAAHYARSIAAAAAAAAAAAAAAAAAAAAAsAPsnXeA7ayq9iY5b5KDx9vZSU5Lcnp3nzrPbAAAAAAAAAAAAAAAAAAAAADsLopE1lFVF0xy8yTXSnJ4kqsluWSSSyQ5/xrPOzPJcUm+k+SYJJ8bbx/p7i9NNTQAAAAAAAAAAAAAAAAAAAAAu44ikVVU1U8nuVeS2yc5IkmtHBlwmIOSXHa83WDF8Y9L8t4kr0/y+u7+4VYzAwAAAAAAAAAAAAAAAAAAALC7KRIZq6pLJnlkkocnueTS7v2M90YOvcpxLpFRUcm9kpxRVW9M8pzufu8GjgsAAAAAAAAAAAAAAAAAAAAAP7Zn3gHmraouWlXPS3JMkj9Icqmcu/yjV9l+/PQ1tqzx/F42d3CSeyZ5V1V9pKp+ZuInCQAAAAAAAAAAAAAAAAAAAMCOt6uLRKrq15IcneSRSQ7KqNhjtdKQ9cpCVj38Os9brVTkBkn+q6reWFWX3foZAgAAAAAAAAAAAAAAAAAAALBb7Moikao6rKremOS5SS6QcxeIJBsrDNlUhKxeKrL02F2SfKKq7jOFtQEAAAAAAAAAAAAAAAAAAADYgXZdkUhVXSbJ+zIq69hfgchMIy3blrJUkgsl+deqetKM8wAAAAAAAAAAAAAAAAAAAACwDe2qIpGqukSS9yS5VvYVdyTzKRBZzWqFIk+uqufMNRUAAAAAAAAAAAAAAAAAAAAAC2/XFIlU1XmT/EeSK+XcRR1DCkR6wtu6cZetW0keVVW/O+B5AAAAAAAAAAAAAAAAAAAAAOxSu6ZIJMmfJLlB9hV5rFUgslrxR01o29/xV1qaXyoTeXpV3XnoyQIAAAAAAAAAAAAAAAAAAACwu+ydd4BZqKpbJvmNrF8isrzUY/nMj5J8PMnnk3w1yTeSfC/JCUlOSXJGkjMzKmY5cLxdIMkFk1w4yWWTXCbJ1ZMcMb69fM39rbt8ppL8Y1Vdu7u/v9+TBQAAAAAAAAAAAAAAAAAAAGBX2hVFIkmekVERx1Ihx2qWl4x0kncneUOSt3T3ZyYZpqounOQWSW6d5K4ZlYssZVhZdlLL9l0yydOSPGqSeQAAAAAAAAAAAAAAAAAAAADY/vbMO8C0VdWRSX46+y8R6WWPnZzkmUmu2N237e6/mHSJSJJ09/e6+43d/fjuvlaSw5P8WZLjl2XslU8bP/awqrrSpDMBAAAAAAAAAAAAAAAAAAAAsL3t+CKRJA9d47Glso5K8pIkV+7uJ3T3N6Yfa1mI7i929+8muWKS307yw3Gm5fmW7B3PAAAAAAAAAAAAAAAAAAAAAMCP7egikao6T5J7Zl8hx5Ieb5XktCT36+4Hd/fxM4547lDdp3b3XyQ5Islbcu4ykWRf5l+qqoPnEBEAAAAAAAAAAAAAAAAAAACABbWji0SS3CLJece3a/y1l90/NcnduvtfZx1sLd19bJKfTfK87CsTqWUjhyW5+xyiAQAAAAAAAAAAAAAAAAAAALCgdnqRyJH72b9UzvGo7n7n7OIM1yOPTvKy7Mu73B1nnwoAAAAAAAAAAAAAAAAAAACARbXTi0SuueJ+Z18px5u7+0UzT7Rxj0zy5WX3l87hNvOJAwAAAAAAAAAAAAAAAAAAAMAi2ulFIldb47EnzizFFnT3KUl+N6PykOWuWlXnn0MkAAAAAAAAAAAAAAAAAAAAABbQTi8SuUSSHt/u7CvjOKq7Pz6fSJvymiRfWWX/VWYdBAAAAAAAAAAAAAAAAAAAAIDFtNOLRM63yr5O8sZZB9mK7u6MykRqxUOKRAAAAAAAAAAAAAAAAAAAAABIsvOLRA7ez/73zTTFZLxnlX0XmXkKAAAAAAAAAAAAAAAAAAAAABbSTi8SOW0/+7840xST8ZlV9h068xQAAAAAAAAAAAAAAAAAAAAALKSdXiRy0n72Hz/TFJPx3VX2HTLzFAAAAAAAAAAAAAAAAAAAAAAspJ1eJPLNJLXK/lNmHWQCTl5l3zkzTwEAAAAAAAAAAAAAAAAAAADAQtrpRSLH7Gf/eWYZYkIOWGXf6TNPAQAAAAAAAAAAAAAAAAAAAMBC2ulFIp/az/7zzTTFZBy4yr7TJr1IVf1xVb2jqt4+6WMDAAAAAAAAAAAAAAAAAAAAMD175x1gyj62n/2HJfnuLINMwHlW2feDKazzc0mumaSncGwAAAAAAAAAAAAAAAAAAAAApmTPvANM2XuTnLXK/ivOOMckHLbKvuMnuUBVVZKrTPKYAAAAAAAAAAAAAAAAAAAAAP+fnTsNk/Ysy8R/Xm/eLCQEEgJhTQKEsBoWh01AVgUEBRzABRBFhBEURfyLM6IyIIgMjiKgAyoCgg4KsrowIIMsgQBhh6CsSUgIgRACgezJ9f/Q1fPW2+mluruW7qrf7zjuo+q563qe+6x+u/MtJ9Mx10Ui3f2dJB9IUis+uvH002zbkavsfXPMZxyT5OAxPxMAAAAAAAAAAAAAAAAAAACAKZjrIpGBv19l7/ipp9i+o1bZO2vMZ5ww5ucBAAAAAAAAAAAAAAAAAAAAMCWLUCTy2iSXrNi74yyCbNONVlxf2t1nj/kMRSIAAAAAAAAAAAAAAAAAAAAAu9TcF4l09zeTvDpJJenB6/fPNNTWHLPi+owJnHGzCTwTAAAAAAAAAAAAAAAAAAAAgCmY+yKRgecluWTo+oiqOnFWYbboJkPvO8m/T+CMEybwTAAAAAAAAAAAAAAAAAAAAACmYCGKRLr7y0n+KEkNbT9iRnG26taD1+Xv8IkJnHFClkpKAAAAAAAAAAAAAAAAAAAAANhl9s46wBQ9M8kPJbnT4PpRVfXFGebZrFtlqeRjuUjkjKr6viTXSnJ4kgPGcMZNx/AMAAAAAAAAAAAAAAAAAAAAAGZg7otEqurFSZ68cjtLpRmvmH6ibamh15dN6Pk9gedORFVdO8n9k9wuya2T3CzJNZNcI8khSb6b5DtJvpHkM4P1viQf6O4rZ5F5t6uqayS5ZZLjkxyRpRKbg5JckuTiwbowydeTfC3JOUnO9fMGAAAAAAAAAAAAAAAAAACAyZv7IpGBGnFvN5lE/h1fIlJVhyZ5XJJHJblrkj3rjF9zsI5J8v1D++dW1ZuTvLi7PzGprPOgqg5P8iNJfjjJDyW58RYec0VVnZHk80Pr00k+2t3fGlNUAAAAAAAAAAAAAAAAAAAAWHiLUiSS7CvJqBXXu8lwechuzL9lVXW1JL+Z5ClJrrXNx107yeOTPL6q3pHkv3b3R7f5zLlSVfdI8oQkj0hy6DYfd0CSmwzW/Vec86Ukf93dz9rmGQAAAAAAAAAAAAAAAAAAALDwFqlIJNm/iKPWnNodJpV/xxWUVNUPJXlpkuMn8PgfTnLfqvqjJM/s7osmcMauUVV3TfLcJPed0pE3TfIDUzoLAAAAAAAAAAAAAAAAAAAA5tqiFYmwy1TVbyd5djYuTrkwyQeTfDHJN5MckOSoJCcmuX3W/10/IMlvJLlPVT2ku8/eZuxdp6qumeRFSR476ywAAAAAAAAAAAAAAAAAAADA1igSYUeqqgOS/FU2LrY4JckLkryxuy9b41mHJ/nZJE9LcpN1nnXHJB+qqgd292c2n3p3qqp7JXl1kmM2GO0kJyV5c5KPJPmPJOcnuSJLpS3XSnJClopbbpfknkmOnERmAAAAAAAAAAAAAAAAAAAA4KoUibBT/a+sXyJyeZLfTvKC7r5yvQd19wVJXlJVL0/yB0l+ZZ3xGyX5P1V1t+4+Y5OZd52q+pkkL09y4DpjVyT56yTP6e4vrTHz1cH6dJI3Dp59QJK7JnlwkkcnOXZMsQEAAAAAAAAAAAAAAAAAAIBV7Jl1gBloa901c1X1u0mesM7I5Ul+urufv1GJyLDuvqi7fzXJL2f973rDJG+vqiNGffZuVFW/maWCkPVKRD6f5O7d/fPrlIisqruv6O6Tuvu3ktwkS2UiV2w5MAAAAAAAAAAAAAAAAAAAALCuRSwSKWvdNVNVda8kz9xg7Ne6+/VbPaO7/zTJb28wdoskL93qGTtdVf1Skj/YYOzfktyxuz+43fO6+8ru/tskH9nuswAAAAAAAAAAAAAAAAAAAIDV7Z11gCmqJJ3kod39j7MOsxNV1deSXGeG518jyauyfsHNP3b3S8Zw3POS3D3Jg9aZ+cmq+pfuftUYztsxquoRSV60wdj/TfLg7r54zMe/K8mdx/xMAAAAAAAAAAAAAAAAAAAAIOsXNsyr9886wA72kSwVrszKs5Mct87nlyV56jgO6u5O8ktJNirK+OOqutY4ztwJqupW2bis5XNJHj6BEpFkqUgEAAAAAAAAAAAAAAAAAAAAmIBFKhLpJP/R3efNOsgOdsqsDq6qmyR50gZjL+/uL47rzO4+LcmfbDB2ZJLfGdeZs1RVhyR5bZJD1xm7LMlPdvf5E4rxviSXT+jZAAAAAAAAAAAAAAAAAAAAsNAWqUgkWSoxYG0fmeHZz0ly0AYzL5nAuS/KUnnGep48KDrZ7Z6X5LYbzPx+d398UgG6+3tJPjyp5wMAAAAAAAAAAAAAAAAAAMAiW7QikZNmHWCHO2UWh1bVsUl+coOxD3T3Z8Z9dnd/Nck/bDB2UJKnjvvsaaqq2yR5ygZjZyV5/hTivGsKZwAAAAAAAAAAAAAAAAAAAMDCWbQikffNOsBONijVOGcGRz85yQEbzLxhguf/7Qgzj6uqa0www6T9cTb+GT+7uy+aQhZFIgAAAAAAAAAAAAAAAAAAADABe2cdYAp+N8kfJkl3nz7jLLvBa5LccVqHVdXBSR4/wuhbJhjj7Um+k2S9opDDk/xskhdPMMdEVNUDk/zwBmNfT/LKyadJkpyU5HeGrr84pXMBAAAAAAAAAAAAAAAAAABgrs19kUh3fyvJt2adY7fo7t+Y8pEPSHLtDWbO6u7PTSpAd19SVe9M8uMbjD4qu7BIJMl/HWHmL7r70oknSdLdFyV5zjTOAgAAAAAAAAAAAAAAAAAAgEWyZ9YBWHiPGGHmpImnSN41wsxdqurYiScZo6q6U5J7jTD68klnAQAAAAAAAAAAAAAAAAAAACZLkQgzU1UHJvmxEUZPnnSWJO8eYaYyWvHJTvLrI8x8uLu/PPEkAAAAAAAAAAAAAAAAAAAAwEQpEmGWfiDJESPMfWrCOZLk1CQXjzD3gEkHGZeqOiLJw0YYff1kkwAAAAAAAAAAAAAAAAAAAADToEiEWbrXiHOfmWiKJN19+Yjn3L2qDpx0njF5ZJKDR5h726SDAAAAAAAAAAAAAAAAAAAAAJOnSIRZGqVI5NvdffbEkyz55AgzhyW506SDjMljRpj5RpJPTToIAAAAAAAAAAAAAAAAAAAAMHl7Zx1gN6iqA5LcPMltktwiyfWTXC/J0UkOTXLwYF2Z5JIkFye5IMk5Sb6W5CtJPpvk1O7+yrTz70SDn+kPjDB6xqSzDPnSiHP3SPL+SQbZrqq6bpIfHGH03d3dk84DAAAAAAAAAAAAAAAAAAAATJ4ikTVU1d2S3D/JvZPcJclBa42usb9qOUNVnZfkPUneneQt3X3atoLuXidkqYRlIzuxSOR2E00xHvfL2r+bw06ZdBAAAAAAAAAAAAAAAAAAAABgOhSJDKmqGyV5cpKfTnLs8Ecj3L5cHFIrXlc6KsnDBuuPq+rDSf46ySu7+8JNRt7NThxx7syJptjfl0ecu+1EU4zHD40497GJpgAAAAAAAAAAAAAAAAAAAACmZs+sA+wEVXXjqnpFki8k+c0kx2WpCGR59Qhr2Sizw8++c5IXJzmjqp5dVYdP8rvuIKOWcXxjoin2d/aIc7esqoMmmmT77jfinCIRAAAAAAAAAAAAAAAAAAAAmBMLXSRSVXur6hlJPp3ksUkOyurFIcn+5R/bWVnj2ddK8owkn6uqx07kC+8stxpx7tyJptjf10ac25vk+EkG2Y6qulGSY0cY/U53T7OoBQAAAAAAAAAAAAAAAAAAAJighS0SqaobJnlvkmcnOTT7F4gkqxeAjOXoFWu4VKSSXDfJK6rq9VV1zTGeu9McN+Lc1IpEuvviJN8ecXzU/LNw4ohzp080BQAAAAAAAAAAAAAAAAAAADBVC1kkUlXfn+SjSe6ctQtEphZn6LzhQpEfT3JKVd14ilmm6dgR586fZIhVfHPEuVHzz8L3jTh32iRDAAAAAAAAAAAAAAAAAAAAANO1cEUigxKRdyS5TvaViCTTLxBZaWWhSCU5Psl7qurmM0s1AVV1SJZ+/qO4YJJZVnH+iHPHTTLENt1mxLmzJ5oCAAAAAAAAAAAAAAAAAAAAmKqFKhKpqhsk+eckR2aprGO5sGOUApEe09owZvYVnHSSGyX556o6cpTvuEtcP6OXtuzUIpEbTjLENt1yxLnzJpoCAAAAAAAAAAAAAAAAAAAAmKqFKRKpqr1JXp/k6Owr9FirzGKtApDa5lrv2VeJPPT+Jkn+bqQvujtcaxOz351YitWdP+LcTi52GbXkRJEIAAAAAAAAAAAAAAAAAAAAzJG9sw4wRb+a5K5Zu0RkZaHHys/PTvKlwevXknx7sL6X5PIkl2WpmOXAwTo8yTWyVJpx/cG6WZJrrnLuWplq8FkluV9VPaG7/2KD77kbbKaE4+KJpVjdRSPO7cgikaqqJNcdcXykIpGqOjzJnZN8X5JbJ7lpln6fj05yaJJDklyR5MIk30rylSz9rXw0yclJTunutQpzAAAAAAAAAAAAAAAAAAAAgDFZiCKRqrp+kmdm4xKR5f3zk7w9yfuSfDjJp7v7e2PKcu0kt09yxyT3SXLPJAevkWM4XyV5XlX9Q3ePVACxgykSmZyjslRkM4pVf7aDMpK7JHlokgcmOTHJARs864AkByU5IslNsvR7/XODz75eVW9K8rLu/uiI2QAAAAAAAAAAAAAAAAAAAIBNWogikSS/nuTq2VfIsWy4uOOKJG9M8pdJ/rW7r5xEkO4+N8m/DtYfVNWhSR6e5PFZKl9YmauGro9M8pQkz5pEtik6YhOzl0wqxBpGLRI5YpIhtuH6m5i9bPnNoDzk/ln6XfyxJNcbY6ajkzwxyROr6t+SPL27PzzG5wMAAAAAAAAAAAAAAAAAAABJ9sw6wKRV1TWSPCH7yjiWDZd1vCHJbbr7J7r77ZMqEVlNd1/Y3a/u7ntnqUjkA9lXdjKcebkE5clVdfC08k3IIZuYvXRiKVY3anHJZr7DNB25idnLquqIqnpaks8neVuW/lbGWSKy0r2TfLCq/ngOfo8BAAAAAAAAAAAAAAAAAABgR9k76wBT8BNJDs++Io7hApHvJvn57n79jLLtp7vfV1X3SPLUJM9PckCumvvaSR6a5O9nkXFMDtzE7BUTS7G98zbzHaZpMwUnv57kNUkOnVCWtVSWfsfvVlUP7u5zJ3pY1dFJrjPJM+bA8bMOAAAAAAAAAAAAAAAAAAAAwPYtQpHIjw+9Hy4R+UaSB3T3x6eeaB3d3Un+uKo+neRNWSqG6BVjD8/iFIlcObEUqxu1SOSgiabYuoM3MXv3dT67JMknknwuyReSfHGwzstSAc/yOijJUUlOGDzv4UluP+L5d07y3qr6wQmXiTw5yTMn+HwAAAAAAAAAAAAAAAAAAADYEea6SKSqrpbkftm/iKOSXJzkYTutRGRYd7+jqn46yRuylDlZ+h6V5Eeq6oDuHrX0YqeZhyKRzXyHadpMkciwc5L8a5KTk3wwySe6+9IR7rsoyZmD9a4kz6mqeyZ5YZI7jHD/LZO8uaru292XbCU4AAAAAAAAAAAAAAAAAAAAsGTPrANM2H9KctDQdWWpjOM53f2B2UQaXXe/JcmLs69IZNlhSW47/URjM/LvXXf3xlNjNep5O/Vv55BNzJ6S5JlJ7pTk+t39mO5+SXd/eMQSkVV193uS3DXJX454y92SPGer5wEAAAAAAAAAAAAAAAAAAABL9s46wITdeZW9M5M8f9pBtuEZSR6d5KgV+3dO8rHpxxmLy0cdrKo93X3lJMOscMCIc5dNNMXWrSydWc9PdPeXJxFiUETyhKo6JMljRrjlaVX1uu7+0ATi/FmS103gufPk+CRvnnUIAAAAAAAAAAAAAAAAAAAAtmfei0RuM/S+knSSF3f3FTPKs2ndfWFV/WmSZ2Yp/7ITZxRpHC7dxOwBSRSJjG4zuabx9//EJD+QpaKK9exJ8rwk9xt3gO7+epKvj/u586RqM/0zAAAAAAAAAAAAAAAAAAAA7FR7Zh1gwo5dZe/1U0+xfa9dZe+4qacYn82UXUz7d3S3F4lstqRlorr7oiRPH3H8vlV1t0nmAQAAAAAAAAAAAAAAAAAAgHm2CEUiPXR9WnefNqMsW9bd/5HkK8uXSSqrl6TsFpsp4dg7sRSrO3DEuc0UdkzTZnJN62f7xiSfH3H2iZMMAgAAAAAAAAAAAAAAAAAAAPNs3otEjhi8VpYKOD4zuyjb9qksfY9l155VkDH43iZmD55YitVdbcS57040xdZdsonZqfxsu7uTvGbE8UdW1aj/BgAAAAAAAAAAAAAAAAAAAMCQeS8SOXTF9ekzSTEep624XvnddpNvbWL2kImlWN2oJRbnTzLENnx7E7OHTSzFVb1pxLlDk9x7cjEAAAAAAAAAAAAAAAAAAABgfs17kcjKUogLZpJiPFZmH7XwYifaTJHIwRNLsbpRf66b+Q7T9M1NzE6zSORTGT3b/ScZBAAAAAAAAAAAAAAAAAAAAObVvBeJXLbi+vKZpBiPldl387/dZko4pll2kSRXH3Hu/EmG2IZzNzE76nfdtu7uJB8dcfyOk8wCAAAAAAAAAAAAAAAAAAAA82o3l1GM4sIV14fPJMV4rCx9uGgmKcZjM2UX0/43O3LEuc18h6np7m9n9MKcUb/ruHx6xLnbVVVNNAkAAAAAAAAAAAAAAAAAAADMoUUrEjl6JinG43orrndzkcjXk1w24uy0i0SOGHHuK5MMsU1fG3HuqImmuKrTRpw7PMm1J5gDAAAAAAAAAAAAAAAAAAAA5tK8F4mcnaSS9OD1VrONsy23ztL3WHburIJsV3dfmeSsEccViWzel0acm3ZZx2Z+ZjecWAoAAAAAAAAAAAAAAAAAAACYU/NeJHLGiuvbVNW0iym2raqulaUikWRfMcrps0s0Fiv/bdZy1ERTDKmqPRm9XGPU/LPwxRHnjp5oiqs6bxOz15tYCgAAAAAAAAAAAAAAAAAAAJhT814k8uUV13uT/MgsgmzTQ5IcsGLvtBnkGKfTRpwbtdhjHI7K0u/IKE6bYI7tGrVI5JiJpriq8zcxe+ikQgAAAAAAAAAAAAAAAAAAAMC8mvcikY+ssvfUaYcYg6cl6RV7H59BjnH6zIhz0ywSue6IcxckOWOSQbbp30ecm3aRyCWbmD1kYikAAAAAAAAAAAAAAAAAAABgTs17kcgHh953kkpyl6p6+IzybFpV/Zck37fKRydPO8uYfWrEuetNNMX+jh1x7tTuXlnsspOcMuLcjapqmv8NuHQTs/P+3yYAAAAAAAAAAAAAAAAAAAAYu7n+n/W7+8tJvjK8laUykf9VVcfNJtXoqur2Sf4wS7mHnZfk01MPNF6jFokcM9EU+7vJiHM7+mff3acn+cYIowdl9O88DrWJ2YsmlgIAAAAAAAAAAAAAAAAAAADm1FwXiQy8MfsXGHSSayd5e1XdaDaRNlZVt03ytiSHDW9nKf+buntluciu0t1nZrSyi2MnnWXITUec+/gkQ4zJKSPO3XqiKfa3dxOzikQAAAAAAAAAAAAAAAAAAABgkxahSOR1Q++XC0U6yQlJTqmqH55+pPVV1c8mOSnJ0VnKWitGXjv1UJPxvhFmblhVB008yZKbjzj33ommGI/3jDh3m4mm2N/Bm5j91sRSAAAAAAAAAAAAAAAAAAAAwJya+yKR7j4pyceXL7N/mcjRSd5WVX9XVdMsVFhVVd2nqt6d5K+SHJaljMn+uT/b3e+cRb4JGKXs4oAkt5h0kIHbjzBzfpJPTTbGWPzLiHN3nmiK/V1jE7NnTSwFAAAAAAAAAAAAAAAAAAAAzKm5LxIZ+MPsK+JI9i8TqSSPSPLJqnpnVT2+qo6eVrCqOqGqnl5VH0/yr0nuMci0XCIynLuTvGBa2abg3SPOTbzkpaquleRGI4ye1N1XTjrPdnX3J5J8dYTRH5h0liHXHHHuyiRnTzIIAAAAAAAAAAAAAAAAAAAAzKO9sw4wJf87ydOS3CH7ykOWyzqWr5Pk3oOVqvpskg8n+VSSzyU5PcmZ3f2tzR5eVQckuU6SY5Icl+RWSU7MUonDDZbHhm4ZLhHpoddPJHn1Zs/fwT6epbKLG2wwd4ckr51wljuPOPdPE00xXv+U5AkbzFyvqo7v7i9OIc/1R5z7QndfNtEkAAAAAAAAAAAAAAAAAAAAMIcWokiku7uqnpTkA9m/nGO5vGO4uGPZrbNU+LGfqroiyXlJLkjy3SQXJbk8yRWD+/cO1mGDdc0kR6wRrVZcr8zRQ59dmeS/dPeVazxr1xn8u7wxyS9tMHrXKcS5zwgzneRNE84xTq/JxkUiSfIjSV4y4SzJxoUxyz4+yRAAAAAAAAAAAAAAAAAAAAAwrxaiSCRJuvvDVfXMJL+X/Qs6ktWLO4aLRobtTXL0YK28Z+XzNow1wn3LxSe/090fHvG5u8k/ZOMikTtW1YHdfdkEc9x7hJkPdPfZE8wwbu9N8qUkN91g7sGZTpHICSPOzePvOQAAAAAAAAAAAAAAAAAAAEzcnlkHmKbufm6SN2RfOcdKNbR6hLXynpXlI5u9PyvuXfba7v6DTX3Z3eM9Sb6ywcyhSe45qQBVdf0kdxph9NWTyjAJ3d1JXjHC6H2q6lqTzpPkliPOvX2iKQAAAAAAAAAAAAAAAAAAAGBOLVSRyMBPJ3lL9i8LWc1qBSGrlX1sVBSy3rNWPm/4ucv3/V2Snxnpm+1C3X1FkpeOMPrgCcb4z1n732LZt5O8ZoIZJuWlSS7cYObgJI+eZIiqOiTJbUcY/Wp3f3KSWQAAAAAAAAAAAAAAAAAAAGBeLVyRSHdfluThSV6efeURa5WJrGa9UpDNlIWsGi/7l4i8KMmju/vKTTxjN/rLJJduMPOIqprU7+soRS2v6u7vTuj8ienuc5O8bITRJ0w4yl2THDTC3N9OOAcAAAAAAAAAAAAAAAAAAADMrYUrEkmS7r6iu5+Q5HFJvpel0o7O/kUeU42U/QtEvp3kJ7r7qQtQIpLu/nqSV2wwdkySB4z77Kq6U5K7bDB2SZI/GuOZ166qZ1fVJ6rqgsH6WFU9q6qOGtc5Q16Q5KINZk6sqodM4Oxloz57o98DAAAAAAAAAAAAAAAAAAAAYA0LWSSyrLtfleRWSV6XpQKPWv4oky8UWVlcsnz2XyW5RXe/fsLn7zTPSnLhBjO/OoFznz7CzJ919+njOKyqfizJF5L8TpLbJrn6YN0+ye8m+eJgZmy6++wkzxlh9JlVNfb/JlTVgUkeNcLo27r71HGfDwAAAAAAAAAAAAAAAAAAAItioYtEkqS7z+run0xylyRvyFKxx3KpSK+ytnzUKs9ZPufyJK9KcmJ3/0J3f2Mb5+xKg7KLF24w9oCquue4zqyquyV5xAZj5yd57pjOe0CSNyW55jpj10zypqq6/zjOHPKHSf59g5nvT/JLYz43WSoRue4Ic/99AmcDAAAAAAAAAAAAAAAAAADAwlj4IpFl3f3h7n5EkuOTPCPJJ7Ov6GN5JauXi4yyssqzPpDkV5Mc292P6+5TJ/gVd4PnJPncBjMvqqqDtntQVV0tyUtHGH1Kd39zDOcdluSVGe1vbk+SVw4yjkV3X5rkcUku22D096vq5uM6d/C9nz3C6Ku7+4PjOhcAAAAAAAAAAAAAAAAAAAAWkSKRFbr79O5+XnffPsmxSR6b5C+TfDjJ93LVcpFR13lJ3pfkxUkekeTo7r57d7+4u8+Z2hfcwbr7oiQ/m+SKdcZul+T3x3Dci5KcuMHM67v7NWM4K1n6PbreJuavn+QxYzo7SdLdJyd52gZjV0/y1qo6ckzHvihLf0fr+XqSXxvTeQAAAAAAAAAAAAAAAAAAALCw9s46wE7W3Wcmec1gJUmq6oZJbpilUoijkxya5ODBujLJJYN1QZJzknwtyZndfe5Uw+9S3X1yVf23JP9jnbFfr6ozuvtFWzmjqp6f5Bc2GDs1yRO38vw1PGgL9/xokr8YY4Z090uq6vZJHr/O2M2TvLOqfmQ7JTdV9cwkP7/B2GVJHtnd39zqOQAAAAAAAAAAAAAAAAAAAMASRSKb1N1nJTlr1jnmWXe/oKpunOTJ64y9sKpulOQZ3X3ZKM+tqmsm+bMkj9pg9KwkD+zub43y3BHdZAv33HSM5w97YpIDkzx2nZk7JPlQVT2+u/91Mw+vqiOTvDjJozcY7SS/2N3v2czzAQAAAAAAAAAAAAAAAAAAgNXtmXUAWMOvJHnlOp9Xkt9I8rGq+pmqOnjNwaojq+r/S3JqNi4R+XKSH+rur2wy7yT0RB7afWWSxyV56QajxyZ5R1W9qaruV1Xr/veiqo6vqmcl+Xw2LhG5IsnjuvuvRs0NAAAAAAAAAAAAAAAAAAAArG/vrAPAarr7iiSPq6ozkvzuOqO3SfLXSf68qk7OUonFN5MckOTaSW6b5PaD642cnOQh3f2NbURfy5cGWTd7z0QMykSeVFUfSvJnSQ5ZZ/yhg/Xtwc/4tCTnDT47PMmNk5yY5LgRjz8nyaO7+52bTw4AAAAAAAAAAAAAAAAAAACsRZEIO1p3P7OqPpjkpUmOWWf0kCT3HqzNuiTJc5P8QXdftoX7R/GPSX5sk/e8dRJBhnX3KwZlIi9Kct8Nxq+Z5AHbPPLvkjy1u7+2zecAAAAAAAAAAAAAAAAAAAAAK+yZdQDYSHf/c5LbJPnDJN8d46OvTPIPSe7Q3b83wRKRJHl1kjM3Mf+VJK+ZUJb9dPdnuvt+SR6e5GMTOubtSX6wu39KiQgAAAAAAAAAAAAAAAAAAABMxt5ZB5ikqnpGkgM2e193P3sCcdiG7r4gyW9U1fOSPDnJTye59RYfd3qSNyV5SXd/YTwJ19fdF1XVzyR5Rzb+u7s8yWO7+5LJJ9unu9+Q5A1VdfckT0jyoCTX2cYjP5/kjUle1d2njiEiAAAAAAAAAAAAAAAAAAAAsI65LhJJ8stJjt7CfYpEdqjuPi/Jc5I8p6puluSHk9w2yfclOSbJ4YN1ZZILBuvMJJ8ZrPd09ydnED3d/W9V9ZAkf5vkiDXGzk/yqO7+tynFuoruPinJSVVVSe6Y5B5ZKm25VZIbZt/P+IAkFyX5XpJzslTQ8sUkpyT54LRKWgAAAAAAAAAAAAAAAAAAAIAl814kcnaS644w10lq8P79k4vDOA2KKnZVWUV3/8ugAOWpSR6S5Pgs/f59Mcmbk7you785u4T7dHcn+fBgAQAAAAAAAAAAAAAAAAAAADvcvBeJnJLk9lkqalhPJfmPJP+tu9804UwsuEFRyO8MFgAAAAAAAAAAAAAAAAAAAMBY7Jl1gAl7z9D7GlrD1+ck+cUk36dEBAAAAAAAAAAAAAAAAAAAAIDdau+sA0zYO5P04H0P7VeSy5P8XpL/2d0XTjsYAAAAAAAAAAAAAAAAAAAAAIzTnlkHmKTuPjvJSVkqDlnl4/49JSIAAAAAAAAAAAAAAAAAAAAAzIO5LhIZ+Luh98OFInur6tBphwEAAAAAAAAAAAAAAAAAAACASViEIpH/neTiwfte8dmRU84CAAAAAAAAAAAAAAAAAAAAABMx90Ui3X1ektclqVU+vu6U4wAAAAAAAAAAAAAAAAAAAADARMx9kcjAS9bYv9VUU2xDVd2wqr40WL8y6zwAAAAAAAAAAAAAAAAAAAAA7CwLUSTS3R9O8p4kteKjXVMkkuTWSW6c5LgkR8w0CQAAAAAAAAAAAAAAAAAAAAA7zkIUiQw8d5W9W049xdbtpqwAAAAAAAAAAAAAAAAAAAAATNnCFIl09zuSnLx8maSS3GV2iTZNkQgAAAAAAAAAAAAAAAAAAAAAa1qYIpGB38xSgciyG1TV8bMKs0mKRAAAAAAAAAAAAAAAAAAAAABY00IViXT3e5O8NfuXidxrRnE2S5EIAAAAAAAAAAAAAAAAAAAAAGtaqCKRgV9NclGSHlzfb4ZZRlJVhye5fvZlBgAAAAAAAAAAAAAAAAAAAID9LFyRSHefluS5SWqwHlRVe2caamO3nHUAAAAAAAAAAAAAAAAAAAAAAHa2hSsSGXh+kg8M3l8jycNmF2UkikQAAAAAAAAAAAAAAAAAAAAAWNfeWQeYtKq6TpLjklwnybWHXr8zNPbHVfXkGcQb1TGD10rSswwCAAAAAAAAAAAAAAAAAAAAwM4090UiSf5HksduMHPDJDeYQpbt6CwViQAAAAAAAAAAAAAAAAAAAADAVSxCkUiyfgFHjTCzE/SsAwAAAAAAAAAAAAAAAAAAAACwcy1KkUiyehFHrfMZAAAAAAAAAAAAAAAAAAAAAOwai1QkkuwrDhl1fydRdgIAAAAAAAAAAAAAAAAAAADAmvbMOgAAAAAAAAAAAAAAAAAAAAAAsH2KRAAAAAAAAAAAAAAAAAAAAABgDuyddYAZ6FkHAAAAAAAAAAAAAAAAAAAAAIBxW8QikZp1gC1SgAIAAAAAAAAAAAAAAAAAAADAmhatSKSTfCzJBbMOsknHJLnprEMAAAAAAAAAAAAAAAAAAAAAsHMtUpFIZalI5AHd/c1Zh9mMqnp4ktdlKT8AAAAAAAAAAAAAAAAAAAAAXMWeWQeYsjN2W4nIwAdnHQAAAAAAAAAAAAAAAAAAAACAnW2RikQ6ySmzDrEV3X1mkq8lqVlnAQAAAAAAAAAAAAAAAAAAAGBnWqQikWSXFokMfGjWAQAAAAAAAAAAAAAAAAAAAADYuRSJ7B6KRAAAAAAAAAAAAAAAAAAAAABYkyKR3UORCAAAAAAAAAAAAAAAAAAAAABr2jvrAFPwpiSnJflud397tlG25YNJnjV4/+5ZBgEAAAAAAAAAAAAAAAAAAABg55n7IpHufnOSN886x3Z19wXZVyQCAAAAAAAAAAAAAAAAAAAAAPvZM+sAAAAAAAAAAAAAAAAAAAAAAMD2KRIBAAAAAAAAAAAAAAAAAAAAgDmgSAQAAAAAAAAAAAAAAAAAAAAA5oAiEQAAAAAAAAAAAAAAAAAAAACYA4pEAAAAAAAAAAAAAAAAAAAAAGAO7J11gN2kqm6U5IQk10ty3STXTnK1JAcP1hVJLk5ySZLzk5wzWKcl+Vx3Xzb10AAAAAAAAAAAAAAAAAAAAAAsBEUia6iqayW5T5J7JLlbklslOWwbj7yiqr6c5JQk703ynu4+ddtBAQAAAAAAAAAAAAAAAAAAACCKRPZTVVdP8ugkj0xyzyQHLH80hsfvTXJCkpsl+anBeV9K8vokf9vdnxrDGQAAAAAAAAAAAAAAAAAAAAAsqD2zDrATVNUxVfXiJGcl+bMk98lS8UdlX4lIj2nV0Do+ydOTfLyq3llVPzrp7woAAAAAAAAAAAAAAAAAAADAfFroIpGqOqyqnpfk35M8Ocnh2VfysbIAJNm/BGSza9laxSL3TvLmqnpvVd1pIl8YAAAAAAAAAAAAAAAAAAAAgLm1sEUiVXXXJB9P8vQkV8tVy0OStctAtnTkGs9bWShy9yQfqKoXVNWB2zwTAAAAAAAAAAAAAAAAAAAAgAWxkEUiVfWEJO9JctPsXyCSjK84ZKQoQ2s4w54kT0tyclXdYAo5AAAAAAAAAAAAAAAAAAAAANjlFq5IpKp+O8lLk+wdbK0sEJmVlYUileQOST5QVbeaYS4AAAAAAAAAAAAAAAAAAAAAdoGFKhKpql9M8uzsK+xINl8g0ltcI8dccc4xSd5ZVcdu4hkAAAAAAAAAAAAAAAAAAAAALJiFKRKpqnskeXH2L/bYqEBkvUKQGnGt96y1CkaG7+0k10vytqq6xgZ5AQAAAAAAAAAAAAAAAAAAAFhQe2cdYBqq6rAkr0xyQJaKOdYrEFlZ7rFy9pIkZyY5L8k3k1yY5NIkl2WpmOXAwbpGkiOSXCvJDZIcvMZZK8tJVp69/Pktkrwoyc+tkx0AAAAAAAAAAAAAAAAAAACABbUQRSJJfiPJTbN+ichqhR7nJ3lnkg8m+UiSf+/us7cSoKquneTmSW6V5HZJ7pbkttn3bzBcKjKccblMpJL8TFW9rrv/aSsZAAAAAAAAAAAAAAAAAAAAAJhfc18kUlXXSvJr2b8oZKXhAo8Lk7w2yauTvLe7rxxHju4+N8m5Sd4/lO0aSR6Q5MeTPCzJIVm7UGS5TOT5VfXP3b3e9wEAAAAAAAAAAAAAAAAAAABgweyZdYApeFySwwfva8Vny6UdleSyJM9Pclx3/0J3v3tcJSJr6e7vdPfruvtRSa6f5DeTfH0o52qFIrdK8uhJ5gIAAAAAAAAAAAAAAAAAAABg91mEIpGfy75CjmHDJR0fT3K77v5v3f3NKeXaP0z3t7v7BUlumuQPk1yx/NGK0Uryy9PMBgAAAAAAAAAAAAAAAAAAAMDON9dFIlV10yS3Wb4c+qiHrt+S5G7d/R/TzLaW7r6ou5+e5IeSnLu8naW8y6Uid6qqW8wiHwAAAAAAAAAAAAAAAAAAAAA701wXiSS5zyp7w6Uc/5bkEd198TRDjaK735Pk3knOW95aMfKfpxoIAAAAAAAAAAAAAAAAAAAAgB1t3otE7rzieriM47wkj+ruy6eYZ1O6+7NJfmKNj+89xSgAAAAAAAAAAAAAAAAAAAAA7HDzXiRywip7laVCked29zlTzrNp3f2uJH+epdzJUvZKcreqqjVvBAAAAAAAAAAAAAAAAAAAAGChzHuRyE2yVLyRodck+W6Sl00/zpY9J8mlK/YOTXLsDLIAAAAAAAAAAAAAAAAAAAAAsAPNe5HINVdcV5YKRd7S3RfNIM+WdPdZSd6epfzDjp9BHAAAAAAAAAAAAAAAAAAAAAB2oHkvEjlsjf13TjXFePzjKnvHTD0FAAAAAAAAAAAAAAAAAAAAADvSvBeJ9Br7n5xqivH4+Cp7V592CAAAAAAAAAAAAAAAAAAAAAB2pnkvErlwjf3TphliTL64yt5hU08BAAAAAAAAAAAAAAAAAAAAwI4070Ui566x/52pphiP1TIfOPUUAAAAAAAAAAAAAAAAAAAAAOxI814kcnqSmnWIMbl8lb1Lp54CAAAAAAAAAAAAAAAAAAAAgB1p3otEPr/G/mFTTTEeB66yN/Yikaq6VVXds6ruOe5nAwAAAAAAAAAAAAAAAAAAADA5e2cdYMI+usb+YUm+Pc0gY3DQKnvfm8A5L0ty9ySd+f/9AAAAAAAAAAAAAAAAAAAAAJgbe2YdYMJOXmP/BlNNMR5XX2XvmxM454QkNVgAAAAAAAAAAAAAAAAAAAAA7BJzXSTS3Z9OcvYqH914ylHG4YhV9sZaJFJVV09y3XE+EwAAAAAAAAAAAAAAAAAAAIDpmOsikYG3JqkVe8fNIsg2HbnK3tfHfMbNxvw8AAAAAAAAAAAAAAAAAAAAAKZkEYpEXrPK3m2nnmL7rrfK3uljPuOEMT8PAAAAAAAAAAAAAAAAAAAAgCmZ+yKR7n5fkk8vXyapJHecXaItO2bF9bndfdGYz1AkAgAAAAAAAAAAAAAAAAAAALBLzX2RyMAfZqlAZNktqurqswqzRccOve8kX5rAGYpEAAAAAAAAAAAAAAAAAAAAAHapRSkSeXWSjw9dV5IfnU2ULbvF4HW5EOVTEzhDkQgAAAAAAAAAAAAAAAAAAADALrUQRSLd3UmemOTyJD3YfuTsEm3JrbIve5J8YgJnnLDiDAAAAAAAAAAAAAAAAAAAAAB2ib2zDjBpVfXAJHceXJ6a5HZZKsv40ar60syCbd5xK64fWFX3SXKtJIcnOWAMZ1wnikQAAAAAAAAAAAAAAAAAAAAAdqW5LxJJ8uAkT16xV0kOTHLjqacZj0ryoBXXAAAAAAAAAAAAAAAAAAAAACywRSgSSVYv2uipp9i+WuP9uOzGnwkAAAAAAAAAAAAAAAAAAAAAWZwikWRfScYkCjhmYRKlHzWh5wIAAAAAAAAAAAAAAAAAAAAwYYtUJJLsXyKy2wtFdnt+AAAAAAAAAAAAAAAAAAAAAMZoz6wDAAAAAAAAAAAAAAAAAAAAAADbp0gEAAAAAAAAAAAAAAAAAAAAAObA3lkHmIGedQAAAAAAAAAAAAAAAAAAAAAAGLdFLBKpWQfYwZSsAAAAAAAAAAAAAAAAAAAAAOxSi1Yk0knelOSTM86xUz0jyQGzDgEAAAAAAAAAAAAAAAAAAADA5i1SkUhlqUjk2d39iVmH2Ymq6mFJbjvrHAAAAAAAAAAAAAAAAAAAAABs3p5ZB5iyC5J8ctYhdrBTslS4AgAAAAAAAAAAAAAAAAAAAMAus0hFIp3k5O7uWQfZwT4y6wAAAAAAAAAAAAAAAAAAAAAAbM0iFYkkyUmzDrDDnTLrAAAAAAAAAAAAAAAAAAAAAABszaIVibxv1gF2uE8muSxJzzoIAAAAAAAAAAAAAAAAAAAAAJuzd9YBpuDkJFcfes8auvvSqvpMkttHmQgAAAAAAAAAAAAAAAAAAADArjL3RSLd/TdJ/mbWOXaRxyS5zqxDAAAAAAAAAAAAAAAAAAAAALA5c18kwuZ096mzzgAAAAAAAAAAAAAAAAAAAADA5u2ZdQAAAAAAAAAAAAAAAAAAAAAAYPsUiQAAAAAAAAAAAAAAAAAAAADAHFAkAgAAAAAAAAAAAAAAAAAAAABzQJEIAAAAAAAAAAAAAAAAAAAAAMwBRSIAAAAAAAAAAAAAAAAAAAAAMAcUiQAAAAAAAAAAAAAAAAAAAADAHFAkAgAAAAAAAAAAAAAAAAAAAABzQJEIAAAAAAAAAAAAAAAAAAAAAMwBRSIAAAAAAAAAAAAAAAAAAAAAMAcUiQAAAAAAAAAAAAAAAAAAAADAHFAkAgAAAAAAAAAAAAAAAAAAAABzQJEIAAAAAAAAAAAAAAAAAAAAAMwBRSIAAAAAAAAAAAAAAAAAAAAAMAcUiQAAAAAAAAAAAAAAAAAAAADAHFAkAgAAAAAAAAAAAAAAAAAAAABzQJEIAAAAAAAAAAAAAAAAAAAAAMwBRSIAAAAAAAAAAAAAAAAAAAAAMAcUiQAAAAAAAAAAAAAAAAAAAADAHFAkAgAAAAAAAAAAAAAAAAAAAABzQJEIAAAAAAAAAAAAAAAAAAAAAMwBRSIAAAAAAAAAAAAAAAAAAAAAMAcUiQAAAAAAAAAAAAAAAAAAAADAHFAkAgAAAAAAAAAAAAAAAAAAAABzQJEIAAAAAAAAAAAAAAAAAAAAAMwBRSIAAAAAAAAAAAAAAAAAAAAAMAcUiQAAAAAAAAAAAAAAAAAAAADAHFAkAgAAAAAAAAAAAAAAAAAAAABzQJEIAAAAAAAAAAAAAAAAAAAAAMwBRSIAAAAAAAAAAAAAAAAAAAAAMAcUiQAAAAAAAAAAAAAAAAAAAADAHFAkAgAAAAAAAAAAAAAAAAAAAABzQJEIAAAAAAAAAAAAAAAAAAAAAMwBRSIAAAAAAAAAAAAAAAAAAAAAMAf2zjrATlVVByc5Mcmtk9wwyQ2SHJXkakkOSXJQkhq6pbv7ftPOCQAAAAAAAAAAAAAAAAAAAACJIpH9VNXdkvxokgdlqUDkgFFvTdKTygUAAAAAAAAAAAAAAAAAAAAAG1n4IpGqunqSJyb5L0lutry9iUdMrECkqh6b5IGDy89093MndRYAAAAAAAAAAAAAAAAAAAAAu9vCFolU1Z4kT0nyjCRH5arlIRMrCNmEg5L8VAZZqupd3f3+2UYCAAAAAAAAAAAAAAAAAAAAYCfaM+sAs1BVN0vy/iR/lOTaWSoR6RUrg/2N1iR9bDh2kmdN+DwAAAAAAAAAAAAAAAAAAAAAdqmFKxKpqh9M8qEkd8r+BSLJdEtCRnFq9mVLkvtW1R1mFQYAAAAAAAAAAAAAAAAAAACAnWuhikSq6l5J3pbkiOwrEUl2TnHIfrr7oiRnrdj+hVlkAQAAAAAAAAAAAAAAAAAAAGBnW5gikaq6WZI3JLlalgpEOju0QGSFL2Zf6Ukl+amq2jvbSAAAAAAAAAAAAAAAAAAAAADsNAtRJFJVe5K8OsmRWSrkSNYuEOlNrGn44orrI5Lcb0pnAwAAAAAAAAAAAAAAAAAAALBLLESRSJInJ7lL1i4RWVkOUiOuaThtlb2HTulsAAAAAAAAAAAAAAAAAAAAAHaJvbMOMGlVdUiS38rqJSI9PDp4vSTJqUk+k+QrSc4erG8kuXiwLknypCS/MrHg+3x16H0Pct53CucCAAAAAAAAAAAAAAAAAAAAsIvMfZFIkp9Mcr3sK+FYNlwscm6S1yZ5Y5L3d/clGz20qr415pxr+eoqeydU1XW7+5wpZQAAAAAAAAAAAAAAAAAAAABgh1uEIpGfXXE9XCDyzST/PcnLu/viaYbahLPX2L9Tkn+cZhAAAAAAAAAAAAAAAAAAAAAAdq49sw4wSVV1eJIfzL7ykM5SgUgl+dckt+7uP93BJSJJct4a+7edagoAAAAAAAAAAAAAAAAAAAAAdrS9sw4wYfdMckD2FYnU4P0/J/nP3X3ZrIJtwoVr7N9qqikAAAAAAAAAAAAAAAAAAAAA2NH2zDrAhN1xlb3Tkzxql5SIJGsXiRw71RQAAAAAAAAAAAAAAAAAAAAA7GjzXiRy26H3laST/G53XzCjPFtx8YrrztJ3ueEMsgAAAAAAAAAAAAAAAAAAAACwQ817kchxK64vSPL3swiyDQevsX/kVFMAAAAAAAAAAAAAAAAAAAAAsKPNe5HI9ZN0khq8ntzdl8420qYdtsb+1aaaAgAAAAAAAAAAAAAAAAAAAIAdbd6LRA5fcf25maTYnuussX/gVFMAAAAAAAAAAAAAAAAAAAAAsKPNe5HI1VZcf3smKbbnhDX2L5lqCgAAAAAAAAAAAAAAAAAAAAB2tHkvErl8xfVBM0mxPbdZY/+iqaYAAAAAAAAAAAAAAAAAAAAAYEeb9yKR7624vs5MUmzP/dbY/+5UUwAAAAAAAAAAAAAAAAAAAACwo817kch3Bq+dpJKcOMMsm1ZVRyS5e5by/7/twfVXZ5EJAAAAAAAAAAAAAAAAAAAAgJ1p3otETstS8cay21fVdWaUZSsen+SQwfta8dlXppwFAAAAAAAAAAAAAAAAAAAAgB1s3otEvrziek+Sx80iyGZV1eFJnpak1xhZ+d0AAAAAAAAAAAAAAAAAAAAAWGDzXiTysaH3naSS/H9VddSM8mzG85Jcf/C+Vvn8o1PMAgAAAAAAAAAAAAAAAAAAAMAON+9FIietsndUkpdPO8hmVNWjkjw5+8pPVvOh6SUCAAAAAAAAAAAAAAAAAAAAYKeb9yKRTyQ5d+h6uZjjx6rqZVW1VknHzFTVQ5P8VZayDhu+Pq27T59eKgAAAAAAAAAAAAAAAAAAAAB2urkuEunuK5O8PkvlIRm8LpeJ/EKSt1bV0TOKdxVV9fQkf5/koOWtlSNZyv+GaeYCAAAAAAAAAAAAAAAAAAAAYOeb6yKRgVetuB4uE/mRJJ+pql+tqoOnnmw5UNXdq+r9SZ6X5MChfGv5u6kEAwAAAAAAAAAAAAAAAAAAAGDXmPsike7+YJJ3Z1+BSLJ/mchRSf4oyVlV9T+r6gemkauqjqiqx1bV+5K8J8ldVmQc1kOfvb+7T5lGRgAAAAAAAAAAAAAAAAAAAAB2j72zDjAlv5ulMpFhK4tFrpXkqUmeWlXfSXJyks8m+XySLyQ5Pcl3k3xvsEZSVUcmOWawjk1y6yR3TPKfkhwwdH5W5FnL80Y9GwAAAAAAAAAAAAAAAAAAAIDFsRBFIt393qp6RZLHZamsY7moY7lMZGWBxzWT3H+wRlZVX8rSz/RqSQ5Ncsh648MRV9kb/mw559u6+583kwkAAAAAAAAAAAAAAAAAAACAxbAQRSIDT0tyryQ3yVXLRJL9C0WG9zcy/JwbbyLPKGcNz3w3yZM28XwAAAAAAAAAAAAAAAAAAAAAFsieWQeYlu7+dpKHZKmQI9m/pCNZKvNYXsufb7Sucswm1vCZq0YemrkiyWO6+4yNvykAAAAAAAAAAAAAAAAAAAAAi2hhikSSpLtPTfKgJBcsb60xWiOujWz3/mVP6+63bmIeAAAAAAAAAAAAAAAAAAAAgAWzUEUiSdLdJyW5X5Kzs1Tm0Vm7UGSztloUMmw5TyW5Msnju/vF44kHAAAAAAAAAAAAAAAAAAAAwLxauCKRJOnujyS5fZL/k32FH+MsFNmK4fMryWlJ7tPdr5hZIgAAAAAAAAAAAAAAAAAAAAB2jYUsEkmS7j63u38kyaOSnJmrFopMo1Rk5VmV5NIkL0xyu+5+3xQyAAAAAAAAAAAAAAAAAAAAADAHFrZIZFl3vzbJLZI8Kcl/ZKnMY7VSke2Ui6z2nOHykEpyQZI/S3KL7n5ad1+wxbMAAAAAAAAAAAAAAAAAAAAAWEB7Zx1gJ+jui5O8LMnLquruSR6Z5MeTHLNyNFsvE0n2FZQs+3aSf03yliSv7+6LtvFsAAAAAAAAAAAAAAAAAAAAABaYIpEVuvukJCcleWpV3TTJDya5c5JbJ7lFkutt5bFJzk7ypSSfTfLRJB9J8rHuvmIcuQEAAAAAAAAAAAAAAAAAAABYbIpE1tHdX8pS+cerlveq6pAk101ydJKjkhyS5OAkByW5Msmlg/XdJN8crHO6+9KphgcAAAAAAAAAAAAAAAAAAABgoSgS2aTuvjjJ6YMFAAAAAAAAAAAAAAAAAAAAADvCnlkHAAAAAAAAAAAAAAAAAAAAAAC2T5EIAAAAAAAAAAAAAAAAAAAAAMyBvbMOMGlVdY0kRyRJd58x2zQAAAAAAAAAAAAAAAAAAAAAMBl7Zh1gCn4tyZeTfKmq7jjrMAAAAAAAAAAAAAAAAAAAAAAwCYtQJJIkNVj3mHUQAAAAAAAAAAAAAAAAAAAAAJiERSkSWaZIBAAAAAAAAAAAAAAAAAAAAIC5tEhFIpXk7rMOAQAAAAAAAAAAAAAAAAAAAACTsEhFIklydFUdP+sQAAAAAAAAAAAAAAAAAAAAADBui1Qk0oPXd1bV06vqWjNNAwAAAAAAAAAAAAAAAAAAAABjtEhFIsuOTfK8JGdW1cur6vtnHQgAAAAAAAAAAAAAAAAAAAAAtmvRikQqSQ9eD0nyc0k+XFUnVdVPVdXeWYYDAAAAAAAAAAAAAAAAAAAAgK1atCKRZZ19hSKV5K5J/ibJGVX1zKq63izDAQAAAAAAAAAAAAAAAAAAAMBmLWqRyLKVhSLXS/K7SU6vqr+tqrvNMhwAAAAAAAAAAAAAAAAAAAAAjGoRi0SWS0OGdfYvFTkwyU8meW9VfaSqHldVB083JgAAAAAAAAAAAAAAAAAAAACMbpGKRCpLRSF/keS1SS7LVQtFkv0LRSrJHZL8ZZIzq+oPquq46cQFAAAAAAAAAAAAAAAAAAAAgNEtUpHIstd296OS3CjJbyb5YvaVhgxbLhTJ4LOjkvxGki9U1Rur6r5TygsAAAAAAAAAAAAAAAAAAAAAG1rEIpFTk6S7z+3uF3T3zZP8cJJ/SHJ51i4U6cFnByR5SJJ3VNWpVfWkqjpsaukBAAAAAAAAAAAAAAAAAAAAYBWLViRyXnefs3Kzu9/Z3Y9McmyS305yepZKQ9YqFVn+7JZJXpLkrKp6YVXdfJLhAQAAAAAAAAAAAAAAAAAAAGAti1Qk0kk+u+5A9znd/ftJjk/y4CRvSXJl1i4UWS4VuUaSpyQ5tar+paoePObsAAAAAAAAAAAAAAAAAAAAALCuRSoSSZJTRxnqJf/S3Q9LclySZyU5K0ulIWuVilSWfp73T/KWqvpCVT2tqo4YU3YAAAAAAAAAAAAAAAAAAAAAWNOiFYl8ZrM3dPdXu/tZSW6c5KFJ/iX7ikP2Gx3aryQ3TfKCJGdW1cuq6sRt5AYAAAAAAAAAAAAAAAAAAACAdS1akcipW72xu6/s7rd294OT3CTJc5N8LfuKQ/7faPYvFTk0yS8k+XhVvbuqHl5Vi/ZzBwAAAAAAAAAAAAAAAAAAAGDCFqHQ4rQk707yniSfGscDu/sr3f07SY5N8ogkbx98VCtHs69QpJLcI8nfJzm9qn6rqq4zjjwAAAAAAAAAAAAAAAAAAAAAMPdFIt39qu6+z2B9fczPvqK739DdD0xysyT/I8k3sq845P+NZv9CkRsm+b0kZ1TVq6rqzuPMBQAAAAAAAAAAAAAAAAAAAMDimfsikWnp7i93939NcqMkP53kXVm7UGS5VOTgJI9J8oGq+mBVPaaqDpxucgAAAAAAAAAAAAAAAAAAAADmgSKRMevuy7v777r7fklukeSPk5yXtUtFlvfvlORVSb5SVb9XVTecbnIAAAAAAAAAAAAAAAAAAAAAdjNFIhPU3Z/v7l9PcsMkP5PkfVm7UCSD/aOT/FaSL1fV31fVPacYGQAAAAAAAAAAAAAAAAAAAIBdSpHIFHT3pd39N919zyS3SfLiJN/O/qUiPbQqyd4kD0/yrqr6RFX9QlVdbfrpAQAAAAAAAAAAAAAAAAAAANgNFIlMWXd/trt/NckNkvx8kpOzr0xkZanIctHIiUleluTMqnpBVd1kuqkBAAAAAAAAAAAAAAAAAAAA2OkUicxId1+c5A1JXpfk3OXt7CsPWb7uwftKcmSSpyX5fFW9dXppAQAAAAAAAAAAAAAAAAAAANjp9s46wCKqqtsk+eUkj05y2PL2yrGh971iv5I8aGIBAQAAAAAAAAAAAAAAAAAAANh1FIlMSVXtSfKwLBWI3Gt5e9TbB689WKPeBwAAAAAAAAAAAAAAAAAAAMCCUCQyYVV1VJInJvnFJDda3h689vDoKI9bcQ8AAAAAAAAAAAAAAAAAAAAAJFEkMjFVdcckT0nyyCQHZ/+ikM0WiKw2f/a2AgIAAAAAAAAAAAAAAAAAAAAwV/bMOsA8qaoDq+oxVXVykg8meUySQ7JU/tFDq4bWepbnMzT/kSQ/k+TG484PAAAAAAAAAAAAAAAAAAAAwO61d9YB5kFV3SDJk5I8Icl1lrcHrz08OuIjV95zRZI3JXlhd5+09aQAAAAAAAAAAAAAAAAAAAAAzKu5LxKpqp9N8rNZKud4VHefM8Zn3zPJLyd5WJIDsn9RyDgKRM5P8pdJXtLdZ2w5KAAAAAAAAAAAAAAAAAAAAABzb+6LRJLcOMm9s1TScYckb9vOw6rqakkek+SXkpy4vD14HUd5SJJ8LsmLkryyuy/cYlQAAAAAAAAAAAAAAAAAAAAAFsgiFIkMu222WCRSVTfJUnnI45Ickf2LQsZVIPKOJC/s7n/ZSkYAAAAAAAAAAAAAAAAAAAAAFtciFolsSlU9IMlTkjwwS4Uf4y4QuSjJa7JUIPLZzeYDAAAAAAAAAAAAAAAAAAAAgESRyKqq6vAkP5/kyUlutrw9eB1HeUiSnJXkT5P8eXefN+JzAAAAAAAAAAAAAAAAAAAAAGBVi1QkUkluUVUHdvdlqw5U3TrJLyd5TJLDsn9RyLgKRD6U5IVJXtfdV4z4HAAAAAAAAAAAAAAAAAAAAABY1yIViSRL3/fWST6xvFFVleRhWSoQuffy9uB1uAhkeH8jKwtELk/yD0n+pLtP3lRiAAAAAAAAAAAAAAAAAAAAABjBohWJJMltk3yiqo5K8oQkv5jkmMFnqxWIbKU8ZPm+85L8RZKXdPdZW4sLAAAAAAAAAAAAAAAAAAAAABtbpCKR5aKPh1bV/ZL8RJKDs39RyHYLRJbv+WySFyX56+6+aAtZAQAAAAAAAAAAAAAAAAAAAGBTFqlIJFkq+vjxoffJ1spDVruvk7wtyQu7++1bTggAAAAAAAAAAAAAAAAAAAAAW7BoRSLJ+AtELkzy10n+pLv/Y5vZAAAAAAAAAAAAAAAAAAAAAGBLFrFIZCsFIqvd85UkL0nyF919/hhyAQAAAAAAAAAAAAAAAAAAAMCWLWKRyKjlIcnqBSIfSPLCJG/o7ivGFQoAAAAAAAAAAAAAAAAAAAAAtmMRi0RGsbJA5LIkr0vyJ9394dlEAgAAAAAAAAAAAAAAAAAAAIC1KRLZZ2V5SJKcm+TPk/xpd589/UgAAAAAAAAAAAAAAAAAAAAAMBpFIqsXiHw6yYuSvKa7L55+JAAAAAAAAAAAAAAAAAAAAADYnEUuEllZINJJ/inJC7v7nbOJBAAAAAAAAAAAAAAAAAAAAABbs4hFIisLRL6b5FVJ/qS7vzCbSAAAAAAAAAAAAAAAAAAAAACwPYtWJNJZKg9JktOSvCTJX3b3d2aWCAAAAAAAAAAAAAAAAAAAAADGYNGKRJLkE0l+L8mbuvvKWYcBAAAAAAAAAAAAAAAAAAAAgHFYpCKRStJJntHd/zzrMAAAAAAAAAAAAAAAAAAAAAAwTntmHWDKLk/y7lmHAAAAAAAAAAAAAAAAAAAAAIBxW6QikU5ySnd/b9ZBAAAAAAAAAAAAAAAAAAAAAGDcFqlIJEn+76wDAAAAAAAAAAAAAAAAAAAAAMAkLFqRyDtnHQAAAAAAAAAAAAAAAAAAAAAAJmHvrANMwSuT/Nvg/UmziwEAAAAAAAAAAAAAAAAAAAAAkzP3RSLdfXqS02edAwAAAAAAAAAAAAAAAAAA/n927jtc1rMsF/j97Ow0IBAILQSC9KYUBUEUKSoIHLCBaJR2sCEWDtZj1wMWsGLDQi8qRVSw4PFIR8BQVDokhBopwUBiSN3P+WPNYs+ezNpr1lrT1szvd13fNd/3fs+87z0rO//eAACztPJFIqukqh6Y5MuSpLt/acFxAAAAAAAAAAAAAAAAAAAAAFgiikT2lx9Icr8knUSRCAAAAAAAAAAAAAAAAAAAAABfcGDRAdiRWy86AAAAAAAAAAAAAAAAAAAAAADLSZHIPlFVJyY5fdE5AAAAAAAAAAAAAAAAAAAAAFhOikT2j1slqUWHAAAAAAAAAAAAAAAAAAAAAGA5KRLZP2696AAAAAAAAAAAAAAAAAAAAAAALC9FIvuHIhEAAAAAAAAAAAAAAAAAAAAAtqRIZP+4zaIDAAAAAAAAAAAAAAAAAAAAALC8FInsH7dO0osOAQAAAAAAAAAAAAAAAAAAAMByOrjoAKOq6l5JHp3kDkkqyTuSPLO7/2mX+31lkptNK98C3WLRAQAAAAAAAAAAAAAAAAAAAABYXktTJFJVxyZ5epLv2FwafH5xkm+rqr9I8ujuvmSHW39fkjOmk5JlUlXXTnLfbJTO3DbJzZNcI8nVk5yQ5MIkn0vyqSTvHFyvS/Iv3X1oEZkBAAAAAAAAAAAAAAAAAAAAZmVpikSSPDfJt45Z3ywUeViSA0m+bRd71/Yj+0IvOsCiVdVVkjw6G+Uwd8vGv4mtXGNw3SjJlw6tf7qq/jrJ73b3v80q6zqrqlsneWuSE8e8fnV332u+iQAAAAAAAAAAAAAAAAAAAGD1Ha2EYW6q6oHZKBHpo1yV5KFV9YBdHnO0vffLtbaq6sSq+oUkH0nye0nunt3/+712ksckeXtV/WNVfel2X2ByVXVckhdkfIkIAAAAAAAAAAAAAAAAAAAAMCNLUSSS5HuG7mvMNex793DOuL3307WWquprk/xHkp9Pcq0pb/91Sd5cVU+uKsUX0/GkJHdadAgAAAAAAAAAAAAAAAAAAABYNwcXHWDgbkl6m5nORpnG3WYfh2VRVT+T5JeyfZHKRUnelOSsJOclOSbJKUm+JMkdc/R/68ck+bEk966qB3f3uXuMvbaq6j5JfmTROQAAAAAAAAAAAAAAAAAAAGAdLUuRyNVnNMs+VVXHJHlGkkdsM3pmkqckeWl3X7bFXicleWSSJyS5yVH2unOSN1fV13f3O3eeer1V1bWSPCfbl74AAAAAAAAAAAAAAAAAAAAAM3Bg0QEGPjajWfavP8zRS0QuT/KTSe7a3S/cqkQkSbr7gu7+vSS3S/LUbc69YZJXVNXpOw1M/jjJaYsOAQAAAAAAAAAAAAAAAAAAAOtqWYpEXpGktpmpJJ3k7/d4Vu/jay1U1c8l+e6jjFye5Nu7+9e6+9Ck+3b357v7h5P8QI7+9zwtyT9W1cmT7r3uquoxSb5l0TkAAAAAAAAAAAAAAAAAAABgnS1LkchTklw8uB8teBh+vjjJr+/xrNrH18qrqnsm+fltxv5Xd794t2d09+8n+Zltxm6V5Gm7PWOdVNXNk/zOonMAAAAAAAAAAAAAAAAAAADAuju46ABJ0t3nVNVjkjwnG+Umo2UileRQku/u7g/t8pga7PuoJK/Z5R6LUkneluTqiw4yS1V19STPztELbl7e3b83heN+JclXJnnAUWYeVlV/393PnsJ5K6mqDiZ5QZKrLjoLAAAAAAAAAAAAAAAAAAAArLulKBJJku7+s6r6TJI/TPJFI68/kuSx3f13Uzjq/3b3f05hn7mqqvckueuic8zYLyW58VHeX5bk8dM4qLu7qh6X5N1JTjjK6G9V1cu6+zPTOHcF/WKSuyw6BAAAAAAAAAAAAAAAAAAAAJAcWHSAYd39iiS3SPJ1SX50cN0/yc2mVCLyyf1YIjLwnkUHmKWqukmSx24z9vTuPmtaZ3b3OUl+Z5uxayb52WmduUqq6h5JfnLROQAAAAAAAAAAAAAAAAAAAIANBxcdYFR3X5Hk/w2uqW6d5O1T3nOe3r3oADP2xCTHbTPzezM496lJnpDk2KPMfH9VPbW7PziD8/elqrpGkudmycqIAAAAAAAAAAAAAAAAAAAAYJ2tWwnA2xYdYA/es+gAs1JVpyd52DZj/9Ld75z22d398SQv2WbsuCSPn/bZ+9wfJrnxokMAAAAAAAAAAAAAAAAAAAAAh61bkcjbFx1gD1a2SCTJ9yc5ZpuZv5zh+S+YYObRVXX1GWbYN6rq4Um+fcyrf5h3FgAAAAAAAAAAAAAAAAAAAOCwdSsSeduiA+zBWUkuW3SIaauq45M8ZoLRv5lhjH9M8rltZk5K8sgZZtgXquomSX5vzKuPZHy5CAAAAAAAAAAAAAAAAAAAADAn61Ak8m9JXpHkb7v7/YsOs1vdfUWSDyw6xwzcL8m1t5n5WHe/b1YBuvuSJP9vgtEzZpVhP6iqY5I8L8nVR14dSvKI7j5/7qEAAAAAAAAAAAAAAAAAAACAL1j5IpHu/vXuvn93P3jRWabgPYsOMAMPmWDm9TNPkbxygpm7VtXpM0+yvH4myd3HrD+lu1815ywAAAAAAAAAAAAAAAAAAADAiJUvElkxP5Hk3knus+gg01BVxyZ50ASjb5x1liSvnmCmMlnxycqpqrtlo0hk1FuS/Oyc4wAAAAAAAAAAAAAAAAAAAABjKBLZR7r7A9396u6epPRiP/iKJCdPMPcfM86RJO9KcvEEc/ebdZBlU1UnJXl+koMjry5K8h3dfdn8UwEAAAAAAAAAAAAAAAAAAACjFImwSPeccO6dM02RpLsvn/Ccr6yqY2edZ8n8XpKbjll/Qne/d95hAAAAAAAAAAAAAAAAAAAAgPEUibBIkxSJfLa7z515kg3/PsHMVZPcZdZBlkVVfWuSR4x59dfd/UfzzgMAAAAAAAAAAAAAAAAAAABsTZEIC1FVxyT5iglGPzzrLEPOnnDuq2aaYklU1Y2SjCsLOTfJd805DgAAAAAAAAAAAAAAAAAAALANRSIsyi2SXGWCuWUsErnDTFMsgao6kOS5SU4eedVJHtXdn557KAAAAAAAAAAAAAAAAAAAAOCoFImwKF8y4dxHZ5riSB+ccO72M02xHH48yT3HrD+1u/9x3mEAAAAAAAAAAAAAAAAAAACA7R1cdIB1UFV3S3K/JHdLctMk101ylSSHklyY5CNJ3pfkTUn+obvfvaCo8zRpGcenZpriSOdOOHfrqjquuy+daZoFqaovS/JLY179R5KfmHMcAAAAAAAAAAAAAAAAAAAAYEKKRGaoqh6c5FeS3Hp4eWTs+CSnJLlDkocm+fWqekeS30rynO4+NI+sC3CbCec+PdMUR/rPCecOJrlZkpUrfKmqqyR5fpJjR15dnOSM7r5k/qkAAAAAAAAAAAAAAAAAAACASRxYdIBVVFU3rqr/m+Sl2SjMqKGrx1wZmfmSJE9P8taq+tL5pp+bG084N7cike6+OMlnJxyfNP9+89tJbjVm/Se6+x1zzgIAAAAAAAAAAAAAAAAAAADswMFFB5i1qjo+yWk7+Monuvu/93DelyZ5eZLrZaMUJDlcFrKV0febhSK3T/K6qnpMd//ZbjMtqdMnnDt/liHGOC/JNSaYmzT/vlFV35jku8e8ekWS351vGgAAAAAAAAAAAAAAAAAAAGCnVr5IJMm3JnnWDuYfneQ5uzmoqu6W5B+TXG2wtFkQUuO/saXhYpETkjynqrq7/3w3uZZNVZ2Q5DoTjl8wyyxjnD/h3I1nGWLequrUJH865tWnkjyqu7crwwEAAAAAAAAAAAAAAAAAAAAW7MCiA8zBHbJR5DHJtWtVdb0kL85GiUgPrt3uO/y9TnJMkmdU1Z32knGJnJrJ/y7LWiRy2ixDzFNVVZJnJzllzOvHdPd/zjkSAAAAAAAAAAAAAAAAAAAAsAvrUCRyx8FnH+Xa9MEk793lOX+W5AZD+21XlLFdluE9OskJSZ5TVcfsMt8yudYOZi+cWYrxzp9w7pqzDDFn/yvJ141Zf1p3v2zeYQAAAAAAAAAAAAAAAAAAAIDdWYcikdvnyHKPGrm/OMnzk9ynu2/e3W/a6QFV9dAk98pkJSKjhSHDmYbfj9vrtkkeu9N8S2gnJRwXzyzFeJ+fcG4likSq6g5JfnnMq/ckecKc4wAAAAAAAAAAAAAAAAAAAAB7cHDRAWapqk5Jcu1slHLU0GcleWuSP03ygu7+3B7OODbJr2byEpHNmU7yoSSfGDxfJ8mpSU4Ymt3Mm6H7H6+qP+zuK3abeQkoElkCVXVCkhckOX7k1aVJvqO7J/1bAAAAAAAAAAAAAAAAAAAAAEtgpYtEktx66H64TOT/Jblfd/fYb+3MGUlukiNLP0YNF4icneRXkryku88fHhqUknxVku9I8sgkB0ZyJ8lpSb4xyUumkH1RTt7B7CWzCrGFScszTp5liDn59SS3HbP+s9391nmHAQAAAAAAAAAAAAAAAAAAAPZmnYpENl2e5LFTKhFJkh/e5v1wwcgLkzy6u8eWVXT3ZUlemeSVVfVbSV6a5OY5XCKy6Yzs7yKRE3Ywe+nMUow3aXHJTn7D0qmqByR53JhXr8xGwcjKqKrrJrnOonMsuZstOgAAAAAAAAAAAAAAAAAAAAB7t+pFIjcZuq9sFHL8TXefNY3Nq+ork9wxR5aFDNtc7yS/091PmHTv7n5nVX11ktcmuenIfvetqmO6+4o9xF+kY3cwO+/fOOl5O/kNS2VQrPHMMa/+K8kjuvvQnCPN2vcn+flFhwAAAAAAAAAAAAAAAAAAAIBZO7DoADN22pi1P5/i/o8+yrvhEpF/SvIjO928u/8zyXeNeXWVJHfd6X5LZCclHPMutZi0SOS4maaYrWckue6Y9e/t7o/OOwwAAAAAAAAAAAAAAAAAAAAwHateJHLDMWuvmsbGVXVikodmoyhk1PDahUke3t3j5rbV3a9O8jfZKCUZdpfd7LckVqFIZCe/YWlU1Q8keeCYV8/q7hfNOw8AAAAAAAAAAAAAAAAAAAAwPQcXHWDGTsuRpR4f6+7zprT3NyQ5abD/aMlHBmud5Cnd/ck9nvX0wXnDbrvHPRdp4gKb3Raw7MGk5+27Ep6qum2SJ495dVaSH5xznHn6gyRKUo7uZkn+etEhAAAAAAAAAAAAAAAAAAAA2JtVLxI5afC5Werx9inu/W1brA8XUVyQ5DencNYrklya5NihtZtOYd9FuXzSwao60N2HZhlmxDETzl020xRTVlXHJ3lBkhNHXl2e5Du6+8L5p5qPQZHPXst8VlrVuC4kAAAAAAAAAAAAAAAAAAAA9psDiw4wY6OlCVMpE6iqayT5+hxZGnLEyODdn3X3RXs9r7svS/IfQ/tWklP3uu8CXbqD2UmLPaZlJYtEkvxKkjuMWf8/3f2meYcBAAAAAAAAAAAAAAAAAAAApm/dikQ+O6V9vznJcYP7Osrc06d0XpK8a+T5OlPce952UsIx73+jK1ckUlVfl+TxY169PsmT5psGAAAAAAAAAAAAAAAAAAAAmJVVLxI5buT5v6e077dtsd5D9+d095lTOi9Jzh95vsoU9563nZRwHJxZivGOnXDu0pmmmJKqOiXJs3PlwpvPJfnO7r5i/qkAAAAAAAAAAAAAAAAAAACAWVj1IpELRp6vvtcNq+oGSe6TI0tDjhgZvHvxXs8a8bmR5+OnvP887aTQZd6/88QJ5y6caYrp+dMkp45Zf1x3nzPnLAAAAAAAAAAAAAAAAAAAAMAMrXqRyH+NPF97Cns+Oskxg/s6yty0i0RG/1sd7exlN/rf5WhOmFmK8SYtEjl/liGmoaq+O8k3jnn15939vDnHAQAAAAAAAAAAAAAAAAAAAGZsHYpEKkkPPu+8l82q6mCS7x7sN2p47cPd/a97OWuMq408XzLl/edpJ0Uix88sxXiTFons5DfMXVXdMslvjXn14STfN+c4AAAAAAAAAAAAAAAAAAAAwBysepHIx0eeb1FVp+5hv/+Z5PTBfY15v1la8qI9nLGVG448XzyDM+ZlJyUcV51ZivFGC1u2cv4sQ+xFVR2b5Pm58t/uUJLv7O7Pzj8VAAAAAAAAAAAAAAAAAAAAMGurXiTyr2PWHrubjarqakl+JhtFIdt51m7O2MYtR87eSRnHsvn0DmZPmlmK8a454dxOfsO8/VKSO49Z/9Xufu28wwAAAAAAAAAAAAAAAAAAAADzsepFIm8cuu8kleQHq+rGu9jraUluOLivkXc9tHZmd79rF/tvqaqunuQ2Q2d3kk9M84w5+2SSyyacnXeRyMkTzn1kliF2q6rumeTHx7w6M8kvzDcNAAAAAAAAAAAAAAAAAAAAME+rXiTy5iSHRtaukeTFVXXypJtU1U8mOSNHFoaM00meucOMk7h/rvzf6twZnDMX3X0oyccmHFckMqHBv+nn5sr/Vv47yRndPWl5CwAAAAAAAAAAAAAAAAAAALAPrXSRSHd/Nsk/5HD5Rw8+vzTJv1TVXY/2/ao6tqp+O8mThr57pWOG7i9O8oJdB97aw8esnTODc+bpwxPOnTLTFEOq6kCSa084Pmn+eXpakhuNWX98d79/3mEAAAAAAAAAAAAAAAAAAACA+Tq46ABz8EdJHjC4r2wUf1SSWyV5Q1X9c5K/SfKWJJ8ezN0wyVcleVSSG498b5zN9y/u7s9NM3xV3TrJ/XPlIpOzpnnOApyT5KsnmJu02GMaTsnk/0+cM8McO1ZVj0zysDGvXtrdfzrvPAAAAAAAAAAAAAAAAAAAAMD8rUORyN8m+XCSG+VwGcjmZyW5z+AaZ7M4ZKsSkeFyj8uT/J8p5B31pBzOPOy9Mzhrnt454dw8i0SuN+HcBdn4N7UUqurkJL+7xetvqqrRfzuLds8dZLpJd58zyzAAAAAAAAAAAAAAAAAAAACwKg4sOsCsdfehJE/IkUUgm8Ucw4Ui467hma1szj2zuz8wzexV9T+SfNMWGSYt4lhW/zHh3PVnmuJIp084967uXqZyjpOTnLToEAAAAAAAAAAAAAAAAAAAAMBirXyRSJJ0918meVEOl34kVy4LGXdtzo3ddujzI0l+cpqZq+rGSZ4xcs6mT3X3J6d53gJMWiRyo5mmONJNJpx7x0xTAAAAAAAAAAAAAAAAAAAAAOzCWhSJDDwuyYcG98OlHLXNNc5wycjlSR7W3efvNWBVHaiqB1TVC5O8J8m1h87Z/OwkZ+71rEXr7o8m+dQEo6fPOsuQm0449/ZZhgAAAAAAAAAAAAAAAAAAAADYjbUpEunuTye5b5KP53AhRx/1S1tsNfisJJcmOaO737SXbFV1u6p6SpKPJnlZkm9JcvzgrHFlJm/cy3lL5HUTzJxWVcfNPMmGW04499qZpgAAAAAAAAAAAAAAAAAAAADYhbUpEkmS7n5/ki9P8oYcLujoTFYqMjxTSc5P8oDufslu81TVo6rqzCT/nuQJSa4/2Huz6GT03E2v2e2ZS2aS33FMklvNOsjAHSeYOT/Jf8w2BgAAAAAAAAAAAAAAAAAAAMDOrVWRSJJ097lJ7pHk8Uk+ncPFHcmRpSKjV4bmnp3k1t39z3uM8yNJ7rTF+Vu5KMm/7PHcZfHqCeduN9MUSarqWkluOMHo67v70KzzAAAAAAAAAAAAAAAAAAAAAOzUwUUHWITu7iRPrao/SfLtSb41G+UiJx7lax9K8ndJ/ri7/21KUc5P8pkdfufF3X3ZlM5ftLcn+XiSG2wzd6ckfz7jLF8+4dzfzjQFAAAAAAAAAAAAAAAAAAAAwC6tZZHIpu7+fJJnJHlGVR1McvMkN0ly9Wz8bS5K8skkH+juT8zg/HtMe8/9pLu7ql6a5HHbjN5tDnHuPcFMJ/mrGefYse4+J0ktOkeSVFVPMPbq7r7XrLMAAAAAAAAAAAAAAAAAAADAulnrIpFh3X15kvcMLubnJdm+SOTOVXVsd182wxz3mmDmX7r73BlmAAAAAAAAAAAAAAAAAAAAANi1A4sOwNp7TZKPbDNzlSRfPasAVXVqkrtMMPrcWWUAAAAAAAAAAAAAAAAAAAAA2CtFIixUd1+R5GkTjD5whjG+OUltM/PZJM+bYQYAAAAAAAAAAAAAAAAAAACAPVEkwjL40ySXbjPzkKqa1b/Xh08w8+zuvnBG5wMAAAAAAAAAAAAAAAAAAADsmSIRFq67P5nkmduM3SjJ/aZ9dlXdJcldtxm7JMlvTvHMa1fVL1XVv1XVBYPrbVX1i1V1yrTOAQAAAAAAAAAAAAAAAAAAANaLIhGWxS8muWibmR+ewbk/PsHMH3T3h6ZxWFU9KMkHkvxsktsnudrgumOSn0ty1mAGAAAAAAAAAAAAAAAAAAAAYEcUibAUuvvcJL+9zdj9quqrp3VmVd09yUO2GTs/yZOmdN79kvxVkmscZewaSf6qqu47jTMBAAAAAAAAAAAAAAAAAACA9aFIhGXyxCTv22bmqVV13F4PqqoTkzxtgtEf7O7zpnDeVZM8K5P9P3cgybMGGQEAAAAAAAAAAAAAAAAAAAAmcnDRAdZFVd04yd2S3DTJdZNcJcmhJBcm+Ug2CjTe3N2fWVjIBevuz1fVI5O8LskxW4zdIckvJ/nRPR731CRfss3Mi7v7eXs8Z9Mjklx/B/OnJvnOJH8ypfMBAAAAAAAAAAAAAAAAAACAFadIZIaq6sQkP5DkMUluMeF3zkzyZ0me0d2fm2G8pdTdb6yq/53kyUcZ+5Gq+nB3P3U3Z1TVryX5rm3G3pXke3az/xYesIvv/I8oEgEAAAAAAAAAAAAAAAAAAAAmdGDRAVZVVX1nkvcm+dUkt0xSE153TvIbST5SVT9aVcfMP/1idfdTkvzBNmO/XVVPrqpjJ923qq5RVc9P8uPbjH4sydd3939NuvcEbrKL79x0iucDAAAAAAAAAAAAAAAAAAAAK06RyJRV1bFV9YIkz05yw2yUg/QOrs1CkZOS/FqSV1fVqXP+Gcvgh5I86yjvK8mPJXlbVT28qo7fcrDqmlX1o0neleSMbc79YJKv7e6P7DDvLPSiAwAAAAAAAAAAAAAAAAAAAAD7x8FFB5i1qrpHkift4CtP6u5X7PKsk5L8TZKvzuECkS+8nnCb0e/cPclrq+qe3f2x3eTaj7r7iiSPrqoPJ/m5o4zeLslzkvxxVb0xyfuTnJfkmCTXTnL7JHccPG/njUke3N2f2kP0rZw9yLrT7wAAAAAAAAAAAAAAAAAAAABMZOWLRJLcI8lX5ciCjnE2iz+ut4eznpPknoN9Ns+btEBkOEeG9qgkN03y91V1t+6+aA/59p3u/vmqelOSpyW50VFGT0hyr8G1U5dko2zmV7v7sl18fxIvT/KgHX7nZbMIAgAAAAAAAAAAAAAAAAAAAKymA4sOMAd3HLqvkWtUJbliN4dU1U8l+YYcWSCy0xKR0Syb5SZJcrskT93DfvtWd/9dNn7/rye5cIpbH0rykiR36u7/M8MSkSR5bpKP7mD+I0meN6MsAAAAAAAAAAAAAAAAAAAAwApahyKRO+RwGUePXJtlHZ9P8pwk9+zu5+/0gKq6eZKfz5ElIkczmmPc9YXth7I+uqruttN8q6C7L+juH0ty4yQ/m+Rde9juQ0l+J8mtuvsh3f3uaWQ8mu7+fJKHJ7l8gvHLkzyiuy+ZbSoAAAAAAAAAAAAAAAAAAABglRxcdIBZqqrjktxseCmHSzmS5M1Jnp7kz7v7gj0c9ZQkx47sPc5Oi0ZGZyvJLyW57y4yroTu/kySJyZ54qDA5euS3D7JFye5UZKTBtehJBcMro8meefgek13//sCoqe7X1VVD07ygiQnbzF2fpIzuvtVc4o1Vd293b9tAAAAAAAAAAAAAAAAAAAAYEZWukgkyS2THMjhUo7Noo9PJrnvNAolquouSb4hOysReX2SFyd5W5JPDNauk+TG2SjGeGCSa+VwochwAcrXVNXtF1WGsUy6+wNJPrDoHDvR3X8/KEB5fJIHZ6PoppOcleSvkzy1u89bXEIAAAAAAAAAAAAAAAAAAABgv1r1IpFbjzxvFnL8wBSLOB6/zfvhApFPJXlEd79izNx7krw2yfOq6qQkP5XkR3NkEcqmhyf5sd0GZrEGRSE/O7gAAAAAAAAAAAAAAAAAAAAApuLAogPM2C2G7mvw+c7ufvE0Nq+qU5M8JFcu+tjUQ+e+I8ldtigROfJL3Rd09/9O8h1Jrhiz30N2HRoAAAAAAAAAAAAAAAAAAACAlbTqRSI3HHnuJM+a4v6PTHLs4L5G3g2Xi3w6yQO7+8M72by7X5jkF8bsfXpV3XQnewEAAAAAAAAAAAAAAAAAAACw2la9SOS0MWt/N8X9H5kjC0NG1eD9d3b3R3Z5xpOTvHfM+lfucj8AAAAAAAAAAAAAAAAAAAAAVtCqF4nccOT5v7v7PdPYuKq+PMmtNh9HXncOl4j8bXf/392e092XJ/njMWd88W73BAAAAAAAAAAAAAAAAAAAAGD1rHqRyCk5stTj7VPc+9u3WO+R+x+fwlnPH7N2qzFrAAAAAAAAAAAAAAAAAAAAAKypVS8SOXHk+ZxpbFpVleRbc2RpyBEjg3ev7u737PW87v5kDmffLEY5ba/7AgAAAAAAAAAAAAAAAAAAALA61q1I5LNT2veeSU4d3NdR5v5kSuclydtGzrreFPcGAAAAAAAAAAAAAAAAAAAAYJ9btyKR86e077dtsd5D9xcl+aspnZcknxh5vvoU9wYAAAAAAAAAAAAAAAAAAABgn1v1IpFLR56P3+uGVXVskm/JkaUhR4wM3v1dd1+81/OGfG7kec+/BQAAAAAAAAAAAAAAAAAAAIDVsepFIv818nzNKez5jUlOGdzXUeZeNIWzho2Wohw75f0BAAAAAAAAAAAAAAAAAAAA2MfWpUikB5+3msKe37PFeg/dfz7J307hrGFXGXm+bMr7AwAAAAAAAAAAAAAAAAAAALCPrXqRyGeS1OC+knxZVR3c7WZVdZckX5ON0pAaNzJ49/fd/fndnrOF64w8Xzzl/QEAAAAAAAAAAAAAAAAAAADYx1a9SOTfR55PSPIte9jviRPOPW8PZ2zlJiPPF8zgDAAAAAAAAAAAAAAAAAAAAAD2qVUvEnnjyHMl+Ymq2vHvrqpHJPm6JD3YZ1gP3X8qyct3uv82Zx9IcseRsz81zTMAAAAAAAAAAAAAAAAAAAAA2N/WqUhks+zjDkl+eSebVNXtkvx+jiwMudLY4P3zuvuKnew/gbskudrQcyf5xJTPAAAAAAAAAAAAAAAAAAAAAGAfW+kike4+O8n7hpeyUfjxY1X15Kqq7faoqrsmeVWSq24ubfOVZ+wi6na+bczah2dwDgAAAAAAAAAAAAAAAAAAAAD71EoXiQz8SQ6Xf1QOl4n8SJJ3VNUZVXXy6Jeq6vSq+uUkr0xyytD3Rm2ud5Izu/td0wxfVVdN8sjB/sPOmuY5AAAAAAAAAAAAAAAAAAAAAOxvBxcdYA6eleSJSY7LkaUfleQ2SZ6b5IqqOifJpwffuWGS0wb3m/OTeMpUEh/ph5KcPCbDB2ZwFgAAAAAAAAAAAAAAAAAAAAD71IFFB5i17j4vyR9loxBk03A5SGWjUOXmSe46uG44WB+du9L2QzNv6e4XTzN7VZ2W5CcyvsjkXdM8CwAAAAAAAAAAAAAAAAAAAID9beWLRAZ+KskHB/fDxSA9ctWY9c3ZUcPlHlckefw0A1fVgSTPTHL1Ma8vSfL+aZ4HAAAAAAAAAAAAAAAAAAAAwP62FkUi3X1Rku/K4fKP4YKQ4ZKQ0fKQ0fejNktHfrG73zCNrFV1oKoekORlSb42hwtOMvT57919aBrnAQAAAAAAAAAAAAAAAAAAALAa1qJIJEm6+5VJfiCHyzh66HWNuY663dD9S7r7SXvNV1W3q6qnJPloNkpEvv4oZ79pr+cBAAAAAAAAAAAAAAAAAAAAsFoOLjrAPHX306rqoiR/nOTYHC4E2a445AtbDN1Xkj9N8n27zVNV10pyRpJHJbnTmCy9RbbX7/ZMAAAAAAAAAAAAAAAAAAAAAFbTWhWJJEl3P6eq3p7kGUm+dHN5B1tUks8k+anu/uM9xnllki8e2rfHZBmX7VV7PBcAAAAAAAAAAAAAAAAAAACAFXNg0QEWobv/vbvvnORhSV6bjRKPSa7zk/x2kltOoUQkSY4Z2jsTnJ8kb+7uT07hbAAAAAAAAAAAAAAAAAAAAABWyMFFB1ik7n5RkhdV1alJ7p3k9klukuTq2fjbXJTkk0k+kOSNSf6luy+dYoTHDs7aifdO8XwAAAAAAAAAAAAAAAAAAAAAVsRaF4ls6u5zk7xgcM3z3NfO8zwAAAAAAAAAAAAAAAAAAAAAVteBRQcAAAAAAAAAAAAAAAAAAAAAAPZOkQgAAAAAAAAAAAAAAAAAAAAArABFIgAAAAAAAAAAAAAAAAAAAACwAhSJAAAAAAAAAAAAAAAAAAAAAMAKUCQCAAAAAAAAAAAAAAAAAAAAACtAkQgAAAAAAAAAAAAAAAAAAAAArABFIgAAAAAAAAAAAAAAAAAAAACwAg4uOsCyq6rTk5yW5AZJTklyYpITkhyXpIZnu/uX5h4QAAAAAAAAAAAAAAAAAAAAAKJI5AhVdWySeyd5QJI7J7l9kqvuYAtFIgAAAAAAAAAAAAAAAAAAAAAshCKRJFV1pyTfn+RhObI4pHawTU81VJKq+qoktx08nt3d/zTtMwAAAAAAAAAAAAAAAAAAAABYDWtdJFJVd0zya0m+dnNpZGTScpCdFI7sxJcnecrg/uKqum13f2hGZwEAAAAAAAAAAAAAAAAAAACwjx1YdIBFqKpjq+o3kpyZjRKRGlw9cmXo3VbXLJ05dM4JSX5uxucBAAAAAAAAAAAAAAAAAAAAsE+tXZFIVV03yRuTPD4bv3+4QCSZb1HIdt4x+OxsZPmOqrrBAvMAAAAAAAAAAAAAAAAAAAAAsKTWqkikqm6Y5A1J7pgjC0SWpTjkCN39mSTnDS0dm+R/LigOAAAAAAAAAAAAAAAAAAAAAEtsbYpEqupqSV6e5KaDpd58tZhEEzsrh0tPKsmjFpoGAAAAAAAAAAAAAAAAAAAAgKW0NkUiSX4vye1zZIHI0UpEeoJrHs4aeb5JVX3ZnM4GAAAAAAAAAAAAAAAAAAAAYJ9YiyKRqvr6JI/IkSUio8aVhNQ21zycPWbtG+d0NgAAAAAAAAAAAAAAAAAAAAD7xMFFB5iTXx66Hy0A2apc5KNJPpLk3MH1qSQXD65Lktw/yYOnnvTKPjZm7euS/OwczgYAAAAAAAAAAAAAAAAAAABgn1j5IpGqul+SO2ajMGS4LGS0QOQdSV6a5JVJ3tLdF2yz7/UznyKRc4fuN3/Dl1bVVbv7v+dwPgAAAAAAAAAAAAAAAAAAAAD7wMoXiSR55Ji14VKRlyT5te4+c36RduTjY9aOSXLnJK+ecxYAAAAAAAAAAAAAAAAAAAAAltSBRQeYpao6mORB2SgOyeBzs0Tk40m+prsfusQlIknyqS3W7zDXFAAAAAAAAAAAAAAAAAAAAAAstYOLDjBjd01y1RwuEqnB5/uT3Ke7P7aQVDtz0RbrXzzXFAAAAAAAAAAAAAAAAAAAAAAstQOLDjBjdxuzdmGSB+2TEpFk6yKRG881BQAAAAAAAAAAAAAAAAAAAABLbdWLRO4wdF9JOsmTu/t9C8qzG6NFIp2N33KjBWQBAAAAAAAAAAAAAAAAAAAAYEmtepHIzUaeL0/yB4sIsgfHbLF+7bmmAAAAAAAAAAAAAAAAAAAAAGCprXqRyGlJenDfSf61uz+zwDy7cdUt1q8y1xQAAAAAAAAAAAAAAAAAAAAALLVVLxI5efBZg893LCjHXlxzi/Xj55oCAAAAAAAAAAAAAAAAAAAAgKW26kUiJ448f2YhKfbmZlusXzbXFAAAAAAAAAAAAAAAAAAAAAAstVUvEhnViw6wC7faYv3zc00BAAAAAAAAAAAAAAAAAAAAwFJb9SKRi0aer7mQFHtzzy3WR38bAAAAAAAAAAAAAAAAAAAAAGts1YtELhx5vvVCUuxSVR1Mcp8kPbw8+Pzk/BMBAAAAAAAAAAAAAAAAAAAAsKxWvUjko9ko3ujB55dX1QmLjbQjD0lyrcF9Da13kg/PPw4AAAAAAAAAAAAAAAAAAAAAy2rVi0TOHnk+Mck3LSLITlVVJfmxo4woEgEAAAAAAAAAAAAAAAAAAADgC1a9SOSdI8+V5Ker6phFhNmhxya5U5LORu5R/zbfOAAAAAAAAAAAAAAAAAAAAAAss1UvEnn90H0PPm+T5OcWkGViVXWHJE/O4czjvHlOcQAAAAAAAAAAAAAAAAAAAADYB1a9SOTNSS4eeu4kleSnq+rhi4l0dFV1syQvS3KVzaXB53CpyPlJ3jnHWAAAAAAAAAAAAAAAAAAAAAAsuZUuEunuzyf52xwu40g2CjkOJHlmVf3EQoJtoaq+Islrktwwh0tPjhgZrL+suzsAAAAAAAAAAAAAAAAAAAAAMLDSRSIDLxi6rxwu4ziQ5Jer6lVVdcdFBPtCqKqTqupXk7w6yamDfEfzotmnAgAAAAAAAAAAAAAAAAAAAGA/WYcikb9O8oHB/XBBR2ejVOSrk5xZVX9bVQ+qquPmFayqTq+qJyY5O8mPJTk4lLFGsm46J8nfzyUgAAAAAAAAAAAAAAAAAAAAAPvGwUUHmLXuPlRVv5zkGTmypKNzuEzkQJKvH1wXVtWrk7w+ybuTvD/JWd196V5yVNVVk5ye5LZJ7pzkvknuOJQnGV8ikqG1TvIb3X1oL1kAAAAAAAAAAAAAAAAAAAAAWD0rXySSJN39rKr6riRfkcPlIVuVd5yU5IGD6wtbVNUnk1yY5L8H16mj51TVM7LxNz0xyVUGn6ckuVGSa4yOD++/xfrwu07yviR/stXvBAAAAAAAAAAAAAAAAAAAAGB9rUWRyMB3JfnXbBR8bJaJZPDZOXqZRyW5/tDzuNlK8sgx547uNexoZw6/rySHknxPd192lP0AAAAAAAAAAAAAAAAAAAAAWFMHFh1gXrr7PUkeNbw0dF9D1+a7ra6MzA6rMdfR9hudG2ez6OSJ3f3ao/9KAAAAAAAAAAAAAAAAAAAAANbV2hSJJEl3vyTJE3JkwceorcpAvrBNjiwV2erdVuUjk5SHjGZ7YXf/wjbzAAAAAAAAAAAAAAAAAAAAAKyxtSoSSZLu/p0k35vk0OZSxpeCDBtXAjKuCGSrue1KQ64Uc2i/Zyf5zh1+HwAAAAAAAAAAAAAAAAAAAIA1s3ZFIknS3X+S5D5JPp7DJR+TFIrM2maGSnJ5kp/q7kd39xWLjQUAAAAAAAAAAAAAAAAAAADAslvLIpEk6e7XJrlDkj9OciiLKxTpHFkgUkneluQruvtX55gDAAAAAAAAAAAAAAAAAAAAgH1sbYtEkqS7P9Pd35fkS5P8RZIrcrjMo8dcez5yiz03z3xnkm/v7i/r7rdO4TwAAAAAAAAAAAAAAAAAAAAA1sTBRQdYBt39H0m+vapumORRSR6S5PbDIyOfe1VD959K8vIkz+ju109pfwAAAAAAAAAAAAAAAAAAAADWjCKRId390SRPTPLEqrppknsluUeSL09yi+z973UoyVlJ3prkLUle1d1n7nFPAAAAAAAAAAAAAAAAAAAAAFAkspXuPjvJ2UmekSRVdTDJTQfX9ZJcN8kpSU5IcnyS47JRFHLp4LowyXmD6z+TfDDJOd19+Vx/CAAAAAAAAAAAAAAAAAAAAABrQZHIhAYFIO8bXAAAAAAAAAAAAAAAAAAAAACwVA4sOgAAAAAAAAAAAAAAAAAAAAAAsHeKRAAAAAAAAAAAAAAAAAAAAABgBSgSAQAAAAAAAAAAAAAAAAAAAIAVoEgEAAAAAAAAAAAAAAAAAAAAAFbAwUUHmKWq+s7soiylu58zgzgAAAAAAAAAAAAAAAAAAAAAMDMrXSSS5DeTnLLD73QSRSIAAAAAAAAAAAAAAAAAAAAA7CsHFh1gxv4zSe3w+vBCkgIAAAAAAAAAAAAAAAAAAADAHqx6kcjbB5+9zZUk5yV5QpJbzTciAAAAAAAAAAAAAAAAAAAAAOzdqheJvGbovoau4bWLk/xqkpt1929392VzzAcAAAAAAAAAAAAAAAAAAAAAU3Fw0QFm7J9HnnvwWUkOJXlWkp/r7o/NMxQAAAAAAAAAAAAAAAAAAAAATNuBRQeYpe4+O8lbs1Ec0iOvL+vuxygRAQAAAAAAAAAAAAAAAAAAAGAVrHSRyMALh+5r6P64qjph3mEAAAAAAAAAAAAAAAAAAAAAYBbWoUjk+UmuGNz3yLtrzjkLAAAAAAAAAAAAAAAAAAAAAMzEyheJdPfHkrw8SY15fZ05xwEAAAAAAAAAAAAAAAAAAACAmVj5IpGB399i/dZzTbEHVXWdqvrnwfWIRecBAAAAAAAAAAAAAAAAAAAAYLmsRZFId/9TkrePebVvikSS3C7JvZLcM8kXLTQJAAAAAAAAAAAAAAAAAAAAAEtnLYpEBn45SY2s3WYRQXZpP5WeAAAAAAAAAAAAAAAAAAAAADBn61Qk8pIk7xrcdzZKRe6yuDg7pkgEAAAAAAAAAAAAAAAAAAAAgC2tTZFId3eSn8pGgcimm1TVaQuKtFOKRAAAAAAAAAAAAAAAAAAAAADY0toUiSRJd/9NktePLN9zEVl2QZEIAAAAAAAAAAAAAAAAAAAAAFtaqyKRgR9McihJD57vvcAsE6mqE5PcKIczAwAAAAAAAAAAAAAAAAAAAMAR1q5IpLvfnuR3k9TgelBV1UJDbe9W2cgKAAAAAAAAAAAAAAAAAAAAAGOtXZHIwE8nec/g/jpJ7rvALJO49aIDAAAAAAAAAAAAAAAAAAAAALDcDi46wKxVVSU5JRuFIdce+nx7Dhd0/EZVPWwhASdzu8FnJelFBgEAAAAAAAAAAAAAAAAAAABgOa18kUiSZyR5xDYztxlcy6yzUSQCAAAAAAAAAAAAAAAAAAAAAFeyDkUiydELOPZLOUcvOgAAAAAAAAAAAAAAAAAAAAAAy2tdikSS8UUcdZR3AAAAAAAAwJK62UdfsugIAMCKOLToAAAAAAAAAAAwRetUJJIcLg6ZdH2ZKDsBAAAAAAAAAAAAAAAAAAAAYEsHFh0AAAAAAAAAAAAAAAAAAAAAANg7RSIAAAAAAAAAAAAAAAAAAAAAsAIOLjrAAvSiAwAAAAAAAAAAAAAAAAAAAADAtB1YdAAAAAAAAAAAAAAAAAAAAAAAYO8OLjrAnHWSTyS5ZNFBdugaSU5edAgAAAAAAAAAAAAAAAAAAAAAltc6FYlUNopE7tzdH190mJ2oqjOSPC8b+QEAAAAAAAAAAAAAAAAAAADgSg4sOsCc/ed+KxEZeNOiAwAAAAAAAAAAAAAAAAAAAACw3NapSKSTvGXRIXaju89K8plF5wAAAAAAAAAAAAAAAAAAAABgea1TkUiSnLnoAHvwr0lq0SEAAAAAAAAAAAAAAAAAAAAAWE7rViTyr4sOsAdvXnQAAAAAAAAAAAAAAAAAAAAAAJaXIpH9Q5EIAAAAAAAAAAAAAAAAAAAAAFs6uOgAc/C6wecF3f3phSbZmzcmefbg/u0LzAEAAAAAAAAAAAAAAAAAAADAElr5IpHufnqSpy86x15193lJHr3oHAAAAAAAAAAAAAAAAAAAAAAspwOLDgAAAAAAAAAAAAAAAAAAAAAA7J0iEQAAAAAAAAAAAAAAAAAAAABYAYpEAAAAAAAAAAAAAAAAAAAAAGAFKBIBAAAAAAAAAAAAAAAAAAAAgBWgSAQAAAAAAAAAAAAAAAAAAAAAVsDBRQfYT6rqQJIbJ7l+kusluXaSE5McP7iuSHJxkkuSnJ/kE4PrQ9194QIiAwAAAAAAAAAAAAAAAAAAALAmFIlsYVAacqckX5Xk7klul+TmSY7d5X4fS/LuJGcmeW2SN3T356aTFgAAAAAAAAAAAAAAAAAAAIB1p0hkRFXdL8lDk3xDkmsNv9rj1jdMclqSr03yk0muqKrXJHlxkhd193l73B8AAAAAAAAAAAAAAAAAAACANXZg0QGWQVVdtap+pKrOSvJ3SR6d5JRslIdsXknSe7yG9zuY5N5Jfj/JR6rq6VV1+5n/WAAAAAAAAAAAAAAAAAAAAABW0loXidSG703ygSRPTnKTHC76GFcEkhxZBrKTK2P223x3QpJHJXlrVT23qk6f1W8GAAAAAAAAAAAAAAAAAAAAYDWtbZFIVd0kyeuS/EGS6+XK5SHJ1oUguzpyzD6jpSIHkpyR5N1V9bg9nAUAAAAAAAAAAAAAAAAAAADAmlnLIpGqun+Stye5W44sEEmmUxoyUYyMLxWpJCcmeWpVvbyqTppxDgAAAAAAAAAAAAAAAAAAAABWwNoViVTVI5P8VZKTcrhEJJlPeciWsTK+UOT+SV5TVacuKBcAAAAAAAAAAAAAAAAAAAAA+8RaFYlU1YOTPD3JsTmysGOnBSK9w2viiDmyUKSS3CHJP1fVtXaYEQAAAAAAAAAAAAAAAAAAAIA1sjZFIlV1uyR/lo3fvFnusV2ByCTFILXFtdN9xu25OXOrJH9dVcdtkxcAAAAAAAAAAAAAAAAAAACANXVw0QHmoaoOJnlOkhOzfYnIuKKQUZclOT/JeUkuSnLpYO1AkmMH19WTnJzkGhn/dx4tExl3zmaZSCW5e5InJvnxLXIDAAAAAAAAAAAAAAAAAAAAsMbWokgkyeOS3CmTl4jU0PNbkrxp8PmeJB/s7v+c9OCqqiTXT3JaklsmuU2SOyT5iiSnjDl7XL7NMpH/VVUv7e5/mfR8AAAAAAAAAAAAAAAAAAAAANbDyheJVNVVkvzvHL1EZPhdJ/nnJM9N8vLuPm8v53d3Jzl3cJ05ku22SR6Y5JuS3G0oy2ZxyHCmJDkmyW8kufteMgEAAAAAAAAAAAAAAAAAAACweg4sOsAcPDzJdQf3W5WI1OD6iyRf0t1f293P3muJyHa6+13d/ZTuvnuS2yT5wySX5nB5yGjBSZLctaoeNMtcAAAAAAAAAAAAAAAAAAAAAOw/61Ak8qgt1jeLOirJR5N8TXd/e3e/a17BjgjT/d7uflySmyZ5cQ6XnvSY8R+aWzAAAAAAAAAAAAAAAAAAAAAA9oWVLhKpqhskuWsOF4Zs2nyuJG9K8mXd/cr5J7yy7j63u781yXckuXhzeeizkty7qm60iHwAAAAAAAAAAAAAAAAAAAAALKeDiw4wY/ces7ZZxtFJ/j3Jfbv7grmmmkB3/1lVfTTJPyQ5YeR1JXlIkt+aezAAAAAAAAAAAIAVd7OPvmTREQCAFXFo0QEAAAAAgLVzYNEBZuwrRp576P6iJN+6jCUim7r7tUn+ZzaKQ0bda75pAAAAAAAAAAAAAAAAAAAAAFhmq14kcssxa5WNQpHf6u73zznPjnX3XyR5cQ6XifTg/h4LCwUAAAAAAAAAAAAAAAAAAADA0ln1IpGbZqN4I0OfSXJJkt+cf5xd+9kkh0bWrlFVN1hEGAAAAAAAAAAAAAAAAAAAAACWz6oXiZw88lzZKBT5++4+f+5pdqm735vkVdnIP+xm808DAAAAAAAAAAAAAAAAAAAAwDJa9SKRq22x/o9zTTEdfzNm7cZzTwEAAAAAAAAAAAAAAAAAAADAUlr1IpHaYv1tc00xHW8Zs3b1uacAAAAAAAAAAAAAAAAAAAAAYCmtepHIRVusnz3XFNPx/jFrV517CgAAAAAAAAAAAAAAAAAAAACW0qoXifzXFuufm2uK6fjsmLXj554CAAAAAAAAAAAAAAAAAAAAgKW06kUiH0pSY9Yvn3eQveruS8YsXzr3IAAAAAAAAAAAAAAAAAAAAAAspVUvEjlri/WrzTXFFFTVcWOWp14kUlWnVNXpVXX6tPcGAAAAAAAAAAAAAAAAAAAAYHZWvUjkbVusX3WuKabj2DFrF83gnBcm+WCSs2ewNwAAAAAAAAAAAAAAAAAAAAAzsupFIm/eYv16c00xHePKT86bwTm3SFKDCwAAAAAAAAAAAAAAAAAAAIB9YtWLRM5M8pkx61805xzTcPKYtakWiVTVCUlOm+aeAAAAAAAAAAAAAAAAAAAAAMzHSheJdHcn+fskNfLqxguIs1fXHLP2qSmfcfNc+W8FAAAAAAAAAAAAAAAAAAAAwD6w0kUiA88fs3a7uafYu+uNWfvQlM+4xZT3AwAAAAAAAAAAAAAAAAAAAGBO1qFI5B+TnDO47ySV5C4LS7N7Nxp5Pr+7L5zyGTef8n4AAAAAAAAAAAAAAAAAAAAAzMnKF4l096Ekv52NApFNt62q4xeTaNdGi0TOnsEZt5jBngAAAAAAAAAAAAAAAAAAAADMwcoXiQw8LUcWbxxMct8FZdmtWw4+K0kneecMzlAkAgAAAAAAAAAAAAAAAAAAALBPrUWRSHdfmuT7Nx8Hnw9dUJzduk0OZ0+Sf5vBGbcYOQMAAAAAAAAAAAAAAAAAAACAfeLgogPMWlXdJRslHEnyliR3zkZZxjdX1Q0XFmznbj7y/CVV9etJrpXkpCTHTOGMG0SRCAAAAAAAAAAAAAAAAAAAAMC+tPJFIkkekeT7R9YqyVWS3HP+cXatRu4fuaggAAAAAAAAAAAAAAAAAAAAACyfdSgSSY4s4djUW6wvq9G8s8jeM9gTAAAAAAAAAAAAAAAAAAAAgDlYlyKR5HBJRo1Z249mkb1mtC8AAAAAAAAAAAAAAAAAAAAAM7ZORSLJkSUiteXU/rDf8wMAAAAAAAAAAAAAAAAAAAAwRQcWHQAAAAAAAAAAAAAAAAAAAAAA2DtFIgAAAAAAAAAAAAAAAAAAAACwAg4uOsAC9KIDAAAAAAAAAAAAAAAAAAAAAMC0rWORSC06wBJTsgIAAAAAAAAAAAAAAAAAAACwT61bkUgneUOSDyw6yJJ6eBStAAAAAAAAAAAAAAAAAAAAAOxL61QkUtkoEvmR7n7zosMso6r68iS3XnQOAAAAAAAAAAAAAAAAAAAAAHbuwKIDzNnFSd666BBL7C3ZKFwBAAAAAAAAAAAAAAAAAAAAYJ9ZpyKRTvKv3X35ooMssTMXHQAAAAAAAAAAAAAAAAAAAACA3VmnIpEked2iAyy5tyw6AAAAAAAAAAAAAAAAAAAAAAC7s25FIq9fdIAl97Ykh5L0ooMAAAAAAAAAAAAAAAAAAAAAsDMHFx1gDt6f5NWDe0UiR9HdF1XVe5LcNspEAAAAAAAAAAAAAAAAAAAAAPaVlS8S6e6nJnnqonPsIz+Y5PRFhwAAAAAAAAAAAAAAAAAAAABgZ1a+SISd6e5XLjoDAAAAAAAAAAAAAAAAAAAAADt3YNEBAAAAAAAAAAAAAAAAAAAAAIC9UyQCAAAAAAAAAAAAAAAAAAAAACtAkQgAAAAAAAAAAAAAAAAAAAAArABFIgAAAAAAAAAAAAAAAAAAAACwAg4uOsCyqqrjk3xJktsmOS3JDZKckuTEJCckOS5JDX2lu/tr5p0TAAAAAAAAAAAAAAAAAAAAABJFIkeoqrsn+R9JHpCNApFjJv1qkp5VLgAAAAAAAAAAAAAAAAAAAADYztoXiVTV1ZJ8T5LvTXLzzeUdbDGzApGqekSSrx88vrO7nzSrswAAAAAAAAAAAAAAAAAAAADY39a2SKSqDiT5wSQ/neSUXLk8ZGYFITtwXJJvyyBLVb2yu9+w2EgAAAAAAAAAAAAAAAAAAAAALKMDiw6wCFV18yRvSPKbSa6djRKRHrkyWN/umqW3DcdO8oszPg8AAAAAAAAAAAAAAAAAAACAfWrtikSq6h5J3pzkLjmyQCSZb0nIJN6Vw9mS5D5VdadFhQEAAAAAAAAAAAAAAAAAAABgea1VkUhV3TPJPyQ5OYdLRJLlKQ45Qnd/PsnHRpa/axFZAAAAAAAAAAAAAAAAAAAAAFhua1MkUlU3T/KXSU7MRoFIZ0kLREaclcOlJ5Xk26rq4GIjAQAAAAAAAAAAAAAAAAAAALBs1qJIpKoOJHlukmtmo5Aj2bpApHdwzcNZI88nJ/maOZ0NAAAAAAAAAAAAAAAAAAAAwD6xFkUiSb4/yV2zdYnIaDlITXjNwzlj1r5hTmcDAAAAAAAAAAAAAAAAAAAAsE8cXHSAWauqE5L8VMaXiPTw6ODzkiTvSvLOJB9Jcu7g+lSSiwfXJUkem+SHZhb8sI8P3fcg533mcC4AAAAAAAAAAAAAAAAAAAAA+8jKF4kkeViS6+dwCcem4WKRTyf58yQvTfKG7r5ku02r6r+mnHMrHx+zdouqul53f2JOGQAAAAAAAAAAAAAAAAAAAABYcutQJPLIkefhApHzkvxCkqd398XzDLUD526xfpckL59nEAAAAAAAAAAAAAAAAAAAAACW14FFB5ilqjopyT1yuDyks1EgUkn+Kcltu/v3l7hEJEk+s8X67eeaAgAAAAAAAAAAAAAAAAAAAICldnDRAWbsq5Mck8NFIjW4/7sk39zdly0q2A5ctMX6beaaAgAAAAAAAAAAAAAAAAAAAICldmDRAWbszmPWPpTkjH1SIpJsXSRy+lxTAAAAAAAAAAAAAAAAAAAAALDUVr1I5PZD95Wkk/xcd1+woDy7cfHIc2fjt5y2gCwAAAAAAAAAAAAAAAAAAAAALKlVLxK58cjzBUleuIgge3D8FuvXnGsKAAAAAAAAAAAAAAAAAAAAAJbaqheJnJqkk9Tg843dfeliI+3YVbdYP3GuKQAAAAAAAAAAAAAAAAAAAABYaqteJHLSyPP7FpJib66zxfqxc00BAAAAAAAAAAAAAAAAAAAAwFJb9SKRE0eeP7uQFHtziy3WL5lrCgAAAAAAAAAAAAAAAAAAAACW2qoXiVw+8nzcQlLsze22WP/8XFMAAAAAAAAAAAAAAAAAAAAAsNRWvUjkv0eer7OQFHvzNVusXzjXFAAAAAAAAAAAAAAAAAAAAAAstVUvEvnc4LOTVJIvWWCWHauqk5N8ZTbyf2F58PzxRWQCAAAAAAAAAAAAAAAAAAAAYDmtepHIOdko3th0x6q6zoKy7MZjkpwwuK+Rdx+ZcxYAAAAAAAAAAAAAAAAAAAAAltiqF4l8cOT5QJJHLyLITlXVSUmekKS3GBn9bQAAAAAAAAAAAAAAAAAAAACssVUvEnnb0H0nqSQ/WlWnLCjPTvxKklMH9zXm/VvnmAUAAAAAAAAAAAAAAAAAAACAJbfqRSKvH7N2SpKnzzvITlTVGUm+P4fLT8Z58/wSAQAAAAAAAAAAAAAAAAAAALDsVr1I5N+SfHroebOY40FV9UdVtVVJx8JU1TckeUY2sg4bfj6nuz80v1QAAAAAAAAAAAAAAAAAAAAALLuVLhLp7kNJXpyN8pAMPjfLRL4rycuq6roLinclVfXjSV6Y5LjNpdGRbOT/y3nmAgAAAAAAAAAAAAAAAAAAAGD5rXSRyMCzR56Hy0Tun+SdVfXDVXX83JNtBqr6yqp6Q5JfSXLsUL6t/MVcggEAAAAAAAAAAAAAAAAAAACwb6x8kUh3vynJq3O4QCQ5skzklCS/meRjVfUbVfUV88hVVSdX1SOq6nVJXpPkriMZh/XQuzd095nzyAgAAAAAAAAAAAAAAAAAAADA/nFw0QHm5OeyUSYybLRY5FpJHp/k8VX1uSRvTPLuJO9P8oEkH0pyYZL/HlwTqaprJrnR4Do9yW2T3DnJlyU5Zuj8jOTZyq9MejYAAAAAAAAAAAAAAAAAAAAA62MtikS6+7VV9cwkj85GWcdmUcdmmchogcc1ktx3cE2sqs7Oxt/0xCRXSXLC0caHI45ZG363mfMfuvvvdpIJAAAAAAAAAAAAAAAAAAAAgPWwFkUiA09Ics8kN8mVy0SSIwtFhte3M7zPF+0gzyRnDc9cmOSxO9gfAAAAAAAAAAAAAAAAAAAAgDVyYNEB5qW7P5vkwdko5EiOLOlINso8Nq/N99tdVzpmB9fwmWMjD81ckeQ7u/vD2/9SAAAAAAAAAAAAAAAAAAAAANbR2hSJJEl3vyvJA5JcsLm0xWhNeG1nr9/f9ITuftkO5gEAAAAAAAAAAAAAAAAAAABYM2tVJJIk3f36JF+T5NxslHl0ti4U2andFoUM28xTSQ4leUx3/+504gEAAAAAAAAAAAAAAAAAAACwqtauSCRJuvstSe6Y5BU5XPgxzUKR3Rg+v5Kck+Te3f3MhSUCAAAAAAAAAAAAAAAAAAAAYN9YyyKRJOnuT3f3/ZOckeSjuXKhyDxKRUbPqiSXJvntJHfo7tfNIQMAAAAAAAAAAAAAAAAAAAAAK2Bti0Q2dfefJ7lVkscmeW82yjzGlYrspVxk3D7D5SGV5IIkf5DkVt39hO6+YJdnAQAAAAAAAAAAAAAAAAAAALCGDi46wDLo7ouT/FGSP6qqr0zy0CTflORGo6PZfZlIcrigZNNnk/xTkr9J8uLu/vwe9gYAAAAAAAAAAAAAAAAAAABgjSkSGdHdr0/y+iSPr6qbJrlHki9Pctskt0py/d1sm+TcJGcneXeStyZ5S5K3dfcV08gNAAAAAAAAAAAAAAAAAAAAwHpTJHIU3X12Nso/nr25VlUnJLlekusmOSXJCUmOT3JckkNJLh1cFyY5b3B9orsvnWt4AAAAAAAAAAAAAAAAAAAAANaKIpEd6u6Lk3xocAEAAAAAAAAAAAAAAAAAAADAUjiw6AAAAAAAAAAAAAAAAAAAAAAAwN4pEgEAAAAAgP/Pzr1HWXrXZaJ/vt2dK0kIJNxJIkTkdiCAIDePGIarIKCiKCrIMONSRMAR1FlyGTwojDgjICBzvIE6onKNikhmHIXBBQEOBEIioIEYCDBcGxLNrcn3/FEVU+lU136rq969d731+ay1V3ft/dT7e/bbVVl75Y8HAAAAAAAAAAAAAGACDIkAAAAAAAAAAAAAAAAAAAAAwAQYEgEAAAAAAAAAAAAAAAAAAACACTAkAgAAAAAAAAAAAAAAAAAAAAATYEgEAAAAAAAAAAAAAAAAAAAAACbAkAgAAAAAAAAAAAAAAAAAAAAATMC+RRdYtKo6MclpSU5JclySY5Icu/rnUUmuTHJFkstXH19JckmSS7r7KwuoDAAAAAAAAAAAAAAAAAAAAAA3sGuGRKrqiCTfmuR+Se6f5C5JTs3KeMjhXvPKJBclOXfN433dvX8rXQEAAAAAAAAAAAAAAAAAAABgsyY9JFJVJyV5fJInZGU85Mi1L2/DEUcnuVOSO66ekSTXVNX7k7wjydu7+33bcA4AAAAAAAAAAAAAAAAAAAAAbGiSQyJV9dgkP5nkwUn2Xvv0OtHeriPX/H1vkvuuPp5fVZ9K8ttJXtvdn9+m8wAAAAAAAAAAAAAAAAAAAADgevYsusB2qao9VfXDVXVekjcneWhWhlJq9dHrPLLm9cN5XOvg667N3D7JLye5uKr+uKruNMLbBwAAAAAAAAAAAAAAAAAAAGCXm8SQSFU9MMl5SX4/yV2z/nhIsvEYyGEdfYjrrTcssi/J9yc5r6p+r6pO2+LZAAAAAAAAAAAAAAAAAAAAAPCvdvSQSFXduKr+W5J3JrlTbjjkkWzfaMjgWuucuXZQZG+SJyU5v6qePqdOAAAAAAAAAAAAAAAAAAAAAEzcvkUXOFxVdfckZyU5Ndcf7EjmNxoyxKHGTY5N8vKqelySp3T3pxfQbUerqpOTPCzJGUnukuSbk9w4yQlJjk5yWZKvJ/likvNXH+9O8p7uvmYRnQEAAAAAAAAAAAAAAAAAAADGsiOHRKrqe5O8LsmNVp9axgGRgx1qUOTBSd5fVY/u7g8spNkOUlXHJnlKkicmuV+SPRvEb7z6OCXJvdY8/6WqOivJb3T3h8fqusyq6pZJ7pbk9Kzcn1NX/7xFkmMOeiTJlauPryX5wurjk0k+luSCJO/v7svn+BYAAAAAAAAAAAAAAAAAAACAg+y4IZGqenqSl2VlQKLXvrSQQpt38KBIJbl5kr+tqid2958trNkSq6pjkvx8kp9OctMtXu7kJE9N8tSq+h9JfqG7P7jFay6lqqokd0hynyT3TnJGVgZETt7kpfZlZbjnpklut87rV1fVh5K8Lcmbuvv8wy4NAAAAAAAAAAAAAAAAAAAAHJY9iy6wGVX15CQvz/VHRCqHPyLS2/Q4HNf2vvYaxyZ5U1U9/jCvN1lV9ZAk5yV5QbY+InKwhyZ5X1X96upYyWRU1UuSfDXJx5P8YZJnJTkzmx8RGeKIJN+W5IVJPlpV/19VPbmqjhzhLAAAAAAAAAAAAAAAAAAAAGAd+xZdYKiq+p4kv53rxjeSzQ+IHGr043CHSK695lauu3ZMZG+SP6iqL3b3O7fQaTKq6rlJfimz7+W/JDknyYVJvpyVe3lSkrsluUc2/lnfm+Q5Sc6sqsd09+e2WHtZ3CnJjRd09r2SvDbJ86vq57v7jQvqAQAAAAAAAAAAAAAAAAAAALvGjhgSqao7JHldVgYfNjsicvDIx9rvuyLJp5NcvPr4XFYGKS5f/fOqJEeueRydlXGKk1f/vGWS05OccIgz1569Ud+1YyJHJXlrVT2wuy+Y/famqar2JvndJE+aEf1AkpcmeUt3X32Iax2f5MlJ/kOS221wrXsneV9VPaK7z99860m4PMmHk1yU634fKskxSW6e5LQkd88Nf+YP5fZJ3lBVb03y1O7+yjb3BQAAAAAAAAAAAAAAAAAAAFYt/ZBIVR2R5PVJjsvmRkTWG/H4pyRnJ3l/kvcl+Wh3X7MNHU/OyqDIPZPcJ8m3Jblzkj1ruszqvnZM5MZJ/riq7t3dV2213w71m9l4RORAkucmeemsf8PuvjTJK6vqd5K8JMkzNojfNsk7quoB3X3xJjvvRFcn+R9Jzsp1vxMHNvqGqqqsjIk8Nsm/S3LKgHMel+ReVfWw7v74lhoDAAAAAAAAAAAAAAAAAAAA61r6IZEkL05yrwwfETk4d1GSP0ry5u7+4La3S9LdX0rypSTnJHlN8q/jIt+V5NFJHpnkRofot1atef2uSX4lybPH6LzMqur5Sf79BpEDSX6ou9+4met29+VJnllVn0jyGzn0z9JtkpxdVffr7v2bOWMH+WCSV2fl9+Krm/nG7u4kH07y4ar6lSQ/kZWf1eNnfOupSf53Vf2b7j7vMDoDAAAAAAAAAAAAAAAAAAAAG9iz6AIbqao7J3lmho2I9OqjVh/vSfL9Sb65u5871ojIIct0f6m7f7+7fyDJrZM8PclHct17uLbvut++mntWVX376GWXSFU9KMkLZsR+ZrMjImt196uSPHdG7I5ZHYWZmE7yqO7+1u7+nc2OiNzgYt0HuvuVSb41yYUDvuVmSd5WVbfayrkAAAAAAAAAAAAAAAAAAADADS31kEiSX0uyd/Xvs0ZErs18PMkju/uB3f2m7r5mzIJDdPel3f3q7r5Hku9JckGuPyiy1tr3uSfJfxm/4XKoqhOSvC4b/1z+xepwxVa9OMlfzsg8oaqevA1nLZN/6O5Z73vTuvsfkpyZ5MsD4qckeX1VbfQ7DQAAAAAAAAAAAAAAAAAAAGzS0g6JVNVDkzwyK0Mbhxoc6DWvX5XkOUnu1t3vmEvJw9DdZyW5e5KnJfnnrHRfb0zk2ufuXVWPn1/DhfqlJKdt8PrVSZ61HQd1dyf5qSRXzIj+elXddDvOXBLnjHXh7v50kp8cGH/QJrIAAAAAAAAAAAAAAAAAAADAAEs7JJLk52e8fu3QRiX5ZJIHdPd/6e4D49baul7xmiT3TPLerD8mklw3kvKiqlrmf6stq6rbZfawxO9094XbdWZ3X5Tk5TNiN0nyvO06cwm8b8yLd/cbkrxlYPwFVXXsmH0AAAAAAAAAAAAAAAAAAABgN1nKcYqqukuSB+e6IY2DrR0R+V9J7tXdH5pTvW2zOorxoCR/mhuOiax933dI8ug5VluEFyU5ckbmlSOc+4okV8/IPG116GQKzpnDGS8bmLt5kh8fsQcAAAAAAAAAAAAAAAAAAADsKks5JJLk6Ru8du24SCV5e5JHdffX59JqBN19dXf/YJJX5YZjImv9xPxazVdVnZrkCTNi7+nu87f77O7+bJI3zYgdmeRZ2332AlyZ5MNjH9Ld70pywcD4j41YBQAAAAAAAAAAAAAAAAAAAHaVpRsSqaojk/xI1h/UuHZEpJOcneSx3X3lHOuNprt/Osmbc8MxkWvf80Or6rRFdJuDpyXZOyPz5hHP/6MBmadU1QkjdpiHc7v7qjmdNWuc5VpnVNUdRm0CAAAAAAAAAAAAAAAAAAAAu8TSDYkkeXCS41b/XmueXzuucWGSJ3T3gbm1mo8fSfKh1b9fOyByrT1JnjT3RiOrqqOSPHVA9M9GrHF2kq/PyByf5MkjdpiHc+Z41vs3kf3OsUoAAAAAAAAAAAAAAAAAAADAbrKMQyKPXee5a0dEKsllSR7T3V+bX6X56O4rsjJWce1ASh8UefR8G83Fw5OcPCNzSXd/YqwC3X1lkr8eEH3iWB3m5H1zPGszQyL3H60FAAAAAAAAAAAAAAAAAAAA7CLLOCTymNxwQCNZGRHpJM/r7o/Nt9L8dPdHk7w4K+/3X59e/fpbq+pmCyk2nscPyPzd6C2SvxmQuW9VnTp6k+3zqSQfXvN4z7wO7u7PJxk69vPNY3YBAAAAAAAAAAAAAAAAAACA3WKphkSq6o5JbnXtl6t/Xjui0Uk+kOQVC6g2b7+a5EvrPF9JHjnnLqOpqiOSfPeA6HvH7pLknQMylWHDJ0uhu3+mu++x5vHJOVcYOiTyTWOWAAAAAAAAAAAAAAAAAAAAgN1iqYZEktx/xus/1d09lyYL1N3/kuRluW5MZa0z59tmVPdPcuKA3Hkj90iSC5JcMSD38LGLTMjQIZETRm0BAAAAAAAAAAAAAAAAAAAAu8SyDYnc76CvOytjGp3k7O7+wPwrLcyrklx50HOV5J4L6DKWBw3MnT9qiyTdfWDgOQ+sqiPG7jMRQ4dEbjRqCwAAAAAAAAAAAAAAAAAAANglln1IZK0Xzq3FEujuryV5e1bGQ5KVMZUkufOEhiyGDIl8rbs/N3qTFR8ZkLlRkvuMXWQi9g7MXTNqCwAAAAAAAAAAAAAAAAAAANgllmZIpKr2JLlTrhvM6Fw3onFud793IcUW60/WeW5fkrvNu8h2q6q9Se4/IHrx2F3W+OTA3LeP2mI6hg7eXD5qCwAAAAAAAAAAAAAAAAAAANgllmZIJMk3JTly9e+15vlO8vtzb7Mczs51wypr3XXeRUZwhyTHDsgt45DIGaO2mI4h/75Jsn/MEgAAAAAAAAAAAAAAAAAAALBbLNOQyLes+fva8YwDSf77nLsshe7+apJPrPPSqfPuMoK7Dcx9ZtQW1/epgbm7j9piOk4amPvsqC0AAAAAAAAAAAAAAAAAAABgl1jWIZEkqawMipzT3V9aQJ9l8Z6s3Iu1brOIItts6BjHF0dtcX2fG5i7U1UdOWqTHa6qKslNBsYvGrEKAAAAAAAAAAAAAAAAAAAA7BrLNCRyyiGe/59zbbF8LljnuSkMidx5YG6eIzKfH5jbl+T0MYtMwC2TDB1b+ciYRQAAAAAAAAAAAAAAAAAAAGC3WKYhkZsd4vndPiRy0UFfV6YxJHLawNzchkS6+4okXxsYH9p/t/qmTWQ/OFYJAAAAAAAAAAAAAAAAAAAA2E2WaUjk5us8d3WS9827yJK5aM3fe/XPE+dfY9udOjC3f8wS6/jywNzQ/rvVXQbmrkry7jGLAAAAAAAAAAAAAAAAAAAAwG6xTEMiN1vz91r98+PdfWARZZbI/1nnuaPn3mIbVdXRuf6/90YuHbPLOvYPzJ02ZokJuOfA3Lu7+19GbQIAAAAAAAAAAAAAAAAAAAC7xDINiZyUpNd83Uk+sqAuy2S9kYUdPSSS5Fa5bixmlmUdErnNmCUm4AEDc386agsAAAAAAAAAAAAAAAAAAADYRZZpSGS9cYzz595i+aw3JHLM3Ftsr5tuInvZaC3Wt39g7iZjltjJqupWSe45IHpFkjeOXAcAAAAAAAAAAAAAAAAAAAB2jWUaEjlqnecumXuLJdPdl6/z9Hr3aifZzAjHFaO1WN9693s9hkQO7bsG5v6ku788ahMAAAAAAAAAAAAAAAAAAADYRZZ9SOSzc2+xM9SiC2yRIZFpe9TA3MvGLAEAAAAAAAAAAAAAAAAAAAC7zTINiRy5znOXzL0F83DiJrJXjlXiEIYOiZw4ZomdqqpOTPKwAdGzuvvccdsAAAAAAAAAAAAAAAAAAADA7rJv0QXW2JekD3pu/wJ6ML6jN5G9arQW6xs6XLKZ97Cb/HiSG83IfCPJ8+bQJUlSVTdPcrN5nbdDnb7oAgAAAAAAAAAAAAAAAAAAAGzdMg2JrOeKRRdgFEdsIvuN0Vps7bzNvIddoar2JXn6gOhruvu8sfus8bQkL5jjeQAAAAAAAAAAAAAAAAAAALAQexZdYAZDItO0mRGOa0Zrsb6hQyJHjtpiZ/q+JKfMyHw2yXPn0AUAAAAAAAAAAAAAAAAAAAB2naUeEuluQyLTNIUhkc28h8mrqiOTvHBA9Me7e//IdQAAAAAAAAAAAAAAAAAAAGBX2rfoAuxKgwdsurvHLLLekQNzSz3CswDPTnLHGZlXd/fb5lHm4HOTvGEB5+4kpyc5a9ElAAAAAAAAAAAAAAAAAAAA2BpDIizCgaHBqtrT3deMWeYgewfmrh61xQ5SVacm+cUZsXOT/Oz4bW6ou7+Q5AuLOHunqKpFVwAAAAAAAAAAAAAAAAAAAGAb7Fl0AXalqzaRHTrssV0MiWzeq5Icu8HrX0zyuO6+Yk59AAAAAAAAAAAAAAAAAAAAYFcyJMIibGaEY94/o4ZENqGqnp3k0RtErkzy+O7+pzlVAgAAAAAAAAAAAAAAAAAAgF3LkAiLsJkRjn2jtVjfEQNzV43aYgeoqm9P8uINIp3kSd39rjlVAgAAAAAAAAAAAAAAAAAAgF3NkAiL8M+byB41Wov1HTMwd9moLZZcVd0iyZ9k46GXn+ruP51TJQAAAAAAAAAAAAAAAAAAANj1DImwCF/dRPbo0Vqsb+iQyP4xSyyzqjouyZ8nufUGsWd292/OqRIAAAAAAAAAAAAAAAAAAAAQQyIsxmaGRI4arcX6hg6JbOY9TEZVHZHkTUnus0HsZ7v7FXOqBAAAAAAAAAAAAAAAAAAAAKwyJMIibGaE40ajtVjfcQNz+8cssYyqqpK8NsnDNoj9Qnf/1/k0AgAAAAAAAAAAAAAAAAAAANbat+gCG6mqU5LUonuw7b60iezxo7VY300G5jbzHqbiFUmeeIjXOsmzuvsVc+wDAAAAAAAAAAAAAAAAAAAArLGMQyK15s+LFthj2VRWxhqm4AtJrk5yxIDsvIdEThyY+/SYJZZNVf1Gkqcf4uVvJHlqd79ujpUAAAAAAAAAAAAAAAAAAACAgyzjkMhaNTvCTtPd11TVJUm+aUDckMiCVdWrkjztEC9fmeSHuvstc6wEAAAAAAAAAAAAAAAAAAAArGPZh0R60QWWxBQHVS7OsCGRk0bu8a+qak+SkwfGLx6zyzKoqkryyhx6ROTSJN/b3f9zfq0AAAAAAAAAAAAAAAAAAACAQ1n2IZEpDmiw4qIk3zEgN3TYYzuclOG/ExeN2GPhqmpvkt9O8mOHiHwuyXd197nz6gQAAAAAAAAAAAAAAAAAAABsbNmHRJiu8wfm5jkkcouBuUuTXDxmkUWqqqOSvD7J9xwickGSR3b3ZO8BAAAAAAAAAAAAAAAAAAAA7ESGRFiU8wbmbjlqi+s7dWDugu7uUZssSFUdl+StSf7NISLvSvK47v7q3EoBAAAAAAAAAAAAAAAAAAAAg+xZdAF2raFDIqeM2uL6bjcw99FRWyxIVZ2U5K9z6BGRP07yMCMiAAAAAAAAAAAAAAAAAAAAsJwMibAQ3f2ZJF8cED117C5r3H5g7twxSyxCVZ2W5N1Jvu0QkV9J8sTuvnJ+rQAAAAAAAAAAAAAAAAAAAIDNWOYhkfa43mOK3j0gc5uqOnL0Jiu+ZWDuf4/aYs6q6owk70lyp3VevjrJv+3uX+zuqf4cAgAAAAAAAAAAAAAAAAAAwCQs85AI0/euAZm9Se44dpFV9xiQ2Z/kvHFrzE9VPTgr/w63Wufl/Uke0d2/N9dSAAAAAAAAAAAAAAAAAAAAwGHZt+gCh9BJvpLkskUXWRInJLnJokuM4J0Dc3fNyOMdVXXTJLcdEP277r5mzC7zUlU/mOR1SY5c5+VPJXlUd//9fFsBAAAAAAAAAAAAAAAAAAAAh2tZh0SS5Me6+22LLrEMquqHk/zBonuM4Nwkn01y6xm5eyb545G7fNvA3CR+JqvqZ5O8NEmt8/I5SR7T3V+YbysAAAAAAAAAAAAAAAAAAABgK/YsusAGPrHoAkvk44suMIbu7iRvGRC939hdkpw5INNJ3jpyj1FV1Z6qelmSX8v6IyJvSnKmEREAAAAAAAAAAAAAAAAAAADYeZZ1SORAkk8uusQSmfKoypsGZO5dVUeM3OM7B2Te092fG7nHaKrqyCSvT/LMQ0R+Lcn3d/fl82sFAAAAAAAAAAAAAAAAAAAAbJdlHRK5qLu/segSy6K7v57k/yy6x0jeleTTMzLHJvmOsQpU1a2S3GdA9A/G6jC2qjohyV8l+YF1Xv5Gkp/s7ud0d8+3GQAAAAAAAAAAAAAAAAAAALBdlnFIpJN8YtElltAnktSiS2y31cGY1wyIPmrEGt+b2ff2a0n+cMQOo6mqW2ZlsOXMdV7+5ySP7e4h/wYAAAAAAAAAAAAAAAAAAADAElvGIZHEkMh6pnxPfjvJVTMyj6+qsX5ef3RA5nXdfdlI54+mqk5P8ndJzljn5S8mObO73zbfVgAAAAAAAAAAAAAAAAAAAMAYDInsHJO9J939hSS/NyN2SpKHb/fZVXWfJPedEbsyyX/dxjNPrqpfqqoPV9Wlq48PVdULq+qkbTznHlkZEbn9Oi9/MskDuvv923UeAAAAAAAAAAAAAAAAAAAAsFiGRHaOjy+6wMhemORfZmSeOcK5Pzcg8+ru/qftOKyqvjvJPyZ5XpK7Jzlu9XGPJM9PcuFqZqvnfEeSdya5xTovfyDJ/bv7H7d6DgAAAAAAAAAAAAAAAAAAALA8lm1IpFb/NCRyQ5O+J939uSQvmxF7+OpAxraoqgckefyM2P4kv7xN5z08yVuT3HiD2I2TvLWqHraFcx6T5B1JTljn5b9KcmZ3f+Fwrw8AAAAAAAAAAAAAAAAAAAAsp32LLrDGnyXpJAe6+5JFl1lCF2ZlhKJm5HayF2Vl2ONbNsi8oqq+rbuv2spBVXVMktcMiP50d395K2etnnejJK/NsPGePUleW1Wnd/flmzznbknelEP/bj8iyaVVS/lj9MLu/k+LLgEAAAAAAAAAAAAAAAAAAAA71dIMiXT34xbdYZl199VJvnfRPcbU3ZdX1ZOTvDvJ3kPEzkjyK0mevcXjXpHkbjMyb+zuP9ziOdd6UpJbbiJ/qyQ/kuS3NnnOSVmi32sAAAAAAAAAAAAAAAAAAABgfvYsugCs1d3vTfIfZ8R+tqqecbhnVNV/TvLvZsQuSPLjh3vGOr7rML7n0dt4PgAAAAAAAAAAAAAAAAAAADBxhkRYOt390iSvnhF7WVX9alUdMfS6VXXjqvrvSX5uRvSSJI/o7q8OvfYAtzuM77n9Np4PAAAAAAAAAAAAAAAAAAAATJwhEZbVM5K8doPXK8lzknyoqn60qo46ZLDqJlX17CQXJHnijHM/leQh3f3pTfYdQy+6AAAAAAAAAAAAAAAAAAAAALBz7Ft0AVhPd38jyVOq6uIkz98getckv5/k/62q9yb5hyRfTrI3yclJ7p7kHqtfz/LeJI/p7i9uofqhfHK162a/BwAAAAAAAAAAAAAAAAAAAGAQQyIste5+QVWdk+Q1SU7ZIHp0ku9cfWzWlUl+OclLuvvqw/j+If4iyXdv8nv+fIwiAAAAAAAAAAAAAAAAAAAAwDTtWXQBmKW7/zLJXZP8WpLLtvHS1yR5U5J7dvf/M+KISJL8QZLPbCL/6SR/OFIXAAAAAAAAAAAAAAAAAAAAYIIMibAjdPel3f2cJKcleV6SC7ZwuX9K8vIkd+zux3f3329Hx4109+VJfjTJgQHxA0me1N1XjtsKAAAAAAAAAAAAAAAAAAAAmJJ9iy4Am9HdX0nyoiQvqqpvTvLQJHdP8n8lOSXJ8auPa5Jcuvr4TJLzVx/v6u6PLKB6uvtvq+oxSf4oyYmHiO1P8sTu/tvDPSNJHc73AgAAAAAAAAAAAAAAAAAAADubIRF2rO7+xyT/uOgem9Hdb18dQHlWksckOT1JJ7kwyVlJXtHdX15cQwAAAAAAAAAAAAAAAAAAAGCnMiQCc7Y6FPK81QcAAAAAAAAAAAAAAAAAAADAttiz6AIAAAAAAAAAAAAAAAAAAAAAwNYZEgEAAAAAAAAAAAAAAAAAAACACTAkAgAAAAAAAAAAAAAAAAAAAAATYEgEAAAAAAAAAAAAAAAAAAAAACbAkAgAAAAAAAAAAAAAAAAAAAAATIAhEQAAAAAAAAAAAAAAAAAAAACYAEMiAAAAAAAAAAAAAAAAAAAAADABhkQAAAAAAAAAAAAAAAAAAAAAYAIMiQAAAAAAAAAAAAAAAAAAAADABBgSAQAAAAAAAAAAAAAAAAAAAIAJMCQCAAAAAAAAAAAAAAAAAAAAABNgSAQAAAAAAAAAAAAAAAAAAAAAJsCQCAAAAAAAAAAAAAAAAAAAAABMgCERAAAAAAAAAAAAAAAAAAAAAJgAQyIAAAAAAAAAAAAAAAAAAAAAMAGGRAAAAAAAAAAAAAAAAAAAAABgAgyJAAAAAAAAAAAAAAAAAAAAAMAEGBIBAAAAAAAAAAAAAAAAAAAAgAkwJAIAAAAAAAAAAAAAAAAAAAAAE2BIBAAAAAAAAAAAAAAAAAAAAAAmwJAIAAAAAAAAAAAAAAAAAAAAAEyAIREAAAAAAAAAAAAAAAAAAAAAmABDIgAAAAAAAAAAAAAAAAAAAAAwAYZEAAAAAAAAAAAAAAAAAAAAAGACDIkAAAAAAAAAAAAAAAAAAAAAwAQYEgEAAAAAAAAAAAAAAAAAAACACTAkAgAAAAAAAAAAAAAAAAAAAAATYEgEAAAAAAAAAAAAAAAAAAAAACbAkAgAAAAAAAAAAAAAAAAAAAAATIAhEQAAAAAAAAAAAAAAAAAAAACYAEMiAAAAAAAAAAAAAAAAAAAAADABhkQAAAAAAAAAAAAAAAAAAAAAYAIMiQAAAAAAAAAAAAAAAAAAAADABBgSAQAAAAAAAAAAAAAAAAAAAIAJMCQCAAAAAAAAAAAAAAAAAAAAABNgSAQAAAAAAAAAAAAAAAAAAAAAJsCQCAAAAAAAAAAAAAAAAAAAAABMgCERAAAAAAAAAAAAAAAAAAAAAJgAQyIAAAAAAAAAAAAAAAAAAAAAMAGGRAAAAAAAAAAAAAAAAAAAAABgAgyJAAAAAAAAAAAAAAAAAAAAAMAEGBIBAAAAAAAAAAAAAAAAAAAAgAkwJAIAAAAAAAAAAAAAAAAAAAAAE2BIBAAAAAAAAAAAAAAAAAAAAAAmwJAIAAAAAAAAAAAAAAAAAAAAAEyAIREAAAAAAAAAAAAAAAAAAAAAmABDIgAAAAAAAAAAAAAAAAAAAAAwAYZEAAAAAAAAAAAAAAAAAAAAAGACDIkAAAAAAAAAAAAAAAAAAAAAwAQYEgEAAAAAAAAAAAAAAAAAAACACTAkAgAAAAAAAAAAAAAAAAAAAAATYEgEAAAAAAAAAAAAAAAAAAAAACbAkAgAAAAAAAAAAAAAAAAAAAAATIAhEQAAAAAAAAAAAAAAAAAAAACYAEMiAAAAAAAAAAAAAAAAAAAAADABhkQAAAAAAAAAAAAAAAAAAAAAYAIMiQAAAAAAAAAAAAAAAAAAAADABBgSAQAAAAAAAAAAAAAAAAAAAIAJMCQCAAAAAAAAAAAAAAAAAAAAABNgSAQAAAAAAAAAAAAAAAAAAAAAJsCQCAAAAAAAAAAAAAAAAAAAAABMgCERAAAAAAAAAAAAAAAAAAAAAJgAQyIAAAAAAAAAAAAAAAAAAAAAMAGGRAAAAAAAAAAAAAAAAAAAAABgAgyJAAAAAAAAAAAAAAAAAAAAAMAEGBIBAAAAAAAAAAAAAAAAAAAAgAkwJAIAAAAAAAAAAAAAAAAAAAAAE2BIBAAAAAAAAAAAAAAAAAAAAAAmwJAIAAAAAAAAAAAAAAAAAAAAAEyAIREAAAAAAAAAAAAAAAAAAAAAmABDIgAAAAAAAAAAAAAAAAAAAAAwAYZEAAAAAAAAAAAAAAAAAAAAAGACDIkAAAAAAAAAAAAAAAAAAAAAwAQYEgEAAAAAAAAAAAAAAAAAAACACTAkAgAAAAAAAAAAAAAAAAAAAAATYEgEAAAAAAAAAAAAAAAAAAAAACbAkAgAAAAAAAAAAAAAAAAAAAAATIAhEQAAAAAAAAAAAAAAAAAAAACYAEMiAAAAAAAAAAAAAAAAAAAAADABhkQAAAAAAAAAAAAAAAAAAAAAYAIMiQAAAAAAAAAAAAAAAAAAAADABBgSAQAAAAAAAAAAAAAAAAAAAIAJMCQCAAAAAAAAAAAAAAAAAAAAABNgSAQAAAAAAAAAAAAAAAAAAAAAJsCQCAAAAAAAAAAAAAAAAAAAAABMgCERAAAAAAAAAAAAAAAAAAAAAJgAQyIAAAAAAAAAAAAAAAAAAAAAMAGGRAAAAAAAAAAAAAAAAAAAAABgAgyJAAAAAAAAAAAAAAAAAAAAAMAEGBIBAAAAAAAAAAAAAAAAAAAAgAkwJAIAAAAAAAAAAAAAAAAAAAAAE2BIBAAAAAAAAAAAAAAAAAAAAAAmwJAIAAAAAAAAAAAAAAAAAAAAAEyAIREAAAAAAAAAAAAAAAAAAAAAmABDIgAAAAAAAAAAAAAAAAAAAAAwAYZEAAAAAAAAAAAAAAAAAAAAAGACDIkAAAAAAAAAAAAAAAAAAAAAwAQYEgEAAAAAAAAAAAAAAAAAAACACTAkAgAAAAAAAAAAAAAAAAAAAAATYEgEAAAAAAAAAAAAAAAAAAAAACbAkAgAAAAAAAAAAAAAAAAAAAAATIAhEQAAAAAAAAAAAAAAAAAAAACYAEMiAAAAAAAAAAAAAAAAAAAAADABhkQAAAAAAAAAAAAAAAAAAAAAYAIMiQAAAAAAAAAAAAAAAAAAAADABBgSAQAAAAAAAAAAAAAAAAAAAIAJMCQCAAAAAAAAAAAAAAAAAAAAABNgSAQAAAAAAAAAAAAAAAAAAAAAJsCQCAAAAAAAAAAAAAAAAAAAAABMgCERAAAAAAAAAAAAAAAAAAAAAJgAQyIAAAAAAAAAAAAAAAAAAAAAMAGGRAAAAAAAAAAAAAAAAAAAAABgAgyJAAAAAAAAAAAAAAAAAAAAAMAEGBIBAAAAAAAAAAAAAAAAAAAAgAkwJAIAAAAAAAAAAAAAAAAAAAAAE2BIBAAAAAAAAAAAAAAAAAAAAAAmwJAIAAAAAAAAAAAAAAAAAAAAAEyAIREAAAAAAAAAAAAAAAAAAAAAmABDIgAAAAAAAAAAAAAAAAAAAAAwAYZEAAAAAAAAAAAAAAAAAAAAAGACDIkAAAAAAAAAAAAAAAAAAAAAwAQYEgEAAAAAAAAAAAAAAAAAAACACTAkAgAAAAAAAAAAAAAAAAAAAAATYEgEAAAAAAAAAAAAAAAAAAAAACbAkAgAAAAAAAAAAAAAAAAAAAAATIAhEQAAAAAAAAAAAAAAAAAAAACYAEMiAAAAAAAAAAAAAAAAAAAAADABhkQAAAAAAAAAAAAAAAAAAAAAYAIMiQAAAAAAAAAAAAAAAAAAAADABBgSAQAAAAAAAAAAAAAAAAAAAIAJMCQCAAAAAAAAAAAAAAAAAAAAABNgSAQAAAAAAAAAAAAAAAAAAAAAJsCQCAAAAAAAAAAAAAAAAAAAAABMgCERAAAAAAAAAAAAAAAAAAAAAJgAQyIAAAAAAAAAAAAAAAAAAAAAMAGGRAAAAAAAAAAAAAAAAAAAAABgAgyJAAAAAAAAAAAAAAAAAAAAAMAEGBIBAAAAAAAAAAAAAAAAAAAAgAkwJAIAAAAAAAAAAAAAAAAAAAAAE2BIBAAAAAAAAAAAAAAAAAAAAAAmwJAIAAAAAAAAAAAAAAAAAAAAAEyAIREAAAAAAAAAAAAAAAAAAAAAmABDIgAAAAAAAAAAAAAAAAAAAAAwAYZEAAAAAAAAAAAAAAAAAAAAAGACDIkAAAAAAAAAAAAAAAAAAAAAwAQYEgEAAAAAAAAAAAAAAAAAAACACTAkAgAAAAAAAAAAAAAAAAAAAAATYEgEAAAAAAAAAAAAAAAAAAAAACbAkAgAAAAAAAAAAAAAAAAAAAAATIAhEQAAAAAAAAAAAAAAAAAAAACYAEMiAAAAAAAAAAAAAAAAAAAAADABhkQAAAAAAAAAAAAAAAAAAAAAYAIMiQAAAAAAAAAAAAAAAAAAAADABBgSAQAAAAAAAAAAAAAAAAAAAIAJMCQCAAAAAAAAAAAAAAAAAAAAABNgSAQAAAAAAAAAAAAAAAAAAAAAJsCQCAAAAAAAAAAAAAAAAAAAAABMgCERAAAAAAAAAAAAAAAAAAAAAJgAQyIAAAAAAAAAAAAAAAAAAAAAMAGGRAAAAAAAAAAAAAAAAAAAAABgAgyJAAAAAAAAAAAAAAAAAAAAAMAEGBIBAAAAAAAAAAAAAAAAAAAAgAkwJAIAAAAAAAAAAAAAAAAAAAAAE2BIBAAAAAAAAAAAAAAAAAAAAAAmwJAIAAAAAAAAAAAAAAAAAAAAAEyAIREAAAAAAAAAAAAAAAAAAAAAmABDIgAAAAAAAAAAAAAAAAAAAAAwAYZEAAAAAAAAAAAAAAAAAAAAAGACDIkAAAAAAAAAAAAAAAAAAAAAwAQYEgEAAAAAAAAAAAAAAAAAAACACTAkAgAAAAAAAAAAAAAAAAAAAAATYEgEAAAAAAAAAAAAAAAAAAAAACbAkAgAAAAAAAAAAAAAAAAAAAAATIAhEQAAAAAAAAAAAAAAAAAAAACYAEMiAAAAAAAAAAAAAAAAAAAAADABhkQAAAAAAAAAAAAAAAAAAAAAYAIMiQAAAAAAAAAAAAAAAAAAAADABBgSAQAAAAAAAAAAAAAAAAAAAIAJMCQCAAAAAAAAAAAAAAAAAAAAABNgSAQAAAAAAAAAAAAAAAAAAAAAJsCQCAAAAAAAAAAAAAAAAAAAAABMgCERAAAAAAAAAAAAAAAAAAAAAJgAQyIAAAAAAAAAAAAAAAAAAAAAMAGGRAAAAAAAAAAAAAAAAAAAAABgAgyJAAAAAAAAAAAAAAAAAAAAAMAEGBIBAAAAAAAAAAAAAAAAAAAAgAkwJAIAAAAAAAAAAAAAAAAAAAAAE2BIBAAAAAAAAAAAAAAAAAAAAAAmwJAIAAAAAAAAAAAAAAAAAAAAAEyAIREAAAAAAAAAAAAAAAAAAAAAmABDIgAAAAAAAAAAAAAAAAAAAAAwAYZEAAAAAAAAAAAAAAAAAAAAAGACDIkAAAAAAAAAAAAAAAAAAAAAwAQYEgEAAAAAAAAAAAAAAAAAAACACTAkAgAAAAAAAAAAAAAAAAAAAAATYEgEAAAAAAAAAAAAAAAAAAAAACbAkAgAAAAAAAAAAAAAAAAAAAAATIAhEQAAAAAAAAAAAAAAAAAAAACYAEMiAAAAAAAAAAAAAAAAAAAAADABhkQAAAAAAAAAAAAAAAAAAAAAYAIMiQAAAAAAAAAAAAAAAAAAAADABBgSAQAAAAAAAAAAAAAAAAAAAIAJMCQCAAAAAAAAAAAAAAAAAAAAABNgSAQAAAAAAAAAAAAAAAAAAAAAJsCQCAAAAAAAAAAAAAAAAAAAAABMgCERAAAAAAAAAAAAAAAAAAAAAJgAQyIAAAAAAAAAAAAAAAAAAAAAMAGGRAAAAAAAAAAAAAAAAAAAAABgAgyJAAAAAAAAAAAAAAAAAAAAAMAEGBIBAAAAAAAAAAAAAAAAAAAAgAkwJAIAAAAAAAAAAAAAAAAAAAAAE2BIBAAAAAAAAAAAAAAAAAAAAAAmwJAIAAAAAAAAAAAAAAAAAAAAAEyAIREAAAAAAAAAAAAAAAAAAAAAmABDIgAAAAAAAAAAAAAAAAAAAAAwAYZEAAAAAAAAAAAAAAAAAAAAAGACDIkAAAAAAAAAAAAAAAAAAAAAwAQYEgEAAAAAAAAAAAAAAAAAAACACTAkAgAAAAAAAAAAAAAAAAAAAAATYEgEAAAAAAAAAAAAAAAAAAAAACbAkAgAAAAAAAAAAAAAAAAAAAAATIAhEQAAAAAAAAAAAAAAAAAAAACYAEMiAAAAAAAAAAAAAAAAAAAAADABhkQAAAAAAAAAAAAAAAAAAAAAYAIMiQAAAAAAAAAAAAAAAAAAAADABBgSAQAAAAAAAAAAAAAAAAAAAIAJMCQCAAAAAAAAAAAAAAAAAAAAABNgSAQAAAAAAAAAAAAAAAAAAAAAJsCQCAAAAAAAAAAAAAAAAAAAAABMgCERAAAAAAAAAAAAAAAAAAAAAJgAQyIAAAAAAAAAAAAAAAAAAAAAMAGGRAAAAAAAAAAAAAAAAAAAAABgAgyJAAAAAAAAAAAAAAAAAAAAAMAEGBIBAAAAAAAAAAAAAAAAAAAAgAkwJAIAAAAAAAAAAAAAAAAAAAAAE2BIBAAAAAAAAAAAAAAAAAAAAAAmwJAIAAAAAAAAAAAAAAAAAAAAAEyAIREAAAAAAAAAAAAAAAAAAAAAmABDIgAAAAAAAAAAAAAAAAAAAAAwAYZEAAAAAAAAAAAAAAAAAAAAAGACDIkAAAAAAAAAAAAAAAAAAAAAwAQYEgEAAAAAAAAAAAAAAAAAAACACdi36AJwuKrq5CQPS3JGkrsk+eYkN05yQpKjk1yW5OtJvpjk/NXHu5O8p7uvWUTnnaKqzkjyoCR3zcq9vU2S47NybzvJpVm5t/+U5KNJPpLk7O6+eCGFAQAAAAAAAAAAAAAAAAAAAEMi7CxVdWySpyR5YpL7JdmzQfzGq49TktxrzfNfqqqzkvxGd394rK47TVXdIcnTk3xPVu7ZRo5KcnKS2yc5c801Ppzk9Un+W3fvH6cpAAAAAAAAAAAAAAAAAAAAsJ6NRhhgaVTVMVX1n5J8Oskrkzwgh//ze3KSpyY5t6rOrqp7zfqGKauqO1fVW5J8LMkzMntEZCNnJHlJkk9X1Uur6vjt6AgAAAAAAAAAAAAAAAAAAADMZkiEpVdVD0lyXpIXJLnpNl/+oUneV1W/WlXHbPO1l1pVHbk6znJuksdle/97cFySZye5oKoevY3XBQAAAAAAAAAAAAAAAAAAAA5h36ILwEaq6rlJfilJzYj+S5JzklyY5MtJ9iY5KcndktwjG/+s703ynCRnVtVjuvtzW6y99KrqZknOSnL/AfFLkrw3yeeTfC3JCUlukeS+SU6d8b23TfLnVfXLSZ7X3X3YpQEAAAAAAAAAAAAAAAAAAIANGRJhKVXV3iS/m+RJM6IfSPLSJG/p7qsPca3jkzw5yX9IcrsNrnXvJO+rqkd09/mbb70zVNW3JPmrbHwvDiT5/SQv6+7zNrjWnZI8I8m/TXLUBtf7xSTfUlVP7O4Dm28NAAAAAAAAAAAAAAAAAAAAzLJn0QXgEH4zG4+IHEjyC0nu291/eqgRkSTp7ku7+5VJ7prkFTPOvW2Sd1TVqZstvBNU1a2TnJ2NR0Q+meTbu/upG42IJEl3f6y7n5bkW5N8aMbx35/kd6uqNtMZAAAAAAAAAAAAAAAAAAAAGMaQCEunqp6f5N9vEDmQ5Ie6+z939zVDr9vdl3f3M5M8PUlvEL1NkrOr6sSh194Jqur4JG9PctoGsY8neWB3n7OZa3f3+Un+7yR/MyP6o0lesplrAwAAAAAAAAAAAAAAAAAAAMMYEmGpVNWDkrxgRuxnuvuNh3tGd78qyXNnxO6Y5DWHe8aSenmSu2/w+leTPKy7P384F+/uf07yqCQfnhH9uap65OGcAQAAAAAAAAAAAAAAAAAAAByaIRGWRlWdkOR12fjn8i+6+5XbcNyLk/zljMwTqurJ23DWwlXVY5M8ZUbsx7v74q2c092XJ/m+JJfNiP5eVd18K2cBAAAAAAAAAAAAAAAAAAAA12dIhGXyS0lO2+D1q5M8azsO6u5O8lNJrpgR/fWquul2nLkoVXVsklfPiP1Nd79xO87r7guT/PKM2C2SvHQ7zgMAAAAAAAAAAAAAAAAAAABWGBJhKVTV7ZL85IzY76yOVGyL7r4oyctnxG6S5HnbdeaC/EySW8/I/MdtPvPXk1w8I/MjVXWPbT4XAAAAAAAAAAAAAAAAAAAAdi1DIiyLFyU5ckbmlSOc+4okV8/IPG116GTHqaqTkvzcjNgHuvuc7Ty3u6/M7H+vPUleup3nAgAAAAAAAAAAAAAAAAAAwG5mSISFq6pTkzxhRuw93X3+dp/d3Z9N8qYZsSOTPGu7z56Tn0hywozMb4109m8luXxG5iFVdc+RzgcAAAAAAAAAAAAAAAAAAIBdxZAIy+BpSfbOyLx5xPP/aEDmKVU1a5BjqVTVvqwMiWzkmiRvHeP87t6f5O0Dos8c43wAAAAAAAAAAAAAAAAAAADYbQyJsFBVdVSSpw6I/tmINc5O8vUZmeOTPHnEDmN4bJLbzsic091fGLHDGwZkfrCqTh6xAwAAAAAAAAAAAAAAAAAAAOwKhkRYtIcnmTUicUl3f2KsAt19ZZK/HhB94lgdRvLDAzL/a+QO70hyzYzMUUm+b+QeAAAAAAAAAAAAAAAAAAAAMHmGRFi0xw/I/N3oLZK/GZC5b1WdOnqTbVBVN0ryiAHRUe9td381ybkDoj8wZg8AAAAAAAAAAAAAAAAAAADYDQyJsDBVdUSS7x4Qfe/YXZK8c0CmMmz4ZBl8V5JjBuSW5d4+qKpuNnoTAAAAAAAAAAAAAAAAAAAAmDBDIizS/ZOcOCB33sg9kuSCJFcMyD187CLb5JEDMpd091dHb5J8cEBmb5KHjF0EAAAAAAAAAAAAAAAAAAAApsyQCIv0oIG580dtkaS7Dww854FVdcTYfbbBkHs7+n1dde7A3HeO2AEAAAAAAAAAAAAAAAAAAAAmz5AIizRk7OJr3f250Zus+MiAzI2S3GfsIltRVbdNcvsB0b8fu8uqjyW5ekDuzLGLAAAAAAAAAAAAAAAAAAAAwJQZEmEhqmpvkvsPiF48dpc1Pjkw9+2jtti6of3mcm+7+8DAs+5QVTcfuw8AAAAAAAAAAAAAAAAAAABMlSERFuUOSY4dkFvGIZEzRm2xdfcYmHNvAQAAAAAAAAAAAAAAAAAAYEIMibAodxuY+8yoLa7vUwNzdx+1xda5twAAAAAAAAAAAAAAAAAAALALGRJhUYYORnxx1BbX97mBuTtV1ZGjNtmanXxvzxi1BQAAAAAAAAAAAAAAAAAAAEyYIREW5c4Dc18atcX1fX5gbl+S08cscriq6rgktx0YX8Z7e8dRWwAAAAAAAAAAAAAAAAAAAMCEGRJhUU4bmJvb2EV3X5HkawPjQ/vP29BeV3f30Pe6HYYOiSzrfQUAAAAAAAAAAAAAAAAAAIClZ0iERTl1YG7/mCXW8eWBuaH9521or3mOiCTD7+vNq+qoUZsAAAAAAAAAAAAAAAAAAADARBkSYe6q6ugkNxsYv3TMLuvYPzB32pgltmDokMiy3tfK8o60AAAAAAAAAAAAAAAAAAAAwFIzJMIi3CorgxFDLOvgxW3GLLEFtx6YW9b7mizvvQUAAAAAAAAAAAAAAAAAAIClZkiERbjpJrKXjdZiffsH5m4yZoktGHpvl/W+Jst7bwEAAAAAAAAAAAAAAAAAAGCpGRJhETYzFHHFaC3Wd/nA3LKOXQzttaz3NVneewsAAAAAAAAAAAAAAAAAAABLzZAIi2BIZDxLOSTS3QeSHBgYX9Z7CwAAAAAAAAAAAAAAAAAAAEvNkAiLcOImsleOVeIQhg6JnDhmiS04cWBu3vc12fn3FgAAAAAAAAAAAAAAAAAAAJaaIREW4ehNZK8arcX6hg5sbOY9zNPQXvO+r8nOv7cAAAAAAAAAAAAAAAAAAACw1PYtugC70hGbyH5jtBZbO28z72Gehvaa933dzJnbem+r6uZJbrad15ygOx309elVtZAiLMiTX7noBgDARFTVXRfdgSXk8yYAsE183uQGfNYEALaJz5qsy+dNAGCb+Ly565x+0NdHLqQFAAAAALuaIREWYTNDEdeM1mJ9Q8culvV/6A69t/O+r8ni7u3Tkrxgm685dWctugBz9rqnL7oBADAdH110AZaQz5sAwPbxeZPr81kTANg+PmtyQz5vAgDbx+fN3e2UJB9adAkAAAAAdpc9iy7ArjSFIZHNvId5msKQyLLeWwAAAAAAAAAAAAAAAAAAAFhqhkRYhME/d93dYxZZ78iBuWX93Rnaa973dTNnLuu9BQAAAAAAAAAAAAAAAAAAgKW2b9EF2JUODA1W1Z7uvmbMMgfZOzB39agtDt/Qe7uIsY5F3dtXJ3nDNl9zao5Lcu8kX0/ytSSfTnLVQhsBsExOT3LWmq8fm+TCBXUBAGB6fN4EAGAsPmsCADAmnzcBOJQjk5yy5ut3LqoIAAAAALuXIREWYTMDBXuTGBIZbui9Hfo+t9NC7m13fyHJF7bzmhN1zqILALCcqurgpy7s7vMX0QUAgOnxeRMAgLH4rAkAwJh83gRghg8tugAAAAAAu9ueRRdgV9rMUMS8f0Z3+pDI0F6L+N3f6fcWAAAAAAAAAAAAAAAAAAAAlpohERZhM0MR+0Zrsb4jBuauGrXF4Rt6b+d9X5Odf28BAAAAAAAAAAAAAAAAAABgqRkSYRH+eRPZo0Zrsb5jBuYuG7XF4Rt6b+d9X5Odf28BAAAAAAAAAAAAAAAAAABgqRkSYRG+uons0aO1WN/QsYv9Y5bYgqH3dq73taoqw8dL9o9YBQAAAAAAAAAAAAAAAAAAACbLkAiLsJkhkaHjE9tl6JDIZt7DPA3ttaz3NVneewsAAAAAAAAAAAAAAAAAAABLzZAIi7CZoYgbjdZifccNzO0fs8QWDL23y3pfk+W9twAAAAAAAAAAAAAAAAAAALDUDImwCF/aRPb40Vqs7yYDc5t5D/M0tNey3tdkee8tAAAAAAAAAAAAAAAAAPD/s3fnYbre8/3A35+Tkx1BNklEghK7pPaltlZDUT9qq52qorb+qNKWn11pa2uptvatqhS1VpWg1N5Qe4JI7AkRsm+f3x8z2iPmnLmfmed+npnnvF7XdV8nZ+7P/f2858lMrrlyzrwHANjQFIkwDz9Ict7A2VkXXlxy4NxJY4ZYh28NnNuor2uycV9bAAAAAAAAAAAAAAAAAAAA2NAUiTBz3X1hkm8PHN+ohRcbtexiaK6N+rqel+R7I+YAAAAAAAAAAAAAAAAAAACAhaVIhHk5ceDcvqOm2EZVbUmy38DxoflnbWiui1XVbqMm+XkHDpz79nLRDAAAAAAAAAAAAAAAAAAAADAhRSLMywkD54YWe0zDvkm2Dpw9YcQc6/GtJOcPnJ3lazu0SOSEMUMAAAAAAAAAAAAAAAAAAADAIlMkwrx8YeDcRiy7+GmSE8cMslbdfV6S4waOb8TXdujHBQAAAAAAAAAAAAAAAAAAAHARikSYl/8eOHeZUVP8vMsNnPtid/eoSdZnM7+2nx81BQAAAAAAAAAAAAAAAAAAACwwRSLMy9Cyi0NHTfHzLj9wbqOXXXhtAQAAAAAAAAAAAAAAAAAAYCekSIS56O5vJTl5wOjlxs6yjSsMnDt2zBBT8JmBcxvttb0wyefGDgIAAAAAAAAAAAAAAAAAAACLSpEI8/QfA2YOqardRk+y5MoD5z48aor1+2iWSjlWM7Q4ZV2qat8klx4w+rnu/snYeQAAAAAAAAAAAAAAAAAAAGBRKRJhnj40YGaXJEeMHWTZkQNmfpzkv8eNsT7d/eMMy3i1kaP8zJED5zZ6QQsAAAAAAAAAAAAAAAAAAABsaIpEmKcPDpy7+qgpklTVpZNcdsDoR7r7wrHzTMGQ1/YqVTWL/wZce+DckGIZAAAAAAAAAAAAAAAAAAAAYDsUiTBPxyb5zoC5o0bOkSTXHzj3zlFTTM+7BszsleSIsYNk2Gt7bpJ/GzsIAAAAAAAAAAAAAAAAAAAALDJFIsxNd3eStwwYveHYWZLccsBMJ3nryDmm5f1Jfjxgbhav7S0GzLy/u08bOwgAAAAAAAAAAAAAAAAAAAAsMkUizNubB8xct6p2HTnHLQbM/Gd3f3fkHFPR3ecl+ZcBozceM0dVXTXJgQNG/3nMHAAAAAAAAAAAAAAAAAAAALAzUCTCvH0oyUmrzOyV5GZjBaiqg5Jcb8Doa8bKMJLXDpg5euQMvzlg5qwMK5QBAAAAAAAAAAAAAAAAAAAAdkCRCHPV3RckecmA0duNGOPOSWqVmdMyrJhjI3lfkq+uMnNoVV1rxAx3GTDzD939oxEzAAAAAAAAAAAAAAAAAAAAwE5BkQgbwUuTnLvKzF2qaqyP1/sMmHlVd58+0v5RdHcnefGA0buNsb+qrprkugNG/3qM/QAAAAAAAAAAAAAAAAAAALCzUSTC3HX3D5K8YpWxQ5McPe3dVXW9JDdYZeycJM+d4s79quqpVfXZqvrp8vVfVfWUqtp3WnuWvTzJKavMPKCqdpny3iR5+ICZf+3u/xphNwAAAAAAAAAAAAAAAAAAAOx0FImwUTwlyZmrzDxqhL2PGzDz4u7+5jSWVdUdkhyf5IlJrpXkYsvXkUmelORryzNT0d0/TfL0VcYOTnLXae1Mkqo6MMn9VhnrJI+f5l4AAAAAAAAAAAAAAAAAAADYmSkSYUPo7u8mef4qY0dX1c2mtbOqbpzkLquM/TjJM6a07+gkb02yzw7G9kny1qr69WnsXPY3Sb6xysxTq2rrFHc+Lcneq8y8truPneJOAAAAAAAAAAAAAAAAAAAA2KkpEmEjeXqSr64y88Kq2m29i6pqzyQvGTD6iO7+4RT27Z3klRn2ObclySuXM65bd5+b5MFJegdjV0rymGnsWy57eeAqY99P8n+nsQ8AAAAAAAAAAAAAAAAAAABYokiEDaO7z0pyvyQX7GDs2kmeOYV1L0xyzVVm3tTdr53CriS5b5LLTDB/UJJ7T2l3uvt9SV68ythTq+qX17Onqg5I8voku6wy+qDuPmU9uwAAAAAAAAAAAAAAAAAAAICfp0iEDaW7P5bkCauMPaaqHrnWHVX17CQPWmXsi0kevNYdK/iNNTxz+ynuT5LHJfnUDu7vluRdVXWltRxeVfsn+fckh6wy+qzufsdadgAAAAAAAAAAAAAAAAAAAADbp0iEDae7/zzJi1cZe35VPaeqdh16blXtU1Wvy1Khxo58O8ltuvvUoWcPcPk1PHOFKe5Pd5+ZpXKSb+xg7MAkH66qW09ydlXdMMl/JrnGKqOv6u4/nuRsAAAAAAAAAAAAAAAAAAAAYBhFImxUj0zyyh3cryR/mOS/quo+VbX7dgerLlVVj03yxST3XGXvN5L8WnefNGHeMfTUD+z+fpJfz+plIv9aVf9QVdfZ0XlVda2qekWSDye54irrX53kQZPkBQAAAAAAAAAAAAAAAAAAAIbbOu8AsJLuviDJA6rqxCRP2sHo1bNUUPF3VfWxJMcl+WGSXZLsl+RaSY5c/v1qPpbkN7v75HVE356vL2ed9Jmp6+7jq+qGSd6R5HrbGask90hyj6r6bpKPJvluktOSXCLJZZLcOMkhQ1YmeXJ3P3W92QEAAAAAAAAAAAAAAAAAAIDtUyTChtbd/6+qPp7kJUkO3cHoHklusXxN6pwkz0jyZ9193hqeH+IdSe4w4TNvHyNIknT3D6rqZkmenOSx2XHRykFJfmuNq45P8rvdfcwanwcAAAAAAAAAAAAAAAAAAAAG2jLvALCa7n5Xkqsn+Yskp0/x6AuTvDnJUd39tBFLRJLkNUm+NcH8SUleO1KWJEl3n93dj09y/STvm/LxpyR5UpJrKREBAAAAAAAAAAAAAAAAAACA2VAkwqbQ3T/t7j9McliSJyb54jqO+2aSFyQ5orvv0t1fmkbGHenus5LcJ8n5A8bPT3Lf7j5n3FRLuvsz3X3rJNfNUuHJqWs86sIkH0ny+0kOWy5nOWtKMQEAAAAAAAAAAAAAAAAAAIBVbJ13AJhEd/8oydOTPL2qfinJrZNcK8k1khya5OLL14VJfrp8fSvJF5avD3X35+YQPd19TFX9ZpLXJ7nkdsZ+nOSe3X3MjGL9j+7+dJL7VtXWJL+S5MZZel2vlmS/LL2ueyU5K0uv62lJjsvS6/rZJO/r7lNmnRsAAAAAAAAAAAAAAAAAAABYokiETau7j09y/LxzTKK7371cgPLoJL+Z5IpJOsnXkrwtyQu7+4fzS5h09/lJPrB8AQAAAAAAAAAAAAAAAAAAAJuEIhGYseWikCcuXwAAAAAAAAAAAAAAAAAAAABTsWXeAQAAAAAAAAAAAAAAAAAAAACA9VMkAgAAAAAAAAAAAAAAAAAAAAALQJEIAAAAAAAAAAAAAAAAAAAAACwARSIAAAAAAAAAAAAAAAAAAAAAsAAUiQAAAAAAAAAAAAAAAAAAAADAAlAkAgAAAAAAAAAAAAAAAAAAAAALQJEIAAAAAAAAAAAAAAAAAAAAACwARSIAAAAAAAAAAAAAAAAAAAAAsAAUiQAAAAAAAAAAAAAAAAAAAADAAlAkAgAAAAAAAAAAAAAAAAAAAAALQJEIAAAAAAAAAAAAAAAAAAAAACwARSIAAAAAAAAAAAAAAAAAAAAAsAAUiQAAAAAAAAAAAAAAAAAAAADAAlAkAgAAAAAAAAAAAAAAAAAAAAALQJEIAAAAAAAAAAAAAAAAAAAAACwARSIAAAAAAAAAAAAAAAAAAAAAsAAUiQAAAAAAAAAAAAAAAAAAAADAAlAkAgAAAAAAAAAAAAAAAAAAAAALQJEIAAAAAAAAAAAAAAAAAAAAACwARSIAAAAAAAAAAAAAAAAAAAAAsAAUiQAAAAAAAAAAAAAAAAAAAADAAlAkAgAAAAAAAAAAAAAAAAAAAAALQJEIAAAAAAAAAAAAAAAAAAAAACwARSIAAAAAAAAAAAAAAAAAAAAAsAAUiQAAAAAAAAAAAAAAAAAAAADAAlAkAgAAAAAAAAAAAAAAAAAAAAALQJEIAAAAAAAAAAAAAAAAAAAAACwARSIAAAAAAAAAAAAAAAAAAAAAsAAUiQAAAAAAAAAAAAAAAAAAAADAAlAkAgAAAAAAAAAAAAAAAAAAAAALQJEIAAAAAAAAAAAAAAAAAAAAACwARSIAAAAAAAAAAAAAAAAAAAAAsAC2zjsAAACwoZ2c5CkX+T0AAEyLrzcBABiLrzUBABiTrzcBAAAAAIANq7p73hkAAAAAAAAAAAAAAAAAAAAAgHXaMu8AAAAAAAAAAAAAAAAAAAAAAMD6KRIBAAAAAAAAAAAAAAAAAAAAgAWgSAQAAAAAAAAAAAAAAAAAAAAAFoAiEQAAAAAAAAAAAAAAAAAAAABYAIpEAAAAAAAAAAAAAAAAAAAAAGABKBIBAAAAAAAAAAAAAAAAAAAAgAWgSAQAAAAAAAAAAAAAAAAAAAAAFoAiEQAAAAAAAAAAAAAAAAAAAABYAIpEAAAAAAAAAAAAAAAAAAAAAGABKBIBAAAAAAAAAAAAAAAAAAAAgAWgSAQAAAAAAAAAAAAAAAAAAAAAFoAiEQAAAAAAAAAAAAAAAAAAAABYAIpEAAAAAAAAAAAAAAAAAAAAAGABKBIBAAAAAAAAAAAAAAAAAAAAgAWgSAQAAAAAAAAAAAAAAAAAAAAAFoAiEQAAAAAAAAAAAAAAAAAAAABYAFvnHQAAAAAAAAAAYKiqqiT7JzkkycFJLpVknyR7Jdk1S38X4oIk5yxfpyY5Jcn3k3y9u0+bQ2wAAAAAAAAAAJiJ6u55ZwAAADaJqrprkuckOXz5Ta/q7vvPLRAAABtGVe2V5GpJrpLkcsvXoUkum+RiSfbc5to1yblZ+qbOM5KcvHydlOQrSb6c5JPd/Z3ZvhcAAGwkVbVnkmsmucY215WyVB6y2zqOPiXJ55J8MslHkry/u89YX1oAAFjZchHevyX51e2MXL67T5hdIgAAAAAAYNFtnXcAAABg46uq6yR5XpJfmXcWAADmr6r2TXLdJNdLclSWvrnzikm2THDMHsvXPln6RtCV9pyQ5P1J3pzkfd197tpTAwCw0VXV1iR3SnLjJDdJcmSWSuimbb8kt1q+kuScqnpfklcmeVt3nzfCTgAAdl6PzfZLRAAAAAAAAKauunveGQAAgA2qqg5K8swk90tSK4y8qrvvP9NQAADMTVXdOMlrk1x+Dut/lOTvk7you0+aw34AAEZWVfslOXnOMb6X5FlJ/ra7z5lzFgAANrmqOirJx5LstoOxy3f3CbNJBAAAAAAA7Awm+emQAADATqKq9qiqP01yXJL7Z+USEQAAdj4HZD4lIkly6SR/lOT4qnpOVe0zpxwAACy2yyR5QZIvVtWt5h0GAIDNq6r2TPL67LhEBAAAAAAAYOq2zjsAAACwsVTVPZI8O8nl5p0FAICF0FkqqPtKkpOS/DTJuUn2TLJPkkOSXD3JYQPP2y3JHyb57aq6V3d/aOqJAQDYDDpLX2N+evk6NsmJSX6Q5Mwku2Tpa84Dkxye5Mgkt0pyiyS7Dzj/Ckn+vaqekeSJ3d3TDA8AwE7huUmuMu8QAAAAAADAzkeRCAAAkCSpqusleX6SG885CgAAm98Xk/xTkv9I8snuPm21B6rqgCS3SfKALH1z52oum+T9VfWo7n7ROrICALC5fCxLX2u+qbtP3MHcBVkqsDstyVeTvDfJc6rqwCSPSfLQJBcbsO9PkhxWVfdVJgIAwFBVdYckD5l3DgAAAAAAYOe0Zd4BAACA+aqqQ6rqNUk+HiUiAACs3Y+SPCfJNbr76t395O5+35ASkSTp7h9096u7+5ZJbpilnyq/ml2S/HVVPX7tsQEA2ATOT/KKLH2teaPufu4qJSLb1d3f7+7HJfmlLJWSDHHvJC9Yyz4AAHY+VXWZJC+bdw4AAAAAAGDnpUgEAAB2UlW1V1X9vyz9NM57J6k5RwIAYPN6WZLDuvuPuvsL6z2su39Wcjf0L9s/q6rus969AABsWH/T3Q+cxteaP9Pd309yyyRvGfjII6rqztPaDwDAYqqqylIJ3v7zzgIAAAAAAOy8FIkAAMBOppbcK8lXkjw5yV7zTQQAwAJ4WXefPs0Du/vcJL+b5A0DH/n7qrrqNDMAALBhfGKMQ7v77CT3SfK1gY+8pKouPkYWAAAWxiOT3GbeIQAAAAAAgJ2bIhEAANiJVNUNk/xnktcmueyc4wAAsBjOS/JfYxzc3Z3koUm+PWB89ySvWP6JnwAALJZRikSSpLvPSHK/JD1gfP8kfzBWFgAANrequmaSP5t3DgAAAAAAAEUiAACwE6iqQ6vqdUk+muQGOxg9PclrkvzOTIIBALAIPrf8k9xH0d0/TvKwgeM3SPJbY2UBAGAuTk1y3JgLuvsjST44cPxhVbXLmHkAANh8qmr3JK9Lsse8swAAAAAAACgSAQCABVZVe1fVU5N8Jck9k6z009nPT/KuJPdKcmB33zfJ+2eXEgCATe7jM9jx9iRfGzj7p2MGAQBg5j7V3T2DPS8fOHdgkl8fMwgAAJvSc5Jcc94hAAAAAAAAEkUiAACwsKrqVkm+muSJSfZcYeQTSR6Z5ODuvl13v767z5xlRgAAFsLoRSLL3zj6dwPHr11VR44YBwCA2frEjPa8Kcm5A2ePHjMIAACbS1UdneQR884BAAAAAADwM4pEAABgcd0qycEXedvxSZ6S5MrdfYPu/qvuPnn20QAAWCCz/MbOoe46WgoAAGZtJl9vdvdZSb40cPxmY2YBAGDzqKr9k7wySV3k1o+SfHLmgQAAAAAAAKJIBAAAdgYnJ/nrJDfq7it195O7+7h5hwIAYCGcluQrs1jU3V9P8sOB47cYMQoAALP18RnuOnbg3FWq6qLfKAoAwM7pZUkus8LbH5zkizPOAgAAAAAAkESRCAAALLKPJrl9koO7+xHd/bF5BwIAYOF8srt7hvs+NXDuelW1ddQkAADMwond/f0Z7vv8wLk9kxw0ZhAAADa+qnpokjuscOsV3f3mWecBAAAAAAD4GX+RGgAAFlR3v2veGQAAWDinJfnsNr9/54z3fznJ0QPmdk1yuSRfHzcOAABTdnqSR2zz+xNnvP/UCWb3TfKdsYIAALCxVdVVkvzlCreOT/LIGccBAAAAAAD4OYpEAAAAAAAYpLs/kOTIOUY4bYLZw6NIBABgU+nus5P89Rwj/GSC2b1HSwEAwIZWVbsleX2SPS9y6/wk9+ru02efCgAAAAAA4H9tmXcAAAAAAAAYaJIikUuMlgIAgEU1SZEIAAA7r2ckOWqFtz+luz8x6zAAAAAAAAAXpUgEAAAAAIDNYpIiET8hHgCAMZ067wAAAMxeVd0qyWNWuPUfSZ414zgAAAAAAAArUiQCAAAAAMBmscsEsxeOlgIAgEW1zwSzPxotBQAAG1JVXTrJq5PURW6dluQ+3X3B7FMBAAAAAAD8IkUiAAAAAABsFrtOMHvWaCkAAFhUlxg4d36SU8cMAgDAhvR3SQ5Z4e2/390nzDgLAAAAAADAdikSAQAAAABgs9hrgtkfjxUCAICFdamBc8d29/mjJgEAYEOpqgcm+a0Vbr2+u1836zwAAAAAAAA7okgEAAAAAIDNYt8JZr8zWgoAABbV1QfOfXTUFAAAbChV9UtJXrDCrW8mediM4wAAAAAAAKxKkQgAAAAAAJvF0CKRC5OcNGYQAAAW0lED5z4yagoAADaMqtqa5HVJLnaRWxcmuU93nzb7VAAAAAAAADumSAQAAAAAgM3icgPnjuvus0ZNAgDAQqmqvZJcdcDoGUneNXIcAAA2jicnuf4Kb39Wd394xlkAAAAAAAAGUSQCAAAAAMBmcfjAuc+MGQIAgIV0pyS7Dpj7h+4+fewwAADMX1XdNMnjV7j1iSwVjAAAAAAAAGxIikQAAAAAANjwqmr3JFcYOP7+MbMAALCQ7j9g5rwkfzZyDgAANoCq2ifJa5PscpFbZyS5d3efP/tUAAAAAAAAwygSAQAAAABgM7hmkq0DZ987ZhAAABZLVV0nya0GjP55d39t7DwAAGwIL05y2Apvf1R3HzfrMAAAAAAAAJNQJAIAAAAAwGZw44FzH+vuE0dNAgDAwqiqrUlemtX//sSnkjx1/EQAAMxbVd07yT1XuPXP3f2yWecBAAAAAACYlCIRAAAAAAA2g9sNnHvtqCkAAFgYVVVJnpfkyFVGv5nkzt19zuihAACYq6o6PMmLVrj17SS/O9s0AAAAAAAAa7N13gEAAAAAAGBHqmrvJDcfMPrTJK8eOQ4AAAugqrYm+bskD1hl9Lgkt+nuk8ZPBQDAPFXVLlkqKr7ERW51kvt1949mnwoAAAAAAGByW+YdAAAAAAAAVvGrSXYfMPey7v7p2GEAANjcqurOST6f1UtE3pHkht399fFTAQCwAfxJkpus8Pbndve/zzoMAAAAAADAWm2ddwAAAAAAAFjF3QfMnJ3kOWMHAQBg86iq3ZLsm2S/JL+U5NZJfj3JFVd59LtJntDdrxo3IQAAG0VV3TDJE1e4dWySP55tGgAAAAAAgPVRJAIAAAAAwIZVVYckueuA0Rd293fHzgMAwMZRVWcn2X2KR56Y5IVJ/ra7T5/iuQAAbGBVdfEkr80v/p3as5Lcs7vPnX0qAAAAAACAtVMkAgAAAADARvb7SXZdZeZ7SZ4+gywAACyeryR5X5I3J/lgd1845zwAAMzeXyW54gpvf2x3f2nWYQAAAAAAANZLkQgAAAAAABtSVe2Z5PcGjD6yu386dh4AABbGuUn+PcmbkhzT3V+fcx4AAOakqu6a5H4r3Hpnd7941nkAAAAAAACmQZEIAAAAAAAb1eOSXHqVmTd19z/NIgwAAAtjtyS3Xb5SVacm+USS9yX51+7+7zlmAwBgRqrqskn+doVb30/ywBnHAQAAAAAAmJot8w4AAAAAAAAXVVVXSPL4VcZOSvJ7M4gDAMBiu1SSo5P8eZLPVdWXqupPq+qAOecCAGAkVbUlyWuy9LXgRT2gu38w40gAAAAAAABTo0gEAAAAAICN6IVJ9tjB/fOT3LO7fzSjPAAAbDDdvUd31/auJLsnuUySqya5RZLHJnljkm+vcvRVkjwtyYlV9ZKqOnDEdwMAgPl4XJa+Rryov+7ud884CwAAAAAAwFQpEgEAAAAAYEOpqrskud0qY4/q7v+YRR4AADan7j63u7/f3V/u7g929192992TXC5LX2/+S5ILdnDE7kl+L8nxVfXwGUQGAGAGquo6SZ66wq0vZqlgBAAAAAAAYFNTJAIAAAAAwIZRVVdM8tJVxv6mu188izwAACye7r6wu9/V3XdMcoMkX1jlkYsl+auqentVXWz8hAAAjKWq9kryuiS7XuTWOUnu2d1nzT4VAAAAAADAdCkSAQAAAABgQ6iqPZK8Kck+Oxh7W5JHzCYRAACLrrs/neQ6SV4wYPz2ST5UVZcaNxUAACN6fpIjVnj7H3f3Z2ecBQAAAAAAYBSKRAAAAAAA2ChelOTIHdw/Jslvd/cFM0kDAMBOobvP6e5HJ3nagPGjkry9qnYfNxUAANNWVf8nye+ucOt9SZ432zQAAAAAAADjUSQCAAAAAMDcVdUfJXngDkY+nOT23X3WjCIBALCT6e4nJXnzgNGbJHnOyHEAAJiiqjooyd+vcOuHSe7X3T3jSAAAAAAAAKNRJAIAAAAAwFxV1f2S/NkORj6a5De6+4wZRQIAYOf10CQ/GjD3yKq68dhhAABYv6qqJK9Mst8Kt3+3u78z20QAAAAAAADjUiQCAAAAAMDcVNXtkrx0ByOfSHLb7j59RpEAANiJdffJ2XHJ3bb+YswsAABMzaOT/PoKb39pd79lxlkAAAAAAABGp0gEAAAAAIC5qKqbJXljkq3bGTkmya91909mFgoAAJKXJDljwNyNqurGY4cBAGDtqupaSZ61wq3jslQwAgAAAAAAsHAUiQAAAAAAMHNVdfMk70qy13ZG3pHktt3909mlAgCAZPlr0LcPHH/QmFkAAFi7qtojyeuT7H6RW+cluVd3DymPAwAAAAAA2HQUiQAAAAAAMFNVdcsslYjsvZ2R1ye5U3efPbtUAADwc941cO72VeXvXgAAbEx/nuTqK7z9yd39yVmHAQAAAAAAmBV/mQUAAAAAgJlZLhF5R5K9tjPyoiT37u7zZ5cKAAB+wccHzu2f5GpjBgEAYHJVddskD1/h1oeS/NmM4wAAAAAAAMyUIhEAAAAAAGaiqm6f5J1ZuUSkkzyhux/e3T3bZAAA8AuOTzK03O56YwYBAGAyVXVAklescOu0JPfp7gtnHAkAAAAAAGCmts47AAAAAAAAi6+q7pXklVn5/0ufm+QB3f36mYYCAIDt6O4Lq+rbSQ4bMH6lsfMAADCRv0xy4Apv3yfJN6tqxnFW9Y2BmZ7S3U8eOQsAAAAAALAAtsw7AAAAAAAAi62qfj/Ja7JyichpSW6jRAQAgA3o1IFzh46aAgCASfn6DAAAAAAA2KkpEgEAAAAAYDRV9adJ/jrJSj9S86QkN+3uD8w2FQAADHLWwLlLjhkCAAAAAAAAAAAmsdJPfwQAAAAAgHWpqi1JXpjk97cz8ukkd+ju784uFQAATKQHzu05agoAAAAAAAAAAJiAIhEAAAAAAKaqqvZI8rokd97OyNuS3LO7z5xdKgAAmNjFB86dN2oKAAAAAAAAAACYwJZ5BwAAAAAAYHFU1aWS/Fu2XyLy/CR3ViICAMAmcLGBc2eMmgIAAAAAAAAAACawdd4BAAAAAABYDFV1aJL3JLnaCrcvSPLI7n7xbFMBAMCaDS0SOXXUFAAAAAAAAAAAMAFFIgAAAAAArFtVXTPJu5McssLt05PcvbvfNdtUAABsBlW1f5K/2uZNL+/u984rT5JU1R5J9h04/rUxswAAAAAAAAAAwCQUiQAAAAAAsC5Vdcskb0myzwq3v53k9t197ExDAQCwmeyd5O7b/P70JHMtEklyRJItA2ePGzMIAACT6e5bzDtDklTVK5Pcb8Do5bv7hHHTAAAAAAAAO5Ohf+kFAAAAAAB+QVXdPcl7snKJyOeS3FCJCAAAE7rpvAMkucoEsx8bLQUAAAAAAAAAAExIkQgAAAAAAGtSVY9K8g9Jdlvh9nuS3LS7vzXbVAAALIAjqmq/OWe4xsC5r3b3t0dNAgAAAAAAAAAAE1AkAgAAAADAxKrqWUmen6RWuP2yJHfo7p/ONBQAAIvkJnPef6uBc28bNQUAAAAAAAAAAExIkQgAAAAAAINV1S5V9fIkj9/OyFO7+0Hdff4scwEAsHBuOq/FVXVQkhsMHH/liFEAAAAAAAAAAGBiW+cdAAAAAACAzaGq9kjyhiR3XOH2BUke2t1/P9tUAAAsqJvMcffvJNllwNz7u/uLY4cBAAAAAAAAAIBJKBIBAAAAAGBVVXWJJG9PcrMVbp+Z5B7d/fbZpgIAYIFdp6r26O6zZ7m0qi6Z5A8Gjj9xxCgAAAAAAAAAALAmW+YdAAAAAACAja2qDkhyTFYuETklya2UiAAAMGW7Jbn+HPb+eZJLD5j7x+7+6NhhAAAAAAAAAABgUlvnHQAAAAAAgA3v7UmO2s69/ZJ8rKpmGGewb3b34fMOAQDAmt0kyYdmtayq7p3kQQNGf5Dk4SPHAQAAAAAAAACANdky7wAAAAAAAGx4B847AAAAO6WbzmpRVd0lySsGjJ6b5G7dfcrIkQAAAAAAAAAAYE0UiQAAAAAAAAAAG9GFbkSIAAAmQUlEQVTNqupeVbXLWAuqaveqemaSNybZusr4hUl+p7s/OFYeAAAAAAAAAABYL0UiAAAAAAAAAMBGdLEkr03yjap6SlVdY1oHV9UuVXWPJJ9L8oQktcoj5yW5Z3e/dloZAAAAAAAAAABgDKv9NB0AAGDBVdUeSS6T5OAkBy1fRwx8/LpV9YQk303yneVfv5vkh93dI8QFAAAAAHY+hyZ5UpInVdUJSd6f5KNJ/jvJF7r7jCGHVNVeSa6T5DeT3C3J5Qbu/3aWSkQ+NGFuAAAAAAAAAACYOUUiAACwoJb/UvzPikEO3sE/X2oda66e5JkrvP3cqvpefrFg5KL/fLLCEQAAAABgAocneeDylSRdVV9PcnyW/p/jj5KcmWSXJHsmuXiSQ5IclqUC5V0m3PcPSR7R3T9cd3IAAAAAAAAAAJgBRSIAALC43pXk5nPavVuWfprnaj/R85ZJjhk9DQAAAACwqCrJFZevafpIkj/q7o9M+VwAAAAAAAAAABjVlnkHAAAAAAAAAAB2amcm+WySC+ac46wkb0hyo+6+qRIRAAAAAAAAAAA2o63zDgAAAAAAAAAA7Ly6+wdJjqyqvZMctXxdK8nVklw1yaVGXP+tJB9M8s4kb+/u00fcBQAAAAAAAAAAo6vunncGAAAAAAAAAIAVVdV+Sa6Q5PAkByW5TJIDt7n2SbJ7kj22+XXXJOclOTvJWUlOSfK9JN9J8pUkX0jyue7++gzfFQAAAAAAAAAAGJ0iEQAAAAAAAAAAAAAAAAAAAABYAFvmHQAAAAAAAAAAAAAAAAAAAAAAWD9FIgAAAAAAAAAAAAAAAAAAAACwABSJAAAAAAAAAAAAAAAAAAAAAMACUCQCAAAAAAAAAAAAAAAAAAAAAAtAkQgAAAAAAAAAAAAAAAAAAAAALABFIgAAAAAAAAAAAAAAAAAAAACwABSJAAAAAAAAAAAAAAAAAAAAAMACUCQCAAAAAAAAAAAAAAAAAAAAAAtAkQgAAAAAAAAAAAAAAAAAAAAALABFIgAAAAAAAAAAAAAAAAAAAACwABSJAAAAAAAAAAAAAAAAAAAAAMACUCQCAAAAAAAAAAAAAAAAAAAAAAtAkQgAAAAAAAAAAAAAAAAAAAAALABFIgAAAAAAAAAAAAAAAAAAAACwABSJAAAAAAAAAAAAAAAAAAAAAMACUCQCAAAAAAAAAAAAAAAAAAAAAAtAkQgAAAAAAAAAAAAAAAAAAAAALABFIgAAAAAAAAAAAAAAAAAAAACwABSJAAAAAAAAAAAAAAAAAAAAAMACUCQCAAAAAAAAAAAAAAAAAAAAAAtAkQgAAAAAAAAAAAAAAAAAAAAALABFIgAAAAAAAAAAAAAAAAAAAACwABSJAAAAAAAAAAAAAAAAAAAAAMACUCQCAAAAAAAAAAAAAAAAAAAAAAtAkQgAAAAAAAAAAAAAAAAAAAAALABFIgAAAAAAAAAAAAAAAAAAAACwABSJAAAAAAAAAAAAAAAAAAAAAMACUCQCAAAAAAAAAAAAAAAAAAAAAAtAkQgAAAAAAAAAAAAAAAAAAAAALABFIgAAAAAAAAAAAAAAAAAAAACwABSJAAAAAAAAAAAAAAAAAAAAAMACUCQCAAAAAAAAAAAAAAAAAAAAAAtAkQgAAAAAAAAAAAAAAAAAAAAALABFIgAAAAAAAAAAAAAAAAAAAACwABSJAAAAAAAAAAAAAAAAAAAAAMACUCQCAAAAAAAAAAAAAAAAAAAAAAtAkQgAAAAAAAAAAAAAAAAAAAAALABFIgAAAAAAAAAAAAAAAAAAAACwABSJAAAAAAAAAAAAAAAAAAAAAMACUCQCAAAAAADA1FTVCVXVU7iOmff7AgAAAAAAAAAAALDZKBIBAAAAAAAAAAAAAAAAAAAAgAWgSAQAAAAAAIBpelOSjyb54byDAAAAAAAAAAAAAOxsts47AAAAAAAAADtWVVuTXCbJIUkOTnKJJHssX3sm2S3J+cvXeUnOSfKT5eu0LJV6/CDJD7v7gjGzdvdjt8l96SRHLF9Xvsivu46ZAwAAAAAAAAAAAGBnVN097wwAAAAAAAAkqapKcrUkRy5f105yjSQHJtkyhRWd5JQk31q+TkryteXr+CTHdfe5U9izQ1V1TJKbrzL2we6+xdhZAAAAAAAAAAAAABbJ1nkHAAAAAAAA2JlV1QFJjk7y68vXAWOuS7L/8nXUCvfPr6qvJfl8kmOT/FeSz3T3d0fMBAAAAAAAAAAAAMCUKBIBAAAAAACYsaraNckdkjwwyW2S7DLfRP9ja5Ijlq/f+tkbq+r7SY7t7tvMKxgAAAAAAAAAAAAAq1MkAgAAAAAAMCNVdfEkj07yiCT7zzfNRA5McvS8QwAAAAAAAAAAAACwY4pEAAAAAAAARlZVeyX5/SR/lGTfCR+/MMlXknw6yWeTnJjkW0m+k+SMJGcmOSvJrkn2SLJXloo/LpPk0CRXXb5+OckB63xXAAAAAAAAAAAAANjAFIkAAAAAAACMqKpuluQVSa4wwWOnJnnH8vWv3X3agGfOWb5OS/Ld7WS5YpKbJLltkqOTXGqCTAAAAAAAAAAAAABscIpEAAAAAAAARlBVeyZ5ZpJHJamBj302yV8neV13nzXtTN39tSRfS/Lqqtolya8muU+SOyXZe9r7AAAAAAAAAAAAAJgtRSIAAAAAAABTVlUHJnl7kusNfOR7SR6f5NXd3aMF20Z3X5DkvUneW1WXTPKQJI9MctAs9gMAAAAAAAAAAAAwfVvmHQAAAAAAAGCRVNXVknw8w0tEXp/kyt39qlmViFxUd/+4u/8syRWS/HGSn8wjBwAAAAAAAAAAAADro0gEAAAAAABgSqrq2kk+kuSwAePnJXlkd9+ru386brJhuvvs7n5WkjvOOwsAAAAAAAAAAAAAk9s67wAAAAAAAACLoKoun+Q9SS45YPz8JPfo7n8eNdTafXbeAQAAAAAAAAAAAACY3JZ5BwAAAAAAANjsqmq/JP+a5DIDxi9Mcq8NXCKS7j41yXfmnYOdW1Xdo6p6m+vJ884EAAAAAAAAAAAAG50iEQAAAAAAgPV7VZIrDZx9ane/ccwwU/L5eQdgp/e4eQcAAAAAAAAAAACAzUaRCAAAAAAAwDpU1cOS/MbA8X9L8rQR40yTIhHmpqp+PclR884BAAAAAAAAAAAAm40iEQAAAAAAgDWqqisn+fOB42ckeUB3XzhipGlSJMI8PX7eAQAAAAAAAAAAAGAzUiQCAAAAAACwds9LstfA2Wd197fHDDNlikSYi6q6XpJbzjsHAAAAAAAAAAAAbEaKRAAAAAAAANagqm6R5DcGjp+U5C9HCzOOLyTpeYdgp/RH8w4AAAAAAAAAAAAAm5UiEQAAAAAAgLV59gSzL+jus0dLMoLuPjPJN+adg51LVV0pyZ3mnQMAAAAAAAAAAAA2K0UiAAAAAAAAE6qqo5Ncf+D46UleOmKcMX1+3gHY6Twu/gwTAAAAAAAAAAAA1mzrvAMAAAAAAABsQg+bYPY13X3aaEnGdbcku847BDuHqjooyX3mnQMAAAAAAAAAAAA2M0UiAAAAAAAAE6iqQ5PcboJH/nGsLGPr7nOSnDPvHOw0Hp1k93mHAAAAAAAAAAAAgM1sy7wDAAAAAAAAbDIPSrLLwNnvJ/nwiFlgIVTVPkkeMu8cAAAAAAAAAAAAsNltnXcAAAAAAACATeYuE8y+pbsvHC0JTKiqrpjkhsvXtZJcOsmllq/dkpy1zfXDJN9K8u3lX49L8uUkX+3uc6Yc7aFJLjHlM0dRVZXkqklumuQ6Sa6Q5PJJLplkryS7Jzk7yelJvpvkpCT/neQzSY7p7lNmn3q6quoaSW6Z5GZJrp7kMknu1N0fnGswAAAAAAAAAAAAFIkAAAAAAAAMVVWHJ7naBI98YKQorKCqLpPkIes85vnd/eM17L5Hkqusc/cJ3f3KdZ7xC6pqvyT3S/LgJFdeZfziy1eSHJbkl1eYubCqvpbks0mOTfLh7v7QGrNdMcmdkjxmwPgtqurJExw/1dezqq6e5P5J7p7k0FXG91q+Dkhy7SS3X357V9Unk7wmyWvX8rF2kUyPz9o/7k7t7j+YYNeVk9wrS+//ESuNrDEHAAAAAAAAAAAAU1TdPe8MAAAAAAAAm0JVPTzJX03wyCHd/Z2x8mxWVXVMkpuvMvbB7r7FhOcemeS/1pbqf1y+u0+Y9KGqemuSO65z98Tv845U1d5JnpGlcpXdp3XuCj7S3TcdOlxVR2WpPOT/JLnmWKEypdezqq6V5KlJfjPTLcs4Lclzkzynu89eY7Zjsvrn0vac1d17rXL+Lln6uH5Ykltlx+//Lbv7mDVmAQAAAAAAAAAAYEq2zjsAAAAAAADAJnLbCWa/oUSEeamqWyZ5aZIrzDvLz1TV87NUHnLYfJMMU1V7JHlyksdknD9X3SfJU5Lcs6ru092fXMMZP13H/j2rau/uPuOiN6pqtyT3TfL4JFdcxw4AAAAAAAAAAABmTJEIAAAAAADAcDeYYPYTo6Vgez6X5JpJrrfNda0ku81g9/2Xd//susbydckZ7P45VfWQJC9KsmWV0bOTfDrJV5KcmuScLOXdJ8nhSY5MsvcUoz1qimeNqqoOSfLWJNcd+MgXkhyb5PtJzkpy8SwVcNwgyX6rPHtEkg9V1f27+x8nydndd6iqyy3n/Nl1nSSXHnjEfkn+p0ikqrYkuU+Spya53CRZAAAAAAAAAAAA2BgUiQAAAAAAAAyw/M36+07wyFfGysLKuvvCJJ9fvl6RJFW1W5JrJ3lwkgeNuPvHST68fP2Pqjo0S4UiT0pyw7H2b7Pvvkn+ZpWxzyZ5TpI3dfe5OzhrS5KrJPmNLBWlXH1KMTe0qjoiyQeSHLTK6BlZKmx5cXd/cztnbU1yuyRPz9LHwfbskeQfqqq6+w2T5O3uE5OcmOSft9l7hSRfG/D4/km+ufzMLZO8IEtFOAAAAAAAAAAAAGxSq/0UMgAAAAAAAJb88oTzXx0lBRPp7nO7+5NJPjKn/Sd197szg2KZqrpWkr9fZewvkly3u1+/oxKRZKmYpbu/2N1/0d3XSHL3JCevNV931/augUc8ZUdnrHDdYtKMVXV4kvdl9RKRjyW5Znf/0fZKRJKku8/v7rcluW6Sl6+2Psmrq+qmE0Te3t6vDxzdr6r2rapXJ3l/lIgAAAAAAAAAAABseopEAAAAAAAAhjlqwvnRiyPgZ6qqslRUsdsOxp7b3X/Y3eevZUd3vzHJrdfy7GZQVXskeVuSy64y+u4kt+zubww9u7vPSfKgJK9eZXTXJK+tqksMPXud7pTkc0nuM8Ez54yUBQAAAAAAAAAAgClQJAIAAAAAADDMlSacH1wyAFNwlyTX2cH9Lyd53HqXdPdnk3xivedsUM9Lcq1VZo5NcpfuPnvSw7u7kzwkq5cMHZbkaZOev0YPTnLwCm//UpLXJfnTLH1sXXN5bs/u3iPJB2aUDwAAAAAAAAAAgAltnXcAAAAAAACATeKyE8xekORHYwWBFTxilfvP7O4LprTrZUmuP6WzNoSqumGS31tl7Lwk9+7uM9e6p7vPqqrHJnn7KqMPqarnd/esColOSvIvSY5J8sHuPnmV+cdlqVCmRs4FAAAAAAAAAADAhLbMOwAAAAAAAMAmMUmRyCnd3aMlgW1U1cFJfmUHIxckeecUV74hyZrLNDaoF2b1UoyXdPcX1ruou9+RZLVzdkvymPXuGuCjSW6W5LDufnh3v2lAiUi6+1NJ/nH0dAAAAAAAAAAAAExMkQgAAAAAAMAqqqqSHDzBI6t+Iz5M0S1XuX9Cd/9oWsu6+ydJ3jSt8+atqo5Ocr1Vxs5P8pwprn3FgJn7VNXeU9y5kn/r7g+vsfjoT5KcO+1AAAAAAAAAAAAArI8iEQAAAAAAgNVdOsnuE8z/cKwgsIJrrXL/lBF2vmyEM+fl/w6YeWd3f2uKO98yYOYSSe40xZ1T1d1fT/KSeecAAAAAAAAAAADg5ykSAQAAAAAAWN3eE86fNUoKWNnlZ72wuz+U5L5JHpDkGbPePy1VdWiSWw8Y/adp7l0u4ThxwOjtp7l3BE9L8pN5hwAAAAAAAAAAAOB/bZ13AAAAAAAAgE1gzwnnzx0lBazsEqvcv+wYS7v7NWOcO2N3SVID5t47wu5PJ7ncKjNHV1V1d4+wf926+5Qk+8w7BwAAAAAAAAAAAP9ry7wDAAAAAAAAbAJ7TDivSIRZWu2HBxxSVYfPIsgmdOcBM1/t7pNH2P2FATOXTHKlEXYDAAAAAAAAAACwoBSJAAAAAAAArG7PCefPGSUFrOzMATMPGT3FJlNVeya5/oDRL40U4aSBc0eOtB8AAAAAAAAAAIAFpEgEAAAAAABgdbtNOH/BKClgZT8YMPPoqrrR6Ek2lxtk2Of2cSPt/+7AuauNtB8AAAAAAAAAAIAFpEgEAAAAAABgdedMOL/7KClgZccPmNk9yTuq6hpjh9lErj9wbsjruxZDi0QOGWk/AAAAAAAAAAAAC0iRCAAAAAAAwOrOnHBekQiz9LGBc5dO8rGqut+YYTaRqw2c++ZI+08eOHfwSPsBAAAAAAAAAABYQIpEAAAAAAAAVnfWhPOKRJil/0xy6sDZvZO8sqreW1XXHzHTZnDEwLnTR9p/9sC5fUfaDwAAAAAAAAAAwAJSJAIAAAAAALC6Myac33OUFLCC7j4nyasmfOzWST5eVe+rqrtV1W4jRNvorjBwbtLP/6GGFon47wkAAAAAAAAAAACDKRIBAAAAAABY3Q+T9ATz+48VBLbj6Ul+tIbnfjXJPyb5TlX9bVXdsqoW/s8Ql9/H/QaOj1Ukcs7AuT1G2g8AAAAAAAAAAMAC2jrvAAAAAAAAABtdd59bVd9LctDARw4cMw9cVHf/sKr+OMlL1njEvkkevHx9t6remOQfuvvj08q4weyX4T904aFVddoIGWrg3G4j7AYAAAAAAAAAAGBBKRIBAAAAAAAY5psZXiSyb1Vt7e7zxwwE2+ruv62q6yZ50DqPOijJo5I8qqq+kuRVSV7V3d9Zb8YNZN8JZh89VoiBhhaOAAAAAAAAAAAAwOCfsgUAAAAAALCzO3GC2crw0hGYpockefMUzzsiyTOTnFBVr6+q60/x7HnaY94BAAAAAAAAAAAAYAyKRAAAAAAAAIb50oTzR4ySAnaguy9IcrckT0pywRSP3jXJbyf5eFW9taquNMWz52H3eQcAAAAAAAAAAACAMSgSAQAAAAAAGOaTE85fbZQUsIruvrC7n5bkFkk+PcKKOyb5QlX9SVXVCOfPwm7zDgAAAAAAAAAAAABjUCQCAAAAAAAwzCcmnL/qKClgoO7+jyTXS3L3JJ+a8vG7Jnl6krdU1SWmfPYsXDh0sLtrztfhI74OAAAAAAAAAAAALBhFIgAAAAAAAAN098lJTpjgkeuMFAUG6yVv7O7rJblmkuclOXmKK+6Y5O1VtfsUz5yFc4cOVtXWMYMAAAAAAAAAAADANCkSAQAAAAAAGO79E8z+clVdbLQkMKHu/nx3/98khyS5c5J/TnLWFI6+WZJXVVVN4axZGVwkkmTP0VIAAAAAAAAAAADAlCkSAQAAAAAAGO6tE8zukuQmI+WANevu87r7Ld39W0n2T3L3JG9KcuY6jr17kvtMI9+MnD7B7F6jpQAAAAAAAAAAAIApUyQCAAAAAAAw3PsyWdnCr40VBKahu8/o7jd2912zVCpyryTHJOk1HPfMqtp7mvlG9MMJZvccLQUAAAAAAAAAAABMmSIRAAAAAACAgbr7rCTvnuCRu4yVBaatu8/s7td39y2TXCPJOyc84pAkD59+slH8OMkFA2f3HTEHAAAAAAAAAAAATJUiEQAAAAAAgMn83QSzh1fVDUZLMgNVdfuqesM21/7zzsT4uvuL3X37JLdJcsoEj/7OSJGmqrs7yQ8Gjh86ZhYAAAAAAAAAAACYJkUiAAAAAAAAk/m3JF+ZYP5eYwWZkTsmufs2197zjcMsdfe/Jrluki8MfORKVXX5ESNN0zcGzikSAQAAAAAAAAAAYNNQJAIAAAAAADCB7u4kL5rgkftX1T5j5ZmBa887APPV3d9McrskJw985IYjxpmmrw+cu9yoKQAAAAAAAAAAAGCKFIkAAAAAAABM7uVJvjdw9uJJHjxiltFU1S5JrjHvHMzfcpnIfQeOX2HMLFP0pYFzVxs1BQAAAAAAAAAAAEyRIhEAAAAAAIAJdfcZSZ44wSN/UFV7j5VnRFdOsue8Q7AxdPd7knxkwOgBY2eZks8MnLvuqCkAAAAAAAAAAABgihSJAAAAAAAArM3Lk/z3wNmDkjx+xCxjufa8A8zBLvMOsMG9acDMXqOnmI5PD5w7oKp2xs8FAAAAAAAAAAAANiFFIgAAAAAAAGvQ3RcmeXiSCwc+8tiqOny8RKM4ct4Bpmjov6d9Rk0xgqq6WVV9vqo+V1X7jbzuvwbMDH2t56q7T07yxYHjdxozCwAAAAAAAAAAAEyLIhEAAAAAAIA16u4PJXn2wPE9krymqnYZMdK0XXveAabonIFz+46aYhyXSHL1JNdMcs+Rd31/wMzpI2eYpncPnHvgJvvcBQAAAAAAAAAAYCelSAQAAAAAAGB9/l+STw2cvWmSp4yYZdoWqUjkjIFzR44ZYgbuP/L5NWDmpDnuntS/DJw7NOOXtAAAAAAAAAAAAMC6KRIBAAAAAABYh+4+L8ldk3xv4CNPqKoNX0hQVQckOWjeOaZo6L+fXxk1xfiOqqprjnj+/gNmvrqGc3vAzMXWcO5qPpzkuIGzT6uqvUbIAAAAAAAAAAAAAFOjSAQAAAAAAGCduvuEJLdN8pMB41uSvKqq7jBqqPW79rwDTNk3B87dpqoOHDXJ+O4/4tmHDZj5xBrOPX3AzNT/vXR3J/n7geOHJXnutDMAAAAAAAAAAADANCkSAQAAAAAAmILuPjbJHZOcPWB8a5I3VdX9Rg21Pjead4Bp6u6Tk/xgwOiuSZ40cpyx3auqto509q1Xuf+p7j5lDeeeNmDmums4d4iXJDl54OzvVdXDR8oBAAAAAAAAAAAA66ZIBAAAAAAAYEq6+5gkv5rkhwPGd0vyyqp69oilDxOrqr2r6oVJnjzvLCP46MC5h1bVHUdNMq4Dk9xm2odW1SWS3G6VsTes8fjvD5g5oqquucbzt6u7f5rkGRM88sKqeuy0cwAAAAAAAAAAAMA0KBIBAAAAAACYou7+aJIbJTl+4COPS/KJqvrl8VKtrqq2VtVDspT7EUlqnnlG8u6Bc5XkTVX1B1W161qXVdUlq+r2VfXsLBXMzNLvV9UuUz7zCUkuvYP7pyd52RrP/szAuaeu8fzVvCjJJwbOVpI/r6p/qqrLjJQHAAAAAAAAAAAA1kSRCAAAAAAAwJR193FJbpDkTQMfOSpLZSJ/W1WXHy/ZL6qqA6vqT5OckORvkixyMcIbk5w9cHZrkucmOa6qnlZVv1ZVl6uqi1XVlqraq6ouXVWHVtV1lwtDHlRVz66qt1fV15L8KMnbs1QWc9lx3qXtuk2S91TVVPZW1d2S/OEqY0/v7h+vccXQEo//U1VPXuOO7eru85PcO0tlKEPdJcmXq+qpVXXQNHJU1e5Vde2qum9VPWoaZwIAAAAAAAAAALBzqe6edwYAAAAAAICFVVX3TvJXSS458JHzs1R48aok/97dF4yQ6bJJbp+lIoRbJNllgscv390nrHP/MUluvsrYB7v7FuvZs53dL07y0GmfOyVrep+r6vZZKixZyU+SPDvJC7t7kpKMn529a5YKRJ6SpXKV7flYkpt193mT7ljes3+SbyXZbeAj70vynCQf6u5ztjln3yQHJ/mlJFdOco0kn+ruFwzMcXSWXstdh6dPsvR5+/Ek/57ks0mOT/LdJGdkqbxm9yR7LV+XTHLQcs6Dkhye5IrL16H538/Hj3f3DSfMse37MuQPgp/S3U9e6w4AAAAAAAAAAAA2HkUiAAAAAAAAI6uqg5M8Lcn9Mllpx/eTvCPJfyT5j+4+fg2798lSmcI1klw/SwUeV5z0nG1s9iKRg5J8Kck+0z57B/49S/8u77nK3HFJHpbkE939k6GHr1Ik8jM/zlI5zRuSfHK1gpqqOjBLeX8vyRGrnH1Ckpt297eH5N3Bzn9McrcJH+sslaXskmTPrPz59YLufvQEOe6a5DVZKv+Yp4mLRKpqS5KrZulz/eUDHnlvkr9P8uUkx21bygIAAAAAAAAAAMDmpEgEAAAAAABgRqrqakmeleQ313jEGUm+keTrSX6w/Pszk1yQZI/la68kByY5JMnBSQ5YX+pfMLhIpKoOSHKVFa7DkmxZ5fELk3wzSwUHP3d19w/WlPx/c907S0URY/tAkqd39/ur6neSvHTgcxcm+UKS/1y+PpbkK72dP9gbWCSyrdOTHJulj6WTs/QxtFuSS2TpY+eoJIcPPOuLSW7b3SdOsH9FVXXEcq491nvWRUxUJLKc5UZJ3pKl12NeXtHdD9zRQFUdkuSGWSoOuX6S6yS5+Br3XZClUpiLfs59obtPXeOZAAAAAAAAAAAAzJgiEQAAAAAAgBlbLhR5WJL7ZKm8YaM7L0uFFu9N8rzuPnN7g1X1F0lunKXCkEuNlOfULBUcfLS7H7uWA6rqiUmeOtVUS05P8oYkf9vdn9pm328keec6zv3L7b2vaygSmZZXJnlEd58+rQOr6jFJ/mJa5y3b7mu3Spb9kzwvyb2mnGc1n0ny1O5+22qDVXVMkpuPnOdV3X3/kXcAAAAAAAAAAAAwJav9pDcAAAAAAACmrLu/2N0PT3Jwkt9J8o4kZ8031c85Ocm7kzwpya2SXLK7b97dz9hRiciyuyS5UcYrEcny2Tda3rUm3f20JA/O9F73Ty6fd1B3/+62JSLLvrvO87fu4N5XknxinedP4v1JbtrdD5hmiUiSdPdfJnnylI77XpInJPnTNWY5ubvvneRXkrxnSpm256wkr0tyq+6+zpASEQAAAAAAAAAAAFhJdfe8MwAAAAAAAOz0qmqvJL+W5NZJrp/kWkn2GHntWUmOT/KF5evzST7T3Seu9cCqOiHJYVNJt7pvdvfh6zmgqq6Q5GlJ7ppk1wkevSBL5R3/kuSt3f3lVfbsn6VylrV6fXc/d5Udl0lyiyQ3SXKDLH0M7b6Onds6Mcmbk7y6u4+d0pnbVVV3TPKcJFee8NGTk7w3yT8leVd3nzfFTFdL8ttJfivJVadw5ElJPpClj6H3dPcZa8h0/ySHTyHLjhzb3W8deQcAAAAAAAAAAABTokgEAAAAAABgA6qqrUmukaUyiMslOXT510OSXDzJnttcW5Oct811ZpLTtrlOTvK95es7SU5I8o3u/t7M3qENrqoOSPKrSX4lyXWTHJDk0ll6fX+SpdfwS0n+O8nHkny4u386n7TDLH8MXSnJ1ZL8UpIrZulj6MAk+2fp42iPLBWonJfknCy9r99P8u0kX8lSucxHuvv4OeW/TZKjk9x4Ofd+SbZk6WP8B1kqOPlckk8l+XSSr/YM/gC0qg7KUlnLdfK/r+shSS6WZK8sva7nZ6ms57QsvZ4nJfnyct5Pd/cJY+cEAAAAAAAAAABg56NIBAAAAAAAAAAAAAAAAAAAAAAWwJZ5BwAAAAAAAAAAAAAAAAAAAAAA1k+RCAAAAAAAAAAAAAAAAAAAAAAsAEUiAAAAAAAAAAAAAAAAAAAAALAAFIkAAAAAAAAAAAAAAAAAAAAAwAJQJAIAAAAAAAAAAAAAAAAAAAAAC0CRCAAAAAAAAAAAAAAAAAAAAAAsAEUiAAAAAAAAAAAAAAAAAAAAALAAFIkAAAAAAAAAAAAAAAAAAAAAwAJQJAIAAAAAAAAAAAAAAAAAAAAAC0CRCAAAAAAAAAAAAAAAAAAAAAAsAEUiAAAAAAAAAAAAAAAAAAAAALAAFIkAAAAAAAAAAAAAAAAAAAAAwAJQJAIAAAAAAAAAAAAAAAAAAAAAC0CRCAAAAAAAAAAAAAAAAAAAAAAsAEUiAAAAAAAAAAAAAAAAAAAAALAAFIkAAAAAAAAAAAAAAAAAAAAAwAJQJAIAAAAAAAAAAAAAAAAAAAAAC0CRCAAAAAAAAAAAAAAAAAAAAAAsAEUiAAAAAAAAAAAAAAAAAAAAALAAFIkAAAAAAAAAAAAAAAAAAAAAwAJQJAIAAAAAAAAAAAAAAAAAAAAAC0CRCAAAAAAAAAAAAAAAAAAAAAAsAEUiAAAAAAAAAAAAAAAAAAAAALAAFIkAAAAAAAAAAAAAAAAAAAAAwAJQJAIAAAAAAAAAAAAAAAAAAAAAC0CRCAAAAAAAAAAAAAAAAAAAAAAsAEUiAAAAAAAAAAAAAAAAAAAAALAAFIkAAAAAAAAAAAAAAAAAAAAAwAJQJAIAAAAAAAAAAAAAAAAAAAAAC0CRCAAAAAAAAAAAAAAAAAAAAAAsAEUiAAAAAAAAwP9v5w5kAAAAAAb5W9/jK5AAAAAAAAAAAACAAZEIAAAAAAAAAAAAAAAAAAAAAAyIRAAAAAAAAAAAAAAAAAAAAABgQCQCAAAAAAAAAAAAAAAAAAAAAAMiEQAAAAAAAAAAAAAAAAAAAAAYEIkAAAAAAAAAAAAAAAAAAAAAwIBIBAAAAAAAAAAAAAAAAAAAAAAGRCIAAAAAAAAAAAAAAAAAAAAAMCASAQAAAAAAAAAAAAAAAAAAAIABkQgAAAAAAAAAAAAAAAAAAAAADIhEAAAAAAAAAAAAAAAAAAAAAGBAJAIAAAAAAAAAAAAAAAAAAAAAAyIRAAAAAAAAAAAAAAAAAAAAABgQiQAAAAAAAAAAAAAAAAAAAADAgEgEAAAAAAAAAAAAAAAAAAAAAAZEIgAAAAAAAAAAAAAAAAAAAAAwIBIBAAAAAAAAAAAAAAAAAAAAgAGRCAAAAAAAAAAAAAAAAAAAAAAMiEQAAAAAAAAAAAAAAAAAAAAAYEAkAgAAAAAAAAAAAAAAAAAAAAADIhEAAAAAAAAAAAAAAAAAAAAAGBCJAAAAAAAAAAAAAAAAAAAAAMCASAQAAAAAAAAAAAAAAAAAAAAABgIoU3iULebcsQAAAABJRU5ErkJggg==;" vertex="1" parent="1">
          <mxGeometry x="-1640" y="-880" width="1597.77" height="770" as="geometry" />
        </mxCell>
      </root>
    </mxGraphModel>
  </diagram>
</mxfile>
